<?xml version="1.0" standalone="no"?>
<!DOCTYPE svg PUBLIC "-//W3C//DTD SVG 1.1//EN" "http://www.w3.org/Graphics/SVG/1.1/DTD/svg11.dtd">
<svg xmlns="http://www.w3.org/2000/svg" xmlns:xlink="http://www.w3.org/1999/xlink" version="1.1" width="15.499997cm" height="23.80001cm" viewBox="0 0 439.369974 674.646">
<text fill="rgb(35,31,32)" fill-opacity="0" transform="matrix(1,0,0,1,0,674.646)" font-size="9.5" font-family="HJFSIJ+Petersburg-Regular" x="41.1024 47.4294 51.7709 56.8819 61.3279 63.4939 66.039897 75.34039 80.280399 87.3484 92.8014 97.7414 100.2874 105.5314 111.07941 113.625407 117.99541 122.33691 127.409901 132.2359 136.57741 142.03041 147.57841 152.68942 157.62942 162.45543 166.90143 171.32843 175.90743 178.45343 182.88043 187.32643 192.39943 197.33943 202.88744 205.43344 210.37345 215.35144 220.46245 224.90845 229.05995 233.40146 238.82596 243.61396 246.15996 253.19946 257.64547 262.71847 268.26647 272.60798 275.15395 281.48097 285.82244 290.24945 295.18946 300.17694 306.95992 309.50592 315.83291 320.77292 327.8409 333.2939 338.23391 340.7799 346.3279 350.6979 356.1224 361.0624 366.3064 370.8854 375.0369 379.9769 384.8029 389.2489 393.6759 398.2549" y="-633.22 -633.22 -633.22 -633.22 -633.22 -633.22 -633.22 -633.22 -633.22 -633.22 -633.22 -633.22 -633.22 -633.22 -633.22 -633.22 -633.22 -633.22 -633.22 -633.22 -633.22 -633.22 -633.22 -633.22 -633.22 -633.22 -633.22 -633.22 -633.22 -633.22 -633.22 -633.22 -633.22 -633.22 -633.22 -633.22 -633.22 -633.22 -633.22 -633.22 -633.22 -633.22 -633.22 -633.22 -633.22 -633.22 -633.22 -633.22 -633.22 -633.22 -633.22 -633.22 -633.22 -633.22 -633.22 -633.22 -633.22 -633.22 -633.22 -633.22 -633.22 -633.22 -633.22 -633.22 -633.22 -633.22 -633.22 -633.22 -633.22 -633.22 -633.22 -633.22 -633.22 -633.22 -633.22 -633.22">
&#x043c;&#x0435;&#x0440;&#x0430;. &#x041c;&#x043e;&#x0436;&#x043d;&#x043e; &#x043b;&#x0438; &#x0441;&#x0435;&#x043a;&#x0432;&#x0435;&#x043d;&#x0438;&#x0440;&#x043e;&#x0432;&#x0430;&#x0442;&#x044c; &#x0442;&#x0430;&#x043a;&#x043e;&#x0439; &#x043e;&#x0431;&#x0440;&#x0430;&#x0437;&#x0435;&#x0446;? &#x041a;&#x0430;&#x043a;&#x0438;&#x0435; &#x043c;&#x0435;&#x0442;&#x043e;&#x0434;&#x044b; &#x043c;&#x043e;&#x0436;&#x043d;&#x043e; &#x0438;&#x0441;&#x043f;&#x043e;&#x043b;&#x044c;&#x0437;&#x043e;&#x0432;&#x0430;&#x0442;&#x044c; 
</text>
<symbol id="font_0_62"><path d="M 0 .462 L 0 .44000002 L .033 .44000002 C .056 .44000002 .07 .437 .07 .416 L .07 .16800001 C .07 .054 .042999998 .022000002 .020000002 .022000002 L 0 .022000002 L 0 0 L .161 0 L .161 .022000002 L .14500001 .022000002 C .12200001 .022000002 .095 .054 .095 .16800001 L .095 .40300003 L .26700001 0 L .286 0 L .45300003 .40300003 L .45300003 .046000004 C .45300003 .025 .43900004 .022000002 .41700002 .022000002 L .37800003 .022000002 L .37800003 0 L .60400005 0 L .60400005 .022000002 L .565 .022000002 C .543 .022000002 .529 .025 .529 .046000004 L .529 .416 C .529 .437 .543 .44000002 .565 .44000002 L .60400005 .44000002 L .60400005 .462 L .45300003 .462 L .30700005 .11400001 L .15900001 .462 L 0 .462 Z "/>
</symbol><symbol id="font_0_6e"><path d="M .391 .275 C .393 .37800003 .335 .48400002 .21100001 .48400002 C .063999997 .48400002 0 .35600005 0 .23300002 C 0 .094000006 .08600001 0 .21100001 0 C .294 0 .344 .039 .387 .119 L .36900001 .12900001 C .33200002 .058000002 .279 .036000002 .23 .036000002 C .17100002 .036000002 .087 .065000005 .087 .23800002 C .087 .25 .087 .263 .088 .275 L .391 .275 M .088 .29700003 C .10100001 .45100003 .18200001 .46200004 .209 .46200004 C .252 .46200004 .30900002 .43500004 .30900002 .31100002 L .30900002 .29700003 L .088 .29700003 Z "/>
</symbol><symbol id="font_0_74"><path d="M .22600001 0 L .22600001 .022000015 L .187 .022000015 C .165 .022000015 .15100001 .025000006 .15100001 .046000004 L .15100001 .23200002 C .171 .21800001 .20600002 .20300001 .269 .20300001 C .394 .20300001 .48000002 .30900002 .48000002 .44600005 C .48000002 .59000006 .395 .68700004 .275 .68700004 C .223 .68700004 .18100001 .66300006 .15100001 .64000006 L .15100001 .69600006 C .064 .66300006 .016 .65900002 0 .65800005 L 0 .63600006 L .012 .63600006 C .051000008 .63600006 .075 .63400007 .075 .615 L .075 .046000004 C .075 .025000006 .061000004 .022000015 .039000006 .022000015 L 0 .022000015 L 0 0 L .22600001 0 M .15100001 .614 C .17700002 .643 .21300002 .653 .24800001 .653 C .359 .653 .393 .546 .393 .444 C .393 .30800004 .334 .22500003 .258 .22500003 C .18 .22500003 .15100001 .27300003 .15100001 .29500003 L .15100001 .614 Z "/>
</symbol><symbol id="font_0_6a"><path d="M .273 .28700004 C .15100001 .26400004 0 .22300002 0 .09900001 C 0 .049000001 .033000005 0 .106000009 0 C .177 0 .23000002 .035 .273 .087000008 C .273 .05 .28800002 0 .344 0 C .39900003 0 .421 .043 .43 .069000006 L .40800003 .078 C .40100003 .056 .38700003 .039 .37100003 .039 C .352 .039 .349 .060000001 .349 .078 L .349 .33900002 C .349 .37300003 .345 .48400002 .16 .48400002 C .066 .48400002 .022 .441 .022 .39800004 C .022 .37100003 .038 .35000003 .065 .35000003 C .09 .35000003 .11 .365 .11 .39400003 C .11 .40100003 .107999999 .40800003 .10700001 .41500001 C .106000009 .42000003 .105000007 .42600003 .105000007 .43100003 C .105000007 .44500003 .118 .46200004 .163 .46200004 C .27400003 .46200004 .273 .381 .273 .33900002 L .273 .28700004 M .273 .116000007 C .24000001 .078 .19500001 .039 .149 .039 C .107999999 .039 .087 .071 .087 .115 C .087 .17600002 .12100001 .23600002 .273 .26500001 L .273 .116000007 Z "/>
</symbol><symbol id="font_0_a"><path d="M 0 .054 C 0 .024 .024000004 0 .054000006 0 C .08400001 0 .10800001 .024 .10800001 .054 C .10800001 .08400001 .08400001 .108 .054000006 .108 C .024000004 .108 0 .08400001 0 .054 Z "/>
</symbol><symbol id="font_0_1"><path d="M 0 0 Z "/>
</symbol><symbol id="font_0_66"><path d="M 0 .70000005 L 0 .67200003 L .051000008 .67200003 C .067 .67200003 .089 .671 .089 .62200003 L .089 .298 C .089 .16700001 .08400001 .028 .019000001 .028 L 0 .028 L 0 0 L .21600002 0 L .21600002 .028 L .19300002 .028 C .128 .028 .12300001 .16700001 .12300001 .298 L .12300001 .63100005 L .39000001 0 L .416 0 L .673 .611 L .673 .07300001 C .673 .029000001 .648 .028 .635 .028 L .57800007 .028 L .57800007 0 L .86 0 L .86 .028 L .8030001 .028 C .7900001 .028 .765 .029000001 .765 .07300001 L .765 .62700005 C .765 .671 .7900001 .67200003 .8030001 .67200003 L .86 .67200003 L .86 .70000005 L .6780001 .70000005 L .43900004 .13700001 L .20200002 .70000005 L 0 .70000005 Z "/>
</symbol><symbol id="font_0_77"><path d="M 0 .24200001 C 0 .123 .067 0 .22400002 0 C .381 0 .448 .123 .448 .24200001 C .448 .36100004 .381 .48400002 .22400002 .48400002 C .067 .48400002 0 .36100004 0 .24200001 M .087 .24200001 C .087 .43400002 .17500001 .46200004 .22400002 .46200004 C .273 .46200004 .361 .43400002 .361 .24200001 C .361 .05 .273 .022000002 .22400002 .022000002 C .17500001 .022000002 .087 .05 .087 .24200001 Z "/>
</symbol><symbol id="font_0_65"><path d="M .238 .47300001 L .238 .45100003 L .277 .45100003 C .29400004 .45100003 .31300002 .45100003 .31300002 .42700001 L .31300002 .27 L .291 .27 C .24900002 .27 .22800002 .29700003 .19300002 .37600003 C .165 .441 .13900002 .48400002 .082 .48400002 C .041 .48400002 .023000002 .45800004 .023000002 .43600002 C .023000002 .41300002 .037 .39200001 .06 .39200001 C .073 .39200001 .095 .39600003 .102 .42700001 C .104 .43500004 .10700001 .44900003 .119 .44900003 C .143 .44900003 .15400002 .38900004 .16700001 .351 C .17800002 .321 .19800002 .27100003 .256 .259 L .256 .25500002 C .187 .24800003 .14000001 .20500002 .10700001 .14200002 C .081 .091000004 .074 .039 .046 .039 C .036000002 .039 .021000002 .048 .023000002 .082 L .0010000002 .082 C 0 .041 .02 0 .068 0 C .12900001 0 .16200002 .061 .187 .115 C .23700002 .22300002 .24900002 .24800003 .30800004 .24800003 L .31300002 .24800003 L .31300002 .057000003 C .31300002 .033000005 .29400004 .033000005 .277 .033000005 L .238 .033000005 L .238 .011000001 L .46400003 .011000001 L .46400003 .033000005 L .425 .033000005 C .40800003 .033000005 .38900004 .033000005 .38900004 .057000003 L .38900004 .24800003 L .39400003 .24800003 C .45300003 .24800003 .46500004 .22300002 .515 .115 C .54 .061 .573 0 .634 0 C .682 0 .702 .041 .70100003 .082 L .679 .082 C .681 .048 .666 .039 .656 .039 C .628 .039 .621 .091000004 .595 .14200002 C .562 .20500002 .515 .24800003 .446 .25500002 L .446 .259 C .504 .27100003 .524 .321 .535 .351 C .548 .38900004 .559 .44900003 .583 .44900003 C .595 .44900003 .598 .43500004 .6 .42700001 C .607 .39600003 .629 .39200001 .642 .39200001 C .665 .39200001 .679 .41300002 .679 .43600002 C .679 .45800004 .661 .48400002 .62 .48400002 C .563 .48400002 .537 .441 .509 .37600003 C .47400003 .29700003 .45300003 .27 .411 .27 L .38900004 .27 L .38900004 .42700001 C .38900004 .45100003 .40800003 .45100003 .425 .45100003 L .46400003 .45100003 L .46400003 .47300001 L .238 .47300001 Z "/>
</symbol><symbol id="font_0_6b"><path d="M .35900002 .24700001 L .35900002 .046000004 C .35900002 .025 .345 .022000002 .323 .022000002 L .294 .022000002 L .294 0 L .51000004 0 L .51000004 .022000002 L .47100001 .022000002 C .44900003 .022000002 .435 .025 .435 .046000004 L .435 .416 C .435 .437 .44900003 .44000002 .47100001 .44000002 L .51000004 .44000002 L .51000004 .462 L .294 .462 L .294 .44000002 L .323 .44000002 C .345 .44000002 .35900002 .437 .35900002 .416 L .35900002 .26900003 L .15100001 .26900003 L .15100001 .416 C .15100001 .437 .165 .44000002 .187 .44000002 L .215 .44000002 L .215 .462 L 0 .462 L 0 .44000002 L .039 .44000002 C .061 .44000002 .075 .437 .075 .416 L .075 .046000004 C .075 .025 .061 .022000002 .039 .022000002 L 0 .022000002 L 0 0 L .215 0 L .215 .022000002 L .187 .022000002 C .165 .022000002 .15100001 .025 .15100001 .046000004 L .15100001 .24700001 L .35900002 .24700001 Z "/>
</symbol><symbol id="font_0_71"><path d="M .282 .011000001 L .508 .011000001 L .508 .033000005 L .46900005 .033000005 C .44700003 .033000005 .43300004 .036000002 .43300004 .057000003 L .43300004 .42700001 C .43300004 .448 .44700003 .45100003 .46900005 .45100003 L .508 .45100003 L .508 .47300001 L .108 .47300001 L .108 .45100003 L .14500001 .45100003 C .18100001 .45100003 .20200002 .44400005 .20200002 .40200005 C .20200002 .36100004 .17800002 .21700002 .17100002 .18100001 C .14900002 .071 .124000009 .038000002 .104 .038000002 C .098000002 .038000002 .089 .040000004 .087000008 .053000002 C .086 .057000003 .087000008 .061 .087000008 .065000005 C .088 .093 .068 .108 .045 .108 C .023 .108 0 .092 0 .059 C 0 .019000001 .032000006 0 .07 0 C .16200002 0 .18900001 .10300001 .21400002 .27600003 C .24200001 .46800003 .24300003 .45100003 .30800004 .45100003 L .33400002 .45100003 C .342 .45100003 .35700002 .45200003 .35700002 .42700001 L .35700002 .057000003 C .35700002 .036000002 .34300003 .033000005 .321 .033000005 L .282 .033000005 L .282 .011000001 Z "/>
</symbol><symbol id="font_0_72"><path d="M 0 0 L .216 0 L .216 .022000002 L .187 .022000002 C .165 .022000002 .15100001 .024 .15100001 .046000004 L .15100001 .07700001 L .36900001 .35500002 L .36900001 .046000004 C .36900001 .025 .35500002 .022000002 .333 .022000002 L .30400003 .022000002 L .30400003 0 L .52000003 0 L .52000003 .022000002 L .481 .022000002 C .45900002 .022000002 .44500003 .025 .44500003 .046000004 L .44500003 .416 C .44500003 .437 .45900002 .44000002 .481 .44000002 L .52000003 .44000002 L .52000003 .462 L .30400003 .462 L .30400003 .44000002 L .333 .44000002 C .35500002 .44000002 .36900001 .437 .36900001 .416 L .36900001 .39000001 L .15100001 .11400001 L .15100001 .416 C .15100001 .437 .165 .44000002 .187 .44000002 L .216 .44000002 L .216 .462 L 0 .462 L 0 .44000002 L .039 .44000002 C .061 .44000002 .075 .437 .075 .416 L .075 .046000004 C .075 .025 .061 .022000002 .039 .022000002 L 0 .022000002 L 0 0 Z "/>
</symbol><symbol id="font_0_6d"><path d="M .374 .14700002 C .36 .1 .318 .033000005 .23400001 .033000005 C .14500001 .033000005 .087 .113000009 .087 .23600002 C .087 .33800004 .12300001 .46200004 .22600003 .46200004 C .264 .46200004 .281 .44300003 .281 .42700001 C .281 .41900004 .276 .404 .276 .39000001 C .276 .35900002 .304 .34600001 .322 .34600001 C .347 .34600001 .37 .365 .37 .39800004 C .37 .44900003 .314 .48400002 .23100002 .48400002 C .07700001 .48400002 0 .36300004 0 .23600002 C 0 .089 .087 0 .20700002 0 C .328 0 .37800003 .087000008 .394 .14200002 L .374 .14700002 Z "/>
</symbol><symbol id="font_0_76"><path d="M 0 .47300001 L 0 .45100003 L .039 .45100003 C .061 .45100003 .075 .448 .075 .42700001 L .075 .057000003 C .075 .036000002 .061 .033000005 .039 .033000005 L 0 .033000005 L 0 .011000001 L .22600001 .011000001 L .22600001 .033000005 L .187 .033000005 C .165 .033000005 .15100001 .036000002 .15100001 .057000003 L .15100001 .24800003 L .17300001 .24800003 C .232 .24800003 .24400002 .22300002 .294 .115 C .319 .061 .352 0 .41300002 0 C .46100002 0 .481 .041 .48000002 .082 L .458 .082 C .46 .048 .44500003 .039 .435 .039 C .407 .039 .4 .091000004 .374 .14200002 C .34100003 .20500002 .294 .24800003 .225 .25500002 L .225 .259 C .3 .27400003 .31800003 .34000004 .33400002 .39100004 C .34100003 .41400004 .35300002 .44900003 .372 .44900003 C .384 .44900003 .38700003 .43500004 .38900004 .42700001 C .39600003 .39600003 .418 .39200001 .43100003 .39200001 C .45000001 .39200001 .468 .40800003 .468 .43600002 C .468 .46600003 .44300003 .48400002 .409 .48400002 C .36 .48400002 .326 .45300003 .292 .37600003 C .26000002 .30400003 .238 .27 .19000001 .27 L .15100001 .27 L .15100001 .42700001 C .15100001 .448 .165 .45100003 .187 .45100003 L .22600001 .45100003 L .22600001 .47300001 L 0 .47300001 Z "/>
</symbol><symbol id="font_0_63"><path d="M 0 0 L .245 0 C .41200004 0 .43400002 .08800001 .43400002 .13100001 C .43400002 .21700001 .347 .24200001 .303 .246 L .303 .25 C .337 .254 .41500001 .27400003 .41500001 .349 C .41500001 .397 .388 .462 .25800002 .462 L 0 .462 L 0 .44000002 L .039 .44000002 C .061 .44000002 .075 .437 .075 .416 L .075 .046000004 C .075 .025 .061 .022000002 .039 .022000002 L 0 .022000002 L 0 0 M .15100001 .26000002 L .15100001 .42800003 C .172 .43600002 .19000001 .44000002 .216 .44000002 C .24200001 .44000002 .335 .44000002 .335 .35200003 C .335 .29200003 .292 .26000002 .229 .26000002 L .15100001 .26000002 M .15100001 .238 L .225 .238 C .263 .238 .347 .22900002 .347 .13000001 C .347 .051000004 .285 .022000002 .216 .022000002 C .191 .022000002 .171 .027 .15100001 .037 L .15100001 .238 Z "/>
</symbol><symbol id="font_0_75"><path d="M 0 .462 L 0 .34 L .025000003 .34 L .025000003 .36400003 C .025000003 .41200004 .10000001 .44000002 .13900002 .44000002 C .164 .44000002 .16700001 .42600003 .16700001 .41700002 L .16700001 .046000004 C .16700001 .025 .15300001 .022000002 .13100001 .022000002 L .09200001 .022000002 L .09200001 0 L .31800003 0 L .31800003 .022000002 L .279 .022000002 C .25700002 .022000002 .24300003 .025 .24300003 .046000004 L .24300003 .41700002 C .24300003 .42600003 .24600002 .44000002 .27100003 .44000002 C .31000004 .44000002 .38500002 .41200004 .38500002 .36400003 L .38500002 .34 L .41000004 .34 L .41000004 .462 L 0 .462 Z "/>
</symbol><symbol id="font_0_8c"><path d="M .15100001 .416 C .15100001 .437 .165 .44000002 .187 .44000002 L .22600001 .44000002 L .22600001 .462 L 0 .462 L 0 .44000002 L .039 .44000002 C .061 .44000002 .075 .437 .075 .416 L .075 .046000004 C .075 .025 .061 .022000002 .039 .022000002 L 0 .022000002 L 0 0 L .243 0 C .365 0 .418 .067 .418 .13900002 C .418 .209 .374 .28100003 .23500002 .28100003 C .21100001 .28100003 .18200001 .279 .15100001 .273 L .15100001 .416 M .15100001 .25100003 C .169 .25500002 .19000001 .259 .209 .259 C .26900003 .259 .331 .23500002 .331 .142 C .331 .072000003 .29000001 .022000002 .21100001 .022000002 C .18800001 .022000002 .168 .029000001 .15100001 .037 L .15100001 .25100003 Z "/>
</symbol><symbol id="font_0_7e"><path d="M 0 0 L .216 0 L .216 .022000002 L .187 .022000002 C .165 .022000002 .15100001 .024 .15100001 .046000004 L .15100001 .07700001 L .36900001 .35500002 L .36900001 .046000004 C .36900001 .025 .35500002 .022000002 .333 .022000002 L .30400003 .022000002 L .30400003 0 L .52000003 0 L .52000003 .022000002 L .481 .022000002 C .45900002 .022000002 .44500003 .025 .44500003 .046000004 L .44500003 .416 C .44500003 .437 .45900002 .44000002 .481 .44000002 L .52000003 .44000002 L .52000003 .462 L .30400003 .462 L .30400003 .44000002 L .333 .44000002 C .35500002 .44000002 .36900001 .437 .36900001 .416 L .36900001 .39000001 L .15100001 .11400001 L .15100001 .416 C .15100001 .437 .165 .44000002 .187 .44000002 L .216 .44000002 L .216 .462 L 0 .462 L 0 .44000002 L .039 .44000002 C .061 .44000002 .075 .437 .075 .416 L .075 .046000004 C .075 .025 .061 .022000002 .039 .022000002 L 0 .022000002 L 0 0 M .26000002 .535 C .347 .535 .40800003 .592 .40800003 .64900007 C .40800003 .68 .388 .70000005 .36 .70000005 C .337 .70000005 .32000003 .68100005 .32000003 .656 C .32000003 .642 .32900003 .63100005 .33600002 .62200003 C .34100003 .61600008 .344 .609 .344 .59800005 C .344 .58000002 .316 .55700007 .26000002 .55700007 C .20400001 .55700007 .176 .58000002 .176 .59800005 C .176 .609 .179 .61600008 .184 .62200003 C .191 .63100005 .2 .642 .2 .656 C .2 .68100005 .183 .70000005 .16 .70000005 C .132 .70000005 .112 .68 .112 .64900007 C .112 .592 .17300001 .535 .26000002 .535 Z "/>
</symbol><symbol id="font_0_73"><path d="M .033000005 .323 C .043 .549 .149 .592 .246 .628 C .317 .65500002 .423 .686 .409 .791 L .389 .791 C .39000001 .771 .38 .764 .359 .755 C .30200003 .73 .246 .716 .21800001 .704 C .066 .64 0 .45400004 0 .24200001 C 0 .19600001 .015000001 0 .22600003 0 C .447 0 .45200003 .21900001 .45200003 .24200001 C .45200003 .38300002 .359 .48400002 .22600003 .48400002 C .105000007 .48400002 .059000005 .38400004 .044000005 .323 L .033000005 .323 M .228 .022000002 C .091000004 .022000002 .087 .18800001 .087 .24200001 C .087 .29500003 .09300001 .46200004 .228 .46200004 C .361 .46200004 .365 .293 .365 .24200001 C .365 .19100001 .361 .022000002 .228 .022000002 Z "/>
</symbol><symbol id="font_0_8f"><path d="M .033 .47300001 L .022000002 .34700003 L .047000007 .34700003 L .049000001 .36300004 C .056 .41900004 .12300001 .46200004 .18800001 .46200004 C .255 .46200004 .279 .41700002 .279 .37200003 C .279 .28100003 .20500002 .279 .17400001 .279 C .15400002 .279 .13800001 .28100003 .118 .28500004 L .118 .24700003 C .134 .252 .149 .25500002 .171 .25500002 C .27 .25500002 .286 .18600002 .286 .14500001 C .286 .081 .24800001 .022000002 .17 .022000002 C .10700001 .022000002 .079 .044 .079 .063 C .079 .07000001 .083000002 .076000004 .08500001 .083000002 C .087000008 .09 .08800001 .096 .08800001 .10300001 C .08800001 .13300002 .067 .15000002 .043000007 .15000002 C .012 .15000002 0 .123 0 .095000009 C 0 .059 .041 0 .16900002 0 C .22200002 0 .373 .013000001 .373 .14200002 C .373 .23900002 .291 .26400004 .242 .26400004 L .242 .27100003 C .305 .275 .359 .31300002 .359 .374 C .359 .42400003 .318 .48400002 .19500001 .48400002 C .142 .48400002 .10000001 .47300001 .056 .45000001 L .058000007 .47300001 L .033 .47300001 Z "/>
</symbol><symbol id="font_0_64"><path d="M .507 .14400001 L .468 .14400001 C .446 .14400001 .432 .14700002 .432 .16800001 L .432 .538 C .432 .559 .446 .56200004 .468 .56200004 L .507 .56200004 L .507 .584 L .29000001 .584 L .29000001 .56200004 L .32000003 .56200004 C .342 .56200004 .356 .559 .356 .538 L .356 .16800001 C .356 .14700002 .342 .14400001 .32000003 .14400001 L .187 .14400001 C .165 .14400001 .15100001 .14700002 .15100001 .16800001 L .15100001 .538 C .15100001 .559 .165 .56200004 .187 .56200004 L .21700001 .56200004 L .21700001 .584 L 0 .584 L 0 .56200004 L .039 .56200004 C .061 .56200004 .075 .559 .075 .538 L .075 .16800001 C .075 .14700002 .061 .14400001 .039 .14400001 L 0 .14400001 L 0 .12200001 L .30200003 .12200001 C .36600004 .12200001 .482 .08900001 .482 .031000004 L .482 0 L .507 0 L .507 .14400001 Z "/>
</symbol><symbol id="font_0_1a"><path d="M .16600001 .155 L .16600001 .21000001 C .16600001 .26200003 .21200001 .29400004 .26900003 .33500004 C .32900003 .37800003 .38400004 .422 .38400004 .51600004 C .38400004 .64500003 .29900003 .72900005 .15900001 .72900005 C .057000003 .72900005 0 .666 0 .612 C 0 .57600003 .024000004 .558 .050000005 .558 C .07100001 .558 .10000001 .569 .10000001 .6 C .10000001 .609 .10000001 .61800004 .097 .62700005 C .09400001 .637 .088 .646 .088 .65500002 C .088 .67300005 .120000004 .70100003 .17 .70100003 C .282 .70100003 .31500004 .61800004 .31500004 .563 C .31500004 .47000003 .243 .425 .199 .385 C .15300001 .343 .13800001 .30800004 .13800001 .274 L .13800001 .155 L .16600001 .155 M .098000002 .054 C .098000002 .024 .12200001 0 .15200001 0 C .18200001 0 .206 .024 .206 .054 C .206 .08400001 .18200001 .108 .15200001 .108 C .12200001 .108 .098000002 .08400001 .098000002 .054 Z "/>
</symbol><symbol id="font_0_7b"><path d="M .187 .407 L .187 .64100004 C .187 .685 .21200001 .68600007 .22500003 .68600007 L .282 .68600007 L .282 .71400004 L 0 .71400004 L 0 .68600007 L .057000003 .68600007 C .07000001 .68600007 .095 .685 .095 .64100004 L .095 .087000008 C .095 .043 .07000001 .042000003 .057000003 .042000003 L 0 .042000003 L 0 .014 L .282 .014 L .282 .042000003 L .22500003 .042000003 C .21200001 .042000003 .187 .043 .187 .087000008 L .187 .379 L .227 .379 C .31800003 .379 .34500003 .28800002 .397 .18800001 C .451 .085 .488 0 .577 0 C .62600003 0 .6550001 .029000001 .6600001 .087000008 L .633 .087000008 C .6320001 .07 .6240001 .043 .604 .043 C .57500005 .043 .56200004 .086 .54200006 .13100001 C .49600001 .238 .438 .36900001 .291 .38900004 L .291 .39400003 C .35900002 .41300002 .40700003 .469 .45200005 .59400006 C .465 .63000007 .48700003 .689 .515 .689 C .52400007 .689 .525 .68 .525 .675 C .525 .67 .52400007 .666 .52400007 .661 C .52400007 .63500004 .54200006 .61200004 .572 .61200004 C .599 .61200004 .6240001 .63100005 .6240001 .665 C .6240001 .70100003 .59800005 .72800007 .553 .72800007 C .46800003 .72800007 .42600003 .64500003 .38700003 .568 C .31100002 .41900004 .282 .407 .227 .407 L .187 .407 Z "/>
</symbol><symbol id="font_0_78"><path d="M .080000009 .584 L .080000009 .56200004 L .113000009 .56200004 C .13200002 .56200004 .16900002 .561 .16900002 .517 C .16900002 .441 .10000001 .14400001 .021 .14400001 L 0 .14400001 L 0 0 L .025 0 L .025 .031000004 C .025 .067 .06300001 .12200001 .17000002 .12200001 L .275 .12200001 C .363 .12200001 .455 .08100001 .455 .031000004 L .455 0 L .48000002 0 L .48000002 .14400001 L .43600002 .14400001 C .409 .14400001 .40000005 .15 .40000005 .17000002 L .40000005 .538 C .40000005 .559 .41400004 .56200004 .43600002 .56200004 L .47500001 .56200004 L .47500001 .584 L .080000009 .584 M .32400003 .17300001 C .32400003 .164 .326 .14400001 .291 .14400001 L .165 .14400001 C .15 .14400001 .113000009 .142 .113000009 .17400001 C .113000009 .23300001 .14700002 .21600002 .19000001 .45700002 C .20700002 .549 .20800002 .56200004 .256 .56200004 L .286 .56200004 C .32000003 .56200004 .32400003 .549 .32400003 .533 L .32400003 .17300001 Z "/>
</symbol><symbol id="font_0_80"><path d="M .15100001 .416 C .15100001 .437 .165 .44000002 .187 .44000002 L .22600001 .44000002 L .22600001 .462 L 0 .462 L 0 .44000002 L .039 .44000002 C .061 .44000002 .075 .437 .075 .416 L .075 .046000004 C .075 .025 .061 .022000002 .039 .022000002 L 0 .022000002 L 0 0 L .243 0 C .365 0 .418 .067 .418 .13900002 C .418 .209 .374 .28100003 .23500002 .28100003 C .21100001 .28100003 .18200001 .279 .15100001 .273 L .15100001 .416 M .15100001 .25100003 C .169 .25500002 .19000001 .259 .209 .259 C .26900003 .259 .331 .23500002 .331 .142 C .331 .072000003 .29000001 .022000002 .21100001 .022000002 C .18800001 .022000002 .168 .029000001 .15100001 .037 L .15100001 .25100003 M .499 .046000004 C .499 .025 .485 .022000002 .46300002 .022000002 L .42400003 .022000002 L .42400003 0 L .65000005 0 L .65000005 .022000002 L .611 .022000002 C .58900004 .022000002 .57500005 .025 .57500005 .046000004 L .57500005 .416 C .57500005 .437 .58900004 .44000002 .611 .44000002 L .65000005 .44000002 L .65000005 .462 L .42400003 .462 L .42400003 .44000002 L .46300002 .44000002 C .485 .44000002 .499 .437 .499 .416 L .499 .046000004 Z "/>
</symbol><symbol id="font_0_68"><path d="M 0 .462 L 0 .44000002 L .039 .44000002 C .061 .44000002 .075 .437 .075 .416 L .075 .046000004 C .075 .025 .061 .022000002 .039 .022000002 L 0 .022000002 L 0 0 L .216 0 L .216 .022000002 L .187 .022000002 C .165 .022000002 .15100001 .025 .15100001 .046000004 L .15100001 .416 C .15100001 .437 .165 .44000002 .187 .44000002 L .32000003 .44000002 C .342 .44000002 .356 .437 .356 .416 L .356 .046000004 C .356 .025 .342 .022000002 .32000003 .022000002 L .291 .022000002 L .291 0 L .507 0 L .507 .022000002 L .468 .022000002 C .446 .022000002 .432 .025 .432 .046000004 L .432 .416 C .432 .437 .446 .44000002 .468 .44000002 L .507 .44000002 L .507 .462 L 0 .462 Z "/>
</symbol><use xlink:href="#font_0_62" transform="matrix(9.5,0,0,-9.5,41.3969,41.426025)" fill="rgb(35,31,32)"/>
<use xlink:href="#font_0_6e" transform="matrix(9.5,0,0,-9.5,47.7714,41.530527)" fill="rgb(35,31,32)"/>
<use xlink:href="#font_0_74" transform="matrix(9.5,0,0,-9.5,51.9799,43.459028)" fill="rgb(35,31,32)"/>
<use xlink:href="#font_0_6a" transform="matrix(9.5,0,0,-9.5,57.1859,41.530527)" fill="rgb(35,31,32)"/>
<use xlink:href="#font_0_a" transform="matrix(9.5,0,0,-9.5,61.8979,41.568528)" fill="rgb(35,31,32)"/>
<use xlink:href="#font_0_1" transform="matrix(9.5,0,0,-9.5,63.4939,41.426025)" fill="rgb(35,31,32)"/>
<use xlink:href="#font_0_66" transform="matrix(9.5,0,0,-9.5,66.67639,41.426025)" fill="rgb(35,31,32)"/>
<use xlink:href="#font_0_77" transform="matrix(9.5,0,0,-9.5,75.682397,41.530527)" fill="rgb(35,31,32)"/>
<use xlink:href="#font_0_65" transform="matrix(9.5,0,0,-9.5,80.4799,41.530527)" fill="rgb(35,31,32)"/>
<use xlink:href="#font_0_6b" transform="matrix(9.5,0,0,-9.5,87.6524,41.426025)" fill="rgb(35,31,32)"/>
<use xlink:href="#font_0_77" transform="matrix(9.5,0,0,-9.5,93.1434,41.530527)" fill="rgb(35,31,32)"/>
<use xlink:href="#font_0_1" transform="matrix(9.5,0,0,-9.5,97.7414,41.426025)" fill="rgb(35,31,32)"/>
<use xlink:href="#font_0_71" transform="matrix(9.5,0,0,-9.5,100.4014,41.530527)" fill="rgb(35,31,32)"/>
<use xlink:href="#font_0_72" transform="matrix(9.5,0,0,-9.5,105.8354,41.426025)" fill="rgb(35,31,32)"/>
<use xlink:href="#font_0_1" transform="matrix(9.5,0,0,-9.5,111.07941,41.426025)" fill="rgb(35,31,32)"/>
<use xlink:href="#font_0_6d" transform="matrix(9.5,0,0,-9.5,113.96741,41.530527)" fill="rgb(35,31,32)"/>
<use xlink:href="#font_0_6e" transform="matrix(9.5,0,0,-9.5,118.33741,41.530527)" fill="rgb(35,31,32)"/>
<use xlink:href="#font_0_76" transform="matrix(9.5,0,0,-9.5,122.64091,41.530527)" fill="rgb(35,31,32)"/>
<use xlink:href="#font_0_63" transform="matrix(9.5,0,0,-9.5,127.713909,41.426025)" fill="rgb(35,31,32)"/>
<use xlink:href="#font_0_6e" transform="matrix(9.5,0,0,-9.5,132.5779,41.530527)" fill="rgb(35,31,32)"/>
<use xlink:href="#font_0_6b" transform="matrix(9.5,0,0,-9.5,136.88141,41.426025)" fill="rgb(35,31,32)"/>
<use xlink:href="#font_0_72" transform="matrix(9.5,0,0,-9.5,142.33441,41.426025)" fill="rgb(35,31,32)"/>
<use xlink:href="#font_0_74" transform="matrix(9.5,0,0,-9.5,147.78742,43.459028)" fill="rgb(35,31,32)"/>
<use xlink:href="#font_0_77" transform="matrix(9.5,0,0,-9.5,153.03142,41.530527)" fill="rgb(35,31,32)"/>
<use xlink:href="#font_0_63" transform="matrix(9.5,0,0,-9.5,157.93343,41.426025)" fill="rgb(35,31,32)"/>
<use xlink:href="#font_0_6a" transform="matrix(9.5,0,0,-9.5,162.75943,41.530527)" fill="rgb(35,31,32)"/>
<use xlink:href="#font_0_75" transform="matrix(9.5,0,0,-9.5,167.16743,41.426025)" fill="rgb(35,31,32)"/>
<use xlink:href="#font_0_8c" transform="matrix(9.5,0,0,-9.5,171.63243,41.426025)" fill="rgb(35,31,32)"/>
<use xlink:href="#font_0_1" transform="matrix(9.5,0,0,-9.5,175.90743,41.426025)" fill="rgb(35,31,32)"/>
<use xlink:href="#font_0_75" transform="matrix(9.5,0,0,-9.5,178.71944,41.426025)" fill="rgb(35,31,32)"/>
<use xlink:href="#font_0_6a" transform="matrix(9.5,0,0,-9.5,183.18444,41.530527)" fill="rgb(35,31,32)"/>
<use xlink:href="#font_0_76" transform="matrix(9.5,0,0,-9.5,187.63043,41.530527)" fill="rgb(35,31,32)"/>
<use xlink:href="#font_0_77" transform="matrix(9.5,0,0,-9.5,192.74142,41.530527)" fill="rgb(35,31,32)"/>
<use xlink:href="#font_0_7e" transform="matrix(9.5,0,0,-9.5,197.64343,41.426025)" fill="rgb(35,31,32)"/>
<use xlink:href="#font_0_1" transform="matrix(9.5,0,0,-9.5,202.88744,41.426025)" fill="rgb(35,31,32)"/>
<use xlink:href="#font_0_77" transform="matrix(9.5,0,0,-9.5,205.77543,41.530527)" fill="rgb(35,31,32)"/>
<use xlink:href="#font_0_73" transform="matrix(9.5,0,0,-9.5,210.71544,41.530527)" fill="rgb(35,31,32)"/>
<use xlink:href="#font_0_74" transform="matrix(9.5,0,0,-9.5,215.56044,43.459028)" fill="rgb(35,31,32)"/>
<use xlink:href="#font_0_6a" transform="matrix(9.5,0,0,-9.5,220.76645,41.530527)" fill="rgb(35,31,32)"/>
<use xlink:href="#font_0_8f" transform="matrix(9.5,0,0,-9.5,225.11745,41.530527)" fill="rgb(35,31,32)"/>
<use xlink:href="#font_0_6e" transform="matrix(9.5,0,0,-9.5,229.40195,41.530527)" fill="rgb(35,31,32)"/>
<use xlink:href="#font_0_64" transform="matrix(9.5,0,0,-9.5,233.70546,42.585025)" fill="rgb(35,31,32)"/>
<use xlink:href="#font_0_1a" transform="matrix(9.5,0,0,-9.5,239.39596,41.568528)" fill="rgb(35,31,32)"/>
<use xlink:href="#font_0_1" transform="matrix(9.5,0,0,-9.5,243.61396,41.426025)" fill="rgb(35,31,32)"/>
<use xlink:href="#font_0_7b" transform="matrix(9.5,0,0,-9.5,246.79647,41.559024)" fill="rgb(35,31,32)"/>
<use xlink:href="#font_0_6a" transform="matrix(9.5,0,0,-9.5,253.50347,41.530527)" fill="rgb(35,31,32)"/>
<use xlink:href="#font_0_76" transform="matrix(9.5,0,0,-9.5,257.94945,41.530527)" fill="rgb(35,31,32)"/>
<use xlink:href="#font_0_72" transform="matrix(9.5,0,0,-9.5,263.02245,41.426025)" fill="rgb(35,31,32)"/>
<use xlink:href="#font_0_6e" transform="matrix(9.5,0,0,-9.5,268.6085,41.530527)" fill="rgb(35,31,32)"/>
<use xlink:href="#font_0_1" transform="matrix(9.5,0,0,-9.5,272.60798,41.426025)" fill="rgb(35,31,32)"/>
<use xlink:href="#font_0_62" transform="matrix(9.5,0,0,-9.5,275.44845,41.426025)" fill="rgb(35,31,32)"/>
<use xlink:href="#font_0_6e" transform="matrix(9.5,0,0,-9.5,281.82297,41.530527)" fill="rgb(35,31,32)"/>
<use xlink:href="#font_0_75" transform="matrix(9.5,0,0,-9.5,286.08845,41.426025)" fill="rgb(35,31,32)"/>
<use xlink:href="#font_0_77" transform="matrix(9.5,0,0,-9.5,290.59145,41.530527)" fill="rgb(35,31,32)"/>
<use xlink:href="#font_0_78" transform="matrix(9.5,0,0,-9.5,295.32244,42.585025)" fill="rgb(35,31,32)"/>
<use xlink:href="#font_0_80" transform="matrix(9.5,0,0,-9.5,300.48092,41.426025)" fill="rgb(35,31,32)"/>
<use xlink:href="#font_0_1" transform="matrix(9.5,0,0,-9.5,306.95992,41.426025)" fill="rgb(35,31,32)"/>
<use xlink:href="#font_0_62" transform="matrix(9.5,0,0,-9.5,309.8004,41.426025)" fill="rgb(35,31,32)"/>
<use xlink:href="#font_0_77" transform="matrix(9.5,0,0,-9.5,316.17492,41.530527)" fill="rgb(35,31,32)"/>
<use xlink:href="#font_0_65" transform="matrix(9.5,0,0,-9.5,320.9724,41.530527)" fill="rgb(35,31,32)"/>
<use xlink:href="#font_0_6b" transform="matrix(9.5,0,0,-9.5,328.1449,41.426025)" fill="rgb(35,31,32)"/>
<use xlink:href="#font_0_77" transform="matrix(9.5,0,0,-9.5,333.63593,41.530527)" fill="rgb(35,31,32)"/>
<use xlink:href="#font_0_1" transform="matrix(9.5,0,0,-9.5,338.23391,41.426025)" fill="rgb(35,31,32)"/>
<use xlink:href="#font_0_72" transform="matrix(9.5,0,0,-9.5,341.0839,41.426025)" fill="rgb(35,31,32)"/>
<use xlink:href="#font_0_6d" transform="matrix(9.5,0,0,-9.5,346.66992,41.530527)" fill="rgb(35,31,32)"/>
<use xlink:href="#font_0_68" transform="matrix(9.5,0,0,-9.5,351.0019,41.426025)" fill="rgb(35,31,32)"/>
<use xlink:href="#font_0_77" transform="matrix(9.5,0,0,-9.5,356.46441,41.530527)" fill="rgb(35,31,32)"/>
<use xlink:href="#font_0_71" transform="matrix(9.5,0,0,-9.5,361.17642,41.530527)" fill="rgb(35,31,32)"/>
<use xlink:href="#font_0_8c" transform="matrix(9.5,0,0,-9.5,366.61039,41.426025)" fill="rgb(35,31,32)"/>
<use xlink:href="#font_0_8f" transform="matrix(9.5,0,0,-9.5,371.09442,41.530527)" fill="rgb(35,31,32)"/>
<use xlink:href="#font_0_77" transform="matrix(9.5,0,0,-9.5,375.3789,41.530527)" fill="rgb(35,31,32)"/>
<use xlink:href="#font_0_63" transform="matrix(9.5,0,0,-9.5,380.28089,41.426025)" fill="rgb(35,31,32)"/>
<use xlink:href="#font_0_6a" transform="matrix(9.5,0,0,-9.5,385.10687,41.530527)" fill="rgb(35,31,32)"/>
<use xlink:href="#font_0_75" transform="matrix(9.5,0,0,-9.5,389.5149,41.426025)" fill="rgb(35,31,32)"/>
<use xlink:href="#font_0_8c" transform="matrix(9.5,0,0,-9.5,393.9799,41.426025)" fill="rgb(35,31,32)"/>
<use xlink:href="#font_0_1" transform="matrix(9.5,0,0,-9.5,398.2549,41.426025)" fill="rgb(35,31,32)"/>
<text fill="rgb(35,31,32)" fill-opacity="0" transform="matrix(1,0,0,1,0,674.646)" font-size="9.5" font-family="HJFSIJ+Petersburg-Regular" x="41.1024 46.0899 51.3339 56.406904 58.620405 64.04491 68.98491 73.97241 77.924419 82.86442 87.29142 92.23142 97.05742 102.13042 107.67842 109.89192 115.31642 120.256423 125.24393 130.18393 135.16193 140.61493 145.55493 149.50693 154.44693 156.66043 161.60044 166.57843 171.68944 176.13544 180.28694 185.71144 190.15744 192.37094 197.44394 199.65744 204.02744 208.36894 213.44194 218.26795 222.60945 228.06245 233.61046 238.72147 243.66147 248.48748 252.93347 258.38647 263.93447 271.09747" y="-621.22 -621.22 -621.22 -621.22 -621.22 -621.22 -621.22 -621.22 -621.22 -621.22 -621.22 -621.22 -621.22 -621.22 -621.22 -621.22 -621.22 -621.22 -621.22 -621.22 -621.22 -621.22 -621.22 -621.22 -621.22 -621.22 -621.22 -621.22 -621.22 -621.22 -621.22 -621.22 -621.22 -621.22 -621.22 -621.22 -621.22 -621.22 -621.22 -621.22 -621.22 -621.22 -621.22 -621.22 -621.22 -621.22 -621.22 -621.22 -621.22 -621.22">
&#x0434;&#x043b;&#x044f; &#x043f;&#x043e;&#x0434;&#x0433;&#x043e;&#x0442;&#x043e;&#x0432;&#x043a;&#x0438; &#x043f;&#x043e;&#x0434;&#x043e;&#x0431;&#x043d;&#x043e;&#x0433;&#x043e; &#x043e;&#x0431;&#x0440;&#x0430;&#x0437;&#x0446;&#x0430; &#x043a; &#x0441;&#x0435;&#x043a;&#x0432;&#x0435;&#x043d;&#x0438;&#x0440;&#x043e;&#x0432;&#x0430;&#x043d;&#x0438;&#x044e;?
</text>
<symbol id="font_0_79"><path d="M .271 .47300001 C .216 .47300001 .066 .47400003 .066 .34800003 C .066 .25500002 .168 .23300002 .221 .23300002 L .254 .23300002 L .254 .22800002 C .18900001 .22000001 .133 .17200002 .097 .113000009 C .067 .063 .062000003 .037 .040000004 .037 C .024 .037 .024 .054 .024 .060000001 L .024 .069000006 L .0029999996 .069000006 C 0 .005000001 .045 0 .064 0 C .118 0 .154 .058000002 .191 .12100001 C .222 .17400001 .257 .23300002 .342 .23100002 L .342 .057000003 C .342 .036000002 .328 .033000005 .30600002 .033000005 L .26700001 .033000005 L .26700001 .011000001 L .49300004 .011000001 L .49300004 .033000005 L .45400004 .033000005 C .432 .033000005 .418 .036000002 .418 .057000003 L .418 .42700001 C .418 .448 .432 .45100003 .45400004 .45100003 L .49300004 .45100003 L .49300004 .47300001 L .271 .47300001 M .342 .25300003 C .323 .25 .301 .24900002 .27600003 .24900002 C .229 .24900002 .146 .261 .146 .344 C .146 .411 .193 .45100003 .263 .45100003 C .285 .45100003 .31300002 .44900003 .342 .43700004 L .342 .25300003 Z "/>
</symbol><symbol id="font_0_70"><path d="M 0 0 L .236 0 L .236 .022000002 L .187 .022000002 C .165 .022000002 .15100001 .025 .15100001 .046000004 L .15100001 .416 C .15100001 .441 .16700001 .44000002 .17400001 .44000002 L .186 .44000002 C .331 .44000002 .347 .37600003 .347 .34800003 L .347 .33900002 L .372 .33900002 L .372 .462 L 0 .462 L 0 .44000002 L .039 .44000002 C .061 .44000002 .075 .437 .075 .416 L .075 .046000004 C .075 .025 .061 .022000002 .039 .022000002 L 0 .022000002 L 0 0 Z "/>
</symbol><symbol id="font_0_9a"><path d="M .15100001 .28000002 L .15100001 .42700001 C .15100001 .448 .165 .45100003 .187 .45100003 L .22600001 .45100003 L .22600001 .47300001 L 0 .47300001 L 0 .45100003 L .039 .45100003 C .061 .45100003 .075 .448 .075 .42700001 L .075 .057000003 C .075 .036000002 .061 .033000005 .039 .033000005 L 0 .033000005 L 0 .011000001 L .22600001 .011000001 L .22600001 .033000005 L .187 .033000005 C .165 .033000005 .15100001 .036000002 .15100001 .057000003 L .15100001 .25800002 L .238 .25800002 C .236 .13200002 .29700003 0 .462 0 C .619 0 .68600007 .124000009 .68600007 .24200001 C .68600007 .36 .619 .48400002 .462 .48400002 C .316 .48400002 .24900002 .37500003 .24000001 .28000002 L .15100001 .28000002 M .32500003 .24200001 C .32500003 .43300004 .41200004 .46200004 .462 .46200004 C .512 .46200004 .59900003 .43400002 .59900003 .24200001 C .59900003 .05 .512 .022000002 .462 .022000002 C .41200004 .022000002 .32500003 .051000004 .32500003 .24200001 Z "/>
</symbol><use xlink:href="#font_0_78" transform="matrix(9.5,0,0,-9.5,41.2354,54.585027)" fill="rgb(35,31,32)"/>
<use xlink:href="#font_0_71" transform="matrix(9.5,0,0,-9.5,46.2039,53.530527)" fill="rgb(35,31,32)"/>
<use xlink:href="#font_0_79" transform="matrix(9.5,0,0,-9.5,51.4194,53.530527)" fill="rgb(35,31,32)"/>
<use xlink:href="#font_0_1" transform="matrix(9.5,0,0,-9.5,56.406904,53.426027)" fill="rgb(35,31,32)"/>
<use xlink:href="#font_0_68" transform="matrix(9.5,0,0,-9.5,58.924404,53.426027)" fill="rgb(35,31,32)"/>
<use xlink:href="#font_0_77" transform="matrix(9.5,0,0,-9.5,64.38691,53.530527)" fill="rgb(35,31,32)"/>
<use xlink:href="#font_0_78" transform="matrix(9.5,0,0,-9.5,69.11791,54.585027)" fill="rgb(35,31,32)"/>
<use xlink:href="#font_0_70" transform="matrix(9.5,0,0,-9.5,74.27641,53.426027)" fill="rgb(35,31,32)"/>
<use xlink:href="#font_0_77" transform="matrix(9.5,0,0,-9.5,78.26642,53.530527)" fill="rgb(35,31,32)"/>
<use xlink:href="#font_0_75" transform="matrix(9.5,0,0,-9.5,83.13042,53.426027)" fill="rgb(35,31,32)"/>
<use xlink:href="#font_0_77" transform="matrix(9.5,0,0,-9.5,87.6334275,53.530527)" fill="rgb(35,31,32)"/>
<use xlink:href="#font_0_63" transform="matrix(9.5,0,0,-9.5,92.53542,53.426027)" fill="rgb(35,31,32)"/>
<use xlink:href="#font_0_76" transform="matrix(9.5,0,0,-9.5,97.36142,53.530527)" fill="rgb(35,31,32)"/>
<use xlink:href="#font_0_72" transform="matrix(9.5,0,0,-9.5,102.43442,53.426027)" fill="rgb(35,31,32)"/>
<use xlink:href="#font_0_1" transform="matrix(9.5,0,0,-9.5,107.67842,53.426027)" fill="rgb(35,31,32)"/>
<use xlink:href="#font_0_68" transform="matrix(9.5,0,0,-9.5,110.19592,53.426027)" fill="rgb(35,31,32)"/>
<use xlink:href="#font_0_77" transform="matrix(9.5,0,0,-9.5,115.658426,53.530527)" fill="rgb(35,31,32)"/>
<use xlink:href="#font_0_78" transform="matrix(9.5,0,0,-9.5,120.38943,54.585027)" fill="rgb(35,31,32)"/>
<use xlink:href="#font_0_77" transform="matrix(9.5,0,0,-9.5,125.58593,53.530527)" fill="rgb(35,31,32)"/>
<use xlink:href="#font_0_73" transform="matrix(9.5,0,0,-9.5,130.52593,53.530527)" fill="rgb(35,31,32)"/>
<use xlink:href="#font_0_6b" transform="matrix(9.5,0,0,-9.5,135.46593,53.426027)" fill="rgb(35,31,32)"/>
<use xlink:href="#font_0_77" transform="matrix(9.5,0,0,-9.5,140.95693,53.530527)" fill="rgb(35,31,32)"/>
<use xlink:href="#font_0_70" transform="matrix(9.5,0,0,-9.5,145.85894,53.426027)" fill="rgb(35,31,32)"/>
<use xlink:href="#font_0_77" transform="matrix(9.5,0,0,-9.5,149.84892,53.530527)" fill="rgb(35,31,32)"/>
<use xlink:href="#font_0_1" transform="matrix(9.5,0,0,-9.5,154.44693,53.426027)" fill="rgb(35,31,32)"/>
<use xlink:href="#font_0_77" transform="matrix(9.5,0,0,-9.5,157.00243,53.530527)" fill="rgb(35,31,32)"/>
<use xlink:href="#font_0_73" transform="matrix(9.5,0,0,-9.5,161.94243,53.530527)" fill="rgb(35,31,32)"/>
<use xlink:href="#font_0_74" transform="matrix(9.5,0,0,-9.5,166.78743,55.459028)" fill="rgb(35,31,32)"/>
<use xlink:href="#font_0_6a" transform="matrix(9.5,0,0,-9.5,171.99344,53.530527)" fill="rgb(35,31,32)"/>
<use xlink:href="#font_0_8f" transform="matrix(9.5,0,0,-9.5,176.34444,53.530527)" fill="rgb(35,31,32)"/>
<use xlink:href="#font_0_64" transform="matrix(9.5,0,0,-9.5,180.59094,54.585027)" fill="rgb(35,31,32)"/>
<use xlink:href="#font_0_6a" transform="matrix(9.5,0,0,-9.5,186.01544,53.530527)" fill="rgb(35,31,32)"/>
<use xlink:href="#font_0_1" transform="matrix(9.5,0,0,-9.5,190.15744,53.426027)" fill="rgb(35,31,32)"/>
<use xlink:href="#font_0_76" transform="matrix(9.5,0,0,-9.5,192.67494,53.530527)" fill="rgb(35,31,32)"/>
<use xlink:href="#font_0_1" transform="matrix(9.5,0,0,-9.5,197.44394,53.426027)" fill="rgb(35,31,32)"/>
<use xlink:href="#font_0_6d" transform="matrix(9.5,0,0,-9.5,199.99943,53.530527)" fill="rgb(35,31,32)"/>
<use xlink:href="#font_0_6e" transform="matrix(9.5,0,0,-9.5,204.36943,53.530527)" fill="rgb(35,31,32)"/>
<use xlink:href="#font_0_76" transform="matrix(9.5,0,0,-9.5,208.67294,53.530527)" fill="rgb(35,31,32)"/>
<use xlink:href="#font_0_63" transform="matrix(9.5,0,0,-9.5,213.74594,53.426027)" fill="rgb(35,31,32)"/>
<use xlink:href="#font_0_6e" transform="matrix(9.5,0,0,-9.5,218.60994,53.530527)" fill="rgb(35,31,32)"/>
<use xlink:href="#font_0_6b" transform="matrix(9.5,0,0,-9.5,222.91345,53.426027)" fill="rgb(35,31,32)"/>
<use xlink:href="#font_0_72" transform="matrix(9.5,0,0,-9.5,228.36645,53.426027)" fill="rgb(35,31,32)"/>
<use xlink:href="#font_0_74" transform="matrix(9.5,0,0,-9.5,233.81946,55.459028)" fill="rgb(35,31,32)"/>
<use xlink:href="#font_0_77" transform="matrix(9.5,0,0,-9.5,239.06346,53.530527)" fill="rgb(35,31,32)"/>
<use xlink:href="#font_0_63" transform="matrix(9.5,0,0,-9.5,243.96547,53.426027)" fill="rgb(35,31,32)"/>
<use xlink:href="#font_0_6a" transform="matrix(9.5,0,0,-9.5,248.79147,53.530527)" fill="rgb(35,31,32)"/>
<use xlink:href="#font_0_6b" transform="matrix(9.5,0,0,-9.5,253.23747,53.426027)" fill="rgb(35,31,32)"/>
<use xlink:href="#font_0_72" transform="matrix(9.5,0,0,-9.5,258.69046,53.426027)" fill="rgb(35,31,32)"/>
<use xlink:href="#font_0_9a" transform="matrix(9.5,0,0,-9.5,264.23846,53.530527)" fill="rgb(35,31,32)"/>
<use xlink:href="#font_0_1a" transform="matrix(9.5,0,0,-9.5,271.66749,53.568529)" fill="rgb(35,31,32)"/>
<text fill="rgb(35,31,32)" fill-opacity="0" transform="matrix(1,0,0,1,0,674.646)" font-size="9.5" font-family="ZFHWAZ+Petersburg-Bold" x="55.2756 60.272603 63.2746" y="-609.92 -609.92 -609.92">
3. 
</text>
<symbol id="font_1_b"><path d="M .10900001 .37 C .13000001 .377 .15500002 .38300002 .17700002 .38300002 C .29700003 .38300002 .30900002 .27400003 .30900002 .21100001 C .30900002 .128 .282 .038000002 .20100002 .038000002 C .15200001 .038000002 .14400001 .067 .14400001 .076000004 C .14400001 .086 .14800002 .097 .15100001 .107 C .15500002 .119 .157 .13000001 .157 .142 C .157 .185 .12400001 .21900001 .076000004 .21900001 C .033000005 .21900001 0 .184 0 .13800001 C 0 .082 .047000003 0 .20800002 0 C .337 0 .45200003 .07 .45200003 .208 C .45200003 .365 .32000003 .393 .28300002 .398 L .28300002 .404 C .37300003 .414 .43600002 .47700004 .43600002 .56200004 C .43600002 .662 .34600001 .72800007 .21300002 .72800007 C .069000006 .72800007 .028 .657 .028 .60800005 C .028 .565 .054 .52900005 .098000002 .52900005 C .142 .52900005 .17300001 .559 .17300001 .59800005 C .17300001 .606 .17300001 .614 .17100002 .62200003 C .16900002 .63000007 .16700001 .638 .16700001 .646 C .16700001 .656 .16900002 .69000006 .20700002 .69000006 C .245 .69000006 .293 .666 .293 .564 C .293 .42800003 .21200001 .421 .18 .421 C .15500002 .421 .13300002 .42400003 .10900001 .43300004 L .10900001 .37 Z "/>
</symbol><symbol id="font_1_6"><path d="M 0 .078 C 0 .034 .034 0 .078 0 C .122 0 .15600002 .034 .15600002 .078 C .15600002 .122 .122 .156 .078 .156 C .034 .156 0 .122 0 .078 Z "/>
</symbol><symbol id="font_1_1"><path d="M 0 0 Z "/>
</symbol><use xlink:href="#font_1_b" transform="matrix(9.5,0,0,-9.5,55.5416,64.85902)" fill="rgb(35,31,32)"/>
<use xlink:href="#font_1_6" transform="matrix(9.5,0,0,-9.5,61.0326,64.85902)" fill="rgb(35,31,32)"/>
<use xlink:href="#font_1_1" transform="matrix(9.5,0,0,-9.5,63.2746,64.72601)" fill="rgb(35,31,32)"/>
<text fill="rgb(35,31,32)" fill-opacity="0" transform="matrix(1,0,0,1,0,674.646)" font-size="9.5" font-family="HJFSIJ+Petersburg-Regular" x="70.1024 78.1489 82.6044 85.9389 91.192408 96.74991 101.12941 105.56591 109.91691 113.25141 118.33391 122.789409 127.909901 132.3464 137.2959 144.2594 148.6104 153.86389 158.9464 162.2809 167.2304 172.2179 177.68039 182.1359 187.2564 192.28189 199.35939 204.91689 210.17038 215.72788 219.06238 224.52487 228.87587 233.95837 239.07887 244.02836 248.18936 250.36487 253.69937 260.50137 265.96387 270.41936 275.67287 281.23038 285.3914 288.7259 293.10537 296.43987 301.87388 306.82335 313.15985 318.10935 325.77584 330.36435 337.53684 340.87134 345.30783 349.65885 354.03834 358.47483 361.90432 366.2838 371.8413 376.2208 380.6573 385.0083 391.3448 398.1278" y="-609.92 -609.92 -609.92 -609.92 -609.92 -609.92 -609.92 -609.92 -609.92 -609.92 -609.92 -609.92 -609.92 -609.92 -609.92 -609.92 -609.92 -609.92 -609.92 -609.92 -609.92 -609.92 -609.92 -609.92 -609.92 -609.92 -609.92 -609.92 -609.92 -609.92 -609.92 -609.92 -609.92 -609.92 -609.92 -609.92 -609.92 -609.92 -609.92 -609.92 -609.92 -609.92 -609.92 -609.92 -609.92 -609.92 -609.92 -609.92 -609.92 -609.92 -609.92 -609.92 -609.92 -609.92 -609.92 -609.92 -609.92 -609.92 -609.92 -609.92 -609.92 -609.92 -609.92 -609.92 -609.92 -609.92 -609.92 -609.92">
&#x041d;&#x0430; &#x043b;&#x0438;&#x0441;&#x0442;&#x0435; &#x043a;&#x0430;&#x0440;&#x0442;&#x043e;&#x0444;&#x0435;&#x043b;&#x044f; &#x043e;&#x0431;&#x043d;&#x0430;&#x0440;&#x0443;&#x0436;&#x0438;&#x043b;&#x0438; &#x043d;&#x0435;&#x043a;&#x0440;&#x043e;&#x0437;. &#x0410;&#x043d;&#x0430;&#x043b;&#x0438;&#x0437; &#x0441; &#x043f;&#x043e;&#x043c;&#x043e;&#x0449;&#x044c;&#x044e; &#x0442;&#x0435;&#x0441;&#x0442;-&#x0441;&#x0438;&#x0441;&#x0442;&#x0435;&#x043c;&#x044b; 
</text>
<symbol id="font_0_81"><path d="M .187 .379 L .187 .62700005 C .187 .671 .21200001 .67200003 .22500003 .67200003 L .282 .67200003 L .282 .70000005 L 0 .70000005 L 0 .67200003 L .057000003 .67200003 C .07000001 .67200003 .095 .671 .095 .62700005 L .095 .07300001 C .095 .029000001 .07000001 .028 .057000003 .028 L 0 .028 L 0 0 L .282 0 L .282 .028 L .22500003 .028 C .21200001 .028 .187 .029000001 .187 .07300001 L .187 .351 L .5400001 .351 L .5400001 .07300001 C .5400001 .029000001 .515 .028 .502 .028 L .44500003 .028 L .44500003 0 L .727 0 L .727 .028 L .6700001 .028 C .65700007 .028 .6320001 .029000001 .6320001 .07300001 L .6320001 .62700005 C .6320001 .671 .65700007 .67200003 .6700001 .67200003 L .727 .67200003 L .727 .70000005 L .44500003 .70000005 L .44500003 .67200003 L .502 .67200003 C .515 .67200003 .5400001 .671 .5400001 .62700005 L .5400001 .379 L .187 .379 Z "/>
</symbol><symbol id="font_0_67"><path d="M .44300003 0 L .44300003 .022000015 L .404 .022000015 C .382 .022000015 .368 .025000006 .368 .046000004 L .368 .23000002 C .394 .21100001 .421 .20300001 .45900002 .20300001 C .56200004 .20300001 .66 .28800002 .66 .45400004 C .66 .584 .589 .68700004 .458 .68700004 C .42900001 .68700004 .39900003 .684 .368 .66 L .368 .934 C .281 .901 .23300002 .897000112 .21700002 .896 L .21700002 .8740001 L .22900002 .8740001 C .268 .8740001 .292 .8720001 .292 .85300007 L .292 .66 C .261 .684 .23100002 .68700004 .202 .68700004 C .07100001 .68700004 0 .584 0 .45400004 C 0 .28800002 .098000002 .20300001 .20100002 .20300001 C .23900001 .20300001 .266 .21100001 .292 .23000002 L .292 .046000004 C .292 .025000006 .278 .022000015 .256 .022000015 L .21700002 .022000015 L .21700002 0 L .44300003 0 M .368 .59400006 C .373 .61300002 .393 .6650001 .455 .6650001 C .533 .6650001 .573 .579 .573 .453 C .573 .34300003 .546 .22500003 .45200003 .22500003 C .41300002 .22500003 .38500002 .24400002 .368 .261 L .368 .59400006 M .292 .59400006 L .292 .261 C .275 .24400002 .24700003 .22500003 .20800002 .22500003 C .11400001 .22500003 .087 .34300003 .087 .453 C .087 .579 .127 .6650001 .20500002 .6650001 C .267 .6650001 .287 .61300002 .292 .59400006 Z "/>
</symbol><symbol id="font_0_69"><path d="M .5 .686 L .328 .686 L .328 .66400004 L .35500002 .66400004 C .38400004 .66400004 .386 .643 .386 .633 C .386 .61300002 .38000002 .571 .32700003 .42300005 L .28500004 .307 L .15 .628 C .148 .633 .135 .66400004 .172 .66400004 L .20600002 .66400004 L .20600002 .686 L 0 .686 L 0 .66400004 L .020000002 .66400004 C .056 .66400004 .068 .643 .07400001 .628 L .24800003 .216 L .22300002 .151 C .19300002 .074 .15500002 .036 .127 .036 C .10300001 .036 .105000007 .060000001 .102000009 .076000004 C .101 .083000002 .094000006 .113 .056 .113 C .027 .113 .013 .09 .013 .066 C .013 .030000001 .046000004 0 .094000006 0 C .18 0 .224 .08400001 .24700001 .143 L .38000002 .47900004 C .425 .59300004 .441 .66400004 .485 .66400004 L .5 .66400004 L .5 .686 Z "/>
</symbol><symbol id="font_0_88"><path d="M .426 .273 L .47600003 .133 C .488 .09900001 .498 .076000004 .498 .057000003 C .498 .031000002 .479 .028 .458 .028 L .418 .028 L .418 0 L .674 0 L .674 .028 L .65200009 .028 C .60200005 .028 .59000006 .069000006 .58300009 .089 L .358 .71400004 L .326 .71400004 L .16300002 .273 C .081 .051000004 .044 .028 .019000001 .028 L 0 .028 L 0 0 L .20300001 0 L .20300001 .028 L .16300002 .028 C .14700002 .028 .134 .047000003 .134 .074 C .134 .102000009 .14700002 .132 .176 .21100001 L .199 .273 L .426 .273 M .20900002 .30100003 L .313 .58900004 L .41700002 .30100003 L .20900002 .30100003 Z "/>
</symbol><symbol id="font_0_98"><path d="M .409 .538 C .409 .559 .423 .56200004 .44500003 .56200004 L .473 .56200004 L .473 .584 L .26900003 .584 L .26900003 .56200004 L .29700003 .56200004 C .319 .56200004 .333 .559 .333 .538 L .333 .16800001 C .333 .14700002 .319 .14400001 .29700003 .14400001 L .187 .14400001 C .165 .14400001 .15100001 .14700002 .15100001 .16800001 L .15100001 .538 C .15100001 .559 .165 .56200004 .187 .56200004 L .215 .56200004 L .215 .584 L 0 .584 L 0 .56200004 L .039 .56200004 C .061 .56200004 .075 .559 .075 .538 L .075 .16800001 C .075 .14700002 .061 .14400001 .039 .14400001 L 0 .14400001 L 0 .12200001 L .537 .12200001 C .601 .12200001 .717 .08900001 .717 .031000004 L .717 0 L .74200006 0 L .74200006 .14400001 L .703 .14400001 C .68100005 .14400001 .66700006 .14700002 .66700006 .16800001 L .66700006 .538 C .66700006 .559 .68100005 .56200004 .703 .56200004 L .74200006 .56200004 L .74200006 .584 L .527 .584 L .527 .56200004 L .555 .56200004 C .577 .56200004 .591 .559 .591 .538 L .591 .16800001 C .591 .14700002 .577 .14400001 .555 .14400001 L .44500003 .14400001 C .423 .14400001 .409 .14700002 .409 .16800001 L .409 .538 Z "/>
</symbol><symbol id="font_0_9"><path d="M .24000001 .060000019 L 0 .060000019 L 0 0 L .24000001 0 L .24000001 .060000019 Z "/>
</symbol><use xlink:href="#font_0_81" transform="matrix(9.5,0,0,-9.5,70.7389,64.72601)" fill="rgb(35,31,32)"/>
<use xlink:href="#font_0_6a" transform="matrix(9.5,0,0,-9.5,78.4529,64.83051)" fill="rgb(35,31,32)"/>
<use xlink:href="#font_0_1" transform="matrix(9.5,0,0,-9.5,82.6044,64.72601)" fill="rgb(35,31,32)"/>
<use xlink:href="#font_0_71" transform="matrix(9.5,0,0,-9.5,86.0529,64.83051)" fill="rgb(35,31,32)"/>
<use xlink:href="#font_0_72" transform="matrix(9.5,0,0,-9.5,91.49641,64.72601)" fill="rgb(35,31,32)"/>
<use xlink:href="#font_0_6d" transform="matrix(9.5,0,0,-9.5,97.09191,64.83051)" fill="rgb(35,31,32)"/>
<use xlink:href="#font_0_75" transform="matrix(9.5,0,0,-9.5,101.39541,64.72601)" fill="rgb(35,31,32)"/>
<use xlink:href="#font_0_6e" transform="matrix(9.5,0,0,-9.5,105.90791,64.83051)" fill="rgb(35,31,32)"/>
<use xlink:href="#font_0_1" transform="matrix(9.5,0,0,-9.5,109.91691,64.72601)" fill="rgb(35,31,32)"/>
<use xlink:href="#font_0_76" transform="matrix(9.5,0,0,-9.5,113.55541,64.83051)" fill="rgb(35,31,32)"/>
<use xlink:href="#font_0_6a" transform="matrix(9.5,0,0,-9.5,118.63791,64.83051)" fill="rgb(35,31,32)"/>
<use xlink:href="#font_0_74" transform="matrix(9.5,0,0,-9.5,122.998409,66.75901)" fill="rgb(35,31,32)"/>
<use xlink:href="#font_0_75" transform="matrix(9.5,0,0,-9.5,128.1759,64.72601)" fill="rgb(35,31,32)"/>
<use xlink:href="#font_0_77" transform="matrix(9.5,0,0,-9.5,132.6884,64.83051)" fill="rgb(35,31,32)"/>
<use xlink:href="#font_0_67" transform="matrix(9.5,0,0,-9.5,137.6379,66.75901)" fill="rgb(35,31,32)"/>
<use xlink:href="#font_0_6e" transform="matrix(9.5,0,0,-9.5,144.6014,64.83051)" fill="rgb(35,31,32)"/>
<use xlink:href="#font_0_71" transform="matrix(9.5,0,0,-9.5,148.7244,64.83051)" fill="rgb(35,31,32)"/>
<use xlink:href="#font_0_79" transform="matrix(9.5,0,0,-9.5,153.94938,64.83051)" fill="rgb(35,31,32)"/>
<use xlink:href="#font_0_1" transform="matrix(9.5,0,0,-9.5,158.9464,64.72601)" fill="rgb(35,31,32)"/>
<use xlink:href="#font_0_77" transform="matrix(9.5,0,0,-9.5,162.6229,64.83051)" fill="rgb(35,31,32)"/>
<use xlink:href="#font_0_73" transform="matrix(9.5,0,0,-9.5,167.57239,64.83051)" fill="rgb(35,31,32)"/>
<use xlink:href="#font_0_6b" transform="matrix(9.5,0,0,-9.5,172.5219,64.72601)" fill="rgb(35,31,32)"/>
<use xlink:href="#font_0_6a" transform="matrix(9.5,0,0,-9.5,177.98439,64.83051)" fill="rgb(35,31,32)"/>
<use xlink:href="#font_0_74" transform="matrix(9.5,0,0,-9.5,182.3449,66.75901)" fill="rgb(35,31,32)"/>
<use xlink:href="#font_0_69" transform="matrix(9.5,0,0,-9.5,187.38939,66.85401)" fill="rgb(35,31,32)"/>
<use xlink:href="#font_0_65" transform="matrix(9.5,0,0,-9.5,192.48138,64.83051)" fill="rgb(35,31,32)"/>
<use xlink:href="#font_0_72" transform="matrix(9.5,0,0,-9.5,199.66339,64.72601)" fill="rgb(35,31,32)"/>
<use xlink:href="#font_0_71" transform="matrix(9.5,0,0,-9.5,205.03088,64.83051)" fill="rgb(35,31,32)"/>
<use xlink:href="#font_0_72" transform="matrix(9.5,0,0,-9.5,210.47438,64.72601)" fill="rgb(35,31,32)"/>
<use xlink:href="#font_0_1" transform="matrix(9.5,0,0,-9.5,215.72788,64.72601)" fill="rgb(35,31,32)"/>
<use xlink:href="#font_0_6b" transform="matrix(9.5,0,0,-9.5,219.36638,64.72601)" fill="rgb(35,31,32)"/>
<use xlink:href="#font_0_6e" transform="matrix(9.5,0,0,-9.5,224.86687,64.83051)" fill="rgb(35,31,32)"/>
<use xlink:href="#font_0_76" transform="matrix(9.5,0,0,-9.5,229.17987,64.83051)" fill="rgb(35,31,32)"/>
<use xlink:href="#font_0_74" transform="matrix(9.5,0,0,-9.5,234.16737,66.75901)" fill="rgb(35,31,32)"/>
<use xlink:href="#font_0_77" transform="matrix(9.5,0,0,-9.5,239.42087,64.83051)" fill="rgb(35,31,32)"/>
<use xlink:href="#font_0_8f" transform="matrix(9.5,0,0,-9.5,244.23736,64.83051)" fill="rgb(35,31,32)"/>
<use xlink:href="#font_0_a" transform="matrix(9.5,0,0,-9.5,248.75937,64.868517)" fill="rgb(35,31,32)"/>
<use xlink:href="#font_0_1" transform="matrix(9.5,0,0,-9.5,250.36487,64.72601)" fill="rgb(35,31,32)"/>
<use xlink:href="#font_0_88" transform="matrix(9.5,0,0,-9.5,254.02237,64.72601)" fill="rgb(35,31,32)"/>
<use xlink:href="#font_0_6b" transform="matrix(9.5,0,0,-9.5,260.80535,64.72601)" fill="rgb(35,31,32)"/>
<use xlink:href="#font_0_6a" transform="matrix(9.5,0,0,-9.5,266.26785,64.83051)" fill="rgb(35,31,32)"/>
<use xlink:href="#font_0_71" transform="matrix(9.5,0,0,-9.5,270.5334,64.83051)" fill="rgb(35,31,32)"/>
<use xlink:href="#font_0_72" transform="matrix(9.5,0,0,-9.5,275.97688,64.72601)" fill="rgb(35,31,32)"/>
<use xlink:href="#font_0_8f" transform="matrix(9.5,0,0,-9.5,281.4394,64.83051)" fill="rgb(35,31,32)"/>
<use xlink:href="#font_0_1" transform="matrix(9.5,0,0,-9.5,285.3914,64.72601)" fill="rgb(35,31,32)"/>
<use xlink:href="#font_0_6d" transform="matrix(9.5,0,0,-9.5,289.0679,64.83051)" fill="rgb(35,31,32)"/>
<use xlink:href="#font_0_1" transform="matrix(9.5,0,0,-9.5,293.10537,64.72601)" fill="rgb(35,31,32)"/>
<use xlink:href="#font_0_68" transform="matrix(9.5,0,0,-9.5,296.74387,64.72601)" fill="rgb(35,31,32)"/>
<use xlink:href="#font_0_77" transform="matrix(9.5,0,0,-9.5,302.21589,64.83051)" fill="rgb(35,31,32)"/>
<use xlink:href="#font_0_62" transform="matrix(9.5,0,0,-9.5,307.11785,64.72601)" fill="rgb(35,31,32)"/>
<use xlink:href="#font_0_77" transform="matrix(9.5,0,0,-9.5,313.50186,64.83051)" fill="rgb(35,31,32)"/>
<use xlink:href="#font_0_98" transform="matrix(9.5,0,0,-9.5,318.41333,65.88501)" fill="rgb(35,31,32)"/>
<use xlink:href="#font_0_8c" transform="matrix(9.5,0,0,-9.5,326.07983,64.72601)" fill="rgb(35,31,32)"/>
<use xlink:href="#font_0_9a" transform="matrix(9.5,0,0,-9.5,330.66834,64.83051)" fill="rgb(35,31,32)"/>
<use xlink:href="#font_0_1" transform="matrix(9.5,0,0,-9.5,337.53684,64.72601)" fill="rgb(35,31,32)"/>
<use xlink:href="#font_0_75" transform="matrix(9.5,0,0,-9.5,341.13732,64.72601)" fill="rgb(35,31,32)"/>
<use xlink:href="#font_0_6e" transform="matrix(9.5,0,0,-9.5,345.64984,64.83051)" fill="rgb(35,31,32)"/>
<use xlink:href="#font_0_6d" transform="matrix(9.5,0,0,-9.5,350.00086,64.83051)" fill="rgb(35,31,32)"/>
<use xlink:href="#font_0_75" transform="matrix(9.5,0,0,-9.5,354.30432,64.72601)" fill="rgb(35,31,32)"/>
<use xlink:href="#font_0_9" transform="matrix(9.5,0,0,-9.5,359.04482,62.455514)" fill="rgb(35,31,32)"/>
<use xlink:href="#font_0_6d" transform="matrix(9.5,0,0,-9.5,362.24633,64.83051)" fill="rgb(35,31,32)"/>
<use xlink:href="#font_0_72" transform="matrix(9.5,0,0,-9.5,366.5878,64.72601)" fill="rgb(35,31,32)"/>
<use xlink:href="#font_0_6d" transform="matrix(9.5,0,0,-9.5,372.18331,64.83051)" fill="rgb(35,31,32)"/>
<use xlink:href="#font_0_75" transform="matrix(9.5,0,0,-9.5,376.4868,64.72601)" fill="rgb(35,31,32)"/>
<use xlink:href="#font_0_6e" transform="matrix(9.5,0,0,-9.5,380.9993,64.83051)" fill="rgb(35,31,32)"/>
<use xlink:href="#font_0_62" transform="matrix(9.5,0,0,-9.5,385.3028,64.72601)" fill="rgb(35,31,32)"/>
<use xlink:href="#font_0_80" transform="matrix(9.5,0,0,-9.5,391.64877,64.72601)" fill="rgb(35,31,32)"/>
<use xlink:href="#font_0_1" transform="matrix(9.5,0,0,-9.5,398.1278,64.72601)" fill="rgb(35,31,32)"/>
<text fill="rgb(35,31,32)" fill-opacity="0" transform="matrix(1,0,0,1,0,674.646)" font-size="9.5" font-family="HJFSIJ+Petersburg-Regular" x="41.1024 46.5554 51.0014 53.5284 60.4824 66.030398 70.4574 75.3974 82.3514 86.778403 91.71841 96.82941 101.76941 105.920909 108.44791 113.43541 117.88141 123.12541 125.65241 130.5924 135.01941 140.13042 145.67842 151.10292 155.54892 159.97592 164.31743 169.56143 174.14043 179.59343 186.37643 191.92444 194.45144 199.56246 203.90396 208.05547 213.07147 218.31548 222.89447 227.32147 231.76747 236.19447 238.36048 240.88748 247.92699 252.37299 257.44599 262.994 267.33547 269.8625 274.84997 279.19148 284.73948 289.10947 293.53648 298.36245 303.91045 308.98345 311.51047 317.83746 322.77747 329.84546 335.29845 340.23846 342.76548 348.18998 353.30096 357.64246 362.62994 368.05444 373.16543 378.71345 384.16644 389.23943 393.66644 398.24545" y="-598.6199 -598.6199 -598.6199 -598.6199 -598.6199 -598.6199 -598.6199 -598.6199 -598.6199 -598.6199 -598.6199 -598.6199 -598.6199 -598.6199 -598.6199 -598.6199 -598.6199 -598.6199 -598.6199 -598.6199 -598.6199 -598.6199 -598.6199 -598.6199 -598.6199 -598.6199 -598.6199 -598.6199 -598.6199 -598.6199 -598.6199 -598.6199 -598.6199 -598.6199 -598.6199 -598.6199 -598.6199 -598.6199 -598.6199 -598.6199 -598.6199 -598.6199 -598.6199 -598.6199 -598.6199 -598.6199 -598.6199 -598.6199 -598.6199 -598.6199 -598.6199 -598.6199 -598.6199 -598.6199 -598.6199 -598.6199 -598.6199 -598.6199 -598.6199 -598.6199 -598.6199 -598.6199 -598.6199 -598.6199 -598.6199 -598.6199 -598.6199 -598.6199 -598.6199 -598.6199 -598.6199 -598.6199 -598.6199 -598.6199 -598.6199 -598.6199">
&#x043d;&#x0430; &#x0444;&#x0438;&#x0442;&#x043e;&#x0444;&#x0442;&#x043e;&#x0440;&#x043e;&#x0437; &#x0434;&#x0430;&#x043b; &#x043e;&#x0442;&#x0440;&#x0438;&#x0446;&#x0430;&#x0442;&#x0435;&#x043b;&#x044c;&#x043d;&#x044b;&#x0439; &#x0440;&#x0435;&#x0437;&#x0443;&#x043b;&#x044c;&#x0442;&#x0430;&#x0442;. &#x041a;&#x0430;&#x043a;&#x0438;&#x0435; &#x0434;&#x0435;&#x0439;&#x0441;&#x0442;&#x0432;&#x0438;&#x044f; &#x043c;&#x043e;&#x0436;&#x043d;&#x043e; &#x043f;&#x0440;&#x0435;&#x0434;&#x043f;&#x0440;&#x0438;&#x043d;&#x044f;&#x0442;&#x044c; 
</text>
<use xlink:href="#font_0_6b" transform="matrix(9.5,0,0,-9.5,41.406403,76.02612)" fill="rgb(35,31,32)"/>
<use xlink:href="#font_0_6a" transform="matrix(9.5,0,0,-9.5,46.8594,76.13062)" fill="rgb(35,31,32)"/>
<use xlink:href="#font_0_1" transform="matrix(9.5,0,0,-9.5,51.0014,76.02612)" fill="rgb(35,31,32)"/>
<use xlink:href="#font_0_67" transform="matrix(9.5,0,0,-9.5,53.8704,78.05912)" fill="rgb(35,31,32)"/>
<use xlink:href="#font_0_72" transform="matrix(9.5,0,0,-9.5,60.7864,76.02612)" fill="rgb(35,31,32)"/>
<use xlink:href="#font_0_75" transform="matrix(9.5,0,0,-9.5,66.296397,76.02612)" fill="rgb(35,31,32)"/>
<use xlink:href="#font_0_77" transform="matrix(9.5,0,0,-9.5,70.7994,76.13062)" fill="rgb(35,31,32)"/>
<use xlink:href="#font_0_67" transform="matrix(9.5,0,0,-9.5,75.7394,78.05912)" fill="rgb(35,31,32)"/>
<use xlink:href="#font_0_75" transform="matrix(9.5,0,0,-9.5,82.6174058,76.02612)" fill="rgb(35,31,32)"/>
<use xlink:href="#font_0_77" transform="matrix(9.5,0,0,-9.5,87.12041,76.13062)" fill="rgb(35,31,32)"/>
<use xlink:href="#font_0_74" transform="matrix(9.5,0,0,-9.5,91.92741,78.05912)" fill="rgb(35,31,32)"/>
<use xlink:href="#font_0_77" transform="matrix(9.5,0,0,-9.5,97.17141,76.13062)" fill="rgb(35,31,32)"/>
<use xlink:href="#font_0_8f" transform="matrix(9.5,0,0,-9.5,101.97841,76.13062)" fill="rgb(35,31,32)"/>
<use xlink:href="#font_0_1" transform="matrix(9.5,0,0,-9.5,105.920909,76.02612)" fill="rgb(35,31,32)"/>
<use xlink:href="#font_0_78" transform="matrix(9.5,0,0,-9.5,108.58091,77.18512)" fill="rgb(35,31,32)"/>
<use xlink:href="#font_0_6a" transform="matrix(9.5,0,0,-9.5,113.73941,76.13062)" fill="rgb(35,31,32)"/>
<use xlink:href="#font_0_71" transform="matrix(9.5,0,0,-9.5,117.99541,76.13062)" fill="rgb(35,31,32)"/>
<use xlink:href="#font_0_1" transform="matrix(9.5,0,0,-9.5,123.12541,76.02612)" fill="rgb(35,31,32)"/>
<use xlink:href="#font_0_77" transform="matrix(9.5,0,0,-9.5,125.994419,76.13062)" fill="rgb(35,31,32)"/>
<use xlink:href="#font_0_75" transform="matrix(9.5,0,0,-9.5,130.85841,76.02612)" fill="rgb(35,31,32)"/>
<use xlink:href="#font_0_74" transform="matrix(9.5,0,0,-9.5,135.22841,78.05912)" fill="rgb(35,31,32)"/>
<use xlink:href="#font_0_72" transform="matrix(9.5,0,0,-9.5,140.43442,76.02612)" fill="rgb(35,31,32)"/>
<use xlink:href="#font_0_64" transform="matrix(9.5,0,0,-9.5,145.98242,77.18512)" fill="rgb(35,31,32)"/>
<use xlink:href="#font_0_6a" transform="matrix(9.5,0,0,-9.5,151.40692,76.13062)" fill="rgb(35,31,32)"/>
<use xlink:href="#font_0_75" transform="matrix(9.5,0,0,-9.5,155.81493,76.02612)" fill="rgb(35,31,32)"/>
<use xlink:href="#font_0_6e" transform="matrix(9.5,0,0,-9.5,160.31792,76.13062)" fill="rgb(35,31,32)"/>
<use xlink:href="#font_0_71" transform="matrix(9.5,0,0,-9.5,164.43143,76.13062)" fill="rgb(35,31,32)"/>
<use xlink:href="#font_0_8c" transform="matrix(9.5,0,0,-9.5,169.86543,76.02612)" fill="rgb(35,31,32)"/>
<use xlink:href="#font_0_6b" transform="matrix(9.5,0,0,-9.5,174.44443,76.02612)" fill="rgb(35,31,32)"/>
<use xlink:href="#font_0_80" transform="matrix(9.5,0,0,-9.5,179.89743,76.02612)" fill="rgb(35,31,32)"/>
<use xlink:href="#font_0_7e" transform="matrix(9.5,0,0,-9.5,186.68044,76.02612)" fill="rgb(35,31,32)"/>
<use xlink:href="#font_0_1" transform="matrix(9.5,0,0,-9.5,191.92444,76.02612)" fill="rgb(35,31,32)"/>
<use xlink:href="#font_0_74" transform="matrix(9.5,0,0,-9.5,194.66044,78.05912)" fill="rgb(35,31,32)"/>
<use xlink:href="#font_0_6e" transform="matrix(9.5,0,0,-9.5,199.90445,76.13062)" fill="rgb(35,31,32)"/>
<use xlink:href="#font_0_8f" transform="matrix(9.5,0,0,-9.5,204.11296,76.13062)" fill="rgb(35,31,32)"/>
<use xlink:href="#font_0_69" transform="matrix(9.5,0,0,-9.5,208.18846,78.15412)" fill="rgb(35,31,32)"/>
<use xlink:href="#font_0_71" transform="matrix(9.5,0,0,-9.5,213.18547,76.13062)" fill="rgb(35,31,32)"/>
<use xlink:href="#font_0_8c" transform="matrix(9.5,0,0,-9.5,218.61947,76.02612)" fill="rgb(35,31,32)"/>
<use xlink:href="#font_0_75" transform="matrix(9.5,0,0,-9.5,223.16048,76.02612)" fill="rgb(35,31,32)"/>
<use xlink:href="#font_0_6a" transform="matrix(9.5,0,0,-9.5,227.62547,76.13062)" fill="rgb(35,31,32)"/>
<use xlink:href="#font_0_75" transform="matrix(9.5,0,0,-9.5,232.03348,76.02612)" fill="rgb(35,31,32)"/>
<use xlink:href="#font_0_a" transform="matrix(9.5,0,0,-9.5,236.76448,76.168628)" fill="rgb(35,31,32)"/>
<use xlink:href="#font_0_1" transform="matrix(9.5,0,0,-9.5,238.36048,76.02612)" fill="rgb(35,31,32)"/>
<use xlink:href="#font_0_7b" transform="matrix(9.5,0,0,-9.5,241.52399,76.15913)" fill="rgb(35,31,32)"/>
<use xlink:href="#font_0_6a" transform="matrix(9.5,0,0,-9.5,248.23099,76.13062)" fill="rgb(35,31,32)"/>
<use xlink:href="#font_0_76" transform="matrix(9.5,0,0,-9.5,252.67699,76.13062)" fill="rgb(35,31,32)"/>
<use xlink:href="#font_0_72" transform="matrix(9.5,0,0,-9.5,257.74997,76.02612)" fill="rgb(35,31,32)"/>
<use xlink:href="#font_0_6e" transform="matrix(9.5,0,0,-9.5,263.336,76.13062)" fill="rgb(35,31,32)"/>
<use xlink:href="#font_0_1" transform="matrix(9.5,0,0,-9.5,267.33547,76.02612)" fill="rgb(35,31,32)"/>
<use xlink:href="#font_0_78" transform="matrix(9.5,0,0,-9.5,269.99548,77.18512)" fill="rgb(35,31,32)"/>
<use xlink:href="#font_0_6e" transform="matrix(9.5,0,0,-9.5,275.192,76.13062)" fill="rgb(35,31,32)"/>
<use xlink:href="#font_0_7e" transform="matrix(9.5,0,0,-9.5,279.49546,76.02612)" fill="rgb(35,31,32)"/>
<use xlink:href="#font_0_6d" transform="matrix(9.5,0,0,-9.5,285.08149,76.13062)" fill="rgb(35,31,32)"/>
<use xlink:href="#font_0_75" transform="matrix(9.5,0,0,-9.5,289.37545,76.02612)" fill="rgb(35,31,32)"/>
<use xlink:href="#font_0_63" transform="matrix(9.5,0,0,-9.5,293.84046,76.02612)" fill="rgb(35,31,32)"/>
<use xlink:href="#font_0_72" transform="matrix(9.5,0,0,-9.5,298.66643,76.02612)" fill="rgb(35,31,32)"/>
<use xlink:href="#font_0_79" transform="matrix(9.5,0,0,-9.5,303.99597,76.13062)" fill="rgb(35,31,32)"/>
<use xlink:href="#font_0_1" transform="matrix(9.5,0,0,-9.5,308.98345,76.02612)" fill="rgb(35,31,32)"/>
<use xlink:href="#font_0_62" transform="matrix(9.5,0,0,-9.5,311.80497,76.02612)" fill="rgb(35,31,32)"/>
<use xlink:href="#font_0_77" transform="matrix(9.5,0,0,-9.5,318.17947,76.13062)" fill="rgb(35,31,32)"/>
<use xlink:href="#font_0_65" transform="matrix(9.5,0,0,-9.5,322.97695,76.13062)" fill="rgb(35,31,32)"/>
<use xlink:href="#font_0_6b" transform="matrix(9.5,0,0,-9.5,330.14944,76.02612)" fill="rgb(35,31,32)"/>
<use xlink:href="#font_0_77" transform="matrix(9.5,0,0,-9.5,335.64046,76.13062)" fill="rgb(35,31,32)"/>
<use xlink:href="#font_0_1" transform="matrix(9.5,0,0,-9.5,340.23846,76.02612)" fill="rgb(35,31,32)"/>
<use xlink:href="#font_0_68" transform="matrix(9.5,0,0,-9.5,343.06946,76.02612)" fill="rgb(35,31,32)"/>
<use xlink:href="#font_0_74" transform="matrix(9.5,0,0,-9.5,348.399,78.05912)" fill="rgb(35,31,32)"/>
<use xlink:href="#font_0_6e" transform="matrix(9.5,0,0,-9.5,353.64297,76.13062)" fill="rgb(35,31,32)"/>
<use xlink:href="#font_0_78" transform="matrix(9.5,0,0,-9.5,357.77545,77.18512)" fill="rgb(35,31,32)"/>
<use xlink:href="#font_0_68" transform="matrix(9.5,0,0,-9.5,362.93393,76.02612)" fill="rgb(35,31,32)"/>
<use xlink:href="#font_0_74" transform="matrix(9.5,0,0,-9.5,368.26346,78.05912)" fill="rgb(35,31,32)"/>
<use xlink:href="#font_0_72" transform="matrix(9.5,0,0,-9.5,373.46943,76.02612)" fill="rgb(35,31,32)"/>
<use xlink:href="#font_0_6b" transform="matrix(9.5,0,0,-9.5,379.01743,76.02612)" fill="rgb(35,31,32)"/>
<use xlink:href="#font_0_79" transform="matrix(9.5,0,0,-9.5,384.25196,76.13062)" fill="rgb(35,31,32)"/>
<use xlink:href="#font_0_75" transform="matrix(9.5,0,0,-9.5,389.50544,76.02612)" fill="rgb(35,31,32)"/>
<use xlink:href="#font_0_8c" transform="matrix(9.5,0,0,-9.5,393.97042,76.02612)" fill="rgb(35,31,32)"/>
<use xlink:href="#font_0_1" transform="matrix(9.5,0,0,-9.5,398.24545,76.02612)" fill="rgb(35,31,32)"/>
<text fill="rgb(35,31,32)" fill-opacity="0" transform="matrix(1,0,0,1,0,674.646)" font-size="9.5" font-family="HJFSIJ+Petersburg-Regular" x="41.1024 46.0899 51.3339 56.406904 58.620405 63.560403 68.9849 74.0959 78.4374 83.424902 87.7664 93.01041 97.351904 102.80491 108.352909 113.4259 115.639401 120.46541 125.40541 129.55692 134.53491 139.55092 144.53842 150.08643 154.51343 158.85493 164.09894 169.17193" y="-587.3199 -587.3199 -587.3199 -587.3199 -587.3199 -587.3199 -587.3199 -587.3199 -587.3199 -587.3199 -587.3199 -587.3199 -587.3199 -587.3199 -587.3199 -587.3199 -587.3199 -587.3199 -587.3199 -587.3199 -587.3199 -587.3199 -587.3199 -587.3199 -587.3199 -587.3199 -587.3199 -587.3199">
&#x0434;&#x043b;&#x044f; &#x043e;&#x043f;&#x0440;&#x0435;&#x0434;&#x0435;&#x043b;&#x0435;&#x043d;&#x0438;&#x044f; &#x0432;&#x043e;&#x0437;&#x0431;&#x0443;&#x0434;&#x0438;&#x0442;&#x0435;&#x043b;&#x044f;?
</text>
<use xlink:href="#font_0_78" transform="matrix(9.5,0,0,-9.5,41.2354,88.48511)" fill="rgb(35,31,32)"/>
<use xlink:href="#font_0_71" transform="matrix(9.5,0,0,-9.5,46.2039,87.43061)" fill="rgb(35,31,32)"/>
<use xlink:href="#font_0_79" transform="matrix(9.5,0,0,-9.5,51.4194,87.43061)" fill="rgb(35,31,32)"/>
<use xlink:href="#font_0_1" transform="matrix(9.5,0,0,-9.5,56.406904,87.3261155)" fill="rgb(35,31,32)"/>
<use xlink:href="#font_0_77" transform="matrix(9.5,0,0,-9.5,58.962403,87.43061)" fill="rgb(35,31,32)"/>
<use xlink:href="#font_0_68" transform="matrix(9.5,0,0,-9.5,63.864403,87.3261155)" fill="rgb(35,31,32)"/>
<use xlink:href="#font_0_74" transform="matrix(9.5,0,0,-9.5,69.1939,89.35911)" fill="rgb(35,31,32)"/>
<use xlink:href="#font_0_6e" transform="matrix(9.5,0,0,-9.5,74.437905,87.43061)" fill="rgb(35,31,32)"/>
<use xlink:href="#font_0_78" transform="matrix(9.5,0,0,-9.5,78.570405,88.48511)" fill="rgb(35,31,32)"/>
<use xlink:href="#font_0_6e" transform="matrix(9.5,0,0,-9.5,83.76691,87.43061)" fill="rgb(35,31,32)"/>
<use xlink:href="#font_0_71" transform="matrix(9.5,0,0,-9.5,87.8804,87.43061)" fill="rgb(35,31,32)"/>
<use xlink:href="#font_0_6e" transform="matrix(9.5,0,0,-9.5,93.35241,87.43061)" fill="rgb(35,31,32)"/>
<use xlink:href="#font_0_6b" transform="matrix(9.5,0,0,-9.5,97.65591,87.3261155)" fill="rgb(35,31,32)"/>
<use xlink:href="#font_0_72" transform="matrix(9.5,0,0,-9.5,103.10891,87.3261155)" fill="rgb(35,31,32)"/>
<use xlink:href="#font_0_79" transform="matrix(9.5,0,0,-9.5,108.43841,87.43061)" fill="rgb(35,31,32)"/>
<use xlink:href="#font_0_1" transform="matrix(9.5,0,0,-9.5,113.4259,87.3261155)" fill="rgb(35,31,32)"/>
<use xlink:href="#font_0_63" transform="matrix(9.5,0,0,-9.5,115.943408,87.3261155)" fill="rgb(35,31,32)"/>
<use xlink:href="#font_0_77" transform="matrix(9.5,0,0,-9.5,120.80741,87.43061)" fill="rgb(35,31,32)"/>
<use xlink:href="#font_0_8f" transform="matrix(9.5,0,0,-9.5,125.61441,87.43061)" fill="rgb(35,31,32)"/>
<use xlink:href="#font_0_73" transform="matrix(9.5,0,0,-9.5,129.89891,87.43061)" fill="rgb(35,31,32)"/>
<use xlink:href="#font_0_69" transform="matrix(9.5,0,0,-9.5,134.66791,89.45411)" fill="rgb(35,31,32)"/>
<use xlink:href="#font_0_78" transform="matrix(9.5,0,0,-9.5,139.68392,88.48511)" fill="rgb(35,31,32)"/>
<use xlink:href="#font_0_72" transform="matrix(9.5,0,0,-9.5,144.84243,87.3261155)" fill="rgb(35,31,32)"/>
<use xlink:href="#font_0_75" transform="matrix(9.5,0,0,-9.5,150.35243,87.3261155)" fill="rgb(35,31,32)"/>
<use xlink:href="#font_0_6e" transform="matrix(9.5,0,0,-9.5,154.85542,87.43061)" fill="rgb(35,31,32)"/>
<use xlink:href="#font_0_71" transform="matrix(9.5,0,0,-9.5,158.96893,87.43061)" fill="rgb(35,31,32)"/>
<use xlink:href="#font_0_79" transform="matrix(9.5,0,0,-9.5,164.18443,87.43061)" fill="rgb(35,31,32)"/>
<use xlink:href="#font_0_1a" transform="matrix(9.5,0,0,-9.5,169.74195,87.46861)" fill="rgb(35,31,32)"/>
</svg>
