<?xml version="1.0" encoding="UTF-8" standalone="no"?>
<svg
   xmlns:dc="http://purl.org/dc/elements/1.1/"
   xmlns:cc="http://creativecommons.org/ns#"
   xmlns:rdf="http://www.w3.org/1999/02/22-rdf-syntax-ns#"
   xmlns:svg="http://www.w3.org/2000/svg"
   xmlns="http://www.w3.org/2000/svg"
   viewBox="0 0 666.66669 496.81332"
   height="496.81332"
   width="666.66669"
   xml:space="preserve"
   id="svg2"
   version="1.1"><metadata
     id="metadata8"><rdf:RDF><cc:Work
         rdf:about=""><dc:format>image/svg+xml</dc:format><dc:type
           rdf:resource="http://purl.org/dc/dcmitype/StillImage" /></cc:Work></rdf:RDF></metadata><defs
     id="defs6" /><g
     transform="matrix(1.3333333,0,0,-1.3333333,0,496.81333)"
     id="g10"><g
       transform="scale(0.1)"
       id="g12"><path
         id="path14"
         style="fill:#e7e8e5;fill-opacity:1;fill-rule:nonzero;stroke:none"
         d="m 0,449.129 h 5000 v 2.5 H 0 Z" /><path
         id="path16"
         style="fill:#e7e8e5;fill-opacity:1;fill-rule:nonzero;stroke:none"
         d="m 3946.67,288.172 h 552.34 v 2.5 h -552.34 z" /><path
         id="path18"
         style="fill:#e7e8e5;fill-opacity:1;fill-rule:nonzero;stroke:none"
         d="m 3218.07,340.621 h 86.9297 v 2.5 H 3218.07 Z" /><path
         id="path20"
         style="fill:#e7e8e5;fill-opacity:1;fill-rule:nonzero;stroke:none"
         d="m 3724.74,381.031 h 191.922 v 2.5 H 3724.74 Z" /><path
         id="path22"
         style="fill:#e7e8e5;fill-opacity:1;fill-rule:nonzero;stroke:none"
         d="m 524.59,364.23 h 431.934 v 2.5 H 524.59 Z" /><path
         id="path24"
         style="fill:#e7e8e5;fill-opacity:1;fill-rule:nonzero;stroke:none"
         d="m 2153.33,299.648 h 457.223 v 2.5 H 2153.33 Z" /><path
         id="path26"
         style="fill:#e7e8e5;fill-opacity:1;fill-rule:nonzero;stroke:none"
         d="m 1404.64,341.871 h 936.758 v 2.5 H 1404.64 Z" /><path
         id="path28"
         style="fill:#e7e8e5;fill-opacity:1;fill-rule:nonzero;stroke:none"
         d="m 2424.71,3669.02 c 0,30.09 -24.49,54.57 -54.57,54.57 H 439.152 c -30.101,0 -54.582,-24.48 -54.582,-54.57 V 954.699 c 0,-30.097 24.481,-54.578 54.582,-54.578 H 2370.14 c 30.08,0 54.57,24.481 54.57,54.578 V 3669.02 m 2.5,-2714.321 c 0,-31.48 -25.61,-57.078 -57.07,-57.078 H 439.152 c -31.476,0 -57.082,25.598 -57.082,57.078 V 3669.02 c 0,31.46 25.606,57.07 57.082,57.07 H 2370.14 c 31.46,0 57.07,-25.61 57.07,-57.07 V 954.699" /><path
         id="path30"
         style="fill:#e7e8e5;fill-opacity:1;fill-rule:nonzero;stroke:none"
         d="m 2602.12,3723.59 c -30.09,0 -54.57,-24.48 -54.57,-54.57 V 954.699 c 0,-30.097 24.48,-54.578 54.57,-54.578 h 1930.99 c 30.09,0 54.58,24.481 54.58,54.578 V 3669.02 c 0,30.09 -24.49,54.57 -54.58,54.57 H 2602.12 M 4533.11,897.621 H 2602.12 c -31.47,0 -57.07,25.598 -57.07,57.078 V 3669.02 c 0,31.46 25.6,57.07 57.07,57.07 h 1930.99 c 31.47,0 57.08,-25.61 57.08,-57.07 V 954.699 c 0,-31.48 -25.61,-57.078 -57.08,-57.078" /><path
         id="path32"
         style="fill:#e2e2e0;fill-opacity:1;fill-rule:nonzero;stroke:none"
         d="m 3395.1,2258.28 h -663.52 v 769.3 h 663.52 v -769.3" /><path
         id="path34"
         style="fill:#ededeb;fill-opacity:1;fill-rule:nonzero;stroke:none"
         d="M 3441.36,2258.28 H 2741.6 v 769.3 h 699.76 v -769.3" /><path
         id="path36"
         style="fill:#ffffff;fill-opacity:1;fill-rule:nonzero;stroke:none"
         d="m 2800.22,2316.9 v 652.05 h 582.51 V 2316.9 h -582.51" /><path
         id="path38"
         style="fill:#ededeb;fill-opacity:1;fill-rule:nonzero;stroke:none"
         d="m 2955.34,2779.06 v -145.58 c 0,-69.86 56.83,-126.69 126.7,-126.69 h 145.57 v 145.57 c 0,69.86 -56.83,126.7 -126.7,126.7 z m 277.9,-283.53 h -151.2 c -76.07,0 -137.96,61.88 -137.96,137.95 v 151.21 c 0,3.1 2.52,5.63 5.63,5.63 h 151.2 c 76.08,0 137.96,-61.89 137.96,-137.96 v -151.2 c 0,-3.11 -2.52,-5.63 -5.63,-5.63" /><path
         id="path40"
         style="fill:#e7e8e5;fill-opacity:1;fill-rule:nonzero;stroke:none"
         d="m 4353.77,2738.47 h -759.63 l 67.29,557.34 h 625.05 l 67.29,-557.34" /><path
         id="path42"
         style="fill:#dadbd8;fill-opacity:1;fill-rule:nonzero;stroke:none"
         d="m 3719.87,2524.97 h -12.2 v 213.5 h 12.2 v -213.5" /><path
         id="path44"
         style="fill:#dadbd8;fill-opacity:1;fill-rule:nonzero;stroke:none"
         d="m 3728.35,2524.97 c 0,-8.05 -6.53,-14.58 -14.59,-14.58 -8.05,0 -14.58,6.53 -14.58,14.58 0,8.06 6.53,14.58 14.58,14.58 8.06,0 14.59,-6.52 14.59,-14.58" /><path
         id="path46"
         style="fill:#f3f2f1;fill-opacity:1;fill-rule:nonzero;stroke:none"
         d="m 4187.08,2738.47 h -130.61 l -27.65,557.34 h 120.5 l 37.76,-557.34" /><path
         id="path48"
         style="fill:#ededeb;fill-opacity:1;fill-rule:nonzero;stroke:none"
         d="m 3935.97,451.629 h 75.9727 v 2286.84 H 3935.97 Z" /><path
         id="path50"
         style="fill:#ededeb;fill-opacity:1;fill-rule:nonzero;stroke:none"
         d="m 4094.23,451.629 h -240.55 c 0,28.312 22.95,51.262 51.26,51.262 h 138.03 c 28.31,0 51.26,-22.95 51.26,-51.262" /><path
         id="path52"
         style="fill:#dadbd8;fill-opacity:1;fill-rule:nonzero;stroke:none"
         d="m 4011.94,2692.05 h -75.97 v 46.42 h 75.97 v -46.42" /><path
         id="path54"
         style="fill:#ededeb;fill-opacity:1;fill-rule:nonzero;stroke:none"
         d="m 3885.77,1532.36 v -0.08 c -6.08,0.01 -12.19,-0.13 -18.36,-0.55 -129.61,-8.84 -234.41,-114.2 -242.67,-243.85 -1.89,-29.61 1.16,-58.24 8.41,-85.15 29.85,-110.86 41.01,-225.941 41.01,-340.75 V 527.398 c 0,-24.257 19.67,-43.929 43.93,-43.929 h 167.68 167.68 384.64 V 1532.36 h -552.32" /><path
         id="path56"
         style="fill:#f3f2f1;fill-opacity:1;fill-rule:nonzero;stroke:none"
         d="m 4699.66,1270.78 c 0,150.54 -127.16,271.38 -279.93,260.95 -129.61,-8.84 -234.42,-114.2 -242.68,-243.85 -1.88,-29.62 1.17,-58.24 8.42,-85.15 29.85,-110.86 41.01,-225.941 41.01,-340.75 V 527.398 c 0,-24.257 19.67,-43.929 43.93,-43.929 h 335.36 c 24.25,0 43.92,19.672 43.92,43.929 v 354.223 c 0,107.699 11.73,215.469 40.51,319.259 6.17,22.25 9.46,45.69 9.46,69.9" /><path
         id="path58"
         style="fill:#ededeb;fill-opacity:1;fill-rule:nonzero;stroke:none"
         d="m 3113.04,483.469 h 1192.62 v 636.84 H 3113.04 Z" /><path
         id="path60"
         style="fill:#dadbd8;fill-opacity:1;fill-rule:nonzero;stroke:none"
         d="m 3558.41,1954.65 h -879.95 c -109.34,0 -190.36,-88.63 -180.97,-197.97 l 67.04,-780.352 h 1275.9 l -67.04,780.352 c -9.39,109.34 -105.64,197.97 -214.98,197.97" /><path
         id="path62"
         style="fill:#f3f2f1;fill-opacity:1;fill-rule:nonzero;stroke:none"
         d="m 3817.21,1954.65 h -899.04 c -104.07,0 -181.18,-84.36 -172.24,-188.43 l 67.85,-789.892 h 1275.91 l -67.86,789.892 c -8.94,104.07 -100.56,188.43 -204.62,188.43" /><path
         id="path64"
         style="fill:#dadbd8;fill-opacity:1;fill-rule:nonzero;stroke:none"
         d="M 4285.41,1178.46 H 3132.6 c -10.8,0 -19.56,-8.75 -19.56,-19.56 V 938.672 c 0,-10.813 8.76,-19.563 19.56,-19.563 h 1152.81 c 36.16,0 65.47,29.313 65.47,65.473 v 128.408 c 0,36.16 -29.31,65.47 -65.47,65.47" /><path
         id="path66"
         style="fill:#ededeb;fill-opacity:1;fill-rule:nonzero;stroke:none"
         d="m 2470.52,1532.36 v -0.08 c -6.08,0.01 -12.18,-0.13 -18.35,-0.55 -129.62,-8.84 -234.42,-114.2 -242.68,-243.85 -1.89,-29.61 1.17,-58.24 8.42,-85.15 29.85,-110.86 41.01,-225.941 41.01,-340.75 V 527.398 c 0,-24.257 19.66,-43.929 43.92,-43.929 h 167.68 167.68 384.64 V 1532.36 h -552.32" /><path
         id="path68"
         style="fill:#f3f2f1;fill-opacity:1;fill-rule:nonzero;stroke:none"
         d="m 3284.42,1270.78 c 0,150.54 -127.16,271.38 -279.94,260.95 -129.61,-8.84 -234.41,-114.2 -242.67,-243.85 -1.89,-29.61 1.17,-58.24 8.41,-85.15 29.86,-110.86 41.02,-225.941 41.02,-340.75 V 527.398 c 0,-24.257 19.66,-43.929 43.92,-43.929 h 335.36 c 24.26,0 43.92,19.672 43.92,43.929 v 354.223 c 0,107.699 11.74,215.469 40.51,319.259 6.17,22.25 9.47,45.69 9.47,69.9" /><path
         id="path70"
         style="fill:#dadbd8;fill-opacity:1;fill-rule:nonzero;stroke:none"
         d="M 4305.41,451.629 H 2489.19 c -17.59,0 -31.84,14.262 -31.84,31.84 h 1879.9 c 0,-17.578 -14.26,-31.84 -31.84,-31.84" /><path
         id="path72"
         style="fill:#e2e2e0;fill-opacity:1;fill-rule:nonzero;stroke:none"
         d="M 680.293,3377.29 H 461.113 V 451.629 h 219.18 V 3377.29" /><path
         id="path74"
         style="fill:#f3f2f1;fill-opacity:1;fill-rule:nonzero;stroke:none"
         d="m 680.293,451.629 h 1923.66 v 2925.66 H 680.293 Z" /><path
         id="path76"
         style="fill:#e2e2e0;fill-opacity:1;fill-rule:nonzero;stroke:none"
         d="m 716.207,451.629 h 1851.83 v 2882.61 H 716.207 Z" /><path
         id="path78"
         style="fill:#dadbd8;fill-opacity:1;fill-rule:nonzero;stroke:none"
         d="m 716.207,451.629 h 154.98 v 2882.61 h -154.98 z" /><path
         id="path80"
         style="fill:#f3f2f1;fill-opacity:1;fill-rule:nonzero;stroke:none"
         d="m 716.207,965.41 h 1871.29 v 43.0508 H 716.207 Z" /><path
         id="path82"
         style="fill:#f3f2f1;fill-opacity:1;fill-rule:nonzero;stroke:none"
         d="m 716.207,1569.41 v 43.05 H 2587.5 v -43.05 H 716.207" /><path
         id="path84"
         style="fill:#f3f2f1;fill-opacity:1;fill-rule:nonzero;stroke:none"
         d="m 716.207,2173.41 h 1871.29 v 43.0508 H 716.207 Z" /><path
         id="path86"
         style="fill:#f3f2f1;fill-opacity:1;fill-rule:nonzero;stroke:none"
         d="m 716.207,2777.41 v 43.05 H 2587.5 v -43.05 H 716.207" /><path
         id="path88"
         style="fill:#fafaf9;fill-opacity:1;fill-rule:nonzero;stroke:none"
         d="M 881.148,3230.8 H 1159.44 V 2820.46 H 881.148 v 410.34" /><path
         id="path90"
         style="fill:#ededeb;fill-opacity:1;fill-rule:nonzero;stroke:none"
         d="m 1189.17,3230.8 h -53.48 c -8.37,0 -15.15,-6.79 -15.15,-15.16 v -380.03 c 0,-8.37 6.78,-15.15 15.15,-15.15 h 53.48 c 8.37,0 15.16,6.78 15.16,15.15 v 380.03 c 0,8.37 -6.79,15.16 -15.16,15.16" /><path
         id="path92"
         style="fill:#fafaf9;fill-opacity:1;fill-rule:nonzero;stroke:none"
         d="M 787.461,3230.8 H 1065.75 V 2820.46 H 787.461 v 410.34" /><path
         id="path94"
         style="fill:#e2e2e0;fill-opacity:1;fill-rule:nonzero;stroke:none"
         d="m 1095.49,3230.8 h -53.48 c -8.37,0 -15.16,-6.79 -15.16,-15.16 v -380.03 c 0,-8.37 6.79,-15.15 15.16,-15.15 h 53.48 c 8.37,0 15.15,6.78 15.15,15.15 v 380.03 c 0,8.37 -6.78,15.16 -15.15,15.16" /><path
         id="path96"
         style="fill:#fafaf9;fill-opacity:1;fill-rule:nonzero;stroke:none"
         d="M 716.207,3230.8 H 956.352 L 937.258,2820.46 H 716.207 v 410.34" /><path
         id="path98"
         style="fill:#ededeb;fill-opacity:1;fill-rule:nonzero;stroke:none"
         d="m 987.402,3230.8 h -56.109 c -7.645,0 -14.184,-7.43 -14.613,-16.59 l -17.555,-377.16 c -0.426,-9.16 5.426,-16.59 13.07,-16.59 h 56.11 c 7.64,0 14.183,7.43 14.609,16.59 l 17.556,377.16 c 0.42,9.16 -5.427,16.59 -13.068,16.59" /><path
         id="path100"
         style="fill:#fafaf9;fill-opacity:1;fill-rule:nonzero;stroke:none"
         d="m 2168.19,2820.46 h 210.98 v 346.375 h -210.98 z" /><path
         id="path102"
         style="fill:#ededeb;fill-opacity:1;fill-rule:nonzero;stroke:none"
         d="m 2401.08,3166.83 h -39.27 c -6.7,0 -12.13,-5.43 -12.13,-12.12 v -322.13 c 0,-6.7 5.43,-12.12 12.13,-12.12 h 39.27 c 6.7,0 12.13,5.42 12.13,12.12 v 322.13 c 0,6.69 -5.43,12.12 -12.13,12.12" /><path
         id="path104"
         style="fill:#fafaf9;fill-opacity:1;fill-rule:nonzero;stroke:none"
         d="m 2097.17,2820.46 h 210.977 v 346.375 H 2097.17 Z" /><path
         id="path106"
         style="fill:#e2e2e0;fill-opacity:1;fill-rule:nonzero;stroke:none"
         d="m 2330.06,3166.83 h -39.28 c -6.69,0 -12.12,-5.43 -12.12,-12.12 v -322.13 c 0,-6.7 5.43,-12.12 12.12,-12.12 h 39.28 c 6.69,0 12.12,5.42 12.12,12.12 v 322.13 c 0,6.69 -5.43,12.12 -12.12,12.12" /><path
         id="path108"
         style="fill:#fafaf9;fill-opacity:1;fill-rule:nonzero;stroke:none"
         d="m 2043.14,3166.83 h 182.07 l -14.48,-346.37 h -167.59 v 346.37" /><path
         id="path110"
         style="fill:#ededeb;fill-opacity:1;fill-rule:nonzero;stroke:none"
         d="m 2248.75,3166.83 h -42.54 c -5.79,0 -10.75,-6.27 -11.08,-14 l -13.3,-318.37 c -0.33,-7.73 4.11,-14 9.9,-14 h 42.54 c 5.79,0 10.75,6.27 11.08,14 l 13.31,318.37 c 0.32,7.73 -4.12,14 -9.91,14" /><path
         id="path112"
         style="fill:#fafaf9;fill-opacity:1;fill-rule:nonzero;stroke:none"
         d="m 1896.11,3166.83 h 210.98 v -346.37 h -210.98 v 346.37" /><path
         id="path114"
         style="fill:#ededeb;fill-opacity:1;fill-rule:nonzero;stroke:none"
         d="m 2129,3166.83 h -39.27 c -6.7,0 -12.13,-5.42 -12.13,-12.12 v -322.13 c 0,-6.69 5.43,-12.12 12.13,-12.12 H 2129 c 6.7,0 12.13,5.43 12.13,12.12 v 322.13 c 0,6.7 -5.43,12.12 -12.13,12.12" /><path
         id="path116"
         style="fill:#fafaf9;fill-opacity:1;fill-rule:nonzero;stroke:none"
         d="m 1825.09,3166.83 h 210.98 v -346.37 h -210.98 v 346.37" /><path
         id="path118"
         style="fill:#e2e2e0;fill-opacity:1;fill-rule:nonzero;stroke:none"
         d="m 2057.98,3166.83 h -39.28 c -6.69,0 -12.12,-5.42 -12.12,-12.12 v -322.13 c 0,-6.69 5.43,-12.12 12.12,-12.12 h 39.28 c 6.69,0 12.12,5.43 12.12,12.12 v 322.13 c 0,6.7 -5.43,12.12 -12.12,12.12" /><path
         id="path120"
         style="fill:#fafaf9;fill-opacity:1;fill-rule:nonzero;stroke:none"
         d="m 1771.06,3166.83 h 182.07 l -14.48,-346.37 h -167.59 v 346.37" /><path
         id="path122"
         style="fill:#ededeb;fill-opacity:1;fill-rule:nonzero;stroke:none"
         d="m 1976.67,3166.83 h -42.54 c -5.8,0 -10.75,-6.27 -11.08,-14 l -13.3,-318.37 c -0.33,-7.73 4.11,-14 9.9,-14 h 42.54 c 5.79,0 10.75,6.27 11.08,14 l 13.31,318.37 c 0.32,7.73 -4.12,14 -9.91,14" /><path
         id="path124"
         style="fill:#fafaf9;fill-opacity:1;fill-rule:nonzero;stroke:none"
         d="m 1498.67,3192.77 h 147.06 v -372.31 h -147.06 v 372.31" /><path
         id="path126"
         style="fill:#ededeb;fill-opacity:1;fill-rule:nonzero;stroke:none"
         d="m 1658.96,3192.77 h -23.3 c -5.79,0 -10.49,-4.7 -10.49,-10.49 v -351.33 c 0,-5.79 4.7,-10.49 10.49,-10.49 h 23.3 c 5.79,0 10.49,4.7 10.49,10.49 v 351.33 c 0,5.79 -4.7,10.49 -10.49,10.49" /><path
         id="path128"
         style="fill:#fafaf9;fill-opacity:1;fill-rule:nonzero;stroke:none"
         d="m 1376.13,3230.8 h 162.08 v -410.34 h -162.08 v 410.34" /><path
         id="path130"
         style="fill:#f3f2f1;fill-opacity:1;fill-rule:nonzero;stroke:none"
         d="m 1552.79,3230.8 h -25.67 c -6.38,0 -11.56,-5.18 -11.56,-11.57 v -387.21 c 0,-6.38 5.18,-11.56 11.56,-11.56 h 25.67 c 6.39,0 11.57,5.18 11.57,11.56 v 387.21 c 0,6.39 -5.18,11.57 -11.57,11.57" /><path
         id="path132"
         style="fill:#fafaf9;fill-opacity:1;fill-rule:nonzero;stroke:none"
         d="m 1334.63,3230.8 h 139.87 l -11.12,-410.34 h -128.75 v 410.34" /><path
         id="path134"
         style="fill:#ededeb;fill-opacity:1;fill-rule:nonzero;stroke:none"
         d="m 1492.58,3230.8 h -32.68 c -4.45,0 -8.26,-7.43 -8.51,-16.59 l -10.22,-377.16 c -0.25,-9.16 3.16,-16.59 7.61,-16.59 h 32.68 c 4.45,0 8.26,7.43 8.51,16.59 l 10.22,377.16 c 0.25,9.16 -3.16,16.59 -7.61,16.59" /><path
         id="path136"
         style="fill:#fafaf9;fill-opacity:1;fill-rule:nonzero;stroke:none"
         d="m 1622.12,2626.8 h 278.29 v -410.34 h -278.29 v 410.34" /><path
         id="path138"
         style="fill:#ededeb;fill-opacity:1;fill-rule:nonzero;stroke:none"
         d="m 1930.15,2626.8 h -53.48 c -8.37,0 -15.16,-6.79 -15.16,-15.16 v -380.03 c 0,-8.37 6.79,-15.15 15.16,-15.15 h 53.48 c 8.37,0 15.15,6.78 15.15,15.15 v 380.03 c 0,8.37 -6.78,15.16 -15.15,15.16" /><path
         id="path140"
         style="fill:#fafaf9;fill-opacity:1;fill-rule:nonzero;stroke:none"
         d="m 1528.43,2626.8 h 278.29 v -410.34 h -278.29 v 410.34" /><path
         id="path142"
         style="fill:#e2e2e0;fill-opacity:1;fill-rule:nonzero;stroke:none"
         d="m 1836.46,2626.8 h -53.48 c -8.37,0 -15.16,-6.79 -15.16,-15.16 v -380.03 c 0,-8.37 6.79,-15.15 15.16,-15.15 h 53.48 c 8.37,0 15.15,6.78 15.15,15.15 v 380.03 c 0,8.37 -6.78,15.16 -15.15,15.16" /><path
         id="path144"
         style="fill:#fafaf9;fill-opacity:1;fill-rule:nonzero;stroke:none"
         d="m 1457.17,2626.8 h 240.15 l -19.09,-410.34 h -221.06 v 410.34" /><path
         id="path146"
         style="fill:#ededeb;fill-opacity:1;fill-rule:nonzero;stroke:none"
         d="m 1728.37,2626.8 h -56.1 c -7.65,0 -14.19,-7.43 -14.62,-16.6 l -17.55,-377.15 c -0.43,-9.16 5.42,-16.59 13.07,-16.59 h 56.1 c 7.65,0 14.19,7.43 14.62,16.59 l 17.55,377.15 c 0.43,9.17 -5.42,16.6 -13.07,16.6" /><path
         id="path148"
         style="fill:#fafaf9;fill-opacity:1;fill-rule:nonzero;stroke:none"
         d="m 2048.7,2562.83 h 170.48 V 2216.46 H 2048.7 v 346.37" /><path
         id="path150"
         style="fill:#ededeb;fill-opacity:1;fill-rule:nonzero;stroke:none"
         d="m 2235.79,2562.83 h -29.54 c -6.02,0 -10.89,-4.88 -10.89,-10.9 v -324.58 c 0,-6.01 4.87,-10.89 10.89,-10.89 h 29.54 c 6.02,0 10.89,4.88 10.89,10.89 v 324.58 c 0,6.02 -4.87,10.9 -10.89,10.9" /><path
         id="path152"
         style="fill:#fafaf9;fill-opacity:1;fill-rule:nonzero;stroke:none"
         d="m 1991.3,2562.83 h 170.49 V 2216.46 H 1991.3 v 346.37" /><path
         id="path154"
         style="fill:#e2e2e0;fill-opacity:1;fill-rule:nonzero;stroke:none"
         d="m 2178.39,2562.83 h -29.53 c -6.02,0 -10.9,-4.88 -10.9,-10.9 v -324.58 c 0,-6.01 4.88,-10.89 10.9,-10.89 h 29.53 c 6.02,0 10.9,4.88 10.9,10.89 v 324.58 c 0,6.02 -4.88,10.9 -10.9,10.9" /><path
         id="path156"
         style="fill:#fafaf9;fill-opacity:1;fill-rule:nonzero;stroke:none"
         d="m 1947.65,2562.83 h 147.12 l -11.7,-346.37 h -135.42 v 346.37" /><path
         id="path158"
         style="fill:#ededeb;fill-opacity:1;fill-rule:nonzero;stroke:none"
         d="m 2113.79,2562.83 h -34.37 c -4.68,0 -8.69,-6.27 -8.95,-14 l -10.76,-318.37 c -0.26,-7.73 3.33,-14 8.01,-14 h 34.37 c 4.68,0 8.69,6.27 8.95,14 l 10.76,318.37 c 0.26,7.73 -3.32,14 -8.01,14" /><path
         id="path160"
         style="fill:#fafaf9;fill-opacity:1;fill-rule:nonzero;stroke:none"
         d="m 2333.14,2216.46 h 141.219 v 286.918 H 2333.14 Z" /><path
         id="path162"
         style="fill:#ededeb;fill-opacity:1;fill-rule:nonzero;stroke:none"
         d="m 2488.12,2503.38 h -24.47 c -4.98,0 -9.03,-4.05 -9.03,-9.03 v -268.87 c 0,-4.98 4.05,-9.02 9.03,-9.02 h 24.47 c 4.98,0 9.02,4.04 9.02,9.02 v 268.87 c 0,4.98 -4.04,9.03 -9.02,9.03" /><path
         id="path164"
         style="fill:#fafaf9;fill-opacity:1;fill-rule:nonzero;stroke:none"
         d="m 2285.6,2216.46 h 141.219 v 286.918 H 2285.6 Z" /><path
         id="path166"
         style="fill:#e2e2e0;fill-opacity:1;fill-rule:nonzero;stroke:none"
         d="m 2440.58,2503.38 h -24.47 c -4.99,0 -9.03,-4.05 -9.03,-9.03 v -268.87 c 0,-4.98 4.04,-9.02 9.03,-9.02 h 24.47 c 4.98,0 9.02,4.04 9.02,9.02 v 268.87 c 0,4.98 -4.04,9.03 -9.02,9.03" /><path
         id="path168"
         style="fill:#fafaf9;fill-opacity:1;fill-rule:nonzero;stroke:none"
         d="m 2249.44,2503.38 h 121.87 l -9.69,-286.92 h -112.18 v 286.92" /><path
         id="path170"
         style="fill:#ededeb;fill-opacity:1;fill-rule:nonzero;stroke:none"
         d="m 2387.06,2503.38 h -28.47 c -3.88,0 -7.2,-5.2 -7.42,-11.6 l -8.9,-263.72 c -0.22,-6.41 2.75,-11.6 6.63,-11.6 h 28.47 c 3.88,0 7.2,5.19 7.41,11.6 l 8.91,263.72 c 0.22,6.4 -2.75,11.6 -6.63,11.6" /><path
         id="path172"
         style="fill:#fafaf9;fill-opacity:1;fill-rule:nonzero;stroke:none"
         d="m 1176.06,2562.83 h 210.99 v -346.37 h -210.99 v 346.37" /><path
         id="path174"
         style="fill:#ededeb;fill-opacity:1;fill-rule:nonzero;stroke:none"
         d="m 1408.96,2562.83 h -39.28 c -6.7,0 -12.12,-5.42 -12.12,-12.12 v -322.13 c 0,-6.69 5.42,-12.12 12.12,-12.12 h 39.28 c 6.69,0 12.12,5.43 12.12,12.12 v 322.13 c 0,6.7 -5.43,12.12 -12.12,12.12" /><path
         id="path176"
         style="fill:#fafaf9;fill-opacity:1;fill-rule:nonzero;stroke:none"
         d="m 1105.04,2562.83 h 210.98 v -346.37 h -210.98 v 346.37" /><path
         id="path178"
         style="fill:#e2e2e0;fill-opacity:1;fill-rule:nonzero;stroke:none"
         d="m 1337.93,2562.83 h -39.28 c -6.69,0 -12.12,-5.42 -12.12,-12.12 v -322.13 c 0,-6.69 5.43,-12.12 12.12,-12.12 h 39.28 c 6.69,0 12.12,5.43 12.12,12.12 v 322.13 c 0,6.7 -5.43,12.12 -12.12,12.12" /><path
         id="path180"
         style="fill:#fafaf9;fill-opacity:1;fill-rule:nonzero;stroke:none"
         d="m 1051.02,2562.83 h 182.07 l -14.49,-346.37 h -167.58 v 346.37" /><path
         id="path182"
         style="fill:#ededeb;fill-opacity:1;fill-rule:nonzero;stroke:none"
         d="m 1256.62,2562.83 h -42.54 c -5.79,0 -10.75,-6.27 -11.07,-14 l -13.31,-318.37 c -0.32,-7.73 4.11,-14 9.9,-14 h 42.54 c 5.8,0 10.76,6.27 11.08,14 l 13.31,318.37 c 0.32,7.73 -4.11,14 -9.91,14" /><path
         id="path184"
         style="fill:#fafaf9;fill-opacity:1;fill-rule:nonzero;stroke:none"
         d="M 880.238,2588.77 H 1027.3 V 2216.46 H 880.238 v 372.31" /><path
         id="path186"
         style="fill:#ededeb;fill-opacity:1;fill-rule:nonzero;stroke:none"
         d="m 1040.53,2588.77 h -23.29 c -5.8,0 -10.5,-4.7 -10.5,-10.49 v -351.33 c 0,-5.79 4.7,-10.49 10.5,-10.49 h 23.29 c 5.79,0 10.49,4.7 10.49,10.49 v 351.33 c 0,5.79 -4.7,10.49 -10.49,10.49" /><path
         id="path188"
         style="fill:#fafaf9;fill-opacity:1;fill-rule:nonzero;stroke:none"
         d="M 757.703,2626.8 H 919.785 V 2216.46 H 757.703 v 410.34" /><path
         id="path190"
         style="fill:#f3f2f1;fill-opacity:1;fill-rule:nonzero;stroke:none"
         d="m 934.359,2626.8 h -25.668 c -6.386,0 -11.562,-5.18 -11.562,-11.57 v -387.21 c 0,-6.39 5.176,-11.56 11.562,-11.56 h 25.668 c 6.387,0 11.571,5.17 11.571,11.56 v 387.21 c 0,6.39 -5.184,11.57 -11.571,11.57" /><path
         id="path192"
         style="fill:#fafaf9;fill-opacity:1;fill-rule:nonzero;stroke:none"
         d="M 716.207,2626.8 H 856.07 L 844.945,2216.46 H 716.207 v 410.34" /><path
         id="path194"
         style="fill:#ededeb;fill-opacity:1;fill-rule:nonzero;stroke:none"
         d="m 874.148,2626.8 h -32.671 c -4.457,0 -8.262,-7.43 -8.512,-16.6 l -10.227,-377.15 c -0.25,-9.16 3.16,-16.59 7.614,-16.59 h 32.675 c 4.453,0 8.262,7.43 8.512,16.59 l 10.223,377.15 c 0.25,9.17 -3.157,16.6 -7.614,16.6" /><path
         id="path196"
         style="fill:#fafaf9;fill-opacity:1;fill-rule:nonzero;stroke:none"
         d="M 881.148,2022.79 H 1159.44 V 1612.46 H 881.148 v 410.33" /><path
         id="path198"
         style="fill:#ededeb;fill-opacity:1;fill-rule:nonzero;stroke:none"
         d="m 1189.17,2022.79 h -53.48 c -8.37,0 -15.15,-6.78 -15.15,-15.15 v -380.03 c 0,-8.37 6.78,-15.15 15.15,-15.15 h 53.48 c 8.37,0 15.16,6.78 15.16,15.15 v 380.03 c 0,8.37 -6.79,15.15 -15.16,15.15" /><path
         id="path200"
         style="fill:#fafaf9;fill-opacity:1;fill-rule:nonzero;stroke:none"
         d="M 787.461,2022.79 H 1065.75 V 1612.46 H 787.461 v 410.33" /><path
         id="path202"
         style="fill:#e2e2e0;fill-opacity:1;fill-rule:nonzero;stroke:none"
         d="m 1095.49,2022.79 h -53.48 c -8.37,0 -15.16,-6.78 -15.16,-15.15 v -380.03 c 0,-8.37 6.79,-15.15 15.16,-15.15 h 53.48 c 8.37,0 15.15,6.78 15.15,15.15 v 380.03 c 0,8.37 -6.78,15.15 -15.15,15.15" /><path
         id="path204"
         style="fill:#fafaf9;fill-opacity:1;fill-rule:nonzero;stroke:none"
         d="M 716.207,2022.79 H 956.352 L 937.258,1612.46 H 716.207 v 410.33" /><path
         id="path206"
         style="fill:#ededeb;fill-opacity:1;fill-rule:nonzero;stroke:none"
         d="m 987.402,2022.79 h -56.109 c -7.645,0 -14.184,-7.42 -14.613,-16.59 l -17.555,-377.15 c -0.426,-9.16 5.426,-16.59 13.07,-16.59 h 56.11 c 7.64,0 14.183,7.43 14.609,16.59 l 17.556,377.15 c 0.42,9.17 -5.427,16.59 -13.068,16.59" /><path
         id="path208"
         style="fill:#fafaf9;fill-opacity:1;fill-rule:nonzero;stroke:none"
         d="m 2168.19,1958.83 h 210.98 v -346.37 h -210.98 v 346.37" /><path
         id="path210"
         style="fill:#ededeb;fill-opacity:1;fill-rule:nonzero;stroke:none"
         d="m 2401.08,1958.83 h -39.27 c -6.7,0 -12.13,-5.43 -12.13,-12.12 v -322.13 c 0,-6.7 5.43,-12.12 12.13,-12.12 h 39.27 c 6.7,0 12.13,5.42 12.13,12.12 v 322.13 c 0,6.69 -5.43,12.12 -12.13,12.12" /><path
         id="path212"
         style="fill:#fafaf9;fill-opacity:1;fill-rule:nonzero;stroke:none"
         d="m 2097.17,1958.83 h 210.98 v -346.37 h -210.98 v 346.37" /><path
         id="path214"
         style="fill:#e2e2e0;fill-opacity:1;fill-rule:nonzero;stroke:none"
         d="m 2330.06,1958.83 h -39.28 c -6.69,0 -12.12,-5.43 -12.12,-12.12 v -322.13 c 0,-6.7 5.43,-12.12 12.12,-12.12 h 39.28 c 6.69,0 12.12,5.42 12.12,12.12 v 322.13 c 0,6.69 -5.43,12.12 -12.12,12.12" /><path
         id="path216"
         style="fill:#fafaf9;fill-opacity:1;fill-rule:nonzero;stroke:none"
         d="m 2043.14,1958.83 h 182.07 l -14.48,-346.37 h -167.59 v 346.37" /><path
         id="path218"
         style="fill:#ededeb;fill-opacity:1;fill-rule:nonzero;stroke:none"
         d="m 2248.75,1958.83 h -42.54 c -5.79,0 -10.75,-6.27 -11.08,-14 l -13.3,-318.37 c -0.33,-7.73 4.11,-14 9.9,-14 h 42.54 c 5.79,0 10.75,6.27 11.08,14 l 13.31,318.37 c 0.32,7.73 -4.12,14 -9.91,14" /><path
         id="path220"
         style="fill:#fafaf9;fill-opacity:1;fill-rule:nonzero;stroke:none"
         d="m 1896.11,1958.83 h 210.98 v -346.37 h -210.98 v 346.37" /><path
         id="path222"
         style="fill:#ededeb;fill-opacity:1;fill-rule:nonzero;stroke:none"
         d="m 2129,1958.83 h -39.27 c -6.7,0 -12.13,-5.43 -12.13,-12.12 v -322.13 c 0,-6.7 5.43,-12.12 12.13,-12.12 H 2129 c 6.7,0 12.13,5.42 12.13,12.12 v 322.13 c 0,6.69 -5.43,12.12 -12.13,12.12" /><path
         id="path224"
         style="fill:#fafaf9;fill-opacity:1;fill-rule:nonzero;stroke:none"
         d="m 1825.09,1958.83 h 210.98 v -346.37 h -210.98 v 346.37" /><path
         id="path226"
         style="fill:#e2e2e0;fill-opacity:1;fill-rule:nonzero;stroke:none"
         d="m 2057.98,1958.83 h -39.28 c -6.69,0 -12.12,-5.43 -12.12,-12.12 v -322.13 c 0,-6.7 5.43,-12.12 12.12,-12.12 h 39.28 c 6.69,0 12.12,5.42 12.12,12.12 v 322.13 c 0,6.69 -5.43,12.12 -12.12,12.12" /><path
         id="path228"
         style="fill:#fafaf9;fill-opacity:1;fill-rule:nonzero;stroke:none"
         d="m 1771.06,1958.83 h 182.07 l -14.48,-346.37 h -167.59 v 346.37" /><path
         id="path230"
         style="fill:#ededeb;fill-opacity:1;fill-rule:nonzero;stroke:none"
         d="m 1976.67,1958.83 h -42.54 c -5.8,0 -10.75,-6.27 -11.08,-14 l -13.3,-318.37 c -0.33,-7.73 4.11,-14 9.9,-14 h 42.54 c 5.79,0 10.75,6.27 11.08,14 l 13.31,318.37 c 0.32,7.73 -4.12,14 -9.91,14" /><path
         id="path232"
         style="fill:#fafaf9;fill-opacity:1;fill-rule:nonzero;stroke:none"
         d="m 1498.67,1984.77 h 147.06 v -372.31 h -147.06 v 372.31" /><path
         id="path234"
         style="fill:#ededeb;fill-opacity:1;fill-rule:nonzero;stroke:none"
         d="m 1658.96,1984.77 h -23.3 c -5.79,0 -10.49,-4.7 -10.49,-10.49 v -351.33 c 0,-5.8 4.7,-10.49 10.49,-10.49 h 23.3 c 5.79,0 10.49,4.69 10.49,10.49 v 351.33 c 0,5.79 -4.7,10.49 -10.49,10.49" /><path
         id="path236"
         style="fill:#fafaf9;fill-opacity:1;fill-rule:nonzero;stroke:none"
         d="m 1376.13,2022.79 h 162.08 v -410.33 h -162.08 v 410.33" /><path
         id="path238"
         style="fill:#f3f2f1;fill-opacity:1;fill-rule:nonzero;stroke:none"
         d="m 1552.79,2022.79 h -25.67 c -6.38,0 -11.56,-5.17 -11.56,-11.56 v -387.21 c 0,-6.38 5.18,-11.56 11.56,-11.56 h 25.67 c 6.39,0 11.57,5.18 11.57,11.56 v 387.21 c 0,6.39 -5.18,11.56 -11.57,11.56" /><path
         id="path240"
         style="fill:#fafaf9;fill-opacity:1;fill-rule:nonzero;stroke:none"
         d="m 1334.63,2022.79 h 139.87 l -11.12,-410.33 h -128.75 v 410.33" /><path
         id="path242"
         style="fill:#ededeb;fill-opacity:1;fill-rule:nonzero;stroke:none"
         d="m 1492.58,2022.79 h -32.68 c -4.45,0 -8.26,-7.42 -8.51,-16.59 l -10.22,-377.15 c -0.25,-9.16 3.16,-16.59 7.61,-16.59 h 32.68 c 4.45,0 8.26,7.43 8.51,16.59 l 10.22,377.15 c 0.25,9.17 -3.16,16.59 -7.61,16.59" /><path
         id="path244"
         style="fill:#fafaf9;fill-opacity:1;fill-rule:nonzero;stroke:none"
         d="m 821.859,451.629 h 178.27 v 410.34 h -178.27 z" /><path
         id="path246"
         style="fill:#ededeb;fill-opacity:1;fill-rule:nonzero;stroke:none"
         d="m 1016.75,861.969 h -29.41 c -6.699,0 -12.129,-5.43 -12.129,-12.129 V 463.762 c 0,-6.703 5.43,-12.133 12.129,-12.133 h 29.41 c 6.7,0 12.13,5.43 12.13,12.133 V 849.84 c 0,6.699 -5.43,12.129 -12.13,12.129" /><path
         id="path248"
         style="fill:#fafaf9;fill-opacity:1;fill-rule:nonzero;stroke:none"
         d="m 761.852,451.629 h 178.262 v 410.34 H 761.852 Z" /><path
         id="path250"
         style="fill:#e2e2e0;fill-opacity:1;fill-rule:nonzero;stroke:none"
         d="m 956.738,861.969 h -29.414 c -6.699,0 -12.129,-5.43 -12.129,-12.129 V 463.762 c 0,-6.703 5.43,-12.133 12.129,-12.133 h 29.414 c 6.7,0 12.129,5.43 12.129,12.133 V 849.84 c 0,6.699 -5.429,12.129 -12.129,12.129" /><path
         id="path252"
         style="fill:#fafaf9;fill-opacity:1;fill-rule:nonzero;stroke:none"
         d="M 716.207,861.969 H 870.039 L 857.801,451.629 H 716.207 v 410.34" /><path
         id="path254"
         style="fill:#ededeb;fill-opacity:1;fill-rule:nonzero;stroke:none"
         d="m 889.922,861.969 h -35.938 c -4.898,0 -9.086,-7.43 -9.359,-16.59 l -11.246,-377.16 c -0.274,-9.16 3.476,-16.59 8.367,-16.59 h 35.945 c 4.899,0 9.086,7.43 9.36,16.59 l 11.246,377.16 c 0.273,9.16 -3.477,16.59 -8.375,16.59" /><path
         id="path256"
         style="fill:#fafaf9;fill-opacity:1;fill-rule:nonzero;stroke:none"
         d="m 2313.56,451.629 h 185.941 V 798.012 H 2313.56 Z" /><path
         id="path258"
         style="fill:#ededeb;fill-opacity:1;fill-rule:nonzero;stroke:none"
         d="m 2518.11,798.012 h -33.22 c -6.29,0 -11.38,-5.102 -11.38,-11.383 V 463.012 c 0,-6.282 5.09,-11.383 11.38,-11.383 h 33.22 c 6.28,0 11.38,5.101 11.38,11.383 v 323.617 c 0,6.281 -5.1,11.383 -11.38,11.383" /><path
         id="path260"
         style="fill:#fafaf9;fill-opacity:1;fill-rule:nonzero;stroke:none"
         d="M 2250.97,798.012 H 2436.9 V 451.629 h -185.93 v 346.383" /><path
         id="path262"
         style="fill:#e2e2e0;fill-opacity:1;fill-rule:nonzero;stroke:none"
         d="m 2455.51,798.012 h -33.22 c -6.28,0 -11.38,-5.102 -11.38,-11.383 V 463.012 c 0,-6.282 5.1,-11.383 11.38,-11.383 h 33.22 c 6.29,0 11.38,5.101 11.38,11.383 v 323.617 c 0,6.281 -5.09,11.383 -11.38,11.383" /><path
         id="path264"
         style="fill:#fafaf9;fill-opacity:1;fill-rule:nonzero;stroke:none"
         d="m 2203.35,798.012 h 160.46 l -12.76,-346.383 h -147.7 v 346.383" /><path
         id="path266"
         style="fill:#ededeb;fill-opacity:1;fill-rule:nonzero;stroke:none"
         d="m 2384.55,798.012 h -37.48 c -5.11,0 -9.48,-6.274 -9.77,-14.012 l -11.73,-318.359 c -0.28,-7.743 3.63,-14.012 8.74,-14.012 h 37.48 c 5.11,0 9.48,6.269 9.76,14.012 L 2393.28,784 c 0.29,7.738 -3.62,14.012 -8.73,14.012" /><path
         id="path268"
         style="fill:#fafaf9;fill-opacity:1;fill-rule:nonzero;stroke:none"
         d="m 2073.78,798.012 h 185.94 V 451.629 h -185.94 v 346.383" /><path
         id="path270"
         style="fill:#ededeb;fill-opacity:1;fill-rule:nonzero;stroke:none"
         d="m 2278.33,798.012 h -33.23 c -6.28,0 -11.37,-5.102 -11.37,-11.383 V 463.012 c 0,-6.282 5.09,-11.383 11.37,-11.383 h 33.23 c 6.28,0 11.38,5.101 11.38,11.383 v 323.617 c 0,6.281 -5.1,11.383 -11.38,11.383" /><path
         id="path272"
         style="fill:#fafaf9;fill-opacity:1;fill-rule:nonzero;stroke:none"
         d="m 2011.18,451.629 h 185.941 V 798.012 H 2011.18 Z" /><path
         id="path274"
         style="fill:#e2e2e0;fill-opacity:1;fill-rule:nonzero;stroke:none"
         d="m 2215.73,798.012 h -33.22 c -6.28,0 -11.38,-5.102 -11.38,-11.383 V 463.012 c 0,-6.282 5.1,-11.383 11.38,-11.383 h 33.22 c 6.29,0 11.38,5.101 11.38,11.383 v 323.617 c 0,6.281 -5.09,11.383 -11.38,11.383" /><path
         id="path276"
         style="fill:#fafaf9;fill-opacity:1;fill-rule:nonzero;stroke:none"
         d="m 1963.57,798.012 h 160.46 l -12.76,-346.383 h -147.7 v 346.383" /><path
         id="path278"
         style="fill:#ededeb;fill-opacity:1;fill-rule:nonzero;stroke:none"
         d="m 2144.77,798.012 h -37.49 c -5.1,0 -9.48,-6.274 -9.76,-14.012 l -11.73,-318.359 c -0.28,-7.743 3.62,-14.012 8.73,-14.012 h 37.49 c 5.11,0 9.48,6.269 9.76,14.012 L 2153.5,784 c 0.28,7.738 -3.62,14.012 -8.73,14.012" /><path
         id="path280"
         style="fill:#fafaf9;fill-opacity:1;fill-rule:nonzero;stroke:none"
         d="m 1882.96,451.629 h 129.598 v 372.32 H 1882.96 Z" /><path
         id="path282"
         style="fill:#ededeb;fill-opacity:1;fill-rule:nonzero;stroke:none"
         d="m 2023.62,823.949 h -19.32 c -5.44,0 -9.85,-4.41 -9.85,-9.847 V 461.48 c 0,-5.441 4.41,-9.851 9.85,-9.851 h 19.32 c 5.44,0 9.85,4.41 9.85,9.851 v 352.622 c 0,5.437 -4.41,9.847 -9.85,9.847" /><path
         id="path284"
         style="fill:#fafaf9;fill-opacity:1;fill-rule:nonzero;stroke:none"
         d="m 1774.97,451.629 h 142.84 v 410.34 h -142.84 z" /><path
         id="path286"
         style="fill:#f3f2f1;fill-opacity:1;fill-rule:nonzero;stroke:none"
         d="m 1930,861.969 h -21.3 c -5.99,0 -10.85,-4.86 -10.85,-10.86 V 462.492 c 0,-6 4.86,-10.863 10.85,-10.863 h 21.3 c 5.99,0 10.85,4.863 10.85,10.863 v 388.617 c 0,6 -4.86,10.86 -10.85,10.86" /><path
         id="path288"
         style="fill:#fafaf9;fill-opacity:1;fill-rule:nonzero;stroke:none"
         d="m 1738.4,861.969 h 123.26 l -9.8,-410.34 H 1738.4 v 410.34" /><path
         id="path290"
         style="fill:#ededeb;fill-opacity:1;fill-rule:nonzero;stroke:none"
         d="m 1877.6,861.969 h -28.8 c -3.93,0 -7.28,-7.43 -7.5,-16.59 l -9.01,-377.16 c -0.22,-9.16 2.78,-16.59 6.7,-16.59 h 28.8 c 3.93,0 7.28,7.43 7.5,16.59 l 9.01,377.16 c 0.22,9.16 -2.78,16.59 -6.7,16.59" /><path
         id="path292"
         style="fill:#fafaf9;fill-opacity:1;fill-rule:nonzero;stroke:none"
         d="m 1622.12,1418.79 h 278.29 v -410.33 h -278.29 v 410.33" /><path
         id="path294"
         style="fill:#ededeb;fill-opacity:1;fill-rule:nonzero;stroke:none"
         d="m 1930.15,1418.79 h -53.48 c -8.37,0 -15.16,-6.78 -15.16,-15.15 v -380.03 c 0,-8.37 6.79,-15.15 15.16,-15.15 h 53.48 c 8.37,0 15.15,6.78 15.15,15.15 v 380.03 c 0,8.37 -6.78,15.15 -15.15,15.15" /><path
         id="path296"
         style="fill:#fafaf9;fill-opacity:1;fill-rule:nonzero;stroke:none"
         d="m 1528.43,1418.79 h 278.29 v -410.33 h -278.29 v 410.33" /><path
         id="path298"
         style="fill:#e2e2e0;fill-opacity:1;fill-rule:nonzero;stroke:none"
         d="m 1836.46,1418.79 h -53.48 c -8.37,0 -15.16,-6.78 -15.16,-15.15 v -380.03 c 0,-8.37 6.79,-15.15 15.16,-15.15 h 53.48 c 8.37,0 15.15,6.78 15.15,15.15 v 380.03 c 0,8.37 -6.78,15.15 -15.15,15.15" /><path
         id="path300"
         style="fill:#fafaf9;fill-opacity:1;fill-rule:nonzero;stroke:none"
         d="m 1457.17,1418.79 h 240.15 l -19.09,-410.33 h -221.06 v 410.33" /><path
         id="path302"
         style="fill:#ededeb;fill-opacity:1;fill-rule:nonzero;stroke:none"
         d="m 1728.37,1418.79 h -56.1 c -7.65,0 -14.19,-7.42 -14.62,-16.59 l -17.55,-377.15 c -0.43,-9.17 5.42,-16.59 13.07,-16.59 h 56.1 c 7.65,0 14.19,7.42 14.62,16.59 l 17.55,377.15 c 0.43,9.17 -5.42,16.59 -13.07,16.59" /><path
         id="path304"
         style="fill:#fafaf9;fill-opacity:1;fill-rule:nonzero;stroke:none"
         d="m 2048.7,1354.83 h 170.48 V 1008.46 H 2048.7 v 346.37" /><path
         id="path306"
         style="fill:#ededeb;fill-opacity:1;fill-rule:nonzero;stroke:none"
         d="m 2235.79,1354.83 h -29.54 c -6.02,0 -10.89,-4.88 -10.89,-10.9 v -324.58 c 0,-6.01 4.87,-10.89 10.89,-10.89 h 29.54 c 6.02,0 10.89,4.88 10.89,10.89 v 324.58 c 0,6.02 -4.87,10.9 -10.89,10.9" /><path
         id="path308"
         style="fill:#fafaf9;fill-opacity:1;fill-rule:nonzero;stroke:none"
         d="m 1991.3,1354.83 h 170.49 V 1008.46 H 1991.3 v 346.37" /><path
         id="path310"
         style="fill:#e2e2e0;fill-opacity:1;fill-rule:nonzero;stroke:none"
         d="m 2178.39,1354.83 h -29.53 c -6.02,0 -10.9,-4.88 -10.9,-10.9 v -324.58 c 0,-6.01 4.88,-10.89 10.9,-10.89 h 29.53 c 6.02,0 10.9,4.88 10.9,10.89 v 324.58 c 0,6.02 -4.88,10.9 -10.9,10.9" /><path
         id="path312"
         style="fill:#fafaf9;fill-opacity:1;fill-rule:nonzero;stroke:none"
         d="m 1947.65,1354.83 h 147.12 l -11.7,-346.37 h -135.42 v 346.37" /><path
         id="path314"
         style="fill:#ededeb;fill-opacity:1;fill-rule:nonzero;stroke:none"
         d="m 2113.79,1354.83 h -34.37 c -4.68,0 -8.69,-6.27 -8.95,-14 l -10.76,-318.37 c -0.26,-7.73 3.33,-14 8.01,-14 h 34.37 c 4.68,0 8.69,6.27 8.95,14 l 10.76,318.37 c 0.26,7.73 -3.32,14 -8.01,14" /><path
         id="path316"
         style="fill:#fafaf9;fill-opacity:1;fill-rule:nonzero;stroke:none"
         d="m 2333.14,1008.46 h 141.219 v 286.91 H 2333.14 Z" /><path
         id="path318"
         style="fill:#ededeb;fill-opacity:1;fill-rule:nonzero;stroke:none"
         d="m 2488.11,1295.37 h -24.46 c -4.98,0 -9.03,-4.04 -9.03,-9.02 v -268.87 c 0,-4.98 4.05,-9.02 9.03,-9.02 h 24.46 c 4.99,0 9.03,4.04 9.03,9.02 v 268.87 c 0,4.98 -4.04,9.02 -9.03,9.02" /><path
         id="path320"
         style="fill:#fafaf9;fill-opacity:1;fill-rule:nonzero;stroke:none"
         d="m 2285.6,1008.46 h 141.219 v 286.91 H 2285.6 Z" /><path
         id="path322"
         style="fill:#e2e2e0;fill-opacity:1;fill-rule:nonzero;stroke:none"
         d="m 2440.58,1295.37 h -24.47 c -4.99,0 -9.03,-4.04 -9.03,-9.02 v -268.87 c 0,-4.98 4.04,-9.02 9.03,-9.02 h 24.47 c 4.98,0 9.02,4.04 9.02,9.02 v 268.87 c 0,4.98 -4.04,9.02 -9.02,9.02" /><path
         id="path324"
         style="fill:#fafaf9;fill-opacity:1;fill-rule:nonzero;stroke:none"
         d="m 2249.44,1295.37 h 121.87 l -9.69,-286.91 h -112.18 v 286.91" /><path
         id="path326"
         style="fill:#ededeb;fill-opacity:1;fill-rule:nonzero;stroke:none"
         d="m 2387.06,1295.37 h -28.47 c -3.88,0 -7.2,-5.19 -7.42,-11.6 l -8.9,-263.71 c -0.22,-6.41 2.75,-11.6 6.63,-11.6 h 28.47 c 3.88,0 7.2,5.19 7.41,11.6 l 8.91,263.71 c 0.22,6.41 -2.75,11.6 -6.63,11.6" /><path
         id="path328"
         style="fill:#fafaf9;fill-opacity:1;fill-rule:nonzero;stroke:none"
         d="m 1176.06,1354.83 h 210.99 v -346.37 h -210.99 v 346.37" /><path
         id="path330"
         style="fill:#ededeb;fill-opacity:1;fill-rule:nonzero;stroke:none"
         d="m 1408.96,1354.83 h -39.28 c -6.7,0 -12.12,-5.43 -12.12,-12.12 v -322.13 c 0,-6.69 5.42,-12.12 12.12,-12.12 h 39.28 c 6.69,0 12.12,5.43 12.12,12.12 v 322.13 c 0,6.69 -5.43,12.12 -12.12,12.12" /><path
         id="path332"
         style="fill:#fafaf9;fill-opacity:1;fill-rule:nonzero;stroke:none"
         d="m 1105.04,1354.83 h 210.98 v -346.37 h -210.98 v 346.37" /><path
         id="path334"
         style="fill:#e2e2e0;fill-opacity:1;fill-rule:nonzero;stroke:none"
         d="m 1337.93,1354.83 h -39.28 c -6.69,0 -12.12,-5.43 -12.12,-12.12 v -322.13 c 0,-6.69 5.43,-12.12 12.12,-12.12 h 39.28 c 6.69,0 12.12,5.43 12.12,12.12 v 322.13 c 0,6.69 -5.43,12.12 -12.12,12.12" /><path
         id="path336"
         style="fill:#fafaf9;fill-opacity:1;fill-rule:nonzero;stroke:none"
         d="m 1051.02,1354.83 h 182.07 l -14.49,-346.37 h -167.58 v 346.37" /><path
         id="path338"
         style="fill:#ededeb;fill-opacity:1;fill-rule:nonzero;stroke:none"
         d="m 1256.62,1354.83 h -42.54 c -5.79,0 -10.75,-6.27 -11.07,-14 l -13.31,-318.37 c -0.32,-7.73 4.11,-14 9.9,-14 h 42.54 c 5.8,0 10.76,6.27 11.08,14 l 13.31,318.37 c 0.32,7.73 -4.11,14 -9.91,14" /><path
         id="path340"
         style="fill:#fafaf9;fill-opacity:1;fill-rule:nonzero;stroke:none"
         d="M 880.238,1380.77 H 1027.3 V 1008.46 H 880.238 v 372.31" /><path
         id="path342"
         style="fill:#ededeb;fill-opacity:1;fill-rule:nonzero;stroke:none"
         d="m 1040.53,1380.77 h -23.29 c -5.8,0 -10.5,-4.7 -10.5,-10.49 v -351.33 c 0,-5.79 4.7,-10.49 10.5,-10.49 h 23.29 c 5.79,0 10.49,4.7 10.49,10.49 v 351.33 c 0,5.79 -4.7,10.49 -10.49,10.49" /><path
         id="path344"
         style="fill:#fafaf9;fill-opacity:1;fill-rule:nonzero;stroke:none"
         d="M 757.703,1418.79 H 919.785 V 1008.46 H 757.703 v 410.33" /><path
         id="path346"
         style="fill:#f3f2f1;fill-opacity:1;fill-rule:nonzero;stroke:none"
         d="m 934.359,1418.79 h -25.668 c -6.386,0 -11.562,-5.17 -11.562,-11.56 v -387.21 c 0,-6.39 5.176,-11.56 11.562,-11.56 h 25.668 c 6.387,0 11.571,5.17 11.571,11.56 v 387.21 c 0,6.39 -5.184,11.56 -11.571,11.56" /><path
         id="path348"
         style="fill:#fafaf9;fill-opacity:1;fill-rule:nonzero;stroke:none"
         d="M 716.207,1418.79 H 856.07 L 844.945,1008.46 H 716.207 v 410.33" /><path
         id="path350"
         style="fill:#ededeb;fill-opacity:1;fill-rule:nonzero;stroke:none"
         d="m 874.148,1418.79 h -32.671 c -4.457,0 -8.262,-7.42 -8.512,-16.59 l -10.227,-377.15 c -0.25,-9.17 3.16,-16.59 7.614,-16.59 h 32.675 c 4.453,0 8.262,7.42 8.512,16.59 l 10.223,377.15 c 0.25,9.17 -3.157,16.59 -7.614,16.59" /><path
         id="path352"
         style="fill:#fafaf9;fill-opacity:1;fill-rule:nonzero;stroke:none"
         d="m 1543.37,451.629 h 206.348 V 894.801 H 1543.37 Z" /><path
         id="path354"
         style="fill:#ededeb;fill-opacity:1;fill-rule:nonzero;stroke:none"
         d="m 1769.44,894.801 h -35.01 c -7.49,0 -13.56,-6.082 -13.56,-13.571 V 465.191 c 0,-7.492 6.07,-13.562 13.56,-13.562 h 35.01 c 7.49,0 13.56,6.07 13.56,13.562 V 881.23 c 0,7.489 -6.07,13.571 -13.56,13.571" /><path
         id="path356"
         style="fill:#fafaf9;fill-opacity:1;fill-rule:nonzero;stroke:none"
         d="m 1473.91,451.629 h 206.34 v 443.172 h -206.34 z" /><path
         id="path358"
         style="fill:#e2e2e0;fill-opacity:1;fill-rule:nonzero;stroke:none"
         d="m 1699.98,894.801 h -35.01 c -7.49,0 -13.56,-6.082 -13.56,-13.571 V 465.191 c 0,-7.492 6.07,-13.562 13.56,-13.562 h 35.01 c 7.49,0 13.56,6.07 13.56,13.562 V 881.23 c 0,7.489 -6.07,13.571 -13.56,13.571" /><path
         id="path360"
         style="fill:#fafaf9;fill-opacity:1;fill-rule:nonzero;stroke:none"
         d="m 1421.08,894.801 h 178.06 l -14.16,-443.172 h -163.9 v 443.172" /><path
         id="path362"
         style="fill:#ededeb;fill-opacity:1;fill-rule:nonzero;stroke:none"
         d="m 1622.16,894.801 h -41.6 c -5.67,0 -10.52,-8.031 -10.84,-17.922 l -13.01,-407.328 c -0.32,-9.903 4.02,-17.922 9.69,-17.922 h 41.6 c 5.67,0 10.52,8.019 10.83,17.922 l 13.02,407.328 c 0.31,9.891 -4.02,17.922 -9.69,17.922" /><path
         id="path364"
         style="fill:#fafaf9;fill-opacity:1;fill-rule:nonzero;stroke:none"
         d="m 1235.85,451.629 h 178.27 v 385.77 h -178.27 z" /><path
         id="path366"
         style="fill:#ededeb;fill-opacity:1;fill-rule:nonzero;stroke:none"
         d="m 1431.11,837.398 h -30.15 c -6.5,0 -11.76,-5.269 -11.76,-11.757 v -362.25 c 0,-6.493 5.26,-11.762 11.76,-11.762 h 30.15 c 6.49,0 11.76,5.269 11.76,11.762 v 362.25 c 0,6.488 -5.27,11.757 -11.76,11.757" /><path
         id="path368"
         style="fill:#fafaf9;fill-opacity:1;fill-rule:nonzero;stroke:none"
         d="m 1175.83,451.629 h 178.273 v 385.77 H 1175.83 Z" /><path
         id="path370"
         style="fill:#e2e2e0;fill-opacity:1;fill-rule:nonzero;stroke:none"
         d="m 1371.1,837.398 h -30.16 c -6.49,0 -11.76,-5.269 -11.76,-11.757 v -362.25 c 0,-6.493 5.27,-11.762 11.76,-11.762 h 30.16 c 6.49,0 11.76,5.269 11.76,11.762 v 362.25 c 0,6.488 -5.27,11.757 -11.76,11.757" /><path
         id="path372"
         style="fill:#fafaf9;fill-opacity:1;fill-rule:nonzero;stroke:none"
         d="m 1130.19,837.398 h 153.83 l -12.23,-385.769 h -141.6 v 385.769" /><path
         id="path374"
         style="fill:#ededeb;fill-opacity:1;fill-rule:nonzero;stroke:none"
         d="m 1303.91,837.398 h -35.94 c -4.89,0 -9.08,-6.988 -9.36,-15.597 L 1247.37,467.23 c -0.27,-8.609 3.48,-15.601 8.37,-15.601 h 35.94 c 4.9,0 9.09,6.992 9.36,15.601 l 11.24,354.571 c 0.28,8.609 -3.47,15.597 -8.37,15.597" /><path
         id="path376"
         style="fill:#f3f2f1;fill-opacity:1;fill-rule:nonzero;stroke:none"
         d="M 4438.89,113.238 C 4438.89,50.6992 3570.83,0 2500,0 1429.18,0 561.109,50.6992 561.109,113.238 c 0,62.532 868.071,113.231 1938.891,113.231 1070.83,0 1938.89,-50.699 1938.89,-113.231" /><path
         id="path378"
         style="fill:#406fbf;fill-opacity:1;fill-rule:nonzero;stroke:none"
         d="m 2301.27,139.379 c 4.09,-12.988 -5.99,-26.141 -19.6,-26.141 H 888.293 c -43.527,0 -43.527,283.301 0,283.301 H 2281.67 c 13.61,0 23.69,-13.148 19.6,-26.141 -16.96,-53.949 -16.96,-177.066 0,-231.019" /><path
         id="path380"
         style="fill:#ffffff;fill-opacity:1;fill-rule:nonzero;stroke:none"
         d="m 2289.17,225.809 c -1.05,24.433 -0.76,50.07 0.87,73.839 h 0.06 c -1.63,-23.769 -1.92,-49.398 -0.87,-73.839 h -0.06 m 1.11,76.339 h -0.06 c 1.03,14.18 2.55,27.641 4.56,39.723 h 0.04 c -1.99,-12.082 -3.51,-25.543 -4.54,-39.723 m 4.97,42.223 h -0.05 c 1.2,6.879 2.56,13.277 4.08,19.07 h 0.04 c -1.52,-5.793 -2.88,-12.191 -4.07,-19.07" /><path
         id="path382"
         style="fill:#fbfbfa;fill-opacity:1;fill-rule:nonzero;stroke:none"
         d="m 2290.1,299.648 h -0.06 c 0.06,0.832 0.12,1.672 0.18,2.5 h 0.06 c -0.06,-0.828 -0.12,-1.668 -0.18,-2.5" /><path
         id="path384"
         style="fill:#fbfbfa;fill-opacity:1;fill-rule:nonzero;stroke:none"
         d="m 2294.82,341.871 h -0.04 c 0.14,0.84 0.28,1.68 0.42,2.5 h 0.05 c -0.15,-0.832 -0.29,-1.66 -0.43,-2.5" /><path
         id="path386"
         style="fill:#fefefe;fill-opacity:1;fill-rule:nonzero;stroke:none"
         d="m 2299.32,146.34 h -0.04 c -5.44,20.719 -8.81,49.16 -10.11,79.469 h 0.06 c 1.3,-30.309 4.66,-58.77 10.09,-79.469" /><path
         id="path388"
         style="fill:#cfe0f5;fill-opacity:1;fill-rule:nonzero;stroke:none"
         d="m 2299.28,146.34 h -845.25 c -33.37,0 -33.37,217.101 0,217.101 h 845.25 c -1.52,-5.793 -2.88,-12.191 -4.08,-19.07 -0.14,-0.82 -0.28,-1.66 -0.42,-2.5 -2.01,-12.082 -3.53,-25.543 -4.56,-39.723 -0.06,-0.828 -0.12,-1.668 -0.18,-2.5 -1.63,-23.769 -1.92,-49.406 -0.87,-73.839 1.3,-30.309 4.67,-58.75 10.11,-79.469" /><path
         id="path390"
         style="fill:#3563b7;fill-opacity:1;fill-rule:nonzero;stroke:none"
         d="m 1392.29,113.238 h -198.5 c -43.53,0 -43.53,283.301 0,283.301 h 198.5 c 13.62,0 23.7,-13.148 19.61,-26.141 -16.97,-53.949 -16.97,-177.066 0,-231.019 4.09,-12.988 -5.99,-26.141 -19.61,-26.141 m -243.71,0 h -45.51 c -43.53,0 -43.53,283.301 0,283.301 h 45.51 c -43.52,0 -43.52,-283.301 0,-283.301 m -160.553,0 h -99.734 c -21.766,0 -32.645,70.821 -32.645,141.653 0,70.828 10.879,141.648 32.645,141.648 h 99.734 c -43.523,0 -43.523,-283.301 0,-283.301" /><path
         id="path392"
         style="fill:#406fbf;fill-opacity:1;fill-rule:nonzero;stroke:none"
         d="M 1103.07,396.539 H 988.027 c -43.523,0 -43.523,-283.301 0,-283.301 h 115.043 c -43.53,0 -43.53,283.301 0,283.301" /><path
         id="path394"
         style="fill:#406fbf;fill-opacity:1;fill-rule:nonzero;stroke:none"
         d="m 1193.79,396.539 h -45.21 c -43.52,0 -43.52,-283.301 0,-283.301 h 45.21 c -43.53,0 -43.53,283.301 0,283.301" /><path
         id="path396"
         style="fill:#17282f;fill-opacity:1;fill-rule:nonzero;stroke:none"
         d="m 807.055,420.051 c -4.793,-11.68 7.027,-23.512 23,-23.512 H 2082.93 c 51.06,0 51.06,254.711 0,254.711 H 830.055 c -15.973,0 -27.793,-11.828 -23,-23.5 19.91,-48.512 19.91,-159.199 0,-207.699" /><path
         id="path398"
         style="fill:#111d23;fill-opacity:1;fill-rule:nonzero;stroke:none"
         d="M 1444.45,396.539 H 830.055 c -13.539,0 -24.094,8.5 -24.078,18.199 0.003,1.754 0.347,3.532 1.078,5.313 0.816,1.98 1.597,4.07 2.343,6.258 h 609.792 c 39.15,0 39.15,195.183 0,195.183 H 809.398 c -0.746,2.188 -1.527,4.27 -2.343,6.258 -0.731,1.781 -1.075,3.559 -1.078,5.301 -0.016,9.699 10.539,18.199 24.078,18.199 h 614.395 c 51.07,0 51.07,-254.711 0,-254.711" /><path
         id="path400"
         style="fill:#ffffff;fill-opacity:1;fill-rule:nonzero;stroke:none"
         d="m 809.398,426.309 h -0.046 c 2.312,6.773 4.308,14.461 5.984,22.82 h 0.059 c -1.676,-8.348 -3.676,-16.047 -5.997,-22.82" /><path
         id="path402"
         style="fill:#fbfbfa;fill-opacity:1;fill-rule:nonzero;stroke:none"
         d="m 815.395,449.129 h -0.059 c 0.164,0.832 0.328,1.66 0.484,2.5 h 0.063 c -0.16,-0.84 -0.32,-1.668 -0.488,-2.5" /><path
         id="path404"
         style="fill:#ffffff;fill-opacity:1;fill-rule:nonzero;stroke:none"
         d="m 815.883,451.629 h -0.063 c 9.887,52.082 7.731,128.332 -6.468,169.863 h 0.046 c 8.391,-24.512 12.586,-61.051 12.586,-97.594 0,-25.437 -2.031,-50.886 -6.101,-72.269" /><path
         id="path406"
         style="fill:#cacfcd;fill-opacity:1;fill-rule:nonzero;stroke:none"
         d="M 1419.19,426.309 H 809.398 c 8.391,24.511 12.586,61.05 12.586,97.589 0,36.543 -4.195,73.082 -12.586,97.594 h 609.792 c 39.15,0 39.15,-195.183 0,-195.183" /><path
         id="path408"
         style="fill:#405158;fill-opacity:1;fill-rule:nonzero;stroke:none"
         d="m 1995.03,431.102 h -350.77 c -15.19,0 -26.16,10.957 -22.38,22.238 12.01,35.699 12.01,105.422 0,141.121 -3.78,11.269 7.19,22.23 22.38,22.23 h 350.77 c 37.21,0 37.21,-185.589 0,-185.589" /><path
         id="path410"
         style="fill:#406fbf;fill-opacity:1;fill-rule:nonzero;stroke:none"
         d="m 4157.32,533.672 c 4.32,-15.113 -6.33,-30.422 -20.71,-30.422 H 2664.56 c -45.99,0 -45.99,329.648 0,329.648 h 1472.05 c 14.38,0 25.03,-15.308 20.71,-30.429 -17.93,-62.77 -17.93,-206.02 0,-268.797" /><path
         id="path412"
         style="fill:#90b4e3;fill-opacity:1;fill-rule:nonzero;stroke:none"
         d="m 4136.61,503.25 h -110.44 c -1.27,0.148 -2.57,0.23 -3.89,0.23 l -823.46,-0.148 c 13.46,1.207 23.04,15.867 18.91,30.34 -17.93,62.777 -17.93,206.027 0,268.797 4.32,15.121 -6.32,30.429 -20.71,30.429 h 102.41 v 0 h 674.52 v 0 h 162.66 c 12.19,0 21.7,-11 21.68,-23.558 0,-2.258 -0.31,-4.559 -0.97,-6.871 -0.73,-2.559 -1.44,-5.258 -2.11,-8.09 h -892.97 c -35.25,0 -35.25,-252.609 0,-252.609 h 892.97 c 0.67,-2.829 1.38,-5.528 2.11,-8.098 0.66,-2.301 0.97,-4.613 0.97,-6.863 0.02,-12.559 -9.49,-23.559 -21.68,-23.559" /><path
         id="path414"
         style="fill:#fcfdfc;fill-opacity:1;fill-rule:nonzero;stroke:none"
         d="m 4155.25,541.77 h -0.04 c -7.56,31.718 -11.33,79.019 -11.33,126.3 0,47.301 3.77,94.59 11.33,126.309 h 0.04 c -15.07,-63.379 -15.07,-189.231 0,-252.609" /><path
         id="path416"
         style="fill:#e6effa;fill-opacity:1;fill-rule:nonzero;stroke:none"
         d="m 4155.21,541.77 h -892.97 c -35.25,0 -35.25,252.609 0,252.609 h 892.97 c -7.56,-31.719 -11.33,-79.008 -11.33,-126.309 0,-47.281 3.77,-94.582 11.33,-126.3" /><path
         id="path418"
         style="fill:#5d87cd;fill-opacity:1;fill-rule:nonzero;stroke:none"
         d="m 2732.01,503.25 h -67.45 c -22.99,0 -34.49,82.41 -34.49,164.82 0,82.418 11.5,164.828 34.49,164.828 h 119.09 c -45.84,0 -45.98,-327.519 -0.44,-329.636 h -2.29 c -0.08,0 -0.15,0 -0.22,0 l -48.69,-0.012 m 255.81,0.051 c 10.77,0.82 17.65,12.961 13.83,24.371 -20.43,61.047 -20.43,219.758 0,280.808 3.96,11.821 -3.56,24.418 -14.99,24.418 h 210.36 c 14.39,0 25.03,-15.308 20.71,-30.429 -17.93,-62.77 -17.93,-206.02 0,-268.797 4.13,-14.473 -5.45,-29.133 -18.91,-30.34 l -211,-0.031" /><path
         id="path420"
         style="fill:#a4c3e9;fill-opacity:1;fill-rule:nonzero;stroke:none"
         d="m 2783.21,503.262 c -45.54,2.117 -45.4,329.636 0.44,329.636 h 203.01 c 11.43,0 18.95,-12.597 14.99,-24.418 -20.43,-61.05 -20.43,-219.761 0,-280.808 3.82,-11.41 -3.06,-23.551 -13.83,-24.371 l -115.27,-0.02 c -0.04,0 -0.09,0 -0.13,0 l -89.21,-0.019" /><path
         id="path422"
         style="fill:#406fbf;fill-opacity:1;fill-rule:nonzero;stroke:none"
         d="m 4051.72,149.488 c 6.13,-17.879 -8.98,-35.988 -29.39,-35.988 l -1529.47,-0.262 c -65.26,-0.008 -65.32,389.961 -0.06,389.973 l 1529.48,0.269 c 20.41,0 35.52,-18.109 29.4,-35.988 -25.44,-74.273 -25.41,-243.742 0.04,-318.004" /><path
         id="path424"
         style="fill:#5d87cd;fill-opacity:1;fill-rule:nonzero;stroke:none"
         d="m 2492.86,113.238 145.13,0.024 v 0 l -145.13,-0.024 m 206.17,0.032 h 1.18 l 80.62,0.019 v 0 l -81.8,-0.019 m 173.49,0.031 c 0.01,0 0.01,0 0.01,0 l 158.93,0.031 c 20.42,0 35.52,18.109 29.39,35.988 -25.45,74.262 -25.47,243.731 -0.04,318 6.12,17.879 -8.99,35.989 -29.41,35.981 l -158.83,-0.02 c -0.01,0 -0.01,0 -0.02,0 l 1149.73,0.199 c 17.3,0 30.79,-13.011 30.77,-27.871 0,-2.668 -0.44,-5.39 -1.37,-8.117 -1.04,-3.043 -2.04,-6.23 -3,-9.582 l -924.72,-0.16 c -50.02,0 -49.98,-298.84 0.05,-298.84 l 924.71,0.16 c 0.96,-3.34 1.96,-6.539 3,-9.582 0.93,-2.718 1.37,-5.449 1.38,-8.117 0.02,-14.859 -13.47,-27.871 -30.77,-27.871 l -1149.81,-0.199 m -428.63,194.918 v 0 c -0.02,97.492 16.28,194.992 48.91,194.992 l 157.37,0.027 h -12.04 -0.01 l -145.32,-0.027 c -32.63,0 -48.93,-97.5 -48.91,-194.992 m 285.86,195.031 h -0.01 l 50.96,0.012 c -0.01,0 -0.01,0 -0.02,0 l -50.93,-0.012" /><path
         id="path426"
         style="fill:#ffffff;fill-opacity:1;fill-rule:nonzero;stroke:none"
         d="m 4043.37,181.781 c -0.04,0.008 -0.04,0.008 -0.07,0.008 -6.06,30.301 -9.54,67.813 -10.44,106.383 h 0.09 c 0.91,-38.59 4.38,-76.09 10.42,-106.391 m -10.47,108.891 h -0.1 c -0.12,5.918 -0.18,11.879 -0.18,17.816 -0.01,51.742 4.57,103.473 13.73,140.641 h 0.06 c -10.19,-41.41 -14.69,-100.981 -13.51,-158.457" /><path
         id="path428"
         style="fill:#fbfbfa;fill-opacity:1;fill-rule:nonzero;stroke:none"
         d="m 4046.41,449.129 h -0.06 c 0.21,0.84 0.42,1.68 0.63,2.5 h 0.06 c -0.21,-0.82 -0.42,-1.66 -0.63,-2.5" /><path
         id="path430"
         style="fill:#fbfbfa;fill-opacity:1;fill-rule:nonzero;stroke:none"
         d="m 4032.95,288.172 h -0.09 c -0.02,0.84 -0.04,1.66 -0.06,2.5 h 0.1 c 0.01,-0.84 0.03,-1.66 0.05,-2.5" /><path
         id="path432"
         style="fill:#f9f9f8;fill-opacity:1;fill-rule:nonzero;stroke:none"
         d="m 4047.04,451.629 h -0.06 c 0.55,2.152 1.12,4.242 1.7,6.281 h 0.06 c -0.58,-2.039 -1.15,-4.129 -1.7,-6.281" /><path
         id="path434"
         style="fill:#fefefe;fill-opacity:1;fill-rule:nonzero;stroke:none"
         d="m 4048.72,159.07 c -1.99,6.981 -3.8,14.59 -5.42,22.719 0.03,0 0.03,0 0.07,-0.008 1.62,-8.121 3.42,-15.742 5.41,-22.711 h -0.06" /><path
         id="path436"
         style="fill:#d8e7f7;fill-opacity:1;fill-rule:nonzero;stroke:none"
         d="m 3124.01,158.91 c -50.03,0 -50.07,298.84 -0.05,298.84 l 924.72,0.16 c -0.58,-2.039 -1.15,-4.129 -1.7,-6.281 -0.21,-0.82 -0.42,-1.66 -0.63,-2.5 -9.16,-37.168 -13.74,-88.899 -13.73,-140.641 0,-55.949 5.37,-111.898 16.1,-149.418 l -924.71,-0.16" /><path
         id="path438"
         style="fill:#4a77c4;fill-opacity:1;fill-rule:nonzero;stroke:none"
         d="m 2492.86,113.238 c -32.63,-0.008 -48.96,97.481 -48.97,194.981 -0.02,97.492 16.28,194.992 48.91,194.992 l 145.32,0.027 c -65.18,-0.058 -65.19,-389.226 -0.13,-389.976 l -145.13,-0.024 m 207.35,0.032 29.49,0.011 c 7.6,0 12.47,7.559 8.55,13.539 -39.33,60.149 -39.37,302.731 -0.05,362.891 3.9,5.961 -0.91,13.469 -8.45,13.539 l 50.93,0.012 c -64.98,-0.961 -64.89,-389.41 0.15,-389.973 l -80.62,-0.019 m 172.32,0.031 c 7.57,0.039 12.41,7.578 8.5,13.551 -39.33,60.136 -39.36,302.73 -0.04,362.878 3.88,5.95 -0.9,13.45 -8.42,13.551 l 158.83,0.02 c 20.42,0.008 35.53,-18.102 29.41,-35.981 -25.43,-74.269 -25.41,-243.738 0.04,-318 6.13,-17.879 -8.97,-35.988 -29.39,-35.988 l -158.93,-0.031" /><path
         id="path440"
         style="fill:#fafaf9;fill-opacity:1;fill-rule:nonzero;stroke:none"
         d="m 2638.19,113.262 c -0.07,0 -0.13,0 -0.2,0 l 61.04,0.008 -60.84,-0.008" /><path
         id="path442"
         style="fill:#a4c3e9;fill-opacity:1;fill-rule:nonzero;stroke:none"
         d="m 2637.99,113.262 v 0 l 62.22,0.008 h -1.18 l -61.04,-0.008" /><path
         id="path444"
         style="fill:#f7f7f6;fill-opacity:1;fill-rule:nonzero;stroke:none"
         d="m 2650.17,503.238 79.47,0.012 c 0.03,0 0.07,0 0.1,0 l -79.57,-0.012" /><path
         id="path446"
         style="fill:#a4c3e9;fill-opacity:1;fill-rule:nonzero;stroke:none"
         d="m 2638.12,503.238 h 0.01 12.04 l 79.57,0.012 h 0.01 l -91.63,-0.012" /><path
         id="path448"
         style="fill:#97bae6;fill-opacity:1;fill-rule:nonzero;stroke:none"
         d="m 2637.99,113.262 c -65.06,0.75 -65.05,389.918 0.13,389.976 l 91.63,0.012 c 7.54,-0.07 12.35,-7.578 8.45,-13.539 -39.32,-60.16 -39.28,-302.742 0.05,-362.891 3.92,-5.98 -0.95,-13.539 -8.55,-13.539 l -29.49,-0.011 -62.22,-0.008" /><path
         id="path450"
         style="fill:#fafaf9;fill-opacity:1;fill-rule:nonzero;stroke:none"
         d="m 2780.97,113.289 c -0.05,0 -0.09,0 -0.14,0 l 91.69,0.012 c -0.01,0 -0.03,0 -0.04,0 l -91.51,-0.012" /><path
         id="path452"
         style="fill:#a4c3e9;fill-opacity:1;fill-rule:nonzero;stroke:none"
         d="m 2780.7,503.262 c 0.07,0 0.14,0 0.22,0 h 2.29 c 0.01,0 0.02,0 0.03,0 h -2.54" /><path
         id="path454"
         style="fill:#cfe0f5;fill-opacity:1;fill-rule:nonzero;stroke:none"
         d="m 2783.24,503.262 c -0.01,0 -0.02,0 -0.03,0 l 89.21,0.019 c 0.04,0 0.09,0 0.13,0 l -89.31,-0.019" /><path
         id="path456"
         style="fill:#a4c3e9;fill-opacity:1;fill-rule:nonzero;stroke:none"
         d="m 2780.83,113.289 v 0 l 91.7,0.012 c 0,0 0,0 -0.01,0 l -91.69,-0.012 m -0.15,389.973 c 0.01,0 0.01,0 0.02,0 l 91.85,0.019 c 0.01,0 0.01,0 0.02,0 l -91.89,-0.019" /><path
         id="path458"
         style="fill:#97bae6;fill-opacity:1;fill-rule:nonzero;stroke:none"
         d="m 2780.83,113.289 c -65.04,0.563 -65.13,389.012 -0.15,389.973 l 91.89,0.019 c 7.52,-0.101 12.3,-7.601 8.42,-13.551 -39.32,-60.148 -39.29,-302.742 0.04,-362.878 3.91,-5.973 -0.93,-13.512 -8.5,-13.551 l -91.7,-0.012" /><path
         id="path460"
         style="fill:#406fbf;fill-opacity:1;fill-rule:nonzero;stroke:none"
         d="m 4036.68,1040.4 c -3.42,34.31 -9.91,61.44 -19.31,80.64 l 8.99,4.4 c 9.91,-20.28 16.74,-48.56 20.26,-84.05 l -9.94,-0.99" /><path
         id="path462"
         style="fill:#406fbf;fill-opacity:1;fill-rule:nonzero;stroke:none"
         d="m 3973.96,1154.27 h -248.4 v 10 h 248.4 v -10" /><path
         id="path464"
         style="fill:#406fbf;fill-opacity:1;fill-rule:nonzero;stroke:none"
         d="m 2355.06,860.25 c -5.06,-13.59 7.43,-27.352 24.3,-27.352 h 1594.59 c 53.96,0 53.96,296.372 0,296.372 H 2379.36 c -16.87,0 -29.36,-13.76 -24.3,-27.35 21.03,-56.44 21.03,-185.229 0,-241.67" /><path
         id="path466"
         style="fill:#3563b7;fill-opacity:1;fill-rule:nonzero;stroke:none"
         d="m 3299.43,832.898 h -920.07 c -14.3,0 -25.45,9.883 -25.44,21.172 0.01,2.032 0.37,4.11 1.14,6.18 0.86,2.309 1.69,4.742 2.48,7.281 h 915.2 c 41.36,0 41.36,227.109 0,227.109 h -915.2 c -0.79,2.54 -1.62,4.97 -2.48,7.28 -0.77,2.07 -1.13,4.14 -1.14,6.17 -0.01,11.29 11.14,21.18 25.44,21.18 h 920.07 c 53.95,0 53.95,-296.372 0,-296.372" /><path
         id="path468"
         style="fill:#fafaf9;fill-opacity:1;fill-rule:nonzero;stroke:none"
         d="m 2357.54,867.531 h -0.06 c 7.76,24.981 12.12,60.77 13.07,97.879 h 0.08 c -0.95,-37.101 -5.32,-72.879 -13.09,-97.879" /><path
         id="path470"
         style="fill:#fefefe;fill-opacity:1;fill-rule:nonzero;stroke:none"
         d="m 2370.63,965.41 h -0.08 c 0.37,14.328 0.23,28.86 -0.41,43.05 h 0.08 c 0.41,-9.03 0.62,-18.21 0.62,-27.378 0,-5.23 -0.07,-10.461 -0.21,-15.672" /><path
         id="path472"
         style="fill:#fcfdfc;fill-opacity:1;fill-rule:nonzero;stroke:none"
         d="m 2370.22,1008.46 h -0.08 c -1.5,32.85 -5.72,63.83 -12.66,86.18 h 0.06 c 6.95,-22.37 11.18,-53.34 12.68,-86.18" /><path
         id="path474"
         style="fill:#ccdcf3;fill-opacity:1;fill-rule:nonzero;stroke:none"
         d="m 3272.74,867.531 h -915.2 c 8.86,28.508 13.3,71.028 13.3,113.551 0,42.518 -4.44,85.038 -13.3,113.558 h 915.2 c 41.36,0 41.36,-227.109 0,-227.109" /><path
         id="path476"
         style="fill:#5d87cd;fill-opacity:1;fill-rule:nonzero;stroke:none"
         d="m 3881.1,873.109 h -370.57 c -16.06,0 -27.65,12.75 -23.65,25.871 12.69,41.54 12.69,122.66 0,164.2 -4,13.12 7.59,25.88 23.65,25.88 h 370.57 c 39.31,0 39.31,-215.951 0,-215.951" /><path
         id="path478"
         style="fill:#17282f;fill-opacity:1;fill-rule:nonzero;stroke:none"
         d="m 2206.01,3295.81 c -45.09,-48.34 -155.16,0.07 -172.06,-133.01 -18.19,-143.34 50.87,-212.3 -38.27,-249.62 -139.76,-58.5 -240.47,-292.3 -45.61,-380.4 194.87,-88.11 608.44,4.22 561.8,182.98 -46.65,178.76 -37.37,274.51 17.61,358.8 72.56,111.23 56.98,254.26 -2.07,306.09 -92.04,80.79 -219.07,24.87 -321.4,-84.84" /><path
         id="path480"
         style="fill:#17282f;fill-opacity:1;fill-rule:nonzero;stroke:none"
         d="m 2446.55,2720.32 c -1.53,0 -2.87,1.13 -3.07,2.68 -0.24,1.71 0.95,3.27 2.65,3.51 38.6,5.29 61.58,14.81 72.33,29.98 13.42,18.94 7.66,47.03 0.39,82.58 -11.87,57.93 -28.12,137.28 23.86,237.45 63.04,121.45 40.51,254.66 -19.13,298.25 -1.38,1.02 -1.69,2.96 -0.67,4.35 1.01,1.38 2.95,1.69 4.35,0.67 61.68,-45.08 85.45,-181.9 20.98,-306.14 -50.97,-98.21 -34.98,-176.31 -23.31,-233.33 7.59,-37.03 13.58,-66.28 -1.39,-87.42 -11.81,-16.67 -36.14,-27.02 -76.57,-32.56 l -0.42,-0.02" /><path
         id="path482"
         style="fill:#17282f;fill-opacity:1;fill-rule:nonzero;stroke:none"
         d="m 1942.4,2893.51 c -5.92,0 -12.2,0.42 -18.89,1.24 -1.71,0.21 -2.92,1.77 -2.71,3.47 0.21,1.7 1.81,2.95 3.47,2.71 28.47,-3.53 49.03,0.7 62.93,12.91 26.04,22.86 26.35,70.77 26.73,126.25 0.41,62.79 0.87,133.96 41.56,182.42 1.11,1.31 3.06,1.49 4.38,0.38 1.31,-1.1 1.49,-3.07 0.38,-4.38 -39.24,-46.74 -39.7,-116.72 -40.11,-178.46 -0.37,-56.98 -0.7,-106.18 -28.84,-130.89 -11.93,-10.48 -28.04,-15.65 -48.9,-15.65" /><path
         id="path484"
         style="fill:#406fbf;fill-opacity:1;fill-rule:nonzero;stroke:none"
         d="m 2923.88,1129.5 c -66.65,0.84 -92.91,5.01 -123.61,4.5 -32.17,-0.55 -37.96,-5.88 -70.48,-4.51 -21.54,0.91 -21.72,26.59 -13.4,44.25 6.48,13.75 14.46,27.64 21.89,44.87 l 84.63,-6.14 c 11.37,-32.28 68.03,-46.07 117.55,-57.48 20.27,-4.68 10.1,-25.78 -16.58,-25.49" /><path
         id="path486"
         style="fill:#17282f;fill-opacity:1;fill-rule:nonzero;stroke:none"
         d="m 2482.78,2357.98 c 0,0 223.83,-192.51 450.23,-396.69 95.59,-86.46 -104.92,-746.01 -104.92,-746.01 -4.23,-14.06 -78.76,6.02 -90.3,17.14 0,0 -11.37,511.91 37.1,614.99 -501.62,126.85 -580.06,373.12 -580.06,373.12 l 35.92,152.75 252.03,-15.3" /><path
         id="path488"
         style="fill:#111d23;fill-opacity:1;fill-rule:nonzero;stroke:none"
         d="m 2327.03,2054.98 c -5.07,4.19 -9.96,8.34 -14.67,12.47 18.07,35.61 35.75,69.75 52.31,101.31 -0.99,-32.75 -8.26,-79.45 -37.64,-113.78" /><path
         id="path490"
         style="fill:#17282f;fill-opacity:1;fill-rule:nonzero;stroke:none"
         d="m 2845.33,1243.78 c -1.4,-9.93 -3.81,-27.63 -5.11,-40.78 -0.43,-4.36 -4.22,-7.64 -8.57,-7.55 -32.57,0.7 -82.62,12.97 -99.01,17.21 -3.25,0.84 -5.45,3.69 -5.52,7.08 l -0.7,36.51 c -0.09,4.98 4.4,9.06 9.32,8.47 l 103.11,-12.46 c 4.21,-0.51 7.08,-4.23 6.48,-8.48" /><path
         id="path492"
         style="fill:#57666b;fill-opacity:1;fill-rule:nonzero;stroke:none"
         d="m 2831.83,1195.45 c -0.06,0 -0.12,0 -0.18,0 -32.57,0.7 -82.62,12.97 -99.01,17.21 -3.25,0.84 -5.45,3.69 -5.52,7.08 l -0.7,36.51 c 0,0.06 0,0.11 0,0.16 0.01,4.58 3.89,8.37 8.36,8.37 0.32,0 0.64,-0.02 0.96,-0.06 l 103.11,-12.46 c 3.83,-0.47 6.56,-3.59 6.56,-7.35 0,-0.37 -0.02,-0.75 -0.08,-1.13 -1.4,-9.93 -3.81,-27.63 -5.11,-40.78 -0.42,-4.3 -4.12,-7.55 -8.39,-7.55" /><path
         id="path494"
         style="fill:#406fbf;fill-opacity:1;fill-rule:nonzero;stroke:none"
         d="m 1944.71,651.25 c -67.82,0 -90.45,25.43 -127.86,32.43 -32.02,6.07 -40.57,3.25 -66.37,7.781 -21.56,3.758 -23.26,18.508 -10.33,40.418 6.47,11.012 14.94,28.293 21.95,47.441 l 102.79,-6.808 c 10.73,-27.461 35.42,-83.422 73.09,-90.262 35.95,-6.531 33.76,-31 6.73,-31" /><path
         id="path496"
         style="fill:#17282f;fill-opacity:1;fill-rule:nonzero;stroke:none"
         d="m 2467.3,2358.64 c 0,0 -236.54,-420.57 -331.69,-680.64 -99.93,-273.14 -259.22,-720.398 -270.72,-905.488 -16.96,-8.121 -72.75,-4.992 -102.79,6.808 0,0 -27.8,639.86 164.73,896.41 45.88,549.11 122.07,636.93 203.06,703.78 l 337.41,-20.87" /><path
         id="path498"
         style="fill:#17282f;fill-opacity:1;fill-rule:nonzero;stroke:none"
         d="m 1877.32,810.391 c -0.84,-9.321 -1.95,-25.582 -1.03,-38.11 0.34,-4.519 -3.18,-8.453 -7.78,-8.871 -38.35,-3.512 -91.74,8.801 -108.64,13.039 -3.24,0.821 -5.43,3.602 -5.55,6.942 l -1.31,35.8 c -0.18,4.891 4.16,9 9.07,8.579 l 108.41,-9.301 c 4.2,-0.36 7.21,-3.879 6.83,-8.078" /><path
         id="path500"
         style="fill:#57666b;fill-opacity:1;fill-rule:nonzero;stroke:none"
         d="m 1853.87,762.789 c -36.21,0 -79.16,9.941 -94,13.66 -3.24,0.821 -5.43,3.602 -5.55,6.942 l -1.31,35.8 c 0,0.09 0,0.18 0,0.27 -0.02,4.539 3.85,8.34 8.38,8.34 0.23,0 0.46,-0.012 0.69,-0.031 l 108.41,-9.301 c 3.97,-0.34 6.87,-3.5 6.86,-7.399 0,-0.23 -0.01,-0.449 -0.03,-0.679 -0.61,-6.84 -1.38,-17.43 -1.38,-27.532 0,-3.66 0.1,-7.25 0.35,-10.578 0.01,-0.191 0.02,-0.383 0.02,-0.582 0.01,-4.269 -3.4,-7.89 -7.8,-8.289 -4.69,-0.43 -9.6,-0.621 -14.64,-0.621" /><path
         id="path502"
         style="fill:#f89e63;fill-opacity:1;fill-rule:nonzero;stroke:none"
         d="m 2530.06,2771.15 c 10.12,-18.98 20.79,-39.83 31.8,-59.51 10.89,-19.98 22.09,-39.77 33.29,-59.5 22.67,-39.29 46.22,-77.79 71.51,-114.11 l -13.57,12.09 c 8.11,-5.92 19.52,-11.87 32.8,-16.25 13.24,-4.42 28,-8.17 43.39,-10.73 15.38,-2.84 31.45,-4.71 47.75,-6.26 16.12,-1.57 33.37,-2.4 49.01,-3.32 l 2.02,-0.12 c 15.45,-0.91 27.24,-14.18 26.33,-29.63 -0.69,-11.74 -8.54,-21.37 -19.04,-24.92 -18.69,-6.29 -36.09,-10.34 -54.66,-13.74 -18.39,-3.25 -37.13,-5.38 -56.44,-6.09 -19.26,-0.5 -39.13,0.01 -59.73,3.53 -20.53,3.43 -42.24,9.31 -64.01,21.22 -4.29,2.36 -7.96,5.41 -10.94,8.94 l -2.63,3.15 c -15.94,19.06 -31.39,38.37 -45.6,58.29 -14.34,19.83 -28.13,39.96 -41.02,60.51 -13.08,20.45 -25.42,41.28 -37.23,62.39 -11.65,21.43 -23,42.06 -33.71,65.15 -13.01,28.04 -0.83,61.32 27.22,74.33 27.05,12.55 58.98,1.65 72.88,-24.31 l 0.58,-1.11" /><path
         id="path504"
         style="fill:#406fbf;fill-opacity:1;fill-rule:nonzero;stroke:none"
         d="m 2474.85,2851.82 c 65.29,-21.52 75.81,-50.78 111.61,-159.02 -23.77,-64.93 -120.19,-97.77 -120.19,-97.77 0,0 -113.35,184.98 8.58,256.79" /><path
         id="path506"
         style="fill:#406fbf;fill-opacity:1;fill-rule:nonzero;stroke:none"
         d="m 2564.17,2711 c -3.64,-35.83 -12.88,-78.5 -32.18,-162.37 -14.97,-71.22 -15.23,-210.35 -39.22,-217.35 -46.1,-22.75 -161.52,-14 -362.88,48.23 6.37,103.99 18.51,174.58 -16.08,413.25 -8.02,55.34 32.48,102.08 87.01,100.38 14.57,-0.45 29.98,-1.26 45.73,-2.59 61.23,-5.14 111.38,-9.82 164.78,-21.91 17.69,-4 35.96,-8.72 53.37,-13.54 62.86,-17.41 106,-79.9 99.47,-144.1" /><path
         id="path508"
         style="fill:#f89e63;fill-opacity:1;fill-rule:nonzero;stroke:none"
         d="m 1859.17,2297.42 20.27,18.31 c 7.63,6.88 11.45,17.02 10.28,27.23 l -5.51,47.68 c -2.2,19.07 -13.49,35.89 -30.31,45.13 l -10.41,5.73 c -35.7,-28.06 -53.61,-84.68 -53.61,-84.68 l -6.9,-15.58 c -6.13,-13.87 -0.6,-29.28 12.73,-35.38 l 30.69,-14.07 c 10.59,-4.86 23.63,-2.61 32.77,5.63" /><path
         id="path510"
         style="fill:#f89e63;fill-opacity:1;fill-rule:nonzero;stroke:none"
         d="m 2908.88,2537.66 -25.57,9.58 c -9.62,3.6 -20.39,2.33 -28.91,-3.41 L 2814.59,2517 c -15.91,-10.72 -25.64,-28.49 -26.11,-47.68 l -0.3,-11.87 c 41.34,-18.79 99.86,-8.64 99.86,-8.64 l 17,1.05 c 15.14,0.93 26.27,12.94 25.56,27.58 l -1.64,33.72 c -0.56,11.64 -8.55,22.19 -20.08,26.5" /><path
         id="path512"
         style="fill:#f89e63;fill-opacity:1;fill-rule:nonzero;stroke:none"
         d="m 2173.42,2760.47 -12.86,-5.84 -13.92,-6.45 c -9.32,-4.42 -18.57,-9.13 -27.77,-13.94 -18.45,-9.57 -36.49,-19.89 -54.21,-30.54 -17.72,-10.69 -34.79,-22.15 -51.33,-34.09 -16.62,-11.95 -32,-24.89 -47.08,-38.15 l 6.65,8.4 c -3.83,-5.08 -8.4,-13.77 -12.76,-22.69 -4.4,-9.04 -8.58,-18.91 -12.57,-29.03 -7.95,-20.26 -15.74,-41.44 -22.94,-62.92 -7.43,-21.46 -14.51,-43.26 -21.67,-65.13 l -21.56,-65.68 -0.04,-0.15 c -4.82,-14.67 -20.63,-22.67 -35.31,-17.85 -12.18,4 -19.75,15.58 -19.23,27.79 1.04,24.09 3.29,47.47 5.95,71.12 2.73,23.59 6.16,47.12 10.25,70.74 4.33,23.56 8.95,47.25 15.44,71.22 3.22,11.99 6.74,24.08 11.11,36.59 4.42,12.6 9.45,25.19 17.85,39.92 1.24,2.17 2.69,4.14 4.31,5.9 l 2.34,2.5 c 16.79,18.05 34.11,35.68 52.87,51.09 18.51,15.76 37.77,30.43 57.78,43.7 19.88,13.49 40.42,25.8 61.51,37.07 10.62,5.52 21.29,10.91 32.19,16.04 5.47,2.54 10.91,5.14 16.55,7.51 5.79,2.45 10.94,4.55 17.98,7.24 28.86,11.05 61.2,-3.39 72.24,-32.24 10.61,-27.74 -2.31,-58.69 -28.96,-70.85 l -2.81,-1.28" /><path
         id="path514"
         style="fill:#406fbf;fill-opacity:1;fill-rule:nonzero;stroke:none"
         d="m 2270.31,2866.68 c -49.01,35.14 -78.77,38.91 -197.37,-12.55 -14.11,-74.63 32.06,-184.07 32.06,-184.07 0,0 157.51,82.17 165.31,196.62" /><path
         id="path516"
         style="fill:#f89e63;fill-opacity:1;fill-rule:nonzero;stroke:none"
         d="m 2282.77,3074.56 c 7.3,-54.93 12,-154.41 -27.16,-185.21 0,0 51.22,0.86 149.08,-79.25 36.76,40.18 15.7,57.34 15.7,57.34 -58.3,22.12 -54.21,66.22 -41.51,106.45 l -96.11,100.67" /><path
         id="path518"
         style="fill:#ffffff;fill-opacity:1;fill-rule:nonzero;stroke:none"
         d="m 2384.03,2826.36 c -35.78,-0.33 -53.82,-51.91 -53.82,-51.91 0,0 -85.77,68.39 -97.56,116.5 13.39,4.89 33.4,15.46 33.4,15.46 0,0 100.18,-57.05 117.98,-80.05" /><path
         id="path520"
         style="fill:#ffffff;fill-opacity:1;fill-rule:nonzero;stroke:none"
         d="m 2418.16,2827.57 c 0,0 27.08,-9.73 35.91,-50.38 18.32,76.27 -17.4,88.25 -17.4,88.25 0,0 -9.97,9.33 -31.13,8.81 25.89,-18.4 12.62,-46.68 12.62,-46.68" /><path
         id="path522"
         style="fill:#111d23;fill-opacity:1;fill-rule:nonzero;stroke:none"
         d="m 2372.05,2945.08 c -0.01,0 -0.01,0 -0.02,0.01 0.11,0.8 0.23,1.61 0.36,2.43 -0.12,-0.82 -0.23,-1.63 -0.34,-2.44" /><path
         id="path524"
         style="fill:#dc834c;fill-opacity:1;fill-rule:nonzero;stroke:none"
         d="m 2372.03,2945.09 c -13.43,3.78 -29.44,15.78 -40.32,30 14.86,-6.15 29.97,-9.27 44.59,-9.64 -1.64,-5.96 -3,-11.97 -3.91,-17.93 -0.13,-0.82 -0.25,-1.63 -0.36,-2.43" /><path
         id="path526"
         style="fill:#f89e63;fill-opacity:1;fill-rule:nonzero;stroke:none"
         d="m 2221.24,3154.44 c 20.46,-85.46 27.3,-121.96 78.57,-160.91 77.1,-58.58 177.2,-20.64 182.59,67.77 4.85,79.59 -29.43,205.97 -119.71,230.08 -88.96,23.73 -161.91,-51.48 -141.45,-136.94" /><path
         id="path528"
         style="fill:#17282f;fill-opacity:1;fill-rule:nonzero;stroke:none"
         d="m 2237.88,3093.05 c 31.44,15.34 64.67,91.09 19.93,126.83 36.9,-6.88 79.22,3.05 118.27,33.28 51,39.48 126.17,-59.35 101.43,-1.04 -35.61,83.96 -142.89,105.03 -239.63,35.24 -96.75,-69.79 -90.53,-154.73 0,-194.31" /><path
         id="path530"
         style="fill:#ffffff;fill-opacity:1;fill-rule:nonzero;stroke:none"
         d="m 2211.31,3110.12 -1.43,0.93 0.81,2.05 c 25.03,10.82 131.13,33.4 135.63,34.36 l 1.84,-1.2 -1.2,-1.84 c -1.1,-0.24 -110.29,-23.48 -135.04,-34.17 l -0.61,-0.13" /><path
         id="path532"
         style="fill:#dc834c;fill-opacity:1;fill-rule:nonzero;stroke:none"
         d="m 2325.13,3144.83 c -5.48,0 -12.09,0.49 -19.1,2.07 4.72,2.37 9.77,3.18 14.49,3.18 10.45,0 19.27,-4 19.27,-4 0,0 -5.88,-1.25 -14.66,-1.25" /><path
         id="path534"
         style="fill:#dc834c;fill-opacity:1;fill-rule:nonzero;stroke:none"
         d="m 2309.23,3131.13 c 6.73,6.3 15.62,7.64 21.94,7.64 4.63,0 7.88,-0.72 7.88,-0.72 0,0 -12.9,-6.77 -29.82,-6.92" /><path
         id="path536"
         style="fill:#17282f;fill-opacity:1;fill-rule:nonzero;stroke:none"
         d="m 2358.59,3146.81 c 1.41,-7.25 6.32,-12.66 10.98,-12.08 4.65,0.57 7.29,6.91 5.88,14.16 -1.41,7.25 -6.32,12.65 -10.98,12.08 -4.66,-0.58 -7.29,-6.92 -5.88,-14.16" /><path
         id="path538"
         style="fill:#17282f;fill-opacity:1;fill-rule:nonzero;stroke:none"
         d="m 2446.44,3156.35 c 1.41,-7.25 6.32,-12.66 10.98,-12.08 4.65,0.57 7.29,6.91 5.88,14.16 -1.41,7.25 -6.32,12.65 -10.98,12.08 -4.65,-0.58 -7.29,-6.92 -5.88,-14.16" /><path
         id="path540"
         style="fill:#17282f;fill-opacity:1;fill-rule:nonzero;stroke:none"
         d="m 2450.34,3169.85 16.13,7.13 c 0,0 -6.13,-14.68 -16.13,-7.13" /><path
         id="path542"
         style="fill:#f57739;fill-opacity:1;fill-rule:nonzero;stroke:none"
         d="m 2429.48,3142.4 c 0,0 16.38,-30.71 31.8,-45.04 -8.25,-9.63 -24.88,-6.55 -24.88,-6.55 l -6.92,51.59" /><path
         id="path544"
         style="fill:#17282f;fill-opacity:1;fill-rule:nonzero;stroke:none"
         d="m 2398.49,3058.51 c 3.81,-0.21 7.87,-0.1 12.14,0.43 1.16,0.14 1.91,1.21 1.68,2.38 -0.23,1.17 -1.32,2.01 -2.51,1.88 -31.23,-3.88 -50.17,16.55 -50.36,16.75 -0.82,0.91 -2.17,1.03 -3.01,0.27 -0.84,-0.76 -0.86,-2.12 -0.04,-3.02 0.72,-0.8 15.96,-17.26 42.1,-18.69" /><path
         id="path546"
         style="fill:#f89e63;fill-opacity:1;fill-rule:nonzero;stroke:none"
         d="m 2200.86,3077.93 c 11.81,-15.9 28,-24.11 41.78,-25.27 20.71,-1.75 25.28,22.46 14.68,43.95 -9.54,19.35 -31.83,43.57 -50.29,35.21 -18.19,-8.22 -19.66,-35.71 -6.17,-53.89" /><path
         id="path548"
         style="fill:#17282f;fill-opacity:1;fill-rule:nonzero;stroke:none"
         d="m 2330.51,3201.88 c 1.12,0.04 2.2,0.53 2.94,1.44 11.55,14.28 27.2,12.12 27.38,12.09 2.32,-0.32 4.39,1.26 4.58,3.61 0.17,2.34 -1.59,4.52 -3.94,4.87 -0.82,0.12 -20.46,2.86 -34.8,-14.87 -1.43,-1.77 -1.07,-4.48 0.8,-6.06 0.9,-0.75 1.99,-1.11 3.04,-1.08" /><path
         id="path550"
         style="fill:#17282f;fill-opacity:1;fill-rule:nonzero;stroke:none"
         d="m 2462.65,3206.09 c 1.06,-0.11 2.13,0.18 2.97,0.89 1.73,1.47 1.86,4.16 0.26,6.02 -15.92,18.63 -35.38,17.09 -36.21,17.01 -2.33,-0.22 -3.9,-2.3 -3.51,-4.66 0.38,-2.35 2.57,-4.09 4.89,-3.89 0.76,0.08 15.88,1.05 28.54,-13.76 0.83,-0.96 1.94,-1.51 3.06,-1.61" /><path
         id="path552"
         style="fill:#ffffff;fill-opacity:1;fill-rule:nonzero;stroke:none"
         d="m 2382.42,3206.14 -1.86,-0.07 c -9.71,-0.67 -18.51,-6.52 -24.78,-16.45 -6.36,-10.08 -9.34,-23.14 -8.4,-36.76 1.94,-27.93 19.81,-49.47 40.2,-48.13 20.23,1.41 35.12,25.28 33.17,53.22 -1.87,27.07 -18.87,48.19 -38.33,48.19 z m 3.3,-104.58 c -21.08,0 -39.45,22.37 -41.44,51.08 -0.99,14.28 2.16,28 8.87,38.64 6.81,10.8 16.47,17.15 27.19,17.89 22.09,1.59 41.46,-21.36 43.52,-51.01 2.06,-29.64 -14.12,-55 -36.07,-56.53 l -2.07,-0.07" /><path
         id="path554"
         style="fill:#ffffff;fill-opacity:1;fill-rule:nonzero;stroke:none"
         d="m 2475.86,3211.44 -1.87,-0.06 c -9.7,-0.68 -18.49,-6.52 -24.76,-16.45 -6.36,-10.09 -9.35,-23.14 -8.4,-36.77 1.88,-27.07 18.88,-48.18 38.33,-48.18 l 1.87,0.06 c 9.7,0.67 18.5,6.52 24.77,16.45 6.36,10.09 9.35,23.15 8.4,36.76 -1.88,27.08 -18.88,48.19 -38.34,48.19 z m 3.31,-104.57 c -21.08,0 -39.45,22.36 -41.45,51.08 -0.98,14.28 2.16,28 8.88,38.64 6.81,10.79 16.46,17.14 27.18,17.89 21.94,1.56 41.47,-21.37 43.52,-51.01 0.99,-14.27 -2.15,-28 -8.87,-38.64 -6.81,-10.79 -16.47,-17.15 -27.19,-17.89 l -2.07,-0.07" /><path
         id="path556"
         style="fill:#ffffff;fill-opacity:1;fill-rule:nonzero;stroke:none"
         d="m 2439.51,3153.85 -1.32,0.72 c -3.82,6.07 -14.85,-0.43 -14.96,-0.5 l -2.13,0.53 0.53,2.13 c 0.56,0.34 13.72,8.16 19.2,-0.5 l -0.49,-2.14 -0.83,-0.24" /><path
         id="path558"
         style="fill:#17282f;fill-opacity:1;fill-rule:nonzero;stroke:none"
         d="m 2362.5,3160.31 16.13,7.13 c 0,0 -6.14,-14.67 -16.13,-7.13" /></g></g></svg>