<?xml version="1.0" encoding="utf-8"?>
<!-- Generator: Adobe Illustrator 22.0.1, SVG Export Plug-In . SVG Version: 6.00 Build 0)  -->
<svg version="1.1" xmlns="http://www.w3.org/2000/svg" xmlns:xlink="http://www.w3.org/1999/xlink" x="0px" y="0px"
	 viewBox="0 0 528.6 284" style="enable-background:new 0 0 528.6 284;" xml:space="preserve">
<style type="text/css">
	.st0{fill:#29ABE2;}
	.st1{fill:#A67C52;}
	.st2{fill:#8C6239;}
	.st3{fill:#754C24;}
	.st4{opacity:0.5;fill:url(#SVGID_1_);}
	.st5{opacity:0.5;fill:url(#SVGID_2_);}
	.st6{opacity:0.5;fill:url(#SVGID_3_);}
	.st7{opacity:0.5;fill:url(#SVGID_4_);}
	.st8{fill:none;stroke:#000000;stroke-linecap:round;stroke-linejoin:round;stroke-miterlimit:10;}
	.st9{fill:none;stroke:#000000;stroke-linecap:round;stroke-linejoin:round;}
</style>
<g id="water">
	<g>
		<path class="st0" d="M366.1,203.6h-59c-0.8-3-1.5-7.6-1-13c0.3-3.6,1.2-6.7,2-9c19,0,38,0,57,0c0.9,2.7,1.8,6.4,2,11
			C367.3,197.1,366.7,200.9,366.1,203.6z"/>
	</g>
	<g>
		<path class="st0" d="M497.1,202.6h-59c-0.7-3-1.4-7.5-1-13c0.5-7.6,2.8-12.9,6-20c2-4.4,2.2-3.9,12-22c2.3-4.2,3.1-5.7,4-8
			c2.6-6.4,3.3-11.6,4-17c0.9-7.2,1-13.5,1-19c0,0,0,0,0-4c0,0,0-13.6,0-14c0-4.3,0-8.7,0-13c0.1,0.2,1.5,2,4,2c0.2,0,2.5,0,4-2
			c0,1.8,0,28.1,0,30c0,8.5-1.1,12.7,0,20c1.3,9.2,4.3,16.4,6,20c1.7,3.6,2.7,5.1,5,9c7.6,13.1,14.7,25.3,15,40
			C498.2,196.3,497.6,200.2,497.1,202.6z"/>
	</g>
</g>
<g id="soil">
	<g>
		<path class="st1" d="M237.6,211.1c-1.6,2.1-5.5,7-9.5,9.5c-1,0.6-2,1-2,1c-3.3,0.7-5,1-5,1l0,0c0,0-8-1-8-1l0,0
			c0,0-1.7,0.3-3.5,0.5c-1,0.1-1,0-1.8,0.1c-1.3,0.2-1.8,0.4-3.7,0.4c-1.4,0-3.6-0.1-6-1c-0.6-0.2-2.3-1-6-4c-3-2.4-5.1-4.8-6.5-6.5
			c-1-2.7-2-5.3-3-8c19.7-0.3,39.3-0.7,59-1C240.3,205.1,239,208.1,237.6,211.1z"/>
		<g>
			<g>
				<path class="st1" d="M195.9,208.5c1.9,0,1.9-3,0-3C193.9,205.5,193.9,208.5,195.9,208.5L195.9,208.5z"/>
			</g>
		</g>
		<g>
			<g>
				<path class="st1" d="M197.6,210c1.9,0,1.9-3,0-3C195.7,207,195.7,210,197.6,210L197.6,210z"/>
			</g>
		</g>
		<g>
			<g>
				<path class="st2" d="M191,210.2c1.9,0,1.9-3,0-3C189.1,207.2,189.1,210.2,191,210.2L191,210.2z"/>
			</g>
		</g>
		<g>
			<g>
				<path class="st2" d="M231.6,209.1c1.9,0,1.9-3,0-3C229.7,206.1,229.7,209.1,231.6,209.1L231.6,209.1z"/>
			</g>
		</g>
		<g>
			<g>
				<path class="st2" d="M220.9,215.6c1.9,0,1.9-3,0-3C218.9,212.6,218.9,215.6,220.9,215.6L220.9,215.6z"/>
			</g>
		</g>
		<g>
			<g>
				<path class="st2" d="M197.9,217c1.9,0,1.9-3,0-3C195.9,214,195.9,217,197.9,217L197.9,217z"/>
			</g>
		</g>
		<g>
			<g>
				<path class="st2" d="M212.6,209.6c1.9,0,1.9-3,0-3C210.7,206.6,210.7,209.6,212.6,209.6L212.6,209.6z"/>
			</g>
		</g>
		<g>
			<g>
				<path class="st2" d="M212.6,220.4c1.9,0,1.9-3,0-3C210.7,217.4,210.7,220.4,212.6,220.4L212.6,220.4z"/>
			</g>
		</g>
		<g>
			<g>
				<path class="st2" d="M205.6,215.9c0.6,0,0.6-1,0-1C205,214.9,205,215.9,205.6,215.9L205.6,215.9z"/>
			</g>
		</g>
		<g>
			<g>
				<path class="st2" d="M211.6,212.5c0.6,0,0.6-1,0-1C211,211.5,211,212.5,211.6,212.5L211.6,212.5z"/>
			</g>
		</g>
		<g>
			<g>
				<path class="st2" d="M226.9,213c0.6,0,0.6-1,0-1C226.2,212,226.2,213,226.9,213L226.9,213z"/>
			</g>
		</g>
		<g>
			<g>
				<path class="st2" d="M225.4,209.1c0.6,0,0.6-1,0-1C224.7,208.1,224.7,209.1,225.4,209.1L225.4,209.1z"/>
			</g>
		</g>
		<g>
			<g>
				<path class="st2" d="M236.6,205.1c0.6,0,0.6-1,0-1C236,204.1,236,205.1,236.6,205.1L236.6,205.1z"/>
			</g>
		</g>
		<g>
			<g>
				<path class="st3" d="M199.2,208.2c0.6,0,0.6-1,0-1C198.6,207.2,198.6,208.2,199.2,208.2L199.2,208.2z"/>
			</g>
		</g>
		<g>
			<g>
				<path class="st3" d="M201.9,209.7c0.6,0,0.6-1,0-1C201.2,208.7,201.2,209.7,201.9,209.7L201.9,209.7z"/>
			</g>
		</g>
		<g>
			<g>
				<path class="st3" d="M202.5,217.7c0,0,0.1,0,0.1,0c0.6,0,0.6-1,0-1c0,0-0.1,0-0.1,0C201.9,216.7,201.9,217.7,202.5,217.7
					L202.5,217.7z"/>
			</g>
		</g>
		<g>
			<g>
				<path class="st3" d="M218.5,218.1c0.1,0,0.2,0,0.3,0c0.6,0,0.6-1,0-1c-0.1,0-0.2,0-0.3,0C217.9,217.1,217.9,218.1,218.5,218.1
					L218.5,218.1z"/>
			</g>
		</g>
		<g>
			<g>
				<path class="st3" d="M224.7,217.4c0.6,0,0.6-1,0-1C224.1,216.4,224.1,217.4,224.7,217.4L224.7,217.4z"/>
			</g>
		</g>
		<g>
			<g>
				<path class="st3" d="M232,215.6c0.6,0,0.6-1,0-1C231.4,214.6,231.4,215.6,232,215.6L232,215.6z"/>
			</g>
		</g>
		<g>
			<g>
				<path class="st3" d="M236.4,211.5c0.6,0,0.6-1,0-1C235.7,210.5,235.7,211.5,236.4,211.5L236.4,211.5z"/>
			</g>
		</g>
		<g>
			<g>
				<path class="st3" d="M192.1,213.1c0.6,0,0.6-1,0-1C191.5,212.1,191.5,213.1,192.1,213.1L192.1,213.1z"/>
			</g>
		</g>
		<g>
			<g>
				<path class="st3" d="M194.4,208.7c0.6,0,0.6-1,0-1C193.7,207.7,193.7,208.7,194.4,208.7L194.4,208.7z"/>
			</g>
		</g>
		<g>
			<g>
				<path class="st3" d="M195.2,206.7c0.6,0,0.6-1,0-1C194.6,205.7,194.6,206.7,195.2,206.7L195.2,206.7z"/>
			</g>
		</g>
		<g>
			<g>
				<path class="st3" d="M187,205.4c0.6,0,0.6-1,0-1C186.4,204.4,186.4,205.4,187,205.4L187,205.4z"/>
			</g>
		</g>
		<g>
			<g>
				<path class="st3" d="M218.7,208.6c0.6,0,0.6-1,0-1C218.1,207.6,218.1,208.6,218.7,208.6L218.7,208.6z"/>
			</g>
		</g>
		<g>
			<g>
				<path class="st3" d="M216.7,211.9c0.6,0,0.6-1,0-1C216.1,210.9,216.1,211.9,216.7,211.9L216.7,211.9z"/>
			</g>
		</g>
		<g>
			<g>
				<path class="st3" d="M213.6,215.6c0.6,0,0.6-1,0-1C213,214.6,213,215.6,213.6,215.6L213.6,215.6z"/>
			</g>
		</g>
		<g>
			<g>
				<path class="st3" d="M222.2,208.2c1.9,0,1.9-3,0-3C220.3,205.2,220.3,208.2,222.2,208.2L222.2,208.2z"/>
			</g>
		</g>
		<g>
			<g>
				<path class="st3" d="M205.9,220.5c1.9,0,1.9-3,0-3C203.9,217.5,203.9,220.5,205.9,220.5L205.9,220.5z"/>
			</g>
		</g>
		<g>
			<g>
				<path class="st3" d="M204.7,209.1c1.9,0,1.9-3,0-3C202.8,206.1,202.8,209.1,204.7,209.1L204.7,209.1z"/>
			</g>
		</g>
		<g>
			<g>
				<path class="st3" d="M208.2,215.5c1.9,0,1.9-3,0-3C206.3,212.5,206.3,215.5,208.2,215.5L208.2,215.5z"/>
			</g>
		</g>
		<g>
			<g>
				<path class="st3" d="M200,214c1.9,0,1.9-3,0-3C198.1,211,198.1,214,200,214L200,214z"/>
			</g>
		</g>
		<g>
			<g>
				<path class="st3" d="M222.4,221.2c1.9,0,1.9-3,0-3C220.4,218.2,220.4,221.2,222.4,221.2L222.4,221.2z"/>
			</g>
		</g>
		<g>
			<g>
				<path class="st3" d="M226.9,206.9c1.9,0,1.9-3,0-3C224.9,203.9,224.9,206.9,226.9,206.9L226.9,206.9z"/>
			</g>
		</g>
		<g>
			<g>
				<path class="st3" d="M200.9,205.4c0.6,0,0.6-1,0-1C200.2,204.4,200.2,205.4,200.9,205.4L200.9,205.4z"/>
			</g>
		</g>
		<g>
			<g>
				<path class="st3" d="M209.2,205c0.6,0,0.6-1,0-1C208.6,204,208.6,205,209.2,205L209.2,205z"/>
			</g>
		</g>
		<g>
			<g>
				<path class="st3" d="M208.7,209.4c0.6,0,0.6-1,0-1C208.1,208.4,208.1,209.4,208.7,209.4L208.7,209.4z"/>
			</g>
		</g>
		<g>
			<g>
				<path class="st2" d="M225.6,217.1c0.6,0,0.6-1,0-1C225,216.1,225,217.1,225.6,217.1L225.6,217.1z"/>
			</g>
		</g>
		<g>
			<g>
				<path class="st2" d="M228.1,214.9c0.6,0,0.6-1,0-1C227.5,213.9,227.5,214.9,228.1,214.9L228.1,214.9z"/>
			</g>
		</g>
		<g>
			<g>
				<path class="st2" d="M230.4,213.2c0.6,0,0.6-1,0-1C229.7,212.2,229.7,213.2,230.4,213.2L230.4,213.2z"/>
			</g>
		</g>
		<g>
			<g>
				<path class="st2" d="M221.9,212.1c0.6,0,0.6-1,0-1C221.2,211.1,221.2,212.1,221.9,212.1L221.9,212.1z"/>
			</g>
		</g>
		<g>
			<g>
				<path class="st2" d="M217.5,214.5c0.6,0,0.6-1,0-1C216.9,213.5,216.9,214.5,217.5,214.5L217.5,214.5z"/>
			</g>
		</g>
		<g>
			<g>
				<path class="st2" d="M216.1,219c0.6,0,0.6-1,0-1C215.5,218,215.5,219,216.1,219L216.1,219z"/>
			</g>
		</g>
		<g>
			<g>
				<path class="st2" d="M214.5,212.7c0.6,0,0.6-1,0-1C213.9,211.7,213.9,212.7,214.5,212.7L214.5,212.7z"/>
			</g>
		</g>
		<g>
			<g>
				<path class="st2" d="M215.9,206.9c0.6,0,0.6-1,0-1C215.2,205.9,215.2,206.9,215.9,206.9L215.9,206.9z"/>
			</g>
		</g>
		<g>
			<g>
				<path class="st2" d="M194.5,214.2c0.6,0,0.6-1,0-1C193.9,213.2,193.9,214.2,194.5,214.2L194.5,214.2z"/>
			</g>
		</g>
		<g>
			<g>
				<path class="st2" d="M195.6,212.6c0.6,0,0.6-1,0-1C195,211.6,195,212.6,195.6,212.6L195.6,212.6z"/>
			</g>
		</g>
		<g>
			<g>
				<path class="st2" d="M194.2,211.6c0.6,0,0.6-1,0-1C193.6,210.6,193.6,211.6,194.2,211.6L194.2,211.6z"/>
			</g>
		</g>
		<g>
			<g>
				<path class="st2" d="M194.5,217.4c0.6,0,0.6-1,0-1C193.9,216.4,193.9,217.4,194.5,217.4L194.5,217.4z"/>
			</g>
		</g>
		<g>
			<g>
				<path class="st2" d="M199.5,220.2c0.6,0,0.6-1,0-1C198.9,219.2,198.9,220.2,199.5,220.2L199.5,220.2z"/>
			</g>
		</g>
		<g>
			<g>
				<path class="st2" d="M203.5,220.5c0.6,0,0.6-1,0-1C202.9,219.5,202.9,220.5,203.5,220.5L203.5,220.5z"/>
			</g>
		</g>
		<g>
			<g>
				<path class="st2" d="M200.1,218.2c-0.1,0-0.2,0.1-0.3,0.1c-0.6,0.3-0.1,1.2,0.5,0.9c0.1,0,0.2-0.1,0.3-0.1
					C201.2,218.8,200.7,217.9,200.1,218.2L200.1,218.2z"/>
			</g>
		</g>
		<g>
			<g>
				<path class="st2" d="M200.7,216.5c0.6,0,0.6-1,0-1C200.1,215.5,200.1,216.5,200.7,216.5L200.7,216.5z"/>
			</g>
		</g>
		<g>
			<g>
				<path class="st2" d="M204.9,213.6c0.6,0,0.6-1,0-1C204.2,212.6,204.2,213.6,204.9,213.6L204.9,213.6z"/>
			</g>
		</g>
		<g>
			<g>
				<path class="st2" d="M188.9,210.5c0.6,0,0.6-1,0-1C188.2,209.5,188.2,210.5,188.9,210.5L188.9,210.5z"/>
			</g>
		</g>
		<g>
			<g>
				<path class="st2" d="M187.9,209.4c0.6,0,0.6-1,0-1C187.2,208.4,187.2,209.4,187.9,209.4L187.9,209.4z"/>
			</g>
		</g>
		<g>
			<g>
				<path class="st2" d="M192.1,204.9c-0.1,0-0.3,0-0.4,0c-0.6,0-0.6,1,0,1c0.1,0,0.3,0,0.4,0C192.8,205.9,192.8,204.9,192.1,204.9
					L192.1,204.9z"/>
			</g>
		</g>
		<g>
			<g>
				<path class="st2" d="M186.9,207c0.6,0,0.6-1,0-1C186.2,206,186.2,207,186.9,207L186.9,207z"/>
			</g>
		</g>
		<g>
			<g>
				<path class="st2" d="M184.2,206c0.6,0,0.6-1,0-1C183.6,205,183.6,206,184.2,206L184.2,206z"/>
			</g>
		</g>
		<g>
			<g>
				<path class="st2" d="M232.7,211.5c0.6,0,0.6-1,0-1C232.1,210.5,232.1,211.5,232.7,211.5L232.7,211.5z"/>
			</g>
		</g>
	</g>
	<g>
		<path class="st1" d="M362.6,211.1c-1.6,2.1-5.5,7-9.5,9.5c-0.4,0.2-1,0.6-2,1c-2.3,0.9-4.3,1-7,1c-5.9-0.1-5.8-0.8-9.5-0.5
			c-2.6,0.2-3.1,0.6-5.5,0.5c-1.4,0-3.6-0.1-6-1c-0.6-0.2-2.3-1-6-4c-3-2.4-5.1-4.8-6.5-6.5c-1-2.7-2-5.3-3-8
			c19.7-0.3,39.3-0.7,59-1C365.3,205.1,364,208.1,362.6,211.1z"/>
		<g>
			<g>
				<path class="st1" d="M320.9,208.5c1.9,0,1.9-3,0-3C318.9,205.5,318.9,208.5,320.9,208.5L320.9,208.5z"/>
			</g>
		</g>
		<g>
			<g>
				<path class="st1" d="M322.6,210c1.9,0,1.9-3,0-3C320.7,207,320.7,210,322.6,210L322.6,210z"/>
			</g>
		</g>
		<g>
			<g>
				<path class="st2" d="M316,210.2c1.9,0,1.9-3,0-3C314.1,207.2,314.1,210.2,316,210.2L316,210.2z"/>
			</g>
		</g>
		<g>
			<g>
				<path class="st2" d="M356.6,209.1c1.9,0,1.9-3,0-3C354.7,206.1,354.7,209.1,356.6,209.1L356.6,209.1z"/>
			</g>
		</g>
		<g>
			<g>
				<path class="st2" d="M345.9,215.6c1.9,0,1.9-3,0-3C343.9,212.6,343.9,215.6,345.9,215.6L345.9,215.6z"/>
			</g>
		</g>
		<g>
			<g>
				<path class="st2" d="M322.9,217c1.9,0,1.9-3,0-3C320.9,214,320.9,217,322.9,217L322.9,217z"/>
			</g>
		</g>
		<g>
			<g>
				<path class="st2" d="M337.6,209.6c1.9,0,1.9-3,0-3C335.7,206.6,335.7,209.6,337.6,209.6L337.6,209.6z"/>
			</g>
		</g>
		<g>
			<g>
				<path class="st2" d="M337.6,220.4c1.9,0,1.9-3,0-3C335.7,217.4,335.7,220.4,337.6,220.4L337.6,220.4z"/>
			</g>
		</g>
		<g>
			<g>
				<path class="st2" d="M330.6,215.9c0.6,0,0.6-1,0-1C330,214.9,330,215.9,330.6,215.9L330.6,215.9z"/>
			</g>
		</g>
		<g>
			<g>
				<path class="st2" d="M336.6,212.5c0.6,0,0.6-1,0-1C336,211.5,336,212.5,336.6,212.5L336.6,212.5z"/>
			</g>
		</g>
		<g>
			<g>
				<path class="st2" d="M351.9,213c0.6,0,0.6-1,0-1C351.2,212,351.2,213,351.9,213L351.9,213z"/>
			</g>
		</g>
		<g>
			<g>
				<path class="st2" d="M350.4,209.1c0.6,0,0.6-1,0-1C349.7,208.1,349.7,209.1,350.4,209.1L350.4,209.1z"/>
			</g>
		</g>
		<g>
			<g>
				<path class="st2" d="M361.6,205.1c0.6,0,0.6-1,0-1C361,204.1,361,205.1,361.6,205.1L361.6,205.1z"/>
			</g>
		</g>
		<g>
			<g>
				<path class="st3" d="M324.2,208.2c0.6,0,0.6-1,0-1C323.6,207.2,323.6,208.2,324.2,208.2L324.2,208.2z"/>
			</g>
		</g>
		<g>
			<g>
				<path class="st3" d="M326.9,209.7c0.6,0,0.6-1,0-1C326.2,208.7,326.2,209.7,326.9,209.7L326.9,209.7z"/>
			</g>
		</g>
		<g>
			<g>
				<path class="st3" d="M327.5,217.7c0,0,0.1,0,0.1,0c0.6,0,0.6-1,0-1c0,0-0.1,0-0.1,0C326.9,216.7,326.9,217.7,327.5,217.7
					L327.5,217.7z"/>
			</g>
		</g>
		<g>
			<g>
				<path class="st3" d="M343.5,218.1c0.1,0,0.2,0,0.3,0c0.6,0,0.6-1,0-1c-0.1,0-0.2,0-0.3,0C342.9,217.1,342.9,218.1,343.5,218.1
					L343.5,218.1z"/>
			</g>
		</g>
		<g>
			<g>
				<path class="st3" d="M349.7,217.4c0.6,0,0.6-1,0-1C349.1,216.4,349.1,217.4,349.7,217.4L349.7,217.4z"/>
			</g>
		</g>
		<g>
			<g>
				<path class="st3" d="M357,215.6c0.6,0,0.6-1,0-1C356.4,214.6,356.4,215.6,357,215.6L357,215.6z"/>
			</g>
		</g>
		<g>
			<g>
				<path class="st3" d="M361.4,211.5c0.6,0,0.6-1,0-1C360.7,210.5,360.7,211.5,361.4,211.5L361.4,211.5z"/>
			</g>
		</g>
		<g>
			<g>
				<path class="st3" d="M317.1,213.1c0.6,0,0.6-1,0-1C316.5,212.1,316.5,213.1,317.1,213.1L317.1,213.1z"/>
			</g>
		</g>
		<g>
			<g>
				<path class="st3" d="M319.4,208.7c0.6,0,0.6-1,0-1C318.7,207.7,318.7,208.7,319.4,208.7L319.4,208.7z"/>
			</g>
		</g>
		<g>
			<g>
				<path class="st3" d="M320.2,206.7c0.6,0,0.6-1,0-1C319.6,205.7,319.6,206.7,320.2,206.7L320.2,206.7z"/>
			</g>
		</g>
		<g>
			<g>
				<path class="st3" d="M312,205.4c0.6,0,0.6-1,0-1C311.4,204.4,311.4,205.4,312,205.4L312,205.4z"/>
			</g>
		</g>
		<g>
			<g>
				<path class="st3" d="M343.7,208.6c0.6,0,0.6-1,0-1C343.1,207.6,343.1,208.6,343.7,208.6L343.7,208.6z"/>
			</g>
		</g>
		<g>
			<g>
				<path class="st3" d="M341.7,211.9c0.6,0,0.6-1,0-1C341.1,210.9,341.1,211.9,341.7,211.9L341.7,211.9z"/>
			</g>
		</g>
		<g>
			<g>
				<path class="st3" d="M338.6,215.6c0.6,0,0.6-1,0-1C338,214.6,338,215.6,338.6,215.6L338.6,215.6z"/>
			</g>
		</g>
		<g>
			<g>
				<path class="st3" d="M347.2,208.2c1.9,0,1.9-3,0-3C345.3,205.2,345.3,208.2,347.2,208.2L347.2,208.2z"/>
			</g>
		</g>
		<g>
			<g>
				<path class="st3" d="M330.9,220.5c1.9,0,1.9-3,0-3C328.9,217.5,328.9,220.5,330.9,220.5L330.9,220.5z"/>
			</g>
		</g>
		<g>
			<g>
				<path class="st3" d="M329.7,209.1c1.9,0,1.9-3,0-3C327.8,206.1,327.8,209.1,329.7,209.1L329.7,209.1z"/>
			</g>
		</g>
		<g>
			<g>
				<path class="st3" d="M333.2,215.5c1.9,0,1.9-3,0-3C331.3,212.5,331.3,215.5,333.2,215.5L333.2,215.5z"/>
			</g>
		</g>
		<g>
			<g>
				<path class="st3" d="M325,214c1.9,0,1.9-3,0-3C323.1,211,323.1,214,325,214L325,214z"/>
			</g>
		</g>
		<g>
			<g>
				<path class="st3" d="M347.4,221.2c1.9,0,1.9-3,0-3C345.4,218.2,345.4,221.2,347.4,221.2L347.4,221.2z"/>
			</g>
		</g>
		<g>
			<g>
				<path class="st3" d="M351.9,206.9c1.9,0,1.9-3,0-3C349.9,203.9,349.9,206.9,351.9,206.9L351.9,206.9z"/>
			</g>
		</g>
		<g>
			<g>
				<path class="st3" d="M325.9,205.4c0.6,0,0.6-1,0-1C325.2,204.4,325.2,205.4,325.9,205.4L325.9,205.4z"/>
			</g>
		</g>
		<g>
			<g>
				<path class="st3" d="M334.2,205c0.6,0,0.6-1,0-1C333.6,204,333.6,205,334.2,205L334.2,205z"/>
			</g>
		</g>
		<g>
			<g>
				<path class="st3" d="M333.7,209.4c0.6,0,0.6-1,0-1C333.1,208.4,333.1,209.4,333.7,209.4L333.7,209.4z"/>
			</g>
		</g>
		<g>
			<g>
				<path class="st2" d="M350.6,217.1c0.6,0,0.6-1,0-1C350,216.1,350,217.1,350.6,217.1L350.6,217.1z"/>
			</g>
		</g>
		<g>
			<g>
				<path class="st2" d="M353.1,214.9c0.6,0,0.6-1,0-1C352.5,213.9,352.5,214.9,353.1,214.9L353.1,214.9z"/>
			</g>
		</g>
		<g>
			<g>
				<path class="st2" d="M355.4,213.2c0.6,0,0.6-1,0-1C354.7,212.2,354.7,213.2,355.4,213.2L355.4,213.2z"/>
			</g>
		</g>
		<g>
			<g>
				<path class="st2" d="M346.9,212.1c0.6,0,0.6-1,0-1C346.2,211.1,346.2,212.1,346.9,212.1L346.9,212.1z"/>
			</g>
		</g>
		<g>
			<g>
				<path class="st2" d="M342.5,214.5c0.6,0,0.6-1,0-1C341.9,213.5,341.9,214.5,342.5,214.5L342.5,214.5z"/>
			</g>
		</g>
		<g>
			<g>
				<path class="st2" d="M341.1,219c0.6,0,0.6-1,0-1C340.5,218,340.5,219,341.1,219L341.1,219z"/>
			</g>
		</g>
		<g>
			<g>
				<path class="st2" d="M339.5,212.7c0.6,0,0.6-1,0-1C338.9,211.7,338.9,212.7,339.5,212.7L339.5,212.7z"/>
			</g>
		</g>
		<g>
			<g>
				<path class="st2" d="M340.9,206.9c0.6,0,0.6-1,0-1C340.2,205.9,340.2,206.9,340.9,206.9L340.9,206.9z"/>
			</g>
		</g>
		<g>
			<g>
				<path class="st2" d="M319.5,214.2c0.6,0,0.6-1,0-1C318.9,213.2,318.9,214.2,319.5,214.2L319.5,214.2z"/>
			</g>
		</g>
		<g>
			<g>
				<path class="st2" d="M320.6,212.6c0.6,0,0.6-1,0-1C320,211.6,320,212.6,320.6,212.6L320.6,212.6z"/>
			</g>
		</g>
		<g>
			<g>
				<path class="st2" d="M319.2,211.6c0.6,0,0.6-1,0-1C318.6,210.6,318.6,211.6,319.2,211.6L319.2,211.6z"/>
			</g>
		</g>
		<g>
			<g>
				<path class="st2" d="M319.5,217.4c0.6,0,0.6-1,0-1C318.9,216.4,318.9,217.4,319.5,217.4L319.5,217.4z"/>
			</g>
		</g>
		<g>
			<g>
				<path class="st2" d="M324.5,220.2c0.6,0,0.6-1,0-1C323.9,219.2,323.9,220.2,324.5,220.2L324.5,220.2z"/>
			</g>
		</g>
		<g>
			<g>
				<path class="st2" d="M328.5,220.5c0.6,0,0.6-1,0-1C327.9,219.5,327.9,220.5,328.5,220.5L328.5,220.5z"/>
			</g>
		</g>
		<g>
			<g>
				<path class="st2" d="M325.1,218.2c-0.1,0-0.2,0.1-0.3,0.1c-0.6,0.3-0.1,1.2,0.5,0.9c0.1,0,0.2-0.1,0.3-0.1
					C326.2,218.8,325.7,217.9,325.1,218.2L325.1,218.2z"/>
			</g>
		</g>
		<g>
			<g>
				<path class="st2" d="M325.7,216.5c0.6,0,0.6-1,0-1C325.1,215.5,325.1,216.5,325.7,216.5L325.7,216.5z"/>
			</g>
		</g>
		<g>
			<g>
				<path class="st2" d="M329.9,213.6c0.6,0,0.6-1,0-1C329.2,212.6,329.2,213.6,329.9,213.6L329.9,213.6z"/>
			</g>
		</g>
		<g>
			<g>
				<path class="st2" d="M313.9,210.5c0.6,0,0.6-1,0-1C313.2,209.5,313.2,210.5,313.9,210.5L313.9,210.5z"/>
			</g>
		</g>
		<g>
			<g>
				<path class="st2" d="M312.9,209.4c0.6,0,0.6-1,0-1C312.2,208.4,312.2,209.4,312.9,209.4L312.9,209.4z"/>
			</g>
		</g>
		<g>
			<g>
				<path class="st2" d="M317.1,204.9c-0.1,0-0.3,0-0.4,0c-0.6,0-0.6,1,0,1c0.1,0,0.3,0,0.4,0C317.8,205.9,317.8,204.9,317.1,204.9
					L317.1,204.9z"/>
			</g>
		</g>
		<g>
			<g>
				<path class="st2" d="M311.9,207c0.6,0,0.6-1,0-1C311.2,206,311.2,207,311.9,207L311.9,207z"/>
			</g>
		</g>
		<g>
			<g>
				<path class="st2" d="M309.2,206c0.6,0,0.6-1,0-1C308.6,205,308.6,206,309.2,206L309.2,206z"/>
			</g>
		</g>
		<g>
			<g>
				<path class="st2" d="M357.7,211.5c0.6,0,0.6-1,0-1C357.1,210.5,357.1,211.5,357.7,211.5L357.7,211.5z"/>
			</g>
		</g>
	</g>
	<g>
		<path class="st1" d="M493.6,210.1c-1.6,2.1-5.5,7-9.5,9.5c-0.5,0.3-1.1,0.7-2,1c-2.9,1.1-6,1-6,1l0,0c-2.2-1-3-1-3-1
			c0,0-0.3,0-1,0l0,0l0,0c-3.9,0.3-5.8,0.4-6.5,0.5c-4.5,0.4-4.2,0.5-5.5,0.5c-1.4,0-3.6-0.1-6-1c-0.6-0.2-2.3-1-6-4
			c-3-2.4-5.1-4.8-6.5-6.5c-1-2.7-2-5.3-3-8c19.7-0.3,39.3-0.7,59-1C496.3,204.1,495,207.1,493.6,210.1z"/>
		<g>
			<g>
				<path class="st1" d="M451.9,207.5c1.9,0,1.9-3,0-3C449.9,204.5,449.9,207.5,451.9,207.5L451.9,207.5z"/>
			</g>
		</g>
		<g>
			<g>
				<path class="st1" d="M453.6,209c1.9,0,1.9-3,0-3C451.7,206,451.7,209,453.6,209L453.6,209z"/>
			</g>
		</g>
		<g>
			<g>
				<path class="st2" d="M447,209.2c1.9,0,1.9-3,0-3C445.1,206.2,445.1,209.2,447,209.2L447,209.2z"/>
			</g>
		</g>
		<g>
			<g>
				<path class="st2" d="M487.6,208.1c1.9,0,1.9-3,0-3C485.7,205.1,485.7,208.1,487.6,208.1L487.6,208.1z"/>
			</g>
		</g>
		<g>
			<g>
				<path class="st2" d="M476.9,214.6c1.9,0,1.9-3,0-3C474.9,211.6,474.9,214.6,476.9,214.6L476.9,214.6z"/>
			</g>
		</g>
		<g>
			<g>
				<path class="st2" d="M453.9,216c1.9,0,1.9-3,0-3C451.9,213,451.9,216,453.9,216L453.9,216z"/>
			</g>
		</g>
		<g>
			<g>
				<path class="st2" d="M468.6,208.6c1.9,0,1.9-3,0-3C466.7,205.6,466.7,208.6,468.6,208.6L468.6,208.6z"/>
			</g>
		</g>
		<g>
			<g>
				<path class="st2" d="M468.6,219.4c1.9,0,1.9-3,0-3C466.7,216.4,466.7,219.4,468.6,219.4L468.6,219.4z"/>
			</g>
		</g>
		<g>
			<g>
				<path class="st2" d="M461.6,214.9c0.6,0,0.6-1,0-1C461,213.9,461,214.9,461.6,214.9L461.6,214.9z"/>
			</g>
		</g>
		<g>
			<g>
				<path class="st2" d="M467.6,211.5c0.6,0,0.6-1,0-1C467,210.5,467,211.5,467.6,211.5L467.6,211.5z"/>
			</g>
		</g>
		<g>
			<g>
				<path class="st2" d="M482.9,212c0.6,0,0.6-1,0-1C482.2,211,482.2,212,482.9,212L482.9,212z"/>
			</g>
		</g>
		<g>
			<g>
				<path class="st2" d="M481.4,208.1c0.6,0,0.6-1,0-1C480.7,207.1,480.7,208.1,481.4,208.1L481.4,208.1z"/>
			</g>
		</g>
		<g>
			<g>
				<path class="st2" d="M492.6,204.1c0.6,0,0.6-1,0-1C492,203.1,492,204.1,492.6,204.1L492.6,204.1z"/>
			</g>
		</g>
		<g>
			<g>
				<path class="st3" d="M455.2,207.2c0.6,0,0.6-1,0-1C454.6,206.2,454.6,207.2,455.2,207.2L455.2,207.2z"/>
			</g>
		</g>
		<g>
			<g>
				<path class="st3" d="M457.9,208.7c0.6,0,0.6-1,0-1C457.2,207.7,457.2,208.7,457.9,208.7L457.9,208.7z"/>
			</g>
		</g>
		<g>
			<g>
				<path class="st3" d="M458.5,216.7c0,0,0.1,0,0.1,0c0.6,0,0.6-1,0-1c0,0-0.1,0-0.1,0C457.9,215.7,457.9,216.7,458.5,216.7
					L458.5,216.7z"/>
			</g>
		</g>
		<g>
			<g>
				<path class="st3" d="M474.5,217.1c0.1,0,0.2,0,0.3,0c0.6,0,0.6-1,0-1c-0.1,0-0.2,0-0.3,0C473.9,216.1,473.9,217.1,474.5,217.1
					L474.5,217.1z"/>
			</g>
		</g>
		<g>
			<g>
				<path class="st3" d="M480.7,216.4c0.6,0,0.6-1,0-1C480.1,215.4,480.1,216.4,480.7,216.4L480.7,216.4z"/>
			</g>
		</g>
		<g>
			<g>
				<path class="st3" d="M488,214.6c0.6,0,0.6-1,0-1C487.4,213.6,487.4,214.6,488,214.6L488,214.6z"/>
			</g>
		</g>
		<g>
			<g>
				<path class="st3" d="M492.4,210.5c0.6,0,0.6-1,0-1C491.7,209.5,491.7,210.5,492.4,210.5L492.4,210.5z"/>
			</g>
		</g>
		<g>
			<g>
				<path class="st3" d="M448.1,212.1c0.6,0,0.6-1,0-1C447.5,211.1,447.5,212.1,448.1,212.1L448.1,212.1z"/>
			</g>
		</g>
		<g>
			<g>
				<path class="st3" d="M450.4,207.7c0.6,0,0.6-1,0-1C449.7,206.7,449.7,207.7,450.4,207.7L450.4,207.7z"/>
			</g>
		</g>
		<g>
			<g>
				<path class="st3" d="M451.2,205.7c0.6,0,0.6-1,0-1C450.6,204.7,450.6,205.7,451.2,205.7L451.2,205.7z"/>
			</g>
		</g>
		<g>
			<g>
				<path class="st3" d="M443,204.4c0.6,0,0.6-1,0-1C442.4,203.4,442.4,204.4,443,204.4L443,204.4z"/>
			</g>
		</g>
		<g>
			<g>
				<path class="st3" d="M474.7,207.6c0.6,0,0.6-1,0-1C474.1,206.6,474.1,207.6,474.7,207.6L474.7,207.6z"/>
			</g>
		</g>
		<g>
			<g>
				<path class="st3" d="M472.7,210.9c0.6,0,0.6-1,0-1C472.1,209.9,472.1,210.9,472.7,210.9L472.7,210.9z"/>
			</g>
		</g>
		<g>
			<g>
				<path class="st3" d="M469.6,214.6c0.6,0,0.6-1,0-1C469,213.6,469,214.6,469.6,214.6L469.6,214.6z"/>
			</g>
		</g>
		<g>
			<g>
				<path class="st3" d="M478.2,207.2c1.9,0,1.9-3,0-3C476.3,204.2,476.3,207.2,478.2,207.2L478.2,207.2z"/>
			</g>
		</g>
		<g>
			<g>
				<path class="st3" d="M461.9,219.5c1.9,0,1.9-3,0-3C459.9,216.5,459.9,219.5,461.9,219.5L461.9,219.5z"/>
			</g>
		</g>
		<g>
			<g>
				<path class="st3" d="M460.7,208.1c1.9,0,1.9-3,0-3C458.8,205.1,458.8,208.1,460.7,208.1L460.7,208.1z"/>
			</g>
		</g>
		<g>
			<g>
				<path class="st3" d="M464.2,214.5c1.9,0,1.9-3,0-3C462.3,211.5,462.3,214.5,464.2,214.5L464.2,214.5z"/>
			</g>
		</g>
		<g>
			<g>
				<path class="st3" d="M456,213c1.9,0,1.9-3,0-3C454.1,210,454.1,213,456,213L456,213z"/>
			</g>
		</g>
		<g>
			<g>
				<path class="st3" d="M478.4,220.2c1.9,0,1.9-3,0-3C476.4,217.2,476.4,220.2,478.4,220.2L478.4,220.2z"/>
			</g>
		</g>
		<g>
			<g>
				<path class="st3" d="M482.9,205.9c1.9,0,1.9-3,0-3C480.9,202.9,480.9,205.9,482.9,205.9L482.9,205.9z"/>
			</g>
		</g>
		<g>
			<g>
				<path class="st3" d="M456.9,204.4c0.6,0,0.6-1,0-1C456.2,203.4,456.2,204.4,456.9,204.4L456.9,204.4z"/>
			</g>
		</g>
		<g>
			<g>
				<path class="st3" d="M465.2,204c0.6,0,0.6-1,0-1C464.6,203,464.6,204,465.2,204L465.2,204z"/>
			</g>
		</g>
		<g>
			<g>
				<path class="st3" d="M464.7,208.4c0.6,0,0.6-1,0-1C464.1,207.4,464.1,208.4,464.7,208.4L464.7,208.4z"/>
			</g>
		</g>
		<g>
			<g>
				<path class="st2" d="M481.6,216.1c0.6,0,0.6-1,0-1C481,215.1,481,216.1,481.6,216.1L481.6,216.1z"/>
			</g>
		</g>
		<g>
			<g>
				<path class="st2" d="M484.1,213.9c0.6,0,0.6-1,0-1C483.5,212.9,483.5,213.9,484.1,213.9L484.1,213.9z"/>
			</g>
		</g>
		<g>
			<g>
				<path class="st2" d="M486.4,212.2c0.6,0,0.6-1,0-1C485.7,211.2,485.7,212.2,486.4,212.2L486.4,212.2z"/>
			</g>
		</g>
		<g>
			<g>
				<path class="st2" d="M477.9,211.1c0.6,0,0.6-1,0-1C477.2,210.1,477.2,211.1,477.9,211.1L477.9,211.1z"/>
			</g>
		</g>
		<g>
			<g>
				<path class="st2" d="M473.5,213.5c0.6,0,0.6-1,0-1C472.9,212.5,472.9,213.5,473.5,213.5L473.5,213.5z"/>
			</g>
		</g>
		<g>
			<g>
				<path class="st2" d="M472.1,218c0.6,0,0.6-1,0-1C471.5,217,471.5,218,472.1,218L472.1,218z"/>
			</g>
		</g>
		<g>
			<g>
				<path class="st2" d="M470.5,211.7c0.6,0,0.6-1,0-1C469.9,210.7,469.9,211.7,470.5,211.7L470.5,211.7z"/>
			</g>
		</g>
		<g>
			<g>
				<path class="st2" d="M471.9,205.9c0.6,0,0.6-1,0-1C471.2,204.9,471.2,205.9,471.9,205.9L471.9,205.9z"/>
			</g>
		</g>
		<g>
			<g>
				<path class="st2" d="M450.5,213.2c0.6,0,0.6-1,0-1C449.9,212.2,449.9,213.2,450.5,213.2L450.5,213.2z"/>
			</g>
		</g>
		<g>
			<g>
				<path class="st2" d="M451.6,211.6c0.6,0,0.6-1,0-1C451,210.6,451,211.6,451.6,211.6L451.6,211.6z"/>
			</g>
		</g>
		<g>
			<g>
				<path class="st2" d="M450.2,210.6c0.6,0,0.6-1,0-1C449.6,209.6,449.6,210.6,450.2,210.6L450.2,210.6z"/>
			</g>
		</g>
		<g>
			<g>
				<path class="st2" d="M450.5,216.4c0.6,0,0.6-1,0-1C449.9,215.4,449.9,216.4,450.5,216.4L450.5,216.4z"/>
			</g>
		</g>
		<g>
			<g>
				<path class="st2" d="M455.5,219.2c0.6,0,0.6-1,0-1C454.9,218.2,454.9,219.2,455.5,219.2L455.5,219.2z"/>
			</g>
		</g>
		<g>
			<g>
				<path class="st2" d="M459.5,219.5c0.6,0,0.6-1,0-1C458.9,218.5,458.9,219.5,459.5,219.5L459.5,219.5z"/>
			</g>
		</g>
		<g>
			<g>
				<path class="st2" d="M456.1,217.2c-0.1,0-0.2,0.1-0.3,0.1c-0.6,0.3-0.1,1.2,0.5,0.9c0.1,0,0.2-0.1,0.3-0.1
					C457.2,217.8,456.7,216.9,456.1,217.2L456.1,217.2z"/>
			</g>
		</g>
		<g>
			<g>
				<path class="st2" d="M456.7,215.5c0.6,0,0.6-1,0-1C456.1,214.5,456.1,215.5,456.7,215.5L456.7,215.5z"/>
			</g>
		</g>
		<g>
			<g>
				<path class="st2" d="M460.9,212.6c0.6,0,0.6-1,0-1C460.2,211.6,460.2,212.6,460.9,212.6L460.9,212.6z"/>
			</g>
		</g>
		<g>
			<g>
				<path class="st2" d="M444.9,209.5c0.6,0,0.6-1,0-1C444.2,208.5,444.2,209.5,444.9,209.5L444.9,209.5z"/>
			</g>
		</g>
		<g>
			<g>
				<path class="st2" d="M443.9,208.4c0.6,0,0.6-1,0-1C443.2,207.4,443.2,208.4,443.9,208.4L443.9,208.4z"/>
			</g>
		</g>
		<g>
			<g>
				<path class="st2" d="M448.1,203.9c-0.1,0-0.3,0-0.4,0c-0.6,0-0.6,1,0,1c0.1,0,0.3,0,0.4,0C448.8,204.9,448.8,203.9,448.1,203.9
					L448.1,203.9z"/>
			</g>
		</g>
		<g>
			<g>
				<path class="st2" d="M442.9,206c0.6,0,0.6-1,0-1C442.2,205,442.2,206,442.9,206L442.9,206z"/>
			</g>
		</g>
		<g>
			<g>
				<path class="st2" d="M440.2,205c0.6,0,0.6-1,0-1C439.6,204,439.6,205,440.2,205L440.2,205z"/>
			</g>
		</g>
		<g>
			<g>
				<path class="st2" d="M488.7,210.5c0.6,0,0.6-1,0-1C488.1,209.5,488.1,210.5,488.7,210.5L488.7,210.5z"/>
			</g>
		</g>
	</g>
</g>
<g id="glass_texture">
	<linearGradient id="SVGID_1_" gradientUnits="userSpaceOnUse" x1="306.2669" y1="124.1974" x2="367.4345" y2="124.1974">
		<stop  offset="0" style="stop-color:#CCE0F4;stop-opacity:0"/>
		<stop  offset="6.405089e-02" style="stop-color:#C3DCF2;stop-opacity:5.644086e-02"/>
		<stop  offset="0.1706" style="stop-color:#A9D2EE;stop-opacity:0.1504"/>
		<stop  offset="0.3066" style="stop-color:#80C2E7;stop-opacity:0.2701"/>
		<stop  offset="0.4649" style="stop-color:#47ACDE;stop-opacity:0.4096"/>
		<stop  offset="0.5674" style="stop-color:#1E9CD7;stop-opacity:0.5"/>
		<stop  offset="0.8652" style="stop-color:#0075BE;stop-opacity:0.5"/>
		<stop  offset="0.9944" style="stop-color:#005B97;stop-opacity:0.5"/>
	</linearGradient>
	<path class="st4" d="M332.1,27.6c0.6,5.2,1.2,13.2,1,23c-0.2,10.9-1.1,10.4-1,20c0.1,9.1,1,18.1,1,27c0,0.2,0,2.3,0,6
		c0,6.6,0,7.2,0,8c0,1.7-0.1,7.2-1,13c-1.4,8.8-4.3,15.2-6,19c-2.2,4.8-3.8,6.8-6,11c-7.8,15-11.6,22.5-13,32
		c-0.9,6.6-2.2,15.5,3,24c3.9,6.4,9.8,9.6,13,11c0.7,0,1.3,0,2,0c8.3,0,16.7,0,25,0c1.8-0.7,4.4-1.9,7-4c6.2-5,8.2-11.5,9-14
		c3.9-12.9-1.7-25.5-6-35c-2.5-5.5-6-12-6-12c-2-3.7-2.9-5-4-7c-1.7-3-7.6-13.7-9-27c-0.1-0.7,0-0.4,0-13c0,0,0-7.3,0-22
		c0-7.3,0-14.7,0-22c0-6,0-12,0-18c0-5,0-10,0-15c0-2,0-3,0-3c0-1.6,0.1-1.7,0-2C340.7,26.8,338.8,26.3,332.1,27.6z"/>
	<linearGradient id="SVGID_2_" gradientUnits="userSpaceOnUse" x1="437.2669" y1="123.1974" x2="498.4345" y2="123.1974">
		<stop  offset="0" style="stop-color:#CCE0F4;stop-opacity:0"/>
		<stop  offset="6.405089e-02" style="stop-color:#C3DCF2;stop-opacity:5.644086e-02"/>
		<stop  offset="0.1706" style="stop-color:#A9D2EE;stop-opacity:0.1504"/>
		<stop  offset="0.3066" style="stop-color:#80C2E7;stop-opacity:0.2701"/>
		<stop  offset="0.4649" style="stop-color:#47ACDE;stop-opacity:0.4096"/>
		<stop  offset="0.5674" style="stop-color:#1E9CD7;stop-opacity:0.5"/>
		<stop  offset="0.8652" style="stop-color:#0075BE;stop-opacity:0.5"/>
		<stop  offset="0.9944" style="stop-color:#005B97;stop-opacity:0.5"/>
	</linearGradient>
	<path class="st5" d="M463.1,26.6c0.6,5.2,1.2,13.2,1,23c-0.2,10.9-1.1,10.4-1,20c0.1,9.1,1,18.1,1,27c0,0.2,0,2.3,0,6
		c0,6.6,0,7.2,0,8c0,1.7-0.1,7.2-1,13c-1.4,8.8-4.3,15.2-6,19c-2.2,4.8-3.8,6.8-6,11c-7.8,15-11.6,22.5-13,32
		c-0.9,6.6-2.2,15.5,3,24c3.9,6.4,9.8,9.6,13,11c0.7,0,1.3,0,2,0c8.3,0,16.7,0,25,0c1.8-0.7,4.4-1.9,7-4c6.2-5,8.2-11.5,9-14
		c3.9-12.9-1.7-25.5-6-35c-2.5-5.5-6-12-6-12c-2-3.7-2.9-5-4-7c-1.7-3-7.6-13.7-9-27c-0.1-0.7,0-0.4,0-13c0,0,0-7.3,0-22
		c0-7.3,0-14.7,0-22c0-6,0-12,0-18c0-5,0-10,0-15c0-2,0-3,0-3c0-1.6,0.1-1.7,0-2C471.7,25.8,469.8,25.3,463.1,26.6z"/>
	<linearGradient id="SVGID_3_" gradientUnits="userSpaceOnUse" x1="181.2669" y1="124.1974" x2="242.4345" y2="124.1974">
		<stop  offset="0" style="stop-color:#CCE0F4;stop-opacity:0"/>
		<stop  offset="6.405089e-02" style="stop-color:#C3DCF2;stop-opacity:5.644086e-02"/>
		<stop  offset="0.1706" style="stop-color:#A9D2EE;stop-opacity:0.1504"/>
		<stop  offset="0.3066" style="stop-color:#80C2E7;stop-opacity:0.2701"/>
		<stop  offset="0.4649" style="stop-color:#47ACDE;stop-opacity:0.4096"/>
		<stop  offset="0.5674" style="stop-color:#1E9CD7;stop-opacity:0.5"/>
		<stop  offset="0.8652" style="stop-color:#0075BE;stop-opacity:0.5"/>
		<stop  offset="0.9944" style="stop-color:#005B97;stop-opacity:0.5"/>
	</linearGradient>
	<path class="st6" d="M207.1,27.6c0.6,5.2,1.2,13.2,1,23c-0.2,10.9-1.1,10.4-1,20c0.1,9.1,1,18.1,1,27c0,0.2,0,2.3,0,6
		c0,6.6,0,7.2,0,8c0,1.7-0.1,7.2-1,13c-1.4,8.8-4.3,15.2-6,19c-2.2,4.8-3.8,6.8-6,11c-7.8,15-11.6,22.5-13,32
		c-0.9,6.6-2.2,15.5,3,24c3.9,6.4,9.8,9.6,13,11c0.7,0,1.3,0,2,0c8.3,0,16.7,0,25,0c1.8-0.7,4.4-1.9,7-4c6.2-5,8.2-11.5,9-14
		c3.9-12.9-1.7-25.5-6-35c-2.5-5.5-6-12-6-12c-2-3.7-2.9-5-4-7c-1.7-3-7.6-13.7-9-27c-0.1-0.7,0-0.4,0-13c0,0,0-7.3,0-22
		c0-7.3,0-14.7,0-22c0-6,0-12,0-18c0-5,0-10,0-15c0-2,0-3,0-3c0-1.6,0.1-1.7,0-2C215.7,26.8,213.8,26.3,207.1,27.6z"/>
	<linearGradient id="SVGID_4_" gradientUnits="userSpaceOnUse" x1="53.2669" y1="123.1974" x2="114.4345" y2="123.1974">
		<stop  offset="0" style="stop-color:#CCE0F4;stop-opacity:0"/>
		<stop  offset="6.405089e-02" style="stop-color:#C3DCF2;stop-opacity:5.644086e-02"/>
		<stop  offset="0.1706" style="stop-color:#A9D2EE;stop-opacity:0.1504"/>
		<stop  offset="0.3066" style="stop-color:#80C2E7;stop-opacity:0.2701"/>
		<stop  offset="0.4649" style="stop-color:#47ACDE;stop-opacity:0.4096"/>
		<stop  offset="0.5674" style="stop-color:#1E9CD7;stop-opacity:0.5"/>
		<stop  offset="0.8652" style="stop-color:#0075BE;stop-opacity:0.5"/>
		<stop  offset="0.9944" style="stop-color:#005B97;stop-opacity:0.5"/>
	</linearGradient>
	<path class="st7" d="M79.1,26.6c0.6,5.2,1.2,13.2,1,23c-0.2,10.9-1.1,10.4-1,20c0.1,9.1,1,18.1,1,27c0,0.2,0,2.3,0,6
		c0,6.6,0,7.2,0,8c0,1.7-0.1,7.2-1,13c-1.4,8.8-4.3,15.2-6,19c-2.2,4.8-3.8,6.8-6,11c-7.8,15-11.6,22.5-13,32
		c-0.9,6.6-2.2,15.5,3,24c3.9,6.4,9.8,9.6,13,11c0.7,0,1.3,0,2,0c8.3,0,16.7,0,25,0c1.8-0.7,4.4-1.9,7-4c6.2-5,8.2-11.5,9-14
		c3.9-12.9-1.7-25.5-6-35c-2.5-5.5-6-12-6-12c-2-3.7-2.9-5-4-7c-1.7-3-7.6-13.7-9-27c-0.1-0.7,0-0.4,0-13c0,0,0-7.3,0-22
		c0-7.3,0-14.7,0-22c0-6,0-12,0-18c0-5,0-10,0-15c0-2,0-3,0-3c0-1.6,0.1-1.7,0-2C87.7,25.8,85.8,25.3,79.1,26.6z"/>
</g>
<g id="glass">
	<g>
		<path class="st8" d="M88,27.1v94l0,0c0.5,4.5,1.8,11.3,5,19c2.1,5.1,3.8,7.4,7,13c5.7,10.2,9.8,17.3,12,26c1.8,7.1,4.7,18.4-1,29
			c-4,7.4-10.4,11.2-14,13h-0.3h-26c-3.6-1.8-10-5.6-14-13c-5.7-10.6-2.8-21.9-1-29c2.2-8.7,6.3-15.8,12-26c3.2-5.6,4.9-7.9,7-13
			c3.2-7.7,4.5-14.5,5-19v-94L88,27.1z M88.8,26.1h-10v1h10V26.1z"/>
		<line class="st8" x1="77.6" y1="74.1" x2="85.6" y2="74.1"/>
	</g>
	<g>
		<g>
			<line class="st9" x1="106.6" y1="109.6" x2="172.5" y2="109.6"/>
			<g>
				<polygon points="170.5,111.3 172.2,109.6 170.5,107.9 171.9,107.9 173.6,109.6 171.9,111.3 				"/>
			</g>
		</g>
	</g>
	<g>
		<path class="st8" d="M216,28.1v94l0,0c0.5,4.5,1.8,11.3,5,19c2.1,5.1,3.8,7.4,7,13c5.7,10.2,9.8,17.3,12,26c1.8,7.1,4.7,18.4-1,29
			c-4,7.4-10.4,11.2-14,13h-0.3h-26c-3.6-1.8-10-5.6-14-13c-5.7-10.6-2.8-21.9-1-29c2.2-8.7,6.3-15.8,12-26c3.2-5.6,4.9-7.9,7-13
			c3.2-7.7,4.5-14.5,5-19v-94L216,28.1z M216.8,27.1h-10v1h10V27.1z"/>
		<line class="st8" x1="205.6" y1="75.1" x2="213.6" y2="75.1"/>
	</g>
	<g>
		<g>
			<line class="st9" x1="240.6" y1="109.6" x2="306.5" y2="109.6"/>
			<g>
				<polygon points="304.5,111.3 306.2,109.6 304.5,107.9 305.9,107.9 307.6,109.6 305.9,111.3 				"/>
			</g>
		</g>
	</g>
	<g>
		<path class="st8" d="M341,28.1v94l0,0c0.5,4.5,1.8,11.3,5,19c2.1,5.1,3.8,7.4,7,13c5.7,10.2,9.8,17.3,12,26c1.8,7.1,4.7,18.4-1,29
			c-4,7.4-10.4,11.2-14,13h-0.3h-26c-3.6-1.8-10-5.6-14-13c-5.7-10.6-2.8-21.9-1-29c2.2-8.7,6.3-15.8,12-26c3.2-5.6,4.9-7.9,7-13
			c3.2-7.7,4.5-14.5,5-19v-94L341,28.1z M341.8,27.1h-10v1h10V27.1z"/>
		<line class="st8" x1="330.6" y1="75.1" x2="338.6" y2="75.1"/>
	</g>
	<g>
		<g>
			<line class="st9" x1="365.6" y1="108.6" x2="431.5" y2="108.6"/>
			<g>
				<polygon points="429.5,110.3 431.2,108.6 429.5,106.9 430.9,106.9 432.6,108.6 430.9,110.3 				"/>
			</g>
		</g>
	</g>
	<g>
		<path class="st8" d="M472,27.1v94l0,0c0.5,4.5,1.8,11.3,5,19c2.1,5.1,3.8,7.4,7,13c5.7,10.2,9.8,17.3,12,26c1.8,7.1,4.7,18.4-1,29
			c-4,7.4-10.4,11.2-14,13h-0.3h-26c-3.6-1.8-10-5.6-14-13c-5.7-10.6-2.8-21.9-1-29c2.2-8.7,6.3-15.8,12-26c3.2-5.6,4.9-7.9,7-13
			c3.2-7.7,4.5-14.5,5-19v-94L472,27.1z M472.8,26.1h-10v1h10V26.1z"/>
		<line class="st8" x1="461.6" y1="74.1" x2="469.6" y2="74.1"/>
	</g>
</g>
<g id="titles">
	<g>
		<path d="M175.2,245.5v3.4h3.9v-3.4h1.1v8.1h-1.1v-3.8h-3.9v3.8h-1v-8.1H175.2z"/>
		<path d="M185.2,253.6l-0.1-0.7h0c-0.3,0.5-0.9,0.9-1.8,0.9c-1.2,0-1.8-0.8-1.8-1.7c0-1.4,1.2-2.2,3.5-2.2v-0.1
			c0-0.5-0.1-1.3-1.3-1.3c-0.5,0-1.1,0.2-1.5,0.4l-0.2-0.7c0.5-0.3,1.2-0.5,1.9-0.5c1.8,0,2.2,1.2,2.2,2.4v2.2c0,0.5,0,1,0.1,1.4
			H185.2z M185.1,250.6c-1.2,0-2.5,0.2-2.5,1.3c0,0.7,0.5,1,1,1c0.8,0,1.2-0.5,1.4-1c0-0.1,0.1-0.2,0.1-0.3V250.6z"/>
		<path d="M187.9,247.9c0.4-0.1,1.2-0.1,1.8-0.1c1,0,2.6,0.2,2.6,1.5c0,0.7-0.6,1.2-1.2,1.3v0c0.9,0.1,1.5,0.6,1.5,1.4
			c0,1.5-1.9,1.7-3.1,1.7c-0.6,0-1.3,0-1.6-0.1V247.9z M188.8,252.9c0.3,0,0.5,0,0.9,0c0.7,0,1.8-0.2,1.8-1c0-0.8-0.8-1-1.8-1h-0.8
			V252.9z M188.9,250.2h0.8c0.8,0,1.6-0.2,1.6-0.9c0-0.6-0.5-0.9-1.6-0.9c-0.3,0-0.6,0-0.8,0V250.2z"/>
		<path d="M194.5,250.9c0,1.4,0.9,2,2,2c0.8,0,1.2-0.1,1.6-0.3l0.2,0.8c-0.4,0.2-1,0.4-1.9,0.4c-1.8,0-2.9-1.2-2.9-2.9
			s1-3.1,2.7-3.1c1.9,0,2.4,1.7,2.4,2.7c0,0.2,0,0.4,0,0.5H194.5z M197.6,250.1c0-0.7-0.3-1.7-1.5-1.7c-1.1,0-1.5,1-1.6,1.7H197.6z"
			/>
		<path d="M204.1,253.4c-0.3,0.1-0.9,0.3-1.7,0.3c-1.8,0-2.9-1.2-2.9-3c0-1.8,1.2-3.1,3.1-3.1c0.6,0,1.2,0.2,1.5,0.3l-0.2,0.8
			c-0.3-0.1-0.6-0.3-1.2-0.3c-1.3,0-2.1,1-2.1,2.2c0,1.3,0.9,2.2,2,2.2c0.6,0,1-0.2,1.3-0.3L204.1,253.4z"/>
		<path d="M206.5,247.8v2.5h0.3l2.2-2.5h1.3l-2.5,2.6c0.9,0.1,1.5,0.7,2,1.8c0.2,0.4,0.4,0.9,0.6,1.4h-1.1c-0.2-0.3-0.4-0.7-0.5-1.2
			c-0.4-0.9-0.9-1.4-1.9-1.4h-0.2v2.6h-1v-5.8H206.5z"/>
		<path d="M214.6,253.6l-0.1-0.7h0c-0.3,0.5-0.9,0.9-1.8,0.9c-1.2,0-1.8-0.8-1.8-1.7c0-1.4,1.2-2.2,3.5-2.2v-0.1
			c0-0.5-0.1-1.3-1.3-1.3c-0.5,0-1.1,0.2-1.5,0.4l-0.2-0.7c0.5-0.3,1.2-0.5,1.9-0.5c1.8,0,2.2,1.2,2.2,2.4v2.2c0,0.5,0,1,0.1,1.4
			H214.6z M214.4,250.6c-1.2,0-2.5,0.2-2.5,1.3c0,0.7,0.5,1,1,1c0.8,0,1.2-0.5,1.4-1c0-0.1,0.1-0.2,0.1-0.3V250.6z"/>
		<path d="M224.6,247.8v5.8h-1.1v-5h-2.7v5h-1v-5.8H224.6z"/>
		<path d="M231.6,250.7c0,2.1-1.5,3.1-2.9,3.1c-1.6,0-2.8-1.2-2.8-3c0-1.9,1.3-3.1,2.9-3.1C230.5,247.7,231.6,248.9,231.6,250.7z
			 M227,250.7c0,1.3,0.7,2.2,1.8,2.2c1,0,1.8-0.9,1.8-2.3c0-1-0.5-2.2-1.7-2.2C227.6,248.5,227,249.6,227,250.7z"/>
		<path d="M233.9,247.8v1.9c0,0.7,0.3,1.2,1.2,1.2c0.5,0,0.9-0.2,1.2-0.4v-2.7h1v5.8h-1v-2.3h0c-0.4,0.3-1,0.4-1.6,0.4
			c-1.1,0-1.9-0.6-1.9-1.9v-2H233.9z"/>
		<path d="M239.1,247.9c0.4-0.1,1.2-0.1,1.8-0.1c1,0,2.6,0.2,2.6,1.5c0,0.7-0.6,1.2-1.2,1.3v0c0.9,0.1,1.5,0.6,1.5,1.4
			c0,1.5-1.9,1.7-3.1,1.7c-0.6,0-1.3,0-1.6-0.1V247.9z M240.1,252.9c0.3,0,0.5,0,0.9,0c0.7,0,1.8-0.2,1.8-1c0-0.8-0.8-1-1.8-1h-0.8
			V252.9z M240.1,250.2h0.8c0.8,0,1.6-0.2,1.6-0.9c0-0.6-0.5-0.9-1.6-0.9c-0.3,0-0.6,0-0.8,0V250.2z"/>
		<path d="M246.2,247.8v2c0.2,0,0.6-0.1,0.9-0.1c1.2,0,2.5,0.5,2.5,1.9c0,0.6-0.2,1-0.6,1.3c-0.6,0.5-1.6,0.7-2.3,0.7
			c-0.6,0-1.1,0-1.6-0.1v-5.8H246.2z M246.2,252.9c0.2,0,0.4,0,0.7,0c0.8,0,1.7-0.3,1.7-1.2c0-0.9-0.8-1.2-1.6-1.2
			c-0.3,0-0.6,0-0.8,0.1V252.9z M251.4,247.8v5.8h-1v-5.8H251.4z"/>
	</g>
	<g>
		<path d="M297.2,245.5v3.4h3.9v-3.4h1.1v8.1h-1.1v-3.8h-3.9v3.8h-1v-8.1H297.2z"/>
		<path d="M307.2,253.6l-0.1-0.7h0c-0.3,0.5-0.9,0.9-1.8,0.9c-1.2,0-1.8-0.8-1.8-1.7c0-1.4,1.2-2.2,3.5-2.2v-0.1
			c0-0.5-0.1-1.3-1.3-1.3c-0.5,0-1.1,0.2-1.5,0.4l-0.2-0.7c0.5-0.3,1.2-0.5,1.9-0.5c1.8,0,2.2,1.2,2.2,2.4v2.2c0,0.5,0,1,0.1,1.4
			H307.2z M307.1,250.6c-1.2,0-2.5,0.2-2.5,1.3c0,0.7,0.5,1,1,1c0.8,0,1.2-0.5,1.4-1c0-0.1,0.1-0.2,0.1-0.3V250.6z"/>
		<path d="M309.9,247.9c0.4-0.1,1.2-0.1,1.8-0.1c1,0,2.6,0.2,2.6,1.5c0,0.7-0.6,1.2-1.2,1.3v0c0.9,0.1,1.5,0.6,1.5,1.4
			c0,1.5-1.9,1.7-3.1,1.7c-0.6,0-1.3,0-1.6-0.1V247.9z M310.8,252.9c0.3,0,0.5,0,0.9,0c0.7,0,1.8-0.2,1.8-1c0-0.8-0.8-1-1.8-1h-0.8
			V252.9z M310.9,250.2h0.8c0.8,0,1.6-0.2,1.6-0.9c0-0.6-0.5-0.9-1.6-0.9c-0.3,0-0.6,0-0.8,0V250.2z"/>
		<path d="M316.5,250.9c0,1.4,0.9,2,2,2c0.8,0,1.2-0.1,1.6-0.3l0.2,0.8c-0.4,0.2-1,0.4-1.9,0.4c-1.8,0-2.9-1.2-2.9-2.9
			s1-3.1,2.7-3.1c1.9,0,2.4,1.7,2.4,2.7c0,0.2,0,0.4,0,0.5H316.5z M319.6,250.1c0-0.7-0.3-1.7-1.5-1.7c-1.1,0-1.5,1-1.6,1.7H319.6z"
			/>
		<path d="M326.1,253.4c-0.3,0.1-0.9,0.3-1.7,0.3c-1.8,0-2.9-1.2-2.9-3c0-1.8,1.2-3.1,3.1-3.1c0.6,0,1.2,0.2,1.5,0.3l-0.2,0.8
			c-0.3-0.1-0.6-0.3-1.2-0.3c-1.3,0-2.1,1-2.1,2.2c0,1.3,0.9,2.2,2,2.2c0.6,0,1-0.2,1.3-0.3L326.1,253.4z"/>
		<path d="M328.5,247.8v2.5h0.3l2.2-2.5h1.3l-2.5,2.6c0.9,0.1,1.5,0.7,2,1.8c0.2,0.4,0.4,0.9,0.6,1.4h-1.1c-0.2-0.3-0.4-0.7-0.5-1.2
			c-0.4-0.9-0.9-1.4-1.9-1.4h-0.2v2.6h-1v-5.8H328.5z"/>
		<path d="M336.6,253.6l-0.1-0.7h0c-0.3,0.5-0.9,0.9-1.8,0.9c-1.2,0-1.8-0.8-1.8-1.7c0-1.4,1.2-2.2,3.5-2.2v-0.1
			c0-0.5-0.1-1.3-1.3-1.3c-0.5,0-1.1,0.2-1.5,0.4l-0.2-0.7c0.5-0.3,1.2-0.5,1.9-0.5c1.8,0,2.2,1.2,2.2,2.4v2.2c0,0.5,0,1,0.1,1.4
			H336.6z M336.4,250.6c-1.2,0-2.5,0.2-2.5,1.3c0,0.7,0.5,1,1,1c0.8,0,1.2-0.5,1.4-1c0-0.1,0.1-0.2,0.1-0.3V250.6z"/>
		<path d="M346.6,247.8v5.8h-1.1v-5h-2.7v5h-1v-5.8H346.6z"/>
		<path d="M353.6,250.7c0,2.1-1.5,3.1-2.9,3.1c-1.6,0-2.8-1.2-2.8-3c0-1.9,1.3-3.1,2.9-3.1C352.5,247.7,353.6,248.9,353.6,250.7z
			 M349,250.7c0,1.3,0.7,2.2,1.8,2.2c1,0,1.8-0.9,1.8-2.3c0-1-0.5-2.2-1.7-2.2C349.6,248.5,349,249.6,349,250.7z"/>
		<path d="M355.9,247.8v1.9c0,0.7,0.3,1.2,1.2,1.2c0.5,0,0.9-0.2,1.2-0.4v-2.7h1v5.8h-1v-2.3h0c-0.4,0.3-1,0.4-1.6,0.4
			c-1.1,0-1.9-0.6-1.9-1.9v-2H355.9z"/>
		<path d="M361.1,247.9c0.4-0.1,1.2-0.1,1.8-0.1c1,0,2.6,0.2,2.6,1.5c0,0.7-0.6,1.2-1.2,1.3v0c0.9,0.1,1.5,0.6,1.5,1.4
			c0,1.5-1.9,1.7-3.1,1.7c-0.6,0-1.3,0-1.6-0.1V247.9z M362.1,252.9c0.3,0,0.5,0,0.9,0c0.7,0,1.8-0.2,1.8-1c0-0.8-0.8-1-1.8-1h-0.8
			V252.9z M362.1,250.2h0.8c0.8,0,1.6-0.2,1.6-0.9c0-0.6-0.5-0.9-1.6-0.9c-0.3,0-0.6,0-0.8,0V250.2z"/>
		<path d="M368.2,247.8v2c0.2,0,0.6-0.1,0.9-0.1c1.2,0,2.5,0.5,2.5,1.9c0,0.6-0.2,1-0.6,1.3c-0.6,0.5-1.6,0.7-2.3,0.7
			c-0.6,0-1.1,0-1.6-0.1v-5.8H368.2z M368.2,252.9c0.2,0,0.4,0,0.7,0c0.8,0,1.7-0.3,1.7-1.2c0-0.9-0.8-1.2-1.6-1.2
			c-0.3,0-0.6,0-0.8,0.1V252.9z M373.4,247.8v5.8h-1v-5.8H373.4z"/>
		<path d="M321.4,262.2v2.8h2.7v0.7h-2.7v2.8h-0.8v-2.8h-2.7V265h2.7v-2.8H321.4z"/>
		<path d="M328.1,262.9c0.4-0.1,1.2-0.1,1.8-0.1c1,0,2.6,0.2,2.6,1.5c0,0.7-0.6,1.2-1.2,1.3v0c0.9,0.1,1.5,0.6,1.5,1.4
			c0,1.5-1.9,1.7-3.1,1.7c-0.6,0-1.3,0-1.6-0.1V262.9z M329.1,267.9c0.3,0,0.5,0,0.9,0c0.7,0,1.8-0.2,1.8-1c0-0.8-0.8-1-1.8-1h-0.8
			V267.9z M329.1,265.2h0.8c0.8,0,1.6-0.2,1.6-0.9c0-0.6-0.5-0.9-1.6-0.9c-0.3,0-0.6,0-0.8,0V265.2z"/>
		<path d="M339.5,265.7c0,2.1-1.5,3.1-2.9,3.1c-1.6,0-2.8-1.2-2.8-3c0-1.9,1.3-3.1,2.9-3.1C338.3,262.7,339.5,263.9,339.5,265.7z
			 M334.9,265.7c0,1.3,0.7,2.2,1.8,2.2c1,0,1.8-0.9,1.8-2.3c0-1-0.5-2.2-1.7-2.2C335.4,263.5,334.9,264.6,334.9,265.7z"/>
		<path d="M345.3,262.8v5l0.6,0l-0.1,2.6H345l0-1.8h-4l0,1.8h-0.8l0-2.6l0.5,0c0.3-0.4,0.4-0.8,0.6-1.2c0.2-0.7,0.3-1.5,0.3-2.3
			v-1.5H345.3z M342.3,264.6c0,0.8-0.1,1.5-0.3,2.2c-0.1,0.4-0.3,0.8-0.5,1.1h2.7v-4.2h-1.9V264.6z"/>
		<path d="M350.4,268.6l-0.1-0.7h0c-0.3,0.5-0.9,0.9-1.8,0.9c-1.2,0-1.8-0.8-1.8-1.7c0-1.4,1.2-2.2,3.5-2.2v-0.1
			c0-0.5-0.1-1.3-1.3-1.3c-0.5,0-1.1,0.2-1.5,0.4l-0.2-0.7c0.5-0.3,1.2-0.5,1.9-0.5c1.8,0,2.2,1.2,2.2,2.4v2.2c0,0.5,0,1,0.1,1.4
			H350.4z M350.3,265.6c-1.2,0-2.5,0.2-2.5,1.3c0,0.7,0.5,1,1,1c0.8,0,1.2-0.5,1.4-1c0-0.1,0.1-0.2,0.1-0.3V265.6z"/>
	</g>
	<g>
		<path d="M29.7,245.5v8.1h-1v-7.2h-3.8v7.2h-1v-8.1H29.7z"/>
		<path d="M32.5,247.8v2.4c0,0.9,0,1.5-0.1,2.3l0,0c0.3-0.7,0.6-1.1,0.9-1.8l1.8-3h1.2v5.8h-1v-2.5c0-0.9,0-1.4,0.1-2.4h0
			c-0.4,0.7-0.6,1.2-1,1.8c-0.6,0.9-1.2,2-1.8,3h-1.2v-5.8H32.5z"/>
		<path d="M39.3,247.8v2.5h0.3l2.2-2.5H43l-2.5,2.6c0.9,0.1,1.5,0.7,2,1.8c0.2,0.4,0.4,0.9,0.6,1.4h-1.1c-0.2-0.3-0.4-0.7-0.5-1.2
			c-0.4-0.9-0.9-1.4-1.9-1.4h-0.2v2.6h-1v-5.8H39.3z"/>
		<path d="M45,247.8v2.3h2.8v-2.3h1v5.8h-1V251H45v2.6h-1v-5.8H45z"/>
		<path d="M55.9,250.7c0,2.1-1.5,3.1-2.9,3.1c-1.6,0-2.8-1.2-2.8-3c0-1.9,1.3-3.1,2.9-3.1C54.8,247.7,55.9,248.9,55.9,250.7z
			 M51.3,250.7c0,1.3,0.7,2.2,1.8,2.2c1,0,1.8-0.9,1.8-2.3c0-1-0.5-2.2-1.7-2.2C51.8,248.5,51.3,249.6,51.3,250.7z"/>
		<path d="M57.3,247.8h1.3l1.1,2.9c0.1,0.4,0.4,1.1,0.5,1.6h0c0.1-0.4,0.5-1.4,0.7-2l0.9-2.5h1.3l0.4,5.8h-1l-0.1-2.8
			c0-0.6-0.1-1.4-0.1-2.1h0c-0.2,0.5-0.3,1-0.6,1.9l-1.1,2.9h-0.8l-1-2.9c-0.2-0.6-0.4-1.4-0.6-1.9h0c0,0.7-0.1,1.5-0.1,2.1
			l-0.1,2.7h-1L57.3,247.8z"/>
		<path d="M65.6,250.9c0,1.4,0.9,2,2,2c0.8,0,1.2-0.1,1.6-0.3l0.2,0.8c-0.4,0.2-1,0.4-1.9,0.4c-1.8,0-2.9-1.2-2.9-2.9s1-3.1,2.7-3.1
			c1.9,0,2.4,1.7,2.4,2.7c0,0.2,0,0.4,0,0.5H65.6z M68.7,250.1c0-0.7-0.3-1.7-1.5-1.7c-1.1,0-1.5,1-1.6,1.7H68.7z"/>
		<path d="M75,247.8v0.8h-1.8v5h-1v-5h-1.8v-0.8H75z"/>
		<path d="M75.9,249.7c0-0.7,0-1.3,0-1.9h0.9l0,1h0c0.4-0.7,1.1-1.1,2.1-1.1c1.4,0,2.5,1.2,2.5,3c0,2.1-1.3,3.1-2.6,3.1
			c-0.8,0-1.4-0.3-1.8-0.9h0v3.2h-1V249.7z M77,251.2c0,0.2,0,0.3,0,0.4c0.2,0.7,0.8,1.2,1.6,1.2c1.1,0,1.8-0.9,1.8-2.2
			c0-1.2-0.6-2.2-1.7-2.2c-0.7,0-1.4,0.5-1.6,1.3c0,0.1-0.1,0.3-0.1,0.4V251.2z"/>
		<path d="M89.6,253.4c-0.3,0.1-0.9,0.3-1.7,0.3c-1.8,0-2.9-1.2-2.9-3c0-1.8,1.2-3.1,3.1-3.1c0.6,0,1.2,0.2,1.5,0.3l-0.2,0.8
			c-0.3-0.1-0.6-0.3-1.2-0.3c-1.3,0-2.1,1-2.1,2.2c0,1.3,0.9,2.2,2,2.2c0.6,0,1-0.2,1.3-0.3L89.6,253.4z"/>
		<path d="M98.7,250.7c0,2.1-1.5,3.1-2.9,3.1c-1.6,0-2.8-1.2-2.8-3c0-1.9,1.3-3.1,2.9-3.1C97.6,247.7,98.7,248.9,98.7,250.7z
			 M94.1,250.7c0,1.3,0.7,2.2,1.8,2.2c1,0,1.8-0.9,1.8-2.3c0-1-0.5-2.2-1.7-2.2C94.7,248.5,94.1,249.6,94.1,250.7z"/>
		<path d="M104.5,245.8c-0.3,0.1-0.8,0.2-1.2,0.3c-0.9,0.1-1.6,0.5-2.1,1.1c-0.4,0.5-0.6,1.3-0.6,1.9h0c0.4-0.8,1.2-1.3,2-1.3
			c1.4,0,2.5,1,2.5,2.9c0,1.9-1,3.1-2.7,3.1c-2,0-2.7-2-2.7-3.9c0-1.3,0.3-2.4,0.9-3.2c0.6-0.8,1.4-1.2,2.5-1.4
			c0.5-0.1,1-0.2,1.4-0.3L104.5,245.8z M102.4,248.6c-0.6,0-1.1,0.3-1.3,0.8c-0.2,0.3-0.3,0.8-0.3,1.2c0,1,0.5,2.3,1.6,2.3
			c1.2,0,1.6-1.1,1.6-2.2C104.1,249.8,103.7,248.6,102.4,248.6z"/>
		<path d="M108.5,247.8v2c0.3,0,0.6,0,1,0c1.2,0,2.6,0.5,2.6,2c0,0.6-0.2,1-0.6,1.3c-0.6,0.5-1.6,0.7-2.5,0.7c-0.6,0-1.1,0-1.6-0.1
			v-5h-1.7v-0.8H108.5z M108.5,252.9c0.2,0,0.4,0.1,0.8,0.1c0.9,0,1.7-0.3,1.7-1.2c0-1-0.9-1.2-1.8-1.2c-0.3,0-0.5,0-0.7,0.1V252.9z
			"/>
		<path d="M114,250.9c0,1.4,0.9,2,2,2c0.8,0,1.2-0.1,1.6-0.3l0.2,0.8c-0.4,0.2-1,0.4-1.9,0.4c-1.8,0-2.9-1.2-2.9-2.9s1-3.1,2.7-3.1
			c1.9,0,2.4,1.7,2.4,2.7c0,0.2,0,0.4,0,0.5H114z M117.1,250.1c0-0.7-0.3-1.7-1.5-1.7c-1.1,0-1.5,1-1.6,1.7H117.1z M114.1,246.2
			c0-0.3,0.3-0.6,0.6-0.6s0.6,0.3,0.6,0.6c0,0.3-0.2,0.6-0.6,0.6C114.3,246.8,114.1,246.5,114.1,246.2z M116.3,246.2
			c0-0.3,0.3-0.6,0.6-0.6s0.6,0.3,0.6,0.6c0,0.3-0.2,0.6-0.6,0.6C116.5,246.8,116.3,246.5,116.3,246.2z"/>
		<path d="M119.6,247.8h1.3l1.1,2.9c0.1,0.4,0.4,1.1,0.5,1.6h0c0.1-0.4,0.5-1.4,0.7-2l0.9-2.5h1.3l0.4,5.8h-1l-0.1-2.8
			c0-0.6-0.1-1.4-0.1-2.1h0c-0.2,0.5-0.3,1-0.6,1.9l-1.1,2.9H122l-1-2.9c-0.2-0.6-0.4-1.4-0.6-1.9h0c0,0.7-0.1,1.5-0.1,2.1l-0.1,2.7
			h-1L119.6,247.8z"/>
		<path d="M132.5,250.7c0,2.1-1.5,3.1-2.9,3.1c-1.6,0-2.8-1.2-2.8-3c0-1.9,1.3-3.1,2.9-3.1C131.4,247.7,132.5,248.9,132.5,250.7z
			 M127.9,250.7c0,1.3,0.7,2.2,1.8,2.2c1,0,1.8-0.9,1.8-2.3c0-1-0.5-2.2-1.7-2.2C128.4,248.5,127.9,249.6,127.9,250.7z"/>
		<path d="M133.9,247.8h1.3l1.1,2.9c0.1,0.4,0.4,1.1,0.5,1.6h0c0.1-0.4,0.5-1.4,0.7-2l0.9-2.5h1.3l0.4,5.8h-1l-0.1-2.8
			c0-0.6-0.1-1.4-0.1-2.1h0c-0.2,0.5-0.3,1-0.6,1.9l-1.1,2.9h-0.8l-1-2.9c-0.2-0.6-0.4-1.4-0.6-1.9h0c0,0.7-0.1,1.5-0.1,2.1
			l-0.1,2.7h-1L133.9,247.8z"/>
		<path d="M61.3,261.7h-3l-0.3,2c0.2,0,0.3,0,0.6,0c0.6,0,1.2,0.1,1.7,0.4c0.6,0.3,1.1,1,1.1,2c0,1.5-1.2,2.7-2.9,2.7
			c-0.9,0-1.6-0.2-1.9-0.5l0.3-0.8c0.3,0.2,1,0.4,1.7,0.4c1,0,1.8-0.6,1.8-1.7c0-1-0.7-1.7-2.2-1.7c-0.4,0-0.8,0-1.1,0.1l0.5-3.7
			h3.7V261.7z"/>
		<path d="M68,264.6c0,2.7-1,4.1-2.7,4.1c-1.5,0-2.6-1.4-2.6-4c0-2.6,1.1-4.1,2.7-4.1C67.1,260.7,68,262.1,68,264.6z M63.8,264.7
			c0,2,0.6,3.2,1.6,3.2c1.1,0,1.6-1.3,1.6-3.3c0-1.9-0.5-3.2-1.6-3.2C64.5,261.5,63.8,262.6,63.8,264.7z"/>
		<path d="M71.8,265v0.8h-3V265H71.8z"/>
		<path d="M75.1,261.8L75.1,261.8l-1.4,0.7l-0.2-0.8l1.7-0.9h0.9v7.8h-1V261.8z"/>
		<path d="M84.2,264.6c0,2.7-1,4.1-2.7,4.1c-1.5,0-2.6-1.4-2.6-4c0-2.6,1.1-4.1,2.7-4.1C83.3,260.7,84.2,262.1,84.2,264.6z
			 M80,264.7c0,2,0.6,3.2,1.6,3.2c1.1,0,1.6-1.3,1.6-3.3c0-1.9-0.5-3.2-1.6-3.2C80.6,261.5,80,262.6,80,264.7z"/>
		<path d="M90.4,264.6c0,2.7-1,4.1-2.7,4.1c-1.5,0-2.6-1.4-2.6-4c0-2.6,1.1-4.1,2.7-4.1C89.5,260.7,90.4,262.1,90.4,264.6z
			 M86.2,264.7c0,2,0.6,3.2,1.6,3.2c1.1,0,1.6-1.3,1.6-3.3c0-1.9-0.5-3.2-1.6-3.2C86.9,261.5,86.2,262.6,86.2,264.7z"/>
		<path d="M94.5,262.8h1.3l1.1,2.9c0.1,0.4,0.4,1.1,0.5,1.6h0c0.1-0.4,0.5-1.4,0.7-2l0.9-2.5h1.3l0.4,5.8h-1l-0.1-2.8
			c0-0.6-0.1-1.4-0.1-2.1h0c-0.2,0.5-0.3,1-0.6,1.9l-1.1,2.9h-0.8l-1-2.9c-0.2-0.6-0.4-1.4-0.6-1.9h0c0,0.7-0.1,1.5-0.1,2.1
			l-0.1,2.7h-1L94.5,262.8z"/>
		<path d="M106.6,262.8v5.8h-1v-5h-2v1.5c0,1.6-0.2,2.7-0.9,3.2c-0.3,0.2-0.6,0.4-1.2,0.4l-0.1-0.8c0.2,0,0.4-0.1,0.6-0.2
			c0.5-0.4,0.6-1.2,0.6-2.5v-2.3H106.6z"/>
	</g>
	<g>
		<path d="M430.2,245.5v3.4h3.9v-3.4h1.1v8.1h-1.1v-3.8h-3.9v3.8h-1v-8.1H430.2z"/>
		<path d="M440.2,253.6l-0.1-0.7h0c-0.3,0.5-0.9,0.9-1.8,0.9c-1.2,0-1.8-0.8-1.8-1.7c0-1.4,1.2-2.2,3.5-2.2v-0.1
			c0-0.5-0.1-1.3-1.3-1.3c-0.5,0-1.1,0.2-1.5,0.4l-0.2-0.7c0.5-0.3,1.2-0.5,1.9-0.5c1.8,0,2.2,1.2,2.2,2.4v2.2c0,0.5,0,1,0.1,1.4
			H440.2z M440.1,250.6c-1.2,0-2.5,0.2-2.5,1.3c0,0.7,0.5,1,1,1c0.8,0,1.2-0.5,1.4-1c0-0.1,0.1-0.2,0.1-0.3V250.6z"/>
		<path d="M442.9,247.9c0.4-0.1,1.2-0.1,1.8-0.1c1,0,2.6,0.2,2.6,1.5c0,0.7-0.6,1.2-1.2,1.3v0c0.9,0.1,1.5,0.6,1.5,1.4
			c0,1.5-1.9,1.7-3.1,1.7c-0.6,0-1.3,0-1.6-0.1V247.9z M443.8,252.9c0.3,0,0.5,0,0.9,0c0.7,0,1.8-0.2,1.8-1c0-0.8-0.8-1-1.8-1h-0.8
			V252.9z M443.9,250.2h0.8c0.8,0,1.6-0.2,1.6-0.9c0-0.6-0.5-0.9-1.6-0.9c-0.3,0-0.6,0-0.8,0V250.2z"/>
		<path d="M449.5,250.9c0,1.4,0.9,2,2,2c0.8,0,1.2-0.1,1.6-0.3l0.2,0.8c-0.4,0.2-1,0.4-1.9,0.4c-1.8,0-2.9-1.2-2.9-2.9
			s1-3.1,2.7-3.1c1.9,0,2.4,1.7,2.4,2.7c0,0.2,0,0.4,0,0.5H449.5z M452.6,250.1c0-0.7-0.3-1.7-1.5-1.7c-1.1,0-1.5,1-1.6,1.7H452.6z"
			/>
		<path d="M459.1,253.4c-0.3,0.1-0.9,0.3-1.7,0.3c-1.8,0-2.9-1.2-2.9-3c0-1.8,1.2-3.1,3.1-3.1c0.6,0,1.2,0.2,1.5,0.3l-0.2,0.8
			c-0.3-0.1-0.6-0.3-1.2-0.3c-1.3,0-2.1,1-2.1,2.2c0,1.3,0.9,2.2,2,2.2c0.6,0,1-0.2,1.3-0.3L459.1,253.4z"/>
		<path d="M461.5,247.8v2.5h0.3l2.2-2.5h1.3l-2.5,2.6c0.9,0.1,1.5,0.7,2,1.8c0.2,0.4,0.4,0.9,0.6,1.4h-1.1c-0.2-0.3-0.4-0.7-0.5-1.2
			c-0.4-0.9-0.9-1.4-1.9-1.4h-0.2v2.6h-1v-5.8H461.5z"/>
		<path d="M469.6,253.6l-0.1-0.7h0c-0.3,0.5-0.9,0.9-1.8,0.9c-1.2,0-1.8-0.8-1.8-1.7c0-1.4,1.2-2.2,3.5-2.2v-0.1
			c0-0.5-0.1-1.3-1.3-1.3c-0.5,0-1.1,0.2-1.5,0.4l-0.2-0.7c0.5-0.3,1.2-0.5,1.9-0.5c1.8,0,2.2,1.2,2.2,2.4v2.2c0,0.5,0,1,0.1,1.4
			H469.6z M469.4,250.6c-1.2,0-2.5,0.2-2.5,1.3c0,0.7,0.5,1,1,1c0.8,0,1.2-0.5,1.4-1c0-0.1,0.1-0.2,0.1-0.3V250.6z"/>
		<path d="M479.6,247.8v5.8h-1.1v-5h-2.7v5h-1v-5.8H479.6z"/>
		<path d="M486.6,250.7c0,2.1-1.5,3.1-2.9,3.1c-1.6,0-2.8-1.2-2.8-3c0-1.9,1.3-3.1,2.9-3.1C485.5,247.7,486.6,248.9,486.6,250.7z
			 M482,250.7c0,1.3,0.7,2.2,1.8,2.2c1,0,1.8-0.9,1.8-2.3c0-1-0.5-2.2-1.7-2.2C482.6,248.5,482,249.6,482,250.7z"/>
		<path d="M488.9,247.8v1.9c0,0.7,0.3,1.2,1.2,1.2c0.5,0,0.9-0.2,1.2-0.4v-2.7h1v5.8h-1v-2.3h0c-0.4,0.3-1,0.4-1.6,0.4
			c-1.1,0-1.9-0.6-1.9-1.9v-2H488.9z"/>
		<path d="M494.1,247.9c0.4-0.1,1.2-0.1,1.8-0.1c1,0,2.6,0.2,2.6,1.5c0,0.7-0.6,1.2-1.2,1.3v0c0.9,0.1,1.5,0.6,1.5,1.4
			c0,1.5-1.9,1.7-3.1,1.7c-0.6,0-1.3,0-1.6-0.1V247.9z M495.1,252.9c0.3,0,0.5,0,0.9,0c0.7,0,1.8-0.2,1.8-1c0-0.8-0.8-1-1.8-1h-0.8
			V252.9z M495.1,250.2h0.8c0.8,0,1.6-0.2,1.6-0.9c0-0.6-0.5-0.9-1.6-0.9c-0.3,0-0.6,0-0.8,0V250.2z"/>
		<path d="M501.2,247.8v2c0.2,0,0.6-0.1,0.9-0.1c1.2,0,2.5,0.5,2.5,1.9c0,0.6-0.2,1-0.6,1.3c-0.6,0.5-1.6,0.7-2.3,0.7
			c-0.6,0-1.1,0-1.6-0.1v-5.8H501.2z M501.2,252.9c0.2,0,0.4,0,0.7,0c0.8,0,1.7-0.3,1.7-1.2c0-0.9-0.8-1.2-1.6-1.2
			c-0.3,0-0.6,0-0.8,0.1V252.9z M506.4,247.8v5.8h-1v-5.8H506.4z"/>
		<path d="M431.8,262.2v2.8h2.7v0.7h-2.7v2.8H431v-2.8h-2.7V265h2.7v-2.8H431.8z"/>
		<path d="M443,262.8v5l0.6,0l-0.1,2.6h-0.8l0-1.8h-4l0,1.8h-0.8l0-2.6l0.5,0c0.3-0.4,0.4-0.8,0.6-1.2c0.2-0.7,0.3-1.5,0.3-2.3v-1.5
			H443z M440.1,264.6c0,0.8-0.1,1.5-0.3,2.2c-0.1,0.4-0.3,0.8-0.5,1.1h2.7v-4.2h-1.9V264.6z"/>
		<path d="M450.2,265.7c0,2.1-1.5,3.1-2.9,3.1c-1.6,0-2.8-1.2-2.8-3c0-1.9,1.3-3.1,2.9-3.1C449,262.7,450.2,263.9,450.2,265.7z
			 M445.6,265.7c0,1.3,0.7,2.2,1.8,2.2c1,0,1.8-0.9,1.8-2.3c0-1-0.5-2.2-1.7-2.2C446.1,263.5,445.6,264.6,445.6,265.7z"/>
		<path d="M456,262.8v5.8h-1v-5h-2v1.5c0,1.6-0.2,2.7-0.9,3.2c-0.3,0.2-0.6,0.4-1.2,0.4l-0.1-0.8c0.2,0,0.4-0.1,0.6-0.2
			c0.5-0.4,0.6-1.2,0.6-2.5v-2.3H456z"/>
		<path d="M458.7,262.8v2.4c0,0.9,0,1.5-0.1,2.3l0,0c0.3-0.7,0.6-1.1,0.9-1.8l1.8-3h1.2v5.8h-1v-2.5c0-0.9,0-1.4,0.1-2.4h0
			c-0.4,0.7-0.6,1.2-1,1.8c-0.6,0.9-1.2,2-1.8,3h-1.2v-5.8H458.7z"/>
		<path d="M468.3,262.8v0.8h-1.8v5h-1v-5h-1.8v-0.8H468.3z"/>
		<path d="M472.5,268.6l-0.1-0.7h0c-0.3,0.5-0.9,0.9-1.8,0.9c-1.2,0-1.8-0.8-1.8-1.7c0-1.4,1.2-2.2,3.5-2.2v-0.1
			c0-0.5-0.1-1.3-1.3-1.3c-0.5,0-1.1,0.2-1.5,0.4l-0.2-0.7c0.5-0.3,1.2-0.5,1.9-0.5c1.8,0,2.2,1.2,2.2,2.4v2.2c0,0.5,0,1,0.1,1.4
			H472.5z M472.3,265.6c-1.2,0-2.5,0.2-2.5,1.3c0,0.7,0.5,1,1,1c0.8,0,1.2-0.5,1.4-1c0-0.1,0.1-0.2,0.1-0.3V265.6z"/>
		<path d="M479.4,268.6h-1v-2.4h-0.8c-0.4,0-0.7,0.1-1,0.3c-0.4,0.3-0.6,1.1-0.8,1.6c-0.1,0.2-0.2,0.3-0.2,0.5h-1.1
			c0.1-0.2,0.3-0.4,0.4-0.7c0.3-0.6,0.4-1.3,0.9-1.8c0.2-0.2,0.4-0.3,0.7-0.3v0c-0.8-0.1-1.5-0.6-1.5-1.4c0-0.6,0.3-1,0.8-1.3
			c0.5-0.3,1.2-0.4,1.9-0.4c0.7,0,1.4,0.1,1.9,0.1V268.6z M478.4,263.5c-0.3,0-0.5-0.1-0.9-0.1c-0.7,0-1.6,0.2-1.6,1
			c0,0.7,0.9,1,1.5,1c0.4,0,0.7,0,0.9,0V263.5z"/>
		<path d="M483.8,262.9c0.4-0.1,1.2-0.1,1.8-0.1c1,0,2.6,0.2,2.6,1.5c0,0.7-0.6,1.2-1.2,1.3v0c0.9,0.1,1.5,0.6,1.5,1.4
			c0,1.5-1.9,1.7-3.1,1.7c-0.6,0-1.3,0-1.6-0.1V262.9z M484.8,267.9c0.3,0,0.5,0,0.9,0c0.7,0,1.8-0.2,1.8-1c0-0.8-0.8-1-1.8-1h-0.8
			V267.9z M484.8,265.2h0.8c0.8,0,1.6-0.2,1.6-0.9c0-0.6-0.5-0.9-1.6-0.9c-0.3,0-0.6,0-0.8,0V265.2z"/>
		<path d="M495.1,265.7c0,2.1-1.5,3.1-2.9,3.1c-1.6,0-2.8-1.2-2.8-3c0-1.9,1.3-3.1,2.9-3.1C494,262.7,495.1,263.9,495.1,265.7z
			 M490.5,265.7c0,1.3,0.7,2.2,1.8,2.2c1,0,1.8-0.9,1.8-2.3c0-1-0.5-2.2-1.7-2.2C491,263.5,490.5,264.6,490.5,265.7z"/>
		<path d="M500.9,262.8v5l0.6,0l-0.1,2.6h-0.8l0-1.8h-4l0,1.8h-0.8l0-2.6l0.5,0c0.3-0.4,0.4-0.8,0.6-1.2c0.2-0.7,0.3-1.5,0.3-2.3
			v-1.5H500.9z M498,264.6c0,0.8-0.1,1.5-0.3,2.2c-0.1,0.4-0.3,0.8-0.5,1.1h2.7v-4.2H498V264.6z"/>
		<path d="M506,268.6l-0.1-0.7h0c-0.3,0.5-0.9,0.9-1.8,0.9c-1.2,0-1.8-0.8-1.8-1.7c0-1.4,1.2-2.2,3.5-2.2v-0.1
			c0-0.5-0.1-1.3-1.3-1.3c-0.5,0-1.1,0.2-1.5,0.4l-0.2-0.7c0.5-0.3,1.2-0.5,1.9-0.5c1.8,0,2.2,1.2,2.2,2.4v2.2c0,0.5,0,1,0.1,1.4
			H506z M505.9,265.6c-1.2,0-2.5,0.2-2.5,1.3c0,0.7,0.5,1,1,1c0.8,0,1.2-0.5,1.4-1c0-0.1,0.1-0.2,0.1-0.3V265.6z"/>
	</g>
	<g>
		<path d="M376.5,97.9v3h0.3l2.3-3h1l-2.5,3.1c1.1,0.2,1.5,0.8,1.9,1.7c0.3,0.7,0.4,1.3,0.7,1.9h-0.9c-0.2-0.5-0.4-1.1-0.6-1.6
			c-0.3-0.9-0.7-1.5-1.9-1.5h-0.3v3.1h-0.9v-6.7H376.5z"/>
		<path d="M381.9,99.8v2c0,0.8,0,1.3,0,1.9l0,0c0.3-0.6,0.5-0.9,0.8-1.5l1.5-2.5h1v4.8h-0.8v-2c0-0.8,0-1.2,0.1-2h0
			c-0.3,0.6-0.5,1-0.8,1.5c-0.5,0.7-1,1.7-1.5,2.5h-1v-4.8H381.9z"/>
		<path d="M390.6,99.8v4.8h-0.9v-4.1h-2.2v4.1h-0.9v-4.8H390.6z"/>
		<path d="M395.7,104.6h-0.9v-2h-0.6c-0.4,0-0.6,0.1-0.8,0.3c-0.4,0.3-0.5,0.9-0.7,1.4c-0.1,0.1-0.1,0.3-0.2,0.4h-0.9
			c0.1-0.2,0.2-0.3,0.3-0.5c0.2-0.5,0.3-1.1,0.8-1.5c0.2-0.1,0.3-0.2,0.6-0.3v0c-0.6-0.1-1.3-0.5-1.3-1.2c0-0.5,0.3-0.8,0.6-1
			c0.4-0.2,1-0.3,1.6-0.3c0.6,0,1.1,0,1.6,0.1V104.6z M394.8,100.4c-0.2,0-0.4,0-0.7,0c-0.6,0-1.3,0.2-1.3,0.8
			c0,0.6,0.8,0.8,1.3,0.8c0.4,0,0.5,0,0.7,0V100.4z"/>
		<path d="M397.9,99.8v1.6c0,0.6,0.2,1,1,1c0.4,0,0.8-0.1,1-0.3v-2.3h0.9v4.8h-0.9v-1.9h0c-0.3,0.2-0.8,0.4-1.3,0.4
			c-0.9,0-1.6-0.5-1.6-1.6v-1.7H397.9z"/>
		<path d="M402.8,102.4c0,1.2,0.8,1.7,1.7,1.7c0.6,0,1-0.1,1.3-0.2l0.2,0.6c-0.3,0.1-0.8,0.3-1.6,0.3c-1.5,0-2.4-1-2.4-2.4
			s0.9-2.6,2.3-2.6c1.6,0,2,1.4,2,2.3c0,0.2,0,0.3,0,0.4H402.8z M405.3,101.7c0-0.6-0.2-1.4-1.2-1.4c-0.9,0-1.3,0.8-1.3,1.4H405.3z"
			/>
		<path d="M408.2,99.8v1.9h2.3v-1.9h0.9v4.8h-0.9v-2.2h-2.3v2.2h-0.9v-4.8H408.2z"/>
		<path d="M413.6,99.8v2c0,0.8,0,1.3,0,1.9l0,0c0.3-0.6,0.5-0.9,0.8-1.5l1.5-2.5h1v4.8h-0.8v-2c0-0.8,0-1.2,0.1-2h0
			c-0.3,0.6-0.5,1-0.8,1.5c-0.5,0.7-1,1.7-1.5,2.5h-1v-4.8H413.6z"/>
		<path d="M418.9,102.4c0,1.2,0.8,1.7,1.7,1.7c0.6,0,1-0.1,1.3-0.2l0.2,0.6c-0.3,0.1-0.8,0.3-1.6,0.3c-1.5,0-2.4-1-2.4-2.4
			s0.9-2.6,2.3-2.6c1.6,0,2,1.4,2,2.3c0,0.2,0,0.3,0,0.4H418.9z M421.5,101.7c0-0.6-0.2-1.4-1.2-1.4c-0.9,0-1.3,0.8-1.3,1.4H421.5z"
			/>
	</g>
	<g>
	</g>
	<g>
	</g>
	<g>
	</g>
	<g>
	</g>
	<g>
	</g>
	<g>
	</g>
	<g>
	</g>
	<g>
	</g>
	<g>
	</g>
	<g>
	</g>
	<g>
	</g>
	<g>
	</g>
	<g>
	</g>
	<g>
	</g>
	<g>
	</g>
	<g>
	</g>
</g>
</svg>
