<?xml version="1.0" encoding="utf-8"?>
<!-- Generator: Adobe Illustrator 23.0.0, SVG Export Plug-In . SVG Version: 6.00 Build 0)  -->
<svg version="1.1" xmlns="http://www.w3.org/2000/svg" xmlns:xlink="http://www.w3.org/1999/xlink" x="0px" y="0px"
	 viewBox="0 0 574 511" style="enable-background:new 0 0 574 511;" xml:space="preserve">
<style type="text/css">
	.st0{fill:#39B54A;stroke:#000000;stroke-miterlimit:10;}
	.st1{fill:#8CC63F;stroke:#000000;stroke-miterlimit:10;}
	.st2{fill:none;stroke:#000000;stroke-miterlimit:10;}
	.st3{fill:#F7931E;stroke:#000000;stroke-miterlimit:10;}
	.st4{fill:#D9E021;stroke:#000000;stroke-miterlimit:10;}
	.st5{fill:#FFFF00;stroke:#000000;stroke-miterlimit:10;}
	.st6{fill:#F15A24;stroke:#000000;stroke-miterlimit:10;}
	.st7{fill:#C1272D;stroke:#000000;stroke-miterlimit:10;}
</style>
<g id="Layer_3">
	<path class="st0" d="M69,503c0,0,22-12,32-21s19-18,26-25s37-24,37-24l79-38c13.15-5.55,37.4-17.85,59-43
		c19.46-22.66,28.08-45.64,32-59c0-0.47,0-1.16,0-2c0.01-2.73,0.08-3.52,0-5c-0.18-3.4-0.76-3.85-1-4c-0.63-0.38-1.43-0.2-2,0
		C227.99,383.27,182.3,411.5,160.5,415.5c-5.06,0.93-25.3,3.57-37,19c-8.21,10.82-2.34,14.91-11,27c-11.34,15.82-34.41,26.95-37,34
		c-0.24,0.64-1.33,4.04-4.47,6.33C70.21,502.43,69.47,502.79,69,503z"/>
	<path class="st0" d="M338.5,395.5"/>
</g>
<g id="Layer_2">
	<path class="st1" d="M308,282c0,0-33,3-60,29s-56,56-56,56l-48,46l-33,20c2.29,4.7,4.91,12.08,3,20c-1.34,5.56-4.47,9.52-19,22
		c-18.55,15.93-30.47,24.07-29,27c0.24,0.48,0.93,1,3,1c3.04-2.31,7.55-5.77,13-10c7.89-6.13,11.84-9.2,14-11
		c11.83-9.88,18.68-15.61,23-25c1.79-3.88,4.12-10.53,4-20c0,0,6-4,21-7s49-22,66-31c35.52-18.8,56.4-37.75,82-59
		c0,0,20.94-17.38,33-39c1-1.79,2-4,2-4c3.44-7.59,4.75-14.73,4-15c-0.65-0.24-1.53,5.18-5,6c-2.42,0.57-4.4-1.51-11-4
		c-0.61-0.23-1.46-0.54-2.54-0.87C310.57,282.54,308.99,282.19,308,282z"/>
	<path class="st2" d="M334,293"/>
</g>
<g id="Layer_8">
	<path class="st3" d="M384.5,262.5"/>
	<path class="st4" d="M344.5,186.5c0,4.74,1.07,59.2-20,65c-7.23,1.99-15.41-2.2-20-7c-10.27-10.73-1.9-25.24,0-58
		c2.25-38.82-6.87-59.73,4-66c6.26-3.61,14.53,0.3,16,1C345,131.2,344.5,168.87,344.5,186.5z"/>
	<path class="st1" d="M334.5,253.5c0,5.23-1.46,15.69-7,17c-6.11,1.45-12.62-9.36-13-10c-1.61-2.73-4.42-7.5-3-13
		c1.82-7.05,10.04-13.06,16-11C334.6,238.95,334.5,251.29,334.5,253.5z"/>
</g>
<g id="Layer_4">
	<path class="st0" d="M334.5,279.5"/>
	<path class="st5" d="M334.5,279.5c0,0,7-7,9-10s5-8,6-11s3-8,4-13s3-13,3-13l4-17l3-21v-23c0,0,2,11-2-19s-5-47-14-73s-23-59-23-59
		l-5-14c0,0-6-4-5,13s1,101,1,101c2.98,13.19,5.3,24.42,7,33c1.77,8.93,3.3,16.67,5,27c0,0,2.45,14.89,4,28
		C334.81,236.58,334.72,265.98,334.5,279.5z"/>
	<path class="st5" d="M308.5,281.5c0,0-8-6-11-20s-9-39-9-39s-3-25-4-39s0-41,0-41s8-66,15-82s7-50,7-50c0.45-2.36,1.7-3.93,3-4
		c0.88-0.05,1.58,0.6,2,1c2.1,1.97,2.05,5.05,2,6c0.67,13.67,1.33,27.33,2,41c0,22,0,44,0,66l0,0c0,0-10,69-9,100s19,57,19,57
		L308.5,281.5z"/>
</g>
<g id="Layer_5">
	<path class="st3" d="M326.5,233.5c0,0,17-26,33-31s27,16,27,16c0.99,2.34,2.23,5.85,2.88,10.25c0.34,2.31,0.49,4.7,0.13,12.75
		c-0.38,8.39-0.57,12.58-1,14c-1.77,5.88-5.3,9.8-10,15c-5.05,5.59-5.91,4.89-9,9c-4.85,6.46-6.35,13.02-7,16
		c-1.4,6.44-0.94,11.16,0,20c0.48,4.46,5,27,5,27l-4,10l-9-37c0,0-2-28,10-41s22-17,17-47s-31-14-35-8
		C346.5,219.5,342.63,221.77,326.5,233.5z"/>
	<path class="st3" d="M398.5,322.5"/>
	<path class="st3" d="M321.5,267.5c0,0-2-16-32-16c-25.14,0-49.8,35.81-50,36l0,0c-4.84,5.15-12.04,11.35-22,16
		c-17.24,8.05-32.73,6.78-41,6c-7.71-0.73-16.61-2.62-16.59-4.13c0.03-2.48,19.59-3.87,19.59-3.87c5.16,1.17,16.96,3.08,30-2
		c10.12-3.94,16.38-10.29,19-13c5.25-5.44,6.37-8.78,10-14c12.04-17.31,30.16-24.32,32-25c0,0,18.08-6.72,36-2
		c3.57,0.94,5.88,2.08,7.39,2.94c6.97,3.99,10.33,9.92,12.61,14.06c1.1,2.01,4.5,8.18,3.1,9.34
		C328.28,272.93,323.39,269.05,321.5,267.5z"/>
	<path class="st3" d="M308.5,251.5"/>
	<path class="st3" d="M183.5,249.5c0,0-3-12,16-25s17,3,35-29c3.34-5.94,6.39-7.98,9.68-9.7c11.53-6.06,27.73,1.2,36.32,7.7
		c2.79,2.11,8.19,8.74,19,22c1.54,1.89,2.83,3.52,4,6c2.08,4.4,2.02,7.81,2.98,7.82c1.73,0.03,3.02-6.82,3.02-6.82s-13-26-24-34
		c-8.81-6.41-14.29-9.05-16.85-9.79c-3.13-0.91-13.24-3.67-24.15,0.79c-8.82,3.61-13.89,10.19-16,13c-5.3,7.05-4.7,11.05-10,16
		c-4.66,4.36-10.12,6.16-14,7c-10.85,6.4-18.03,13.36-21,18c-2.49,3.9-3.46,8.44-4,11c-0.08,0.4-0.23,1.13,0,2
		c0.77,2.92,4.99,4.33,5.12,4.13C184.63,250.62,184.25,250.24,183.5,249.5z"/>
</g>
<g id="Layer_6">
	<path class="st3" d="M173.5,309.5c0.31,3.74,1.15,8.8,0,16c-0.8,5.02-1.7,10.15-5.5,12c-3.08,1.5-7.86,0.75-10.5-2
		c-4.74-4.94,1.45-12.09,2-30c0.33-10.69-1.67-14.65,1-24c1.18-4.12,3.16-10.73,8-12c2.87-0.75,6.76,0.38,9,3
		C183.38,279.37,171.84,289.36,173.5,309.5z"/>
	<path class="st3" d="M209.5,273.5c-2.06,2.88-7.18,2.23-9,2c-5.94-0.75-9.55-3.92-16-9c-10.42-8.21-5.07-3.17-16-12
		c-21.87-17.67-22.38-20.98-22-23c0.62-3.33,4.28-6.49,8-7c7.88-1.08,10.85,10.41,29,23c6.41,4.45,9.61,6.67,12,8
		c6.78,3.78,10.52,4.71,13,9C208.79,265,211.78,270.32,209.5,273.5z"/>
	<path class="st3" d="M336.5,378.5c-2.23,3.16-4.32,6.77-3,9c1.06,1.79,3.88,1.95,5,2c4.68,0.2,9.46-2.1,20-12
		c9.8-9.2,6.9-8.38,16-17c6.14-5.82,12.14-10.63,11-15c-0.16-0.59-0.77-1.73-2-4c-1.94-3.58-2.91-5.38-4-6c-3.32-1.9-9.02,2.28-10,3
		c-8.27,6.07-6.07,12.05-13,21C349.98,367.93,344.46,367.24,336.5,378.5z"/>
	<path class="st3" d="M382.86,340.33c0,0-16.36,23.17-24.36,29.17"/>
</g>
<g id="Layer_7">
	<path class="st6" d="M319.5,237.5c1.22-1.32-1.22-6.01-4-9c-4.43-4.76-10.28-5.77-12-6c-6.13-0.83-10.65,1.37-14,3
		c-4.81,2.34-5.76,4.41-6,5c-1.14,2.76-0.53,6.45,1,7c1.25,0.45,2.37-1.47,6-4c1.02-0.71,4.22-2.84,8-4c2.98-0.91,8.51-2.61,12,0
		c3.18,2.37,2.39,6.6,6,8C316.68,237.57,318.72,238.34,319.5,237.5z"/>
	<path class="st6" d="M364.5,232.5c-0.9-8-14.47-11.59-16-12c-2.6-0.69-4.46-1.18-7-1c-12.17,0.87-20.73,15.93-19,18
		c0.89,1.06,4.79-0.89,5-1c3.36-1.7,3.98-4.08,6-6c3.93-3.73,11.28-3.93,16-2c7.48,3.07,8.78,11.68,12,11
		C363.49,239.08,364.83,235.42,364.5,232.5z"/>
	<path class="st6" d="M299.5,231.5"/>
	<path class="st7" d="M323.5,271c0.86,3.34-0.48,7.66-3,8.5c-0.76,0.25-1.45,0.13-2,0c-3.57-0.86-9.52-4.39-11-11
		c-0.17-0.74-1.44-6.4,1-8c3.44-2.26,11.28,5.3,12,6C322.86,268.78,323.31,270.25,323.5,271z"/>
	<path class="st7" d="M323.5,268.5c-0.93,2.45-3.11,8.17-1,10c0.48,0.42,0.75,0.25,4,1c3.4,0.78,3.21,0.98,4,1
		c3.43,0.07,6.66-3.78,8-7c0.82-1.97,0.89-3.61,1-6c0.16-3.57,0.25-5.53-1-7c-1.93-2.28-6.15-2.33-9-1
		C326.37,260.96,325.25,263.91,323.5,268.5z"/>
	<path class="st7" d="M330.5,281.5c0.62,2.15-3.94,7.12-8,6c-2.64-0.73-4.81-3.97-4-6c1-2.53,6.15-2.07,7-2
		C326.65,279.6,330.04,279.9,330.5,281.5z"/>
	<path class="st7" d="M319.5,280.5c-0.08,1.5-2.23,2.76-4,3c-3.08,0.41-5.35-2.24-6-3c-2.39-2.8-3.25-7.16-2-8
		c0.36-0.24,0.92-0.22,6,3C319.03,279.01,319.54,279.73,319.5,280.5z"/>
</g>
<g id="Layer_9">
	<g>
		<g>
			<line class="st2" x1="414.5" y1="75.5" x2="333.07" y2="75.5"/>
			<g>
				<path d="M333.26,71.74c-2.08,0-3.76,1.68-3.76,3.76s1.68,3.76,3.76,3.76c2.08,0,3.76-1.68,3.76-3.76S335.34,71.74,333.26,71.74z
					"/>
			</g>
		</g>
	</g>
	<g>
		<g>
			<line class="st2" x1="444" y1="231.5" x2="362.57" y2="231.5"/>
			<g>
				<path d="M362.76,227.74c-2.08,0-3.76,1.68-3.76,3.76s1.68,3.76,3.76,3.76c2.08,0,3.76-1.68,3.76-3.76
					S364.84,227.74,362.76,227.74z"/>
			</g>
		</g>
	</g>
	<g>
		<g>
			<line class="st2" x1="296" y1="407.5" x2="214.57" y2="407.5"/>
			<g>
				<path d="M214.76,403.74c-2.08,0-3.76,1.68-3.76,3.76s1.68,3.76,3.76,3.76c2.08,0,3.76-1.68,3.76-3.76
					S216.84,403.74,214.76,403.74z"/>
			</g>
		</g>
	</g>
	<g>
		<g>
			<line class="st2" x1="83" y1="293.5" x2="164.43" y2="293.5"/>
			<g>
				<path d="M164.24,297.26c2.08,0,3.76-1.68,3.76-3.76s-1.68-3.76-3.76-3.76c-2.08,0-3.76,1.68-3.76,3.76
					S162.16,297.26,164.24,297.26z"/>
			</g>
		</g>
	</g>
	<g>
		<g>
			<line class="st2" x1="83" y1="272.5" x2="321.93" y2="272.5"/>
			<g>
				<path d="M321.74,276.26c2.08,0,3.76-1.68,3.76-3.76s-1.68-3.76-3.76-3.76c-2.08,0-3.76,1.68-3.76,3.76
					S319.66,276.26,321.74,276.26z"/>
			</g>
		</g>
	</g>
	<g>
		<g>
			<line class="st2" x1="83" y1="272.5" x2="321.93" y2="272.5"/>
			<g>
				<path d="M321.74,276.26c2.08,0,3.76-1.68,3.76-3.76s-1.68-3.76-3.76-3.76c-2.08,0-3.76,1.68-3.76,3.76
					S319.66,276.26,321.74,276.26z"/>
			</g>
		</g>
	</g>
	<g>
		<path d="M301.28,402.32v3.38h3.91v-3.38h1.05v8.08h-1.05v-3.79h-3.91v3.79h-1.04v-8.08H301.28z"/>
		<path d="M308.99,404.6v2.45c0,0.92-0.01,1.5-0.06,2.33l0.04,0.01c0.35-0.71,0.55-1.12,0.94-1.79l1.81-3h1.24v5.8h-1.01v-2.46
			c0-0.95,0.02-1.44,0.07-2.37h-0.04c-0.37,0.74-0.62,1.21-0.96,1.8c-0.55,0.9-1.19,2.01-1.81,3.03H308v-5.8H308.99z"/>
		<path d="M315.16,404.6l1.92,2.53h0.22v-2.53h1.01v2.53h0.2l1.92-2.53h1.21l-2.29,2.64c0.88,0.1,1.39,0.61,1.74,1.54
			c0.2,0.56,0.4,1.17,0.64,1.63h-1.06c-0.19-0.35-0.36-0.83-0.53-1.33c-0.36-0.95-0.9-1.24-1.66-1.24h-0.18v2.57h-1.01v-2.57h-0.19
			c-0.82,0-1.31,0.3-1.67,1.25c-0.19,0.5-0.35,0.96-0.55,1.32h-1.02c0.24-0.47,0.43-1.08,0.64-1.62c0.36-0.94,0.88-1.45,1.75-1.55
			l-2.3-2.64H315.16z"/>
		<path d="M323.69,404.6v2.34h2.76v-2.34h1.04v5.8h-1.04v-2.63h-2.76v2.63h-1.04v-5.8H323.69z"/>
		<path d="M333.5,410.4h-1.04v-2.43h-0.78c-0.44,0-0.74,0.12-0.97,0.32c-0.43,0.35-0.59,1.07-0.82,1.63
			c-0.07,0.18-0.16,0.34-0.24,0.48h-1.13c0.13-0.19,0.25-0.41,0.36-0.66c0.25-0.56,0.4-1.32,0.91-1.75c0.18-0.16,0.4-0.29,0.66-0.33
			v-0.04c-0.75-0.08-1.54-0.55-1.54-1.44c0-0.6,0.32-1.01,0.77-1.26c0.48-0.28,1.19-0.4,1.94-0.4c0.7,0,1.37,0.06,1.87,0.12V410.4z
			 M332.46,405.29c-0.26-0.04-0.5-0.06-0.88-0.06c-0.72,0-1.57,0.2-1.57,1.01c0,0.74,0.92,1.01,1.55,1.01c0.43,0,0.66,0,0.9,0
			V405.29z"/>
		<path d="M339.5,410.4h-1.04v-2.43h-0.78c-0.44,0-0.74,0.12-0.97,0.32c-0.43,0.35-0.59,1.07-0.82,1.63
			c-0.07,0.18-0.16,0.34-0.24,0.48h-1.13c0.13-0.19,0.25-0.41,0.36-0.66c0.25-0.56,0.4-1.32,0.91-1.75c0.18-0.16,0.4-0.29,0.66-0.33
			v-0.04c-0.75-0.08-1.54-0.55-1.54-1.44c0-0.6,0.32-1.01,0.77-1.26c0.48-0.28,1.19-0.4,1.94-0.4c0.7,0,1.37,0.06,1.87,0.12V410.4z
			 M338.46,405.29c-0.26-0.04-0.5-0.06-0.88-0.06c-0.72,0-1.57,0.2-1.57,1.01c0,0.74,0.92,1.01,1.55,1.01c0.43,0,0.66,0,0.9,0
			V405.29z"/>
		<path d="M344.79,404.6v4.98h2.67v-4.98h1.04v5.01l0.6,0.01l-0.06,2.63h-0.82l-0.05-1.85h-4.44v-5.8H344.79z"/>
		<path d="M350.34,404.67c0.41-0.07,1.16-0.13,1.85-0.13c0.97,0,2.58,0.16,2.58,1.45c0,0.72-0.55,1.16-1.21,1.31v0.02
			c0.85,0.12,1.48,0.6,1.48,1.44c0,1.52-1.92,1.72-3.06,1.72c-0.65,0-1.32-0.05-1.63-0.07V404.67z M351.34,409.71
			c0.3,0.04,0.52,0.05,0.85,0.05c0.71,0,1.76-0.17,1.76-1.01c0-0.84-0.84-1.02-1.85-1.02h-0.77V409.71z M351.35,407.03h0.79
			c0.78,0,1.58-0.23,1.58-0.91c0-0.58-0.5-0.85-1.56-0.85c-0.35,0-0.56,0.02-0.82,0.05V407.03z"/>
		<path d="M356.95,407.69c0.02,1.43,0.94,2.02,1.99,2.02c0.76,0,1.21-0.13,1.61-0.3l0.18,0.75c-0.37,0.17-1.01,0.36-1.93,0.36
			c-1.79,0-2.85-1.18-2.85-2.93s1.03-3.13,2.72-3.13c1.89,0,2.4,1.67,2.4,2.73c0,0.22-0.02,0.38-0.04,0.49H356.95z M360.05,406.93
			c0.01-0.67-0.28-1.72-1.46-1.72c-1.07,0-1.54,0.98-1.62,1.72H360.05z"/>
		<path d="M366.25,404.6v0.84h-1.81v4.96h-1.04v-4.96h-1.81v-0.84H366.25z"/>
		<path d="M368.22,404.6v2.52h0.25l2.18-2.52h1.28l-2.53,2.63c0.94,0.1,1.5,0.72,1.96,1.76c0.16,0.38,0.36,0.95,0.62,1.42h-1.1
			c-0.16-0.25-0.36-0.71-0.54-1.19c-0.4-0.94-0.94-1.37-1.92-1.37h-0.2v2.55h-1.04v-5.8H368.22z"/>
		<path d="M378.11,407.45c0,2.15-1.49,3.08-2.89,3.08c-1.57,0-2.78-1.15-2.78-2.99c0-1.94,1.27-3.08,2.88-3.08
			C376.98,404.46,378.11,405.67,378.11,407.45z M373.5,407.51c0,1.27,0.73,2.23,1.76,2.23c1.01,0,1.76-0.95,1.76-2.25
			c0-0.98-0.49-2.23-1.74-2.23C374.04,405.25,373.5,406.41,373.5,407.51z"/>
		<path d="M379.42,404.67c0.41-0.07,1.16-0.13,1.85-0.13c0.97,0,2.58,0.16,2.58,1.45c0,0.72-0.55,1.16-1.21,1.31v0.02
			c0.85,0.12,1.48,0.6,1.48,1.44c0,1.52-1.92,1.72-3.06,1.72c-0.65,0-1.32-0.05-1.63-0.07V404.67z M380.41,409.71
			c0.3,0.04,0.52,0.05,0.85,0.05c0.71,0,1.76-0.17,1.76-1.01c0-0.84-0.84-1.02-1.85-1.02h-0.77V409.71z M380.43,407.03h0.79
			c0.78,0,1.58-0.23,1.58-0.91c0-0.58-0.5-0.85-1.56-0.85c-0.35,0-0.56,0.02-0.82,0.05V407.03z"/>
		<path d="M388.66,410.4l-0.08-0.73h-0.04c-0.32,0.46-0.95,0.86-1.78,0.86c-1.17,0-1.77-0.83-1.77-1.67c0-1.4,1.25-2.17,3.49-2.16
			v-0.12c0-0.48-0.13-1.34-1.32-1.34c-0.54,0-1.1,0.17-1.51,0.43l-0.24-0.7c0.48-0.31,1.17-0.52,1.91-0.52
			c1.78,0,2.21,1.21,2.21,2.37v2.17c0,0.5,0.02,1,0.1,1.39H388.66z M388.5,407.44c-1.15-0.02-2.46,0.18-2.46,1.31
			c0,0.68,0.46,1.01,1,1.01c0.76,0,1.24-0.48,1.4-0.97c0.04-0.11,0.06-0.23,0.06-0.34V407.44z"/>
		<path d="M395.54,410.4h-1.04v-2.43h-0.78c-0.44,0-0.74,0.12-0.97,0.32c-0.43,0.35-0.59,1.07-0.82,1.63
			c-0.07,0.18-0.16,0.34-0.24,0.48h-1.13c0.13-0.19,0.25-0.41,0.36-0.66c0.25-0.56,0.4-1.32,0.91-1.75c0.18-0.16,0.4-0.29,0.66-0.33
			v-0.04c-0.75-0.08-1.54-0.55-1.54-1.44c0-0.6,0.32-1.01,0.77-1.26c0.48-0.28,1.19-0.4,1.94-0.4c0.7,0,1.37,0.06,1.87,0.12V410.4z
			 M394.5,405.29c-0.26-0.04-0.5-0.06-0.88-0.06c-0.72,0-1.57,0.2-1.57,1.01c0,0.74,0.92,1.01,1.55,1.01c0.43,0,0.66,0,0.9,0V405.29
			z"/>
		<path d="M400.77,404.6v1.91c0,0.73,0.28,1.24,1.2,1.24c0.46,0,0.92-0.17,1.25-0.41v-2.73h1.04v5.8h-1.04v-2.33h-0.02
			c-0.4,0.26-1.02,0.44-1.57,0.44c-1.1,0-1.91-0.56-1.91-1.9v-2.03H400.77z"/>
		<path d="M406.57,407.69c0.02,1.43,0.94,2.02,1.99,2.02c0.76,0,1.21-0.13,1.61-0.3l0.18,0.75c-0.37,0.17-1.01,0.36-1.93,0.36
			c-1.79,0-2.85-1.18-2.85-2.93s1.03-3.13,2.72-3.13c1.89,0,2.4,1.67,2.4,2.73c0,0.22-0.02,0.38-0.04,0.49H406.57z M409.67,406.93
			c0.01-0.67-0.28-1.72-1.46-1.72c-1.07,0-1.54,0.98-1.62,1.72H409.67z"/>
		<path d="M413,404.6v4.98h2.03v-4.98h1.03v4.98h2.03v-4.98h1.04v5.8h-7.16v-5.8H413z"/>
		<path d="M421.19,404.6l1.27,3.43c0.13,0.38,0.28,0.84,0.37,1.19h0.02c0.11-0.35,0.23-0.79,0.37-1.21l1.15-3.41h1.12l-1.58,4.14
			c-0.75,1.99-1.27,3.01-1.99,3.63c-0.52,0.46-1.03,0.64-1.3,0.68l-0.26-0.89c0.26-0.08,0.61-0.25,0.92-0.52
			c0.29-0.23,0.65-0.64,0.89-1.17c0.05-0.11,0.08-0.19,0.08-0.25c0-0.06-0.02-0.14-0.07-0.28l-2.15-5.35H421.19z"/>
		<path d="M430.73,410.4h-1.04v-2.43h-0.78c-0.44,0-0.74,0.12-0.97,0.32c-0.43,0.35-0.59,1.07-0.82,1.63
			c-0.07,0.18-0.16,0.34-0.24,0.48h-1.13c0.13-0.19,0.25-0.41,0.36-0.66c0.25-0.56,0.4-1.32,0.91-1.75c0.18-0.16,0.4-0.29,0.66-0.33
			v-0.04c-0.75-0.08-1.54-0.55-1.54-1.44c0-0.6,0.32-1.01,0.77-1.26c0.48-0.28,1.19-0.4,1.94-0.4c0.7,0,1.37,0.06,1.87,0.12V410.4z
			 M429.68,405.29c-0.26-0.04-0.5-0.06-0.88-0.06c-0.72,0-1.57,0.2-1.57,1.01c0,0.74,0.92,1.01,1.55,1.01c0.43,0,0.66,0,0.9,0
			V405.29z"/>
	</g>
	<g>
		<path d="M420.23,70.42c0.46-0.1,1.18-0.17,1.91-0.17c1.04,0,1.71,0.18,2.22,0.59c0.42,0.31,0.67,0.79,0.67,1.43
			c0,0.78-0.52,1.46-1.37,1.78v0.02c0.77,0.19,1.67,0.83,1.67,2.03c0,0.7-0.28,1.22-0.68,1.62c-0.56,0.52-1.48,0.76-2.79,0.76
			c-0.72,0-1.27-0.05-1.62-0.1V70.42z M421.28,73.74h0.95c1.1,0,1.75-0.58,1.75-1.36c0-0.95-0.72-1.32-1.77-1.32
			c-0.48,0-0.76,0.04-0.92,0.07V73.74z M421.28,77.61c0.2,0.04,0.5,0.05,0.88,0.05c1.08,0,2.08-0.4,2.08-1.57
			c0-1.1-0.95-1.56-2.09-1.56h-0.86V77.61z"/>
		<path d="M427.32,75.69c0.02,1.43,0.94,2.02,1.99,2.02c0.76,0,1.21-0.13,1.61-0.3l0.18,0.75c-0.37,0.17-1.01,0.36-1.93,0.36
			c-1.79,0-2.85-1.18-2.85-2.93s1.03-3.13,2.72-3.13c1.89,0,2.4,1.67,2.4,2.73c0,0.22-0.02,0.38-0.04,0.49H427.32z M430.42,74.93
			c0.01-0.67-0.28-1.72-1.46-1.72c-1.07,0-1.54,0.98-1.62,1.72H430.42z"/>
		<path d="M432.75,74.49c0-0.74-0.02-1.34-0.05-1.89h0.95l0.05,1h0.02c0.43-0.71,1.12-1.13,2.06-1.13c1.4,0,2.46,1.19,2.46,2.95
			c0,2.09-1.27,3.12-2.64,3.12c-0.77,0-1.44-0.34-1.79-0.91h-0.02v3.15h-1.04V74.49z M433.79,76.04c0,0.16,0.02,0.3,0.05,0.43
			c0.19,0.73,0.83,1.24,1.58,1.24c1.12,0,1.76-0.91,1.76-2.24c0-1.16-0.61-2.16-1.73-2.16c-0.72,0-1.39,0.52-1.59,1.31
			c-0.04,0.13-0.07,0.29-0.07,0.43V76.04z"/>
		<path d="M439.91,72.6l0.83,1.25c0.22,0.32,0.4,0.62,0.59,0.95h0.04c0.19-0.35,0.38-0.65,0.58-0.96l0.82-1.24h1.14l-1.98,2.81
			l2.04,3h-1.2l-0.85-1.31c-0.23-0.34-0.42-0.66-0.62-1.01h-0.02c-0.19,0.35-0.4,0.66-0.61,1.01l-0.84,1.31h-1.16l2.06-2.96
			l-1.97-2.84H439.91z"/>
		<path d="M445.99,72.6v2.34h2.76V72.6h1.04v5.8h-1.04v-2.63h-2.76v2.63h-1.04v-5.8H445.99z"/>
		<path d="M455.81,78.4h-1.04v-2.43h-0.78c-0.44,0-0.74,0.12-0.97,0.32c-0.43,0.35-0.59,1.07-0.82,1.63
			c-0.07,0.18-0.16,0.34-0.24,0.48h-1.13c0.13-0.19,0.25-0.41,0.36-0.66c0.25-0.56,0.4-1.32,0.91-1.75c0.18-0.16,0.4-0.29,0.66-0.33
			v-0.04c-0.75-0.08-1.54-0.55-1.54-1.44c0-0.6,0.32-1.01,0.77-1.26c0.48-0.28,1.19-0.4,1.94-0.4c0.7,0,1.37,0.06,1.87,0.12V78.4z
			 M454.77,73.29c-0.26-0.04-0.5-0.06-0.88-0.06c-0.72,0-1.57,0.2-1.57,1.01c0,0.74,0.92,1.01,1.55,1.01c0.43,0,0.66,0,0.9,0V73.29z
			"/>
		<path d="M461.81,78.4h-1.04v-2.43h-0.78c-0.44,0-0.74,0.12-0.97,0.32c-0.43,0.35-0.59,1.07-0.82,1.63
			c-0.07,0.18-0.16,0.34-0.24,0.48h-1.13c0.13-0.19,0.25-0.41,0.36-0.66c0.25-0.56,0.4-1.32,0.91-1.75c0.18-0.16,0.4-0.29,0.66-0.33
			v-0.04c-0.75-0.08-1.54-0.55-1.54-1.44c0-0.6,0.32-1.01,0.77-1.26c0.48-0.28,1.19-0.4,1.94-0.4c0.7,0,1.37,0.06,1.87,0.12V78.4z
			 M460.76,73.29c-0.26-0.04-0.5-0.06-0.88-0.06c-0.72,0-1.57,0.2-1.57,1.01c0,0.74,0.92,1.01,1.55,1.01c0.43,0,0.66,0,0.9,0V73.29z
			"/>
		<path d="M467.09,72.6v4.98h2.67V72.6h1.04v5.01l0.6,0.01l-0.06,2.63h-0.82l-0.05-1.85h-4.44v-5.8H467.09z"/>
		<path d="M472.65,72.67c0.41-0.07,1.16-0.13,1.85-0.13c0.97,0,2.58,0.16,2.58,1.45c0,0.72-0.55,1.16-1.21,1.31v0.02
			c0.85,0.12,1.48,0.6,1.48,1.44c0,1.52-1.92,1.72-3.06,1.72c-0.65,0-1.32-0.05-1.63-0.07V72.67z M473.64,77.71
			c0.3,0.04,0.52,0.05,0.85,0.05c0.71,0,1.76-0.17,1.76-1.01c0-0.84-0.84-1.02-1.85-1.02h-0.77V77.71z M473.65,75.03h0.79
			c0.78,0,1.58-0.23,1.58-0.91c0-0.58-0.5-0.85-1.56-0.85c-0.35,0-0.56,0.02-0.82,0.05V75.03z"/>
		<path d="M479.26,75.69c0.02,1.43,0.94,2.02,1.99,2.02c0.76,0,1.21-0.13,1.61-0.3l0.18,0.75c-0.37,0.17-1.01,0.36-1.93,0.36
			c-1.79,0-2.85-1.18-2.85-2.93s1.03-3.13,2.72-3.13c1.89,0,2.4,1.67,2.4,2.73c0,0.22-0.02,0.38-0.04,0.49H479.26z M482.35,74.93
			c0.01-0.67-0.28-1.72-1.46-1.72c-1.07,0-1.54,0.98-1.62,1.72H482.35z"/>
		<path d="M488.56,72.6v0.84h-1.81v4.96h-1.04v-4.96h-1.81V72.6H488.56z"/>
		<path d="M490.53,72.6v2.52h0.25l2.18-2.52h1.28l-2.53,2.63c0.94,0.1,1.5,0.72,1.96,1.76c0.16,0.38,0.36,0.95,0.62,1.42h-1.1
			c-0.16-0.25-0.36-0.71-0.54-1.19c-0.4-0.94-0.94-1.37-1.92-1.37h-0.2v2.55h-1.04v-5.8H490.53z"/>
		<path d="M500.41,75.45c0,2.15-1.49,3.08-2.89,3.08c-1.57,0-2.78-1.15-2.78-2.99c0-1.94,1.27-3.08,2.88-3.08
			C499.28,72.46,500.41,73.67,500.41,75.45z M495.81,75.51c0,1.27,0.73,2.23,1.76,2.23c1.01,0,1.76-0.95,1.76-2.25
			c0-0.98-0.49-2.23-1.74-2.23C496.35,73.25,495.81,74.41,495.81,75.51z"/>
		<path d="M501.72,72.67c0.41-0.07,1.16-0.13,1.85-0.13c0.97,0,2.58,0.16,2.58,1.45c0,0.72-0.55,1.16-1.21,1.31v0.02
			c0.85,0.12,1.48,0.6,1.48,1.44c0,1.52-1.92,1.72-3.06,1.72c-0.65,0-1.32-0.05-1.63-0.07V72.67z M502.72,77.71
			c0.3,0.04,0.52,0.05,0.85,0.05c0.71,0,1.76-0.17,1.76-1.01c0-0.84-0.84-1.02-1.85-1.02h-0.77V77.71z M502.73,75.03h0.79
			c0.78,0,1.58-0.23,1.58-0.91c0-0.58-0.5-0.85-1.56-0.85c-0.35,0-0.56,0.02-0.82,0.05V75.03z"/>
		<path d="M510.96,78.4l-0.08-0.73h-0.04c-0.32,0.46-0.95,0.86-1.78,0.86c-1.17,0-1.77-0.83-1.77-1.67c0-1.4,1.25-2.17,3.49-2.16
			v-0.12c0-0.48-0.13-1.34-1.32-1.34c-0.54,0-1.1,0.17-1.51,0.43l-0.24-0.7c0.48-0.31,1.17-0.52,1.91-0.52
			c1.78,0,2.21,1.21,2.21,2.37v2.17c0,0.5,0.02,1,0.1,1.39H510.96z M510.8,75.44c-1.15-0.02-2.46,0.18-2.46,1.31
			c0,0.68,0.46,1.01,1,1.01c0.76,0,1.24-0.48,1.4-0.97c0.04-0.11,0.06-0.23,0.06-0.34V75.44z"/>
		<path d="M517.85,78.4h-1.04v-2.43h-0.78c-0.44,0-0.74,0.12-0.97,0.32c-0.43,0.35-0.59,1.07-0.82,1.63
			c-0.07,0.18-0.16,0.34-0.24,0.48h-1.13c0.13-0.19,0.25-0.41,0.36-0.66c0.25-0.56,0.4-1.32,0.91-1.75c0.18-0.16,0.4-0.29,0.66-0.33
			v-0.04c-0.75-0.08-1.54-0.55-1.54-1.44c0-0.6,0.32-1.01,0.77-1.26c0.48-0.28,1.19-0.4,1.94-0.4c0.7,0,1.37,0.06,1.87,0.12V78.4z
			 M516.8,73.29c-0.26-0.04-0.5-0.06-0.88-0.06c-0.72,0-1.57,0.2-1.57,1.01c0,0.74,0.92,1.01,1.55,1.01c0.43,0,0.66,0,0.9,0V73.29z"
			/>
		<path d="M523.07,72.6v1.91c0,0.73,0.28,1.24,1.2,1.24c0.46,0,0.92-0.17,1.25-0.41V72.6h1.04v5.8h-1.04v-2.33h-0.02
			c-0.4,0.26-1.02,0.44-1.57,0.44c-1.1,0-1.91-0.56-1.91-1.9V72.6H523.07z"/>
		<path d="M528.88,75.69c0.02,1.43,0.94,2.02,1.99,2.02c0.76,0,1.21-0.13,1.61-0.3l0.18,0.75c-0.37,0.17-1.01,0.36-1.93,0.36
			c-1.79,0-2.85-1.18-2.85-2.93s1.03-3.13,2.72-3.13c1.89,0,2.4,1.67,2.4,2.73c0,0.22-0.02,0.38-0.04,0.49H528.88z M531.97,74.93
			c0.01-0.67-0.28-1.72-1.46-1.72c-1.07,0-1.54,0.98-1.62,1.72H531.97z"/>
		<path d="M535.31,72.6v4.98h2.03V72.6h1.03v4.98h2.03V72.6h1.04v5.8h-7.16v-5.8H535.31z"/>
		<path d="M543.49,72.6l1.27,3.43c0.13,0.38,0.28,0.84,0.37,1.19h0.02c0.11-0.35,0.23-0.79,0.37-1.21l1.15-3.41h1.12l-1.58,4.14
			c-0.75,1.99-1.27,3.01-1.99,3.63c-0.52,0.46-1.03,0.64-1.3,0.68l-0.26-0.89c0.26-0.08,0.61-0.25,0.92-0.52
			c0.29-0.23,0.65-0.64,0.89-1.17c0.05-0.11,0.08-0.19,0.08-0.25c0-0.06-0.02-0.14-0.07-0.28l-2.15-5.35H543.49z"/>
		<path d="M553.03,78.4h-1.04v-2.43h-0.78c-0.44,0-0.74,0.12-0.97,0.32c-0.43,0.35-0.59,1.07-0.82,1.63
			c-0.07,0.18-0.16,0.34-0.24,0.48h-1.13c0.13-0.19,0.25-0.41,0.36-0.66c0.25-0.56,0.4-1.32,0.91-1.75c0.18-0.16,0.4-0.29,0.66-0.33
			v-0.04c-0.75-0.08-1.54-0.55-1.54-1.44c0-0.6,0.32-1.01,0.77-1.26c0.48-0.28,1.19-0.4,1.94-0.4c0.7,0,1.37,0.06,1.87,0.12V78.4z
			 M551.99,73.29c-0.26-0.04-0.5-0.06-0.88-0.06c-0.72,0-1.57,0.2-1.57,1.01c0,0.74,0.92,1.01,1.55,1.01c0.43,0,0.66,0,0.9,0V73.29z
			"/>
	</g>
	<g>
		<path d="M449.79,227.77c0.5-0.08,1.16-0.16,2-0.16c1.03,0,1.79,0.24,2.27,0.67c0.44,0.38,0.71,0.97,0.71,1.69
			c0,0.73-0.22,1.31-0.62,1.73c-0.55,0.59-1.45,0.89-2.47,0.89c-0.31,0-0.6-0.01-0.84-0.07v3.24h-1.04V227.77z M450.83,231.67
			c0.23,0.06,0.52,0.08,0.86,0.08c1.26,0,2.03-0.61,2.03-1.73c0-1.07-0.76-1.58-1.91-1.58c-0.46,0-0.8,0.04-0.98,0.08V231.67z"/>
		<path d="M456.98,229.96v1.98c0.23-0.05,0.56-0.07,0.95-0.07c1.25,0,2.51,0.52,2.51,1.94c0,0.61-0.23,1.03-0.6,1.34
			c-0.64,0.54-1.57,0.67-2.34,0.67c-0.59,0-1.13-0.04-1.56-0.08v-5.78H456.98z M456.98,235.03c0.2,0.02,0.43,0.05,0.73,0.05
			c0.8,0,1.68-0.34,1.68-1.24c0-0.94-0.84-1.22-1.63-1.22c-0.3,0-0.56,0.02-0.78,0.06V235.03z M462.21,229.96v5.8h-1.04v-5.8H462.21
			z"/>
		<path d="M468.34,229.96v5.8h-1.04v-4.98h-1.99v1.51c0,1.63-0.16,2.72-0.91,3.21c-0.29,0.23-0.61,0.36-1.15,0.36l-0.11-0.83
			c0.2-0.04,0.43-0.12,0.58-0.24c0.54-0.4,0.6-1.21,0.6-2.51v-2.34H468.34z"/>
		<path d="M471.09,229.96v1.97c0.24-0.05,0.65-0.06,0.96-0.06c1.31,0,2.69,0.41,2.69,1.95c0,0.6-0.24,1.02-0.61,1.33
			c-0.64,0.54-1.67,0.67-2.52,0.67c-0.59,0-1.13-0.04-1.56-0.08v-5.78H471.09z M471.09,235.03c0.2,0.02,0.43,0.05,0.78,0.05
			c0.79,0,1.81-0.26,1.81-1.24c0-1.01-1.06-1.22-1.83-1.22c-0.28,0-0.52,0.02-0.76,0.06V235.03z"/>
		<path d="M477.07,229.96v4.98h2.67v-4.98h1.04v5.01l0.6,0.01l-0.06,2.63h-0.82l-0.05-1.85h-4.44v-5.8H477.07z"/>
		<path d="M483.19,233.05c0.02,1.43,0.94,2.02,1.99,2.02c0.76,0,1.21-0.13,1.61-0.3l0.18,0.75c-0.37,0.17-1.01,0.36-1.93,0.36
			c-1.79,0-2.85-1.18-2.85-2.93s1.03-3.13,2.72-3.13c1.89,0,2.4,1.67,2.4,2.73c0,0.22-0.02,0.38-0.04,0.49H483.19z M486.28,232.29
			c0.01-0.67-0.28-1.72-1.46-1.72c-1.07,0-1.54,0.98-1.62,1.72H486.28z"/>
	</g>
	<g>
		<path d="M29.07,285.32v8.08h-1.04v-7.21h-3.75v7.21h-1.04v-8.08H29.07z"/>
		<path d="M31.88,287.6v1.98c0.23-0.05,0.56-0.07,0.95-0.07c1.25,0,2.51,0.52,2.51,1.94c0,0.61-0.23,1.03-0.6,1.34
			c-0.64,0.54-1.57,0.67-2.34,0.67c-0.59,0-1.13-0.04-1.56-0.08v-5.78H31.88z M31.88,292.67c0.2,0.02,0.43,0.05,0.73,0.05
			c0.8,0,1.68-0.34,1.68-1.24c0-0.94-0.84-1.22-1.63-1.22c-0.3,0-0.56,0.02-0.78,0.06V292.67z M37.11,287.6v5.8h-1.04v-5.8H37.11z"
			/>
		<path d="M43.25,287.6v5.8H42.2v-4.98h-1.99v1.51c0,1.63-0.16,2.72-0.91,3.21c-0.29,0.23-0.61,0.36-1.15,0.36l-0.11-0.83
			c0.2-0.04,0.43-0.12,0.58-0.24c0.54-0.4,0.6-1.21,0.6-2.51v-2.34H43.25z"/>
		<path d="M45.99,287.6v1.97c0.24-0.05,0.65-0.06,0.96-0.06c1.31,0,2.69,0.41,2.69,1.95c0,0.6-0.24,1.02-0.61,1.33
			c-0.64,0.54-1.67,0.67-2.52,0.67c-0.59,0-1.13-0.04-1.56-0.08v-5.78H45.99z M45.99,292.67c0.2,0.02,0.43,0.05,0.78,0.05
			c0.79,0,1.81-0.26,1.81-1.24c0-1.01-1.06-1.22-1.83-1.22c-0.28,0-0.52,0.02-0.76,0.06V292.67z"/>
		<path d="M51.97,287.6v2.34h2.76v-2.34h1.04v5.8h-1.04v-2.63h-2.76v2.63h-1.04v-5.8H51.97z"/>
		<path d="M58.47,287.6v2.45c0,0.92-0.01,1.5-0.06,2.33l0.04,0.01c0.35-0.71,0.55-1.12,0.94-1.79l1.81-3h1.24v5.8h-1.01v-2.46
			c0-0.95,0.02-1.44,0.07-2.37h-0.04c-0.37,0.74-0.62,1.21-0.96,1.8c-0.55,0.9-1.19,2.01-1.81,3.03h-1.21v-5.8H58.47z"/>
		<path d="M65.19,287.6v2.52h0.25l2.18-2.52h1.28l-2.53,2.63c0.94,0.1,1.5,0.72,1.96,1.76c0.16,0.38,0.36,0.95,0.62,1.42h-1.1
			c-0.16-0.25-0.36-0.71-0.54-1.19c-0.4-0.94-0.94-1.37-1.92-1.37h-0.2v2.55h-1.04v-5.8H65.19z"/>
	</g>
	<g>
		<path d="M28.46,267.24v8.08h-1.06v-7.21h-2.67v2.45c0,1.75-0.07,3.71-1.21,4.47c-0.3,0.19-0.77,0.38-1.24,0.38l-0.13-0.84
			c0.32-0.06,0.66-0.25,0.85-0.43c0.65-0.63,0.71-2.21,0.71-3.5v-3.41H28.46z"/>
		<path d="M35.5,272.37c0,2.15-1.49,3.08-2.89,3.08c-1.57,0-2.78-1.15-2.78-2.99c0-1.94,1.27-3.08,2.88-3.08
			C34.37,269.38,35.5,270.59,35.5,272.37z M30.89,272.43c0,1.27,0.73,2.23,1.76,2.23c1.01,0,1.76-0.95,1.76-2.25
			c0-0.98-0.49-2.23-1.74-2.23C31.43,270.17,30.89,271.33,30.89,272.43z"/>
		<path d="M41.25,269.52v5.01l0.6,0.01l-0.06,2.63h-0.83l-0.05-1.85h-4.02l-0.05,1.85h-0.83l-0.05-2.63l0.49-0.01
			c0.25-0.37,0.44-0.77,0.58-1.19c0.23-0.72,0.34-1.5,0.34-2.32v-1.51H41.25z M38.31,271.28c0,0.77-0.11,1.51-0.3,2.16
			c-0.12,0.4-0.29,0.76-0.47,1.08h2.67v-4.2h-1.91V271.28z"/>
		<path d="M44.08,269.52v2.45c0,0.92-0.01,1.5-0.06,2.33l0.04,0.01c0.35-0.71,0.55-1.12,0.94-1.79l1.81-3h1.24v5.8h-1.01v-2.46
			c0-0.95,0.02-1.44,0.07-2.37h-0.04c-0.37,0.74-0.62,1.21-0.96,1.8c-0.55,0.9-1.19,2.01-1.81,3.03h-1.21v-5.8H44.08z"/>
		<path d="M50.8,269.52v2.52h0.25l2.18-2.52h1.28l-2.53,2.63c0.94,0.1,1.5,0.72,1.95,1.76c0.16,0.38,0.36,0.95,0.62,1.42h-1.1
			c-0.16-0.25-0.36-0.71-0.54-1.19c-0.4-0.94-0.94-1.37-1.92-1.37h-0.2v2.55h-1.04v-5.8H50.8z"/>
		<path d="M55.97,269.52l1.27,3.43c0.13,0.38,0.28,0.84,0.37,1.19h0.02c0.11-0.35,0.23-0.79,0.37-1.21l1.15-3.41h1.12l-1.58,4.14
			c-0.76,1.99-1.27,3.01-1.99,3.63c-0.52,0.46-1.03,0.64-1.29,0.68l-0.26-0.89c0.26-0.08,0.61-0.25,0.92-0.52
			c0.29-0.23,0.65-0.64,0.89-1.17c0.05-0.11,0.08-0.19,0.08-0.25c0-0.06-0.02-0.14-0.07-0.28l-2.15-5.35H55.97z"/>
		<path d="M65.54,269.52v5.8H64.5v-4.98h-1.99v1.51c0,1.63-0.16,2.72-0.91,3.21c-0.29,0.23-0.61,0.36-1.15,0.36l-0.11-0.83
			c0.2-0.04,0.43-0.12,0.58-0.24c0.54-0.4,0.6-1.21,0.6-2.51v-2.34H65.54z"/>
		<path d="M68.29,269.52v1.98c0.23-0.05,0.56-0.07,0.95-0.07c1.25,0,2.51,0.52,2.51,1.94c0,0.61-0.23,1.03-0.6,1.34
			c-0.64,0.54-1.57,0.67-2.34,0.67c-0.59,0-1.13-0.04-1.56-0.08v-5.78H68.29z M68.29,274.59c0.2,0.02,0.43,0.05,0.73,0.05
			c0.8,0,1.68-0.34,1.68-1.24c0-0.94-0.84-1.22-1.63-1.22c-0.3,0-0.56,0.02-0.78,0.06V274.59z M73.52,269.52v5.8h-1.04v-5.8H73.52z"
			/>
	</g>
	<g>
	</g>
	<g>
	</g>
	<g>
	</g>
	<g>
	</g>
	<g>
	</g>
	<g>
	</g>
	<g>
	</g>
	<g>
	</g>
	<g>
	</g>
	<g>
	</g>
	<g>
	</g>
	<g>
	</g>
	<g>
	</g>
	<g>
	</g>
	<g>
	</g>
	<g>
	</g>
</g>
</svg>
