<?xml version="1.0" encoding="utf-8"?>
<!-- Generator: Adobe Illustrator 23.0.0, SVG Export Plug-In . SVG Version: 6.00 Build 0)  -->
<svg version="1.1" id="Layer_2" xmlns="http://www.w3.org/2000/svg" xmlns:xlink="http://www.w3.org/1999/xlink" x="0px" y="0px"
	 viewBox="0 0 333 205" style="enable-background:new 0 0 333 205;" xml:space="preserve">
<style type="text/css">
	.st0{fill:none;stroke:#000000;stroke-miterlimit:10;}
	.st1{fill:none;stroke:#FF0000;stroke-width:2;stroke-miterlimit:10;}
	.st2{fill:none;stroke:#662D91;stroke-miterlimit:10;}
	.st3{fill:none;stroke:#662D91;stroke-miterlimit:10;stroke-dasharray:1.9693,1.9693;}
	.st4{fill:none;stroke:#FF0000;stroke-miterlimit:10;}
	.st5{fill:none;stroke:#FF0000;stroke-miterlimit:10;stroke-dasharray:1.9693,1.9693;}
	.st6{fill:none;stroke:#FF0000;stroke-miterlimit:10;stroke-dasharray:2.0159,2.0159;}
	.st7{fill:none;stroke:#662D91;stroke-width:2;stroke-miterlimit:10;}
</style>
<line class="st0" x1="25.5" y1="10" x2="25.5" y2="155"/>
<line class="st0" x1="25.5" y1="154.5" x2="33.5" y2="154.5"/>
<path class="st1" d="M46.5,108.5c4.59-14.87,8.72-27.36,12-37c1.13-3.32,3.75-9.88,9-23c2.41-6.02,4.79-11.84,10-18
	c2.27-2.68,4.43-4.67,6-6c27.67,0,55.33,0,83,0c3.47,4.67,8.53,11.83,14,21c5.5,9.22,9.07,16.61,16,31c3.34,6.94,7.84,16.47,13,28"
	/>
<g>
	<g>
		<line class="st2" x1="240" y1="24.5" x2="240" y2="25.5"/>
		<line class="st3" x1="240" y1="27.47" x2="240" y2="152.52"/>
		<line class="st2" x1="240" y1="153.5" x2="240" y2="154.5"/>
	</g>
</g>
<g>
	<g>
		<line class="st2" x1="136" y1="24.5" x2="136" y2="25.5"/>
		<line class="st3" x1="136" y1="27.47" x2="136" y2="152.52"/>
		<line class="st2" x1="136" y1="153.5" x2="136" y2="154.5"/>
	</g>
</g>
<g>
	<g>
		<line class="st4" x1="84" y1="24.5" x2="84" y2="25.5"/>
		<line class="st5" x1="84" y1="27.47" x2="84" y2="152.52"/>
		<line class="st4" x1="84" y1="153.5" x2="84" y2="154.5"/>
	</g>
</g>
<g>
	<g>
		<line class="st4" x1="164.5" y1="25.5" x2="164.5" y2="26.5"/>
		<line class="st6" x1="164.5" y1="28.52" x2="164.5" y2="152.49"/>
		<line class="st4" x1="164.5" y1="153.5" x2="164.5" y2="154.5"/>
	</g>
</g>
<path class="st7" d="M81.5,108.5c5.02-11.29,9.6-20.47,13-27c8.49-16.33,13.83-26.48,23-38c6.92-8.69,13.52-15.03,18-19h105
	c8.85,13.5,15.35,25.53,20,35c4.39,8.93,7.45,16.22,9,20c3.84,9.4,6.77,17.88,9,25"/>
<line class="st0" x1="25" y1="25" x2="19" y2="25"/>
<path class="st0" d="M34,151.5c-0.62,0.41-0.96,0.87-1,1.38c-0.09,1.04,1.09,1.71,1,2.75c-0.04,0.51-0.38,0.96-1,1.38"/>
<path class="st0" d="M37,151.5c-0.62,0.41-0.96,0.87-1,1.38c-0.09,1.04,1.09,1.71,1,2.75c-0.04,0.51-0.38,0.96-1,1.38"/>
<line class="st0" x1="60.5" y1="158.5" x2="60.5" y2="154.5"/>
<line class="st0" x1="84" y1="158.5" x2="84" y2="154.5"/>
<line class="st0" x1="111.5" y1="158.5" x2="111.5" y2="154.5"/>
<line class="st0" x1="136" y1="158.5" x2="136" y2="154.5"/>
<line class="st0" x1="164.5" y1="158.5" x2="164.5" y2="154.5"/>
<line class="st0" x1="189.5" y1="158.5" x2="189.5" y2="154.5"/>
<line class="st0" x1="215.5" y1="158.5" x2="215.5" y2="154.5"/>
<line class="st0" x1="240" y1="158.5" x2="240" y2="154.5"/>
<line class="st0" x1="264.5" y1="158.5" x2="264.5" y2="154.5"/>
<line class="st0" x1="36.5" y1="154.5" x2="310.5" y2="154.5"/>
<g>
	<g>
		<line class="st0" x1="87.64" y1="133.5" x2="160.36" y2="133.5"/>
		<g>
			<polygon points="89.63,135.2 87.94,133.5 89.63,131.8 88.2,131.8 86.5,133.5 88.2,135.2 			"/>
		</g>
		<g>
			<polygon points="158.37,135.2 160.06,133.5 158.37,131.8 159.8,131.8 161.5,133.5 159.8,135.2 			"/>
		</g>
	</g>
</g>
<g>
	<g>
		<line class="st0" x1="141.14" y1="123.5" x2="236.36" y2="123.5"/>
		<g>
			<polygon points="143.13,125.2 141.44,123.5 143.13,121.8 141.7,121.8 140,123.5 141.7,125.2 			"/>
		</g>
		<g>
			<polygon points="234.37,125.2 236.06,123.5 234.37,121.8 235.8,121.8 237.5,123.5 235.8,125.2 			"/>
		</g>
	</g>
</g>
<g>
	<path d="M105.55,128.31c0,1.43-0.99,2.05-1.93,2.05c-1.05,0-1.86-0.77-1.86-1.99c0-1.29,0.85-2.05,1.92-2.05
		C104.8,126.32,105.55,127.13,105.55,128.31z M102.48,128.35c0,0.85,0.49,1.49,1.17,1.49c0.67,0,1.17-0.63,1.17-1.5
		c0-0.66-0.33-1.49-1.16-1.49C102.84,126.85,102.48,127.62,102.48,128.35z"/>
	<path d="M109.62,126.41v3.87h-0.7v-3.31h-1.8v3.31h-0.7v-3.87H109.62z"/>
	<path d="M113.36,126.41v0.56h-1.21v3.31h-0.7v-3.31h-1.21v-0.56H113.36z"/>
	<path d="M114.62,126.41v1.63c0,0.62-0.01,1-0.04,1.55l0.02,0.01c0.23-0.47,0.37-0.74,0.62-1.19l1.21-2h0.82v3.87h-0.67v-1.64
		c0-0.63,0.02-0.96,0.05-1.58h-0.02c-0.25,0.5-0.42,0.81-0.64,1.2c-0.37,0.6-0.79,1.34-1.21,2.02h-0.81v-3.87H114.62z"/>
	<path d="M118.45,126.41h0.86l0.7,1.95c0.1,0.29,0.26,0.76,0.35,1.06h0.02c0.09-0.29,0.3-0.9,0.46-1.33l0.63-1.69h0.87l0.27,3.87
		h-0.67l-0.09-1.85c-0.02-0.42-0.06-0.91-0.07-1.38h-0.02c-0.1,0.35-0.21,0.66-0.42,1.25l-0.74,1.95h-0.51l-0.69-1.91
		c-0.12-0.37-0.29-0.93-0.38-1.29h-0.03c-0.02,0.46-0.04,0.97-0.06,1.39l-0.1,1.83h-0.65L118.45,126.41z"/>
	<path d="M123.74,126.41l0.85,2.29c0.09,0.26,0.18,0.56,0.25,0.79h0.02c0.07-0.23,0.15-0.53,0.25-0.81l0.77-2.27h0.74l-1.06,2.76
		c-0.5,1.33-0.85,2.01-1.33,2.42c-0.34,0.3-0.69,0.42-0.86,0.46l-0.18-0.59c0.18-0.06,0.41-0.17,0.62-0.34
		c0.19-0.15,0.43-0.42,0.59-0.78c0.03-0.07,0.06-0.13,0.06-0.17c0-0.04-0.02-0.1-0.05-0.18l-1.43-3.57H123.74z"/>
	<path d="M127.25,126.41h0.86l0.7,1.95c0.1,0.29,0.26,0.76,0.35,1.06h0.02c0.09-0.29,0.3-0.9,0.46-1.33l0.62-1.69h0.87l0.27,3.87
		h-0.67l-0.09-1.85c-0.02-0.42-0.06-0.91-0.07-1.38h-0.02c-0.1,0.35-0.21,0.66-0.42,1.25l-0.74,1.95h-0.51l-0.69-1.91
		c-0.12-0.37-0.29-0.93-0.38-1.29h-0.03c-0.02,0.46-0.04,0.97-0.06,1.39l-0.1,1.83h-0.65L127.25,126.41z"/>
	<path d="M137.01,126.41v3.34l0.4,0.01l-0.04,1.75h-0.55l-0.03-1.23h-2.68l-0.03,1.23h-0.55l-0.03-1.75l0.33-0.01
		c0.17-0.25,0.29-0.51,0.38-0.79c0.15-0.48,0.22-1,0.22-1.54v-1.01H137.01z M135.05,127.59c0,0.51-0.07,1.01-0.2,1.44
		c-0.08,0.26-0.19,0.5-0.31,0.72h1.78v-2.8h-1.27V127.59z"/>
	<path d="M141.23,126.41v3.87h-0.7v-3.32h-1.33v1.01c0,1.09-0.1,1.82-0.61,2.14c-0.19,0.15-0.41,0.24-0.77,0.24l-0.07-0.55
		c0.14-0.02,0.29-0.08,0.38-0.16c0.36-0.26,0.4-0.81,0.4-1.67v-1.56H141.23z"/>
	<path d="M145.24,130.28h-0.7v-1.62h-0.52c-0.3,0-0.5,0.08-0.65,0.22c-0.29,0.23-0.39,0.71-0.54,1.09c-0.05,0.12-0.1,0.22-0.16,0.32
		h-0.75c0.09-0.13,0.17-0.27,0.24-0.44c0.17-0.38,0.26-0.88,0.61-1.17c0.12-0.1,0.26-0.19,0.44-0.22v-0.02
		c-0.5-0.06-1.02-0.37-1.02-0.96c0-0.4,0.22-0.67,0.51-0.84c0.32-0.18,0.79-0.26,1.3-0.26c0.46,0,0.91,0.04,1.25,0.08V130.28z
		 M144.54,126.87c-0.18-0.02-0.34-0.04-0.58-0.04c-0.48,0-1.05,0.14-1.05,0.67c0,0.5,0.62,0.67,1.03,0.67c0.29,0,0.44,0,0.6,0
		V126.87z"/>
	<path d="M110.09,139.74c-0.18,0.1-0.59,0.22-1.11,0.22c-1.17,0-1.93-0.79-1.93-1.98c0-1.19,0.82-2.05,2.08-2.05
		c0.42,0,0.78,0.1,0.98,0.2l-0.16,0.54c-0.17-0.1-0.43-0.18-0.82-0.18c-0.89,0-1.37,0.66-1.37,1.46c0,0.9,0.58,1.45,1.34,1.45
		c0.4,0,0.66-0.1,0.86-0.19L110.09,139.74z"/>
	<path d="M111.28,136.01l0.85,2.29c0.09,0.26,0.18,0.56,0.25,0.79h0.02c0.07-0.23,0.15-0.53,0.25-0.81l0.77-2.27h0.74l-1.06,2.76
		c-0.5,1.33-0.85,2.01-1.33,2.42c-0.34,0.3-0.69,0.42-0.86,0.46l-0.18-0.59c0.18-0.06,0.41-0.17,0.62-0.34
		c0.19-0.15,0.43-0.42,0.59-0.78c0.03-0.07,0.06-0.13,0.06-0.17s-0.02-0.1-0.05-0.18l-1.43-3.57H111.28z"/>
	<path d="M117.15,136.01v0.57h-1.68v3.3h-0.7v-3.87H117.15z"/>
	<path d="M120.67,136.01v3.87h-0.7v-3.32h-1.33v1.01c0,1.09-0.1,1.82-0.61,2.14c-0.19,0.15-0.41,0.24-0.77,0.24l-0.07-0.55
		c0.14-0.02,0.29-0.08,0.38-0.16c0.36-0.26,0.4-0.81,0.4-1.67v-1.56H120.67z"/>
	<path d="M122.47,136.01v1.63c0,0.62-0.01,1-0.04,1.55l0.02,0.01c0.23-0.47,0.37-0.74,0.62-1.19l1.21-2h0.82v3.87h-0.67v-1.64
		c0-0.63,0.02-0.96,0.05-1.58h-0.02c-0.25,0.5-0.42,0.81-0.64,1.2c-0.37,0.6-0.79,1.34-1.21,2.02h-0.81v-3.87H122.47z"/>
	<path d="M126.93,136.01v1.56h1.84v-1.56h0.7v3.87h-0.7v-1.75h-1.84v1.75h-0.7v-3.87H126.93z"/>
	<path d="M131.31,136.01v1.68h0.17l1.46-1.68h0.86l-1.69,1.75c0.62,0.06,1,0.48,1.3,1.17c0.1,0.26,0.24,0.63,0.42,0.94h-0.74
		c-0.1-0.17-0.24-0.47-0.36-0.79c-0.26-0.62-0.62-0.91-1.28-0.91h-0.14v1.7h-0.7v-3.87H131.31z"/>
	<path d="M137.91,137.91c0,1.43-0.99,2.05-1.93,2.05c-1.05,0-1.86-0.77-1.86-1.99c0-1.29,0.85-2.05,1.92-2.05
		C137.15,135.92,137.91,136.73,137.91,137.91z M134.83,137.95c0,0.85,0.49,1.49,1.17,1.49c0.67,0,1.18-0.63,1.18-1.5
		c0-0.66-0.33-1.49-1.16-1.49C135.19,136.45,134.83,137.22,134.83,137.95z"/>
	<path d="M138.78,136.06c0.27-0.05,0.78-0.09,1.23-0.09c0.65,0,1.72,0.1,1.72,0.97c0,0.48-0.37,0.78-0.81,0.87v0.02
		c0.57,0.08,0.98,0.4,0.98,0.96c0,1.01-1.28,1.14-2.04,1.14c-0.43,0-0.88-0.03-1.09-0.05V136.06z M139.44,139.42
		c0.2,0.02,0.34,0.03,0.57,0.03c0.47,0,1.18-0.11,1.18-0.67s-0.56-0.68-1.23-0.68h-0.51V139.42z M139.45,137.63h0.53
		c0.52,0,1.06-0.15,1.06-0.61c0-0.38-0.34-0.57-1.04-0.57c-0.23,0-0.38,0.02-0.54,0.03V137.63z"/>
</g>
<g>
	<path d="M165.55,119.31c0,1.43-0.99,2.05-1.93,2.05c-1.05,0-1.86-0.77-1.86-1.99c0-1.29,0.85-2.05,1.92-2.05
		C164.8,117.32,165.55,118.13,165.55,119.31z M162.48,119.35c0,0.85,0.49,1.49,1.17,1.49c0.67,0,1.17-0.63,1.17-1.5
		c0-0.66-0.33-1.49-1.16-1.49C162.84,117.85,162.48,118.62,162.48,119.35z"/>
	<path d="M169.62,117.41v3.87h-0.7v-3.31h-1.8v3.31h-0.7v-3.87H169.62z"/>
	<path d="M173.36,117.41v0.56h-1.21v3.31h-0.7v-3.31h-1.21v-0.56H173.36z"/>
	<path d="M174.62,117.41v1.63c0,0.62-0.01,1-0.04,1.55l0.02,0.01c0.23-0.47,0.37-0.74,0.62-1.19l1.21-2h0.82v3.87h-0.67v-1.64
		c0-0.63,0.02-0.96,0.05-1.58h-0.02c-0.25,0.5-0.42,0.81-0.64,1.2c-0.37,0.6-0.79,1.34-1.21,2.02h-0.81v-3.87H174.62z"/>
	<path d="M178.45,117.41h0.86l0.7,1.95c0.1,0.29,0.26,0.76,0.35,1.06h0.02c0.09-0.29,0.3-0.9,0.46-1.33l0.63-1.69h0.87l0.27,3.87
		h-0.67l-0.09-1.85c-0.02-0.42-0.06-0.91-0.07-1.38h-0.02c-0.1,0.35-0.21,0.66-0.42,1.25l-0.74,1.95h-0.51l-0.69-1.91
		c-0.12-0.37-0.29-0.93-0.38-1.29h-0.03c-0.02,0.46-0.04,0.97-0.06,1.39l-0.1,1.83h-0.65L178.45,117.41z"/>
	<path d="M183.74,117.41l0.85,2.29c0.09,0.26,0.18,0.56,0.25,0.79h0.02c0.07-0.23,0.15-0.53,0.25-0.81l0.77-2.27h0.74l-1.06,2.76
		c-0.5,1.33-0.85,2.01-1.33,2.42c-0.34,0.3-0.69,0.42-0.86,0.46l-0.18-0.59c0.18-0.06,0.41-0.17,0.62-0.34
		c0.19-0.15,0.43-0.42,0.59-0.78c0.03-0.07,0.06-0.13,0.06-0.17c0-0.04-0.02-0.1-0.05-0.18l-1.43-3.57H183.74z"/>
	<path d="M187.25,117.41h0.86l0.7,1.95c0.1,0.29,0.26,0.76,0.35,1.06h0.02c0.09-0.29,0.3-0.9,0.46-1.33l0.62-1.69h0.87l0.27,3.87
		h-0.67l-0.09-1.85c-0.02-0.42-0.06-0.91-0.07-1.38h-0.02c-0.1,0.35-0.21,0.66-0.42,1.25l-0.74,1.95h-0.51l-0.69-1.91
		c-0.12-0.37-0.29-0.93-0.38-1.29h-0.03c-0.02,0.46-0.04,0.97-0.06,1.39l-0.1,1.83h-0.65L187.25,117.41z"/>
	<path d="M197.01,117.41v3.34l0.4,0.01l-0.04,1.75h-0.55l-0.03-1.23h-2.68l-0.03,1.23h-0.55l-0.03-1.75l0.33-0.01
		c0.17-0.25,0.29-0.51,0.38-0.79c0.15-0.48,0.22-1,0.22-1.54v-1.01H197.01z M195.05,118.59c0,0.51-0.07,1.01-0.2,1.44
		c-0.08,0.26-0.19,0.5-0.31,0.72h1.78v-2.8h-1.27V118.59z"/>
	<path d="M201.23,117.41v3.87h-0.7v-3.32h-1.33v1.01c0,1.09-0.1,1.82-0.61,2.14c-0.19,0.15-0.41,0.24-0.77,0.24l-0.07-0.55
		c0.14-0.02,0.29-0.08,0.38-0.16c0.36-0.26,0.4-0.81,0.4-1.67v-1.56H201.23z"/>
	<path d="M205.24,121.28h-0.7v-1.62h-0.52c-0.3,0-0.5,0.08-0.65,0.22c-0.29,0.23-0.39,0.71-0.54,1.09c-0.05,0.12-0.1,0.22-0.16,0.32
		h-0.75c0.09-0.13,0.17-0.27,0.24-0.44c0.17-0.38,0.26-0.88,0.61-1.17c0.12-0.1,0.26-0.19,0.44-0.22v-0.02
		c-0.5-0.06-1.02-0.37-1.02-0.96c0-0.4,0.22-0.67,0.51-0.84c0.32-0.18,0.79-0.26,1.3-0.26c0.46,0,0.91,0.04,1.25,0.08V121.28z
		 M204.54,117.87c-0.18-0.02-0.34-0.04-0.58-0.04c-0.48,0-1.05,0.14-1.05,0.67c0,0.5,0.62,0.67,1.03,0.67c0.29,0,0.44,0,0.6,0
		V117.87z"/>
	<path d="M171.63,127.01v3.87h-0.7v-3.31h-1.8v3.31h-0.7v-3.87H171.63z"/>
	<path d="M173.16,129.07c0.02,0.95,0.62,1.34,1.33,1.34c0.5,0,0.81-0.09,1.07-0.2l0.12,0.5c-0.25,0.11-0.67,0.24-1.29,0.24
		c-1.19,0-1.9-0.78-1.9-1.95s0.69-2.09,1.81-2.09c1.26,0,1.6,1.11,1.6,1.82c0,0.14-0.02,0.26-0.02,0.33H173.16z M175.23,128.57
		c0.01-0.45-0.18-1.14-0.97-1.14c-0.71,0-1.02,0.66-1.08,1.14H175.23z"/>
	<path d="M179.54,130.74c-0.18,0.1-0.59,0.22-1.11,0.22c-1.17,0-1.93-0.79-1.93-1.98c0-1.19,0.82-2.05,2.08-2.05
		c0.42,0,0.78,0.1,0.98,0.2l-0.16,0.54c-0.17-0.1-0.43-0.18-0.82-0.18c-0.89,0-1.37,0.66-1.37,1.46c0,0.9,0.58,1.45,1.34,1.45
		c0.4,0,0.66-0.1,0.86-0.19L179.54,130.74z"/>
	<path d="M180.96,127.01v1.27c0,0.49,0.18,0.82,0.8,0.82c0.3,0,0.62-0.11,0.83-0.27v-1.82h0.7v3.87h-0.7v-1.55h-0.02
		c-0.26,0.18-0.68,0.3-1.05,0.3c-0.74,0-1.27-0.38-1.27-1.26v-1.35H180.96z"/>
	<path d="M186.58,130.88l-0.06-0.49h-0.02c-0.21,0.3-0.63,0.58-1.18,0.58c-0.78,0-1.18-0.55-1.18-1.11c0-0.94,0.83-1.45,2.33-1.44
		v-0.08c0-0.32-0.09-0.9-0.88-0.9c-0.36,0-0.74,0.11-1.01,0.29l-0.16-0.46c0.32-0.21,0.78-0.34,1.27-0.34
		c1.18,0,1.47,0.81,1.47,1.58v1.45c0,0.34,0.02,0.66,0.06,0.93H186.58z M186.47,128.9c-0.77-0.02-1.64,0.12-1.64,0.87
		c0,0.46,0.3,0.67,0.66,0.67c0.5,0,0.82-0.32,0.94-0.65c0.02-0.07,0.04-0.15,0.04-0.22V128.9z"/>
	<path d="M188.97,127.01v1.56h1.84v-1.56h0.7v3.87h-0.7v-1.75h-1.84v1.75h-0.7v-3.87H188.97z"/>
	<path d="M193.34,127.01v1.32c0.15-0.03,0.38-0.05,0.63-0.05c0.83,0,1.67,0.34,1.67,1.29c0,0.41-0.15,0.69-0.4,0.9
		c-0.42,0.36-1.05,0.45-1.56,0.45c-0.39,0-0.75-0.02-1.04-0.06v-3.85H193.34z M193.34,130.39c0.14,0.02,0.29,0.03,0.49,0.03
		c0.54,0,1.12-0.22,1.12-0.82c0-0.62-0.56-0.82-1.09-0.82c-0.2,0-0.38,0.02-0.52,0.04V130.39z M196.83,127.01v3.87h-0.7v-3.87
		H196.83z"/>
	<path d="M198.31,127.01l0.55,0.83c0.14,0.22,0.26,0.42,0.39,0.63h0.02c0.13-0.23,0.26-0.43,0.38-0.64l0.54-0.82h0.76l-1.32,1.87
		l1.36,2h-0.8l-0.57-0.87c-0.15-0.22-0.28-0.44-0.42-0.67h-0.02c-0.13,0.23-0.26,0.44-0.41,0.67l-0.56,0.87h-0.78l1.38-1.98
		l-1.31-1.89H198.31z"/>
</g>
<g>
	<path d="M265.14,185.66c-0.18,0.1-0.59,0.22-1.11,0.22c-1.17,0-1.93-0.79-1.93-1.98c0-1.19,0.82-2.05,2.08-2.05
		c0.42,0,0.78,0.1,0.98,0.2l-0.16,0.54c-0.17-0.1-0.43-0.18-0.82-0.18c-0.89,0-1.37,0.66-1.37,1.46c0,0.9,0.58,1.45,1.34,1.45
		c0.4,0,0.66-0.1,0.86-0.19L265.14,185.66z"/>
	<path d="M266.34,181.93l0.85,2.29c0.09,0.26,0.18,0.56,0.25,0.79h0.02c0.07-0.23,0.15-0.53,0.25-0.81l0.77-2.27h0.74l-1.06,2.76
		c-0.5,1.33-0.85,2.01-1.33,2.42c-0.34,0.3-0.69,0.42-0.86,0.46l-0.18-0.59c0.18-0.06,0.41-0.17,0.62-0.34
		c0.19-0.15,0.43-0.42,0.59-0.78c0.03-0.07,0.06-0.13,0.06-0.17s-0.02-0.1-0.05-0.18l-1.43-3.57H266.34z"/>
	<path d="M272.21,181.93v0.57h-1.68v3.3h-0.7v-3.87H272.21z"/>
	<path d="M275.72,181.93v3.87h-0.7v-3.32h-1.33v1.01c0,1.09-0.1,1.82-0.61,2.14c-0.19,0.15-0.41,0.24-0.77,0.24l-0.07-0.55
		c0.14-0.02,0.29-0.08,0.38-0.16c0.36-0.26,0.4-0.81,0.4-1.67v-1.56H275.72z"/>
	<path d="M277.52,181.93v1.63c0,0.62-0.01,1-0.04,1.55l0.02,0.01c0.23-0.47,0.37-0.74,0.62-1.19l1.21-2h0.82v3.87h-0.67v-1.64
		c0-0.63,0.02-0.96,0.05-1.58h-0.02c-0.25,0.5-0.42,0.81-0.64,1.2c-0.37,0.6-0.79,1.34-1.21,2.02h-0.81v-3.87H277.52z"/>
	<path d="M281.98,181.93v1.56h1.84v-1.56h0.7v3.87h-0.7v-1.75h-1.84v1.75h-0.7v-3.87H281.98z"/>
	<path d="M286.32,181.93v1.63c0,0.62-0.01,1-0.04,1.55l0.02,0.01c0.23-0.47,0.37-0.74,0.62-1.19l1.21-2h0.82v3.87h-0.67v-1.64
		c0-0.63,0.02-0.96,0.05-1.58h-0.02c-0.25,0.5-0.42,0.81-0.64,1.2c-0.37,0.6-0.79,1.34-1.21,2.02h-0.81v-3.87H286.32z"/>
	<path d="M292.86,185.66c-0.18,0.1-0.59,0.22-1.11,0.22c-1.17,0-1.93-0.79-1.93-1.98c0-1.19,0.82-2.05,2.08-2.05
		c0.42,0,0.78,0.1,0.98,0.2l-0.16,0.54c-0.17-0.1-0.43-0.18-0.82-0.18c-0.89,0-1.37,0.66-1.37,1.46c0,0.9,0.58,1.45,1.34,1.45
		c0.4,0,0.66-0.1,0.86-0.19L292.86,185.66z"/>
	<path d="M296.43,181.93v0.56h-1.21v3.31h-0.7v-3.31h-1.21v-0.56H296.43z"/>
	<path d="M297.73,181.93v1.32c0.15-0.03,0.38-0.05,0.63-0.05c0.83,0,1.67,0.34,1.67,1.29c0,0.41-0.15,0.69-0.4,0.9
		c-0.42,0.36-1.05,0.45-1.56,0.45c-0.39,0-0.75-0.02-1.04-0.06v-3.85H297.73z M297.73,185.31c0.14,0.02,0.29,0.03,0.49,0.03
		c0.54,0,1.12-0.22,1.12-0.82c0-0.62-0.56-0.82-1.09-0.82c-0.2,0-0.38,0.02-0.52,0.04V185.31z M301.21,181.93v3.87h-0.7v-3.87
		H301.21z"/>
	<path d="M302.76,183.99c0.02,0.95,0.62,1.34,1.33,1.34c0.5,0,0.81-0.09,1.07-0.2l0.12,0.5c-0.25,0.11-0.67,0.24-1.29,0.24
		c-1.19,0-1.9-0.78-1.9-1.95s0.69-2.09,1.82-2.09c1.26,0,1.6,1.11,1.6,1.82c0,0.14-0.02,0.26-0.02,0.33H302.76z M304.82,183.49
		c0.01-0.45-0.18-1.14-0.98-1.14c-0.71,0-1.02,0.66-1.08,1.14H304.82z"/>
	<path d="M265.57,191.53v3.87h-0.7v-3.31h-1.8v3.31h-0.7v-3.87H265.57z"/>
	<path d="M267.1,193.59c0.02,0.95,0.62,1.34,1.33,1.34c0.5,0,0.81-0.09,1.07-0.2l0.12,0.5c-0.25,0.11-0.67,0.24-1.29,0.24
		c-1.19,0-1.9-0.78-1.9-1.95c0-1.17,0.69-2.09,1.82-2.09c1.26,0,1.6,1.11,1.6,1.82c0,0.14-0.02,0.26-0.02,0.33H267.1z
		 M269.17,193.09c0.01-0.45-0.18-1.14-0.98-1.14c-0.71,0-1.02,0.66-1.08,1.14H269.17z"/>
	<path d="M273.48,195.26c-0.18,0.1-0.59,0.22-1.11,0.22c-1.17,0-1.93-0.79-1.93-1.98c0-1.19,0.82-2.05,2.08-2.05
		c0.42,0,0.78,0.1,0.98,0.2l-0.16,0.54c-0.17-0.1-0.43-0.18-0.82-0.18c-0.89,0-1.37,0.66-1.37,1.46c0,0.9,0.58,1.45,1.34,1.45
		c0.4,0,0.66-0.1,0.86-0.19L273.48,195.26z"/>
	<path d="M274.9,191.53v1.27c0,0.49,0.18,0.82,0.8,0.82c0.3,0,0.62-0.11,0.83-0.27v-1.82h0.7v3.87h-0.7v-1.55h-0.02
		c-0.26,0.18-0.68,0.3-1.05,0.3c-0.74,0-1.27-0.38-1.27-1.26v-1.35H274.9z"/>
	<path d="M280.52,195.4l-0.06-0.49h-0.02c-0.22,0.3-0.63,0.58-1.18,0.58c-0.78,0-1.18-0.55-1.18-1.11c0-0.94,0.83-1.45,2.33-1.44
		v-0.08c0-0.32-0.09-0.9-0.88-0.9c-0.36,0-0.74,0.11-1.01,0.29l-0.16-0.46c0.32-0.21,0.78-0.34,1.27-0.34
		c1.18,0,1.47,0.81,1.47,1.58v1.45c0,0.34,0.02,0.66,0.06,0.93H280.52z M280.41,193.42c-0.77-0.02-1.64,0.12-1.64,0.87
		c0,0.46,0.3,0.67,0.66,0.67c0.5,0,0.82-0.32,0.94-0.65c0.02-0.07,0.04-0.15,0.04-0.22V193.42z"/>
	<path d="M282.91,191.53v1.56h1.84v-1.56h0.7v3.87h-0.7v-1.75h-1.84v1.75h-0.7v-3.87H282.91z"/>
	<path d="M287.28,191.53v1.32c0.15-0.03,0.38-0.05,0.63-0.05c0.83,0,1.67,0.34,1.67,1.3c0,0.41-0.15,0.69-0.4,0.9
		c-0.42,0.36-1.05,0.45-1.56,0.45c-0.39,0-0.75-0.02-1.04-0.06v-3.85H287.28z M287.28,194.91c0.14,0.02,0.29,0.03,0.49,0.03
		c0.54,0,1.12-0.22,1.12-0.82c0-0.62-0.56-0.82-1.09-0.82c-0.2,0-0.38,0.02-0.52,0.04V194.91z M290.76,191.53v3.87h-0.7v-3.87
		H290.76z"/>
	<path d="M292.31,193.59c0.02,0.95,0.62,1.34,1.33,1.34c0.5,0,0.81-0.09,1.07-0.2l0.12,0.5c-0.25,0.11-0.67,0.24-1.29,0.24
		c-1.19,0-1.9-0.78-1.9-1.95c0-1.17,0.69-2.09,1.82-2.09c1.26,0,1.6,1.11,1.6,1.82c0,0.14-0.02,0.26-0.02,0.33H292.31z
		 M294.37,193.09c0.01-0.45-0.18-1.14-0.98-1.14c-0.71,0-1.02,0.66-1.08,1.14H294.37z"/>
</g>
<g>
	<path d="M13.09,22.9h-0.02l-0.9,0.49l-0.14-0.54l1.14-0.61h0.6v5.2h-0.68V22.9z"/>
</g>
<g>
	<path d="M15.26,132.21l2.29-0.84c0.26-0.09,0.56-0.18,0.79-0.25v-0.02c-0.23-0.07-0.53-0.15-0.81-0.25l-2.27-0.77l0-0.74l2.76,1.06
		c1.33,0.51,2,0.85,2.42,1.33c0.3,0.34,0.42,0.69,0.45,0.86l-0.59,0.17c-0.06-0.18-0.17-0.41-0.34-0.62
		c-0.15-0.19-0.42-0.43-0.78-0.59c-0.07-0.03-0.13-0.06-0.17-0.06s-0.1,0.02-0.18,0.05l-3.57,1.42L15.26,132.21z"/>
	<path d="M16.53,128.7c-0.5,0-0.9,0.01-1.26,0.03l0-0.63l0.66-0.03v-0.02c-0.47-0.29-0.75-0.75-0.75-1.38c0-0.94,0.8-1.64,1.97-1.63
		c1.39,0,2.08,0.85,2.08,1.76c0,0.51-0.23,0.96-0.61,1.19v0.02l2.1,0l0,0.7L16.53,128.7z M17.57,128c0.1,0,0.2-0.02,0.29-0.03
		c0.49-0.13,0.82-0.55,0.83-1.05c0-0.74-0.6-1.18-1.49-1.18c-0.78,0-1.44,0.41-1.44,1.15c0,0.48,0.34,0.93,0.87,1.07
		c0.09,0.02,0.19,0.05,0.29,0.05L17.57,128z"/>
	<path d="M17.19,120.65c1.43,0,2.05,1,2.05,1.93c0,1.05-0.77,1.85-2,1.85c-1.29,0-2.05-0.85-2.05-1.92
		C15.2,121.39,16.01,120.64,17.19,120.65z M17.22,123.72c0.85,0,1.49-0.48,1.49-1.17c0-0.67-0.63-1.18-1.5-1.18
		c-0.66,0-1.49,0.32-1.49,1.16S16.49,123.71,17.22,123.72z"/>
	<path d="M15.29,119.49l1.69-1.28v-0.14l-1.69,0l0-0.67l1.69,0v-0.14l-1.68-1.28l0-0.81l1.75,1.53c0.07-0.58,0.41-0.93,1.03-1.16
		c0.38-0.13,0.79-0.26,1.09-0.42l0,0.7c-0.23,0.13-0.55,0.24-0.89,0.35c-0.63,0.24-0.83,0.6-0.83,1.1v0.12l1.71,0l0,0.67l-1.71,0
		v0.13c0,0.54,0.2,0.87,0.83,1.11c0.33,0.13,0.64,0.23,0.88,0.37l0,0.68c-0.31-0.16-0.72-0.29-1.08-0.43
		c-0.62-0.24-0.97-0.59-1.03-1.17l-1.76,1.53L15.29,119.49z"/>
	<path d="M19.17,112.27l-0.49,0.05v0.02c0.3,0.22,0.57,0.63,0.57,1.18c0,0.78-0.55,1.18-1.11,1.18c-0.94,0-1.45-0.83-1.43-2.33
		h-0.08c-0.32,0-0.9,0.09-0.9,0.88c0,0.36,0.11,0.74,0.29,1.01l-0.46,0.16c-0.21-0.32-0.34-0.78-0.34-1.27
		c0-1.18,0.81-1.47,1.59-1.47l1.45,0c0.34,0,0.66-0.01,0.93-0.06L19.17,112.27z M17.2,112.37c-0.02,0.77,0.12,1.64,0.87,1.64
		c0.46,0,0.67-0.3,0.67-0.66c0-0.5-0.32-0.82-0.65-0.94c-0.07-0.02-0.15-0.04-0.22-0.04L17.2,112.37z"/>
	<path d="M13.74,109.44c0.34-0.02,0.61-0.19,0.61-0.51c0-0.34-0.25-0.5-0.61-0.54l0-0.5c0.66,0.03,0.99,0.45,0.99,1.07
		c0,0.7-0.44,0.97-0.99,1.01L13.74,109.44z M15.31,109.9l1.63,0c0.62,0,1,0.01,1.55,0.04l0.01-0.02c-0.47-0.23-0.74-0.37-1.19-0.63
		l-2-1.21l0-0.82l3.87,0.01l0,0.67l-1.64,0c-0.63,0-0.96-0.02-1.58-0.05v0.02c0.5,0.25,0.81,0.42,1.2,0.64
		c0.6,0.37,1.34,0.79,2.02,1.21l0,0.81l-3.87-0.01L15.31,109.9z"/>
	<path d="M13.65,102.88c0.78,0.59,1.82,1.01,3.27,1.01c1.42,0,2.45-0.43,3.25-1l0,0.55c-0.67,0.5-1.69,1.04-3.25,1.04
		c-1.58-0.01-2.6-0.55-3.27-1.06L13.65,102.88z"/>
	<path d="M17.24,98.65c1.43,0,2.05,1,2.05,1.93c0,1.05-0.77,1.85-2,1.85c-1.29,0-2.05-0.85-2.05-1.92
		C15.25,99.39,16.05,98.64,17.24,98.65z M17.27,101.72c0.85,0,1.49-0.48,1.49-1.17c0-0.67-0.63-1.18-1.5-1.18
		c-0.66,0-1.49,0.33-1.49,1.16C15.77,101.35,16.54,101.71,17.27,101.72z"/>
	<path d="M15.34,95.2l0.56,0l0,1.21l3.31,0.01l0,0.7l-3.31-0.01l0,1.21h-0.56L15.34,95.2z"/>
	<path d="M15.35,93.9l1.56,0l0-1.84l-1.56,0l0-0.7l3.87,0.01l0,0.7l-1.75,0l0,1.84l1.75,0l0,0.7l-3.87-0.01L15.35,93.9z"/>
	<path d="M17.26,86.72c1.43,0,2.05,1,2.05,1.93c0,1.05-0.77,1.85-2,1.85c-1.29,0-2.05-0.85-2.05-1.92
		C15.27,87.47,16.08,86.72,17.26,86.72z M17.3,89.79c0.85,0,1.49-0.48,1.49-1.17c0-0.67-0.63-1.18-1.5-1.18
		c-0.66,0-1.49,0.33-1.49,1.16C15.8,89.43,16.56,89.79,17.3,89.79z"/>
	<path d="M19.1,83.07c0.1,0.18,0.22,0.59,0.22,1.11c0,1.17-0.8,1.92-1.98,1.92c-1.19,0-2.05-0.82-2.05-2.08
		c0-0.42,0.11-0.78,0.2-0.97l0.54,0.16c-0.1,0.17-0.19,0.43-0.19,0.81c0,0.89,0.65,1.37,1.46,1.37c0.9,0,1.45-0.57,1.45-1.34
		c0-0.4-0.1-0.66-0.19-0.87L19.1,83.07z"/>
	<path d="M15.37,81.59l1.63,0c0.62,0,1,0.01,1.55,0.04l0.01-0.02c-0.47-0.23-0.74-0.37-1.19-0.63l-2-1.21l0-0.82l3.87,0.01l0,0.67
		l-1.64,0c-0.63,0-0.96-0.02-1.58-0.05v0.02c0.5,0.25,0.81,0.42,1.2,0.64c0.6,0.37,1.34,0.79,2.02,1.21l0,0.81l-3.87-0.01
		L15.37,81.59z"/>
	<path d="M15.39,75.22l0.56,0l0,1.21l3.31,0.01l0,0.7l-3.31-0.01l0,1.21l-0.56,0L15.39,75.22z"/>
	<path d="M17.45,74.32c0.95-0.01,1.34-0.62,1.35-1.32c0-0.5-0.09-0.81-0.2-1.07l0.5-0.12c0.11,0.25,0.24,0.67,0.24,1.29
		c0,1.19-0.79,1.9-1.96,1.9c-1.17,0-2.08-0.69-2.08-1.82c0-1.26,1.12-1.6,1.83-1.59c0.14,0,0.26,0.02,0.33,0.02L17.45,74.32z
		 M16.95,72.25c-0.45-0.01-1.14,0.18-1.15,0.97c0,0.71,0.65,1.03,1.14,1.08L16.95,72.25z"/>
	<path d="M15.4,67.75l3.87,0.01l0,0.7l-3.32-0.01l0,1.33l1.01,0c1.09,0,1.81,0.11,2.14,0.61c0.15,0.19,0.24,0.41,0.24,0.77
		l-0.55,0.07c-0.02-0.14-0.08-0.29-0.16-0.38c-0.26-0.36-0.81-0.4-1.67-0.4l-1.56,0L15.4,67.75z"/>
	<path d="M15.41,65.92l1.31,0c-0.03-0.16-0.04-0.43-0.04-0.64c0-0.87,0.28-1.79,1.31-1.79c0.4,0,0.68,0.16,0.89,0.41
		c0.36,0.42,0.45,1.11,0.44,1.68c0,0.39-0.03,0.75-0.06,1.04l-3.85-0.01L15.41,65.92z M18.79,65.93c0.02-0.14,0.03-0.29,0.03-0.52
		c0-0.53-0.17-1.21-0.82-1.21c-0.67,0-0.82,0.7-0.82,1.22c0,0.18,0.01,0.34,0.04,0.5L18.79,65.93z"/>
	<path d="M15.42,61.94l1.56,0l0-1.84l-1.56,0l0-0.7l3.87,0.01l0,0.7l-1.75,0l0,1.84l1.75,0l0,0.7l-3.87-0.01L15.42,61.94z"/>
	<path d="M15.42,57.57l1.32,0c-0.03-0.15-0.05-0.38-0.05-0.63c0-0.83,0.35-1.67,1.3-1.67c0.41,0,0.69,0.15,0.89,0.4
		c0.36,0.42,0.45,1.05,0.44,1.56c0,0.39-0.03,0.75-0.06,1.04l-3.85-0.01L15.42,57.57z M15.43,54.08l3.87,0.01l0,0.7l-3.87-0.01
		L15.43,54.08z M18.81,57.58c0.02-0.14,0.03-0.29,0.03-0.49c0-0.54-0.22-1.12-0.82-1.12c-0.62,0-0.82,0.56-0.82,1.08
		c0,0.2,0.01,0.38,0.04,0.52L18.81,57.58z"/>
	<path d="M13.86,51.82c0.34-0.02,0.61-0.19,0.61-0.51c0-0.34-0.25-0.5-0.61-0.54l0-0.5c0.66,0.03,0.99,0.45,0.99,1.07
		c0,0.7-0.44,0.97-0.99,1L13.86,51.82z M15.44,52.28l1.63,0c0.62,0,1,0.01,1.55,0.04l0.01-0.02c-0.47-0.23-0.74-0.37-1.19-0.63
		l-2-1.21l0-0.82l3.87,0.01l0,0.67l-1.64,0c-0.63,0-0.96-0.02-1.58-0.05v0.02c0.5,0.25,0.81,0.42,1.2,0.64
		c0.6,0.37,1.34,0.79,2.02,1.21l0,0.81l-3.87-0.01L15.44,52.28z"/>
	<path d="M20.28,48.93c-0.79-0.57-1.83-1.01-3.27-1.01c-1.43,0-2.46,0.43-3.25,1l0-0.54c0.66-0.51,1.68-1.04,3.26-1.04
		c1.57,0,2.58,0.54,3.26,1.05L20.28,48.93z"/>
</g>
<g>
	<path d="M59.05,163.95c0,1.77-0.66,2.74-1.81,2.74c-1.02,0-1.7-0.95-1.72-2.67c0-1.74,0.75-2.7,1.81-2.7
		C58.43,161.31,59.05,162.29,59.05,163.95z M56.23,164.03c0,1.35,0.42,2.12,1.06,2.12c0.72,0,1.06-0.84,1.06-2.17
		c0-1.28-0.33-2.12-1.06-2.12C56.68,161.86,56.23,162.61,56.23,164.03z"/>
	<path d="M59.76,166.18c0-0.3,0.2-0.5,0.48-0.5s0.47,0.21,0.47,0.5c0,0.29-0.18,0.5-0.48,0.5
		C59.95,166.69,59.76,166.47,59.76,166.18z"/>
	<path d="M61.77,166.1c0.15,0.02,0.33,0,0.57-0.02c0.41-0.06,0.79-0.22,1.09-0.5c0.34-0.31,0.59-0.77,0.69-1.38h-0.02
		c-0.29,0.35-0.7,0.56-1.22,0.56c-0.94,0-1.54-0.7-1.54-1.59c0-0.98,0.71-1.85,1.77-1.85s1.72,0.86,1.72,2.19
		c0,1.14-0.38,1.94-0.9,2.44c-0.4,0.39-0.95,0.63-1.51,0.7c-0.26,0.04-0.48,0.05-0.65,0.04V166.1z M62.02,163.11
		c0,0.65,0.39,1.1,1,1.1c0.47,0,0.84-0.23,1.02-0.54c0.04-0.06,0.06-0.14,0.06-0.26c0-0.89-0.33-1.57-1.06-1.57
		C62.45,161.85,62.02,162.38,62.02,163.11z"/>
</g>
<g>
	<path d="M81.13,162.06h-0.02l-0.9,0.49l-0.14-0.54l1.13-0.61h0.6v5.2h-0.68V162.06z"/>
	<path d="M83.76,166.18c0-0.3,0.2-0.5,0.48-0.5s0.47,0.21,0.47,0.5c0,0.29-0.18,0.5-0.48,0.5
		C83.95,166.69,83.76,166.47,83.76,166.18z"/>
	<path d="M88.81,163.95c0,1.77-0.66,2.74-1.81,2.74c-1.02,0-1.7-0.95-1.72-2.67c0-1.74,0.75-2.7,1.81-2.7
		C88.19,161.31,88.81,162.29,88.81,163.95z M85.99,164.03c0,1.35,0.42,2.12,1.06,2.12c0.72,0,1.06-0.84,1.06-2.17
		c0-1.28-0.33-2.12-1.06-2.12C86.44,161.86,85.99,162.61,85.99,164.03z"/>
</g>
<g>
	<path d="M108.13,162.06h-0.02l-0.9,0.49l-0.14-0.54l1.13-0.61h0.6v5.2h-0.68V162.06z"/>
	<path d="M110.76,166.18c0-0.3,0.2-0.5,0.48-0.5s0.47,0.21,0.47,0.5c0,0.29-0.18,0.5-0.48,0.5
		C110.95,166.69,110.76,166.47,110.76,166.18z"/>
	<path d="M113.89,162.06h-0.02l-0.9,0.49l-0.14-0.54l1.13-0.61h0.6v5.2h-0.68V162.06z"/>
</g>
<g>
	<path d="M134.13,162.06h-0.02l-0.9,0.49l-0.14-0.54l1.13-0.61h0.6v5.2h-0.68V162.06z"/>
	<path d="M136.76,166.18c0-0.3,0.2-0.5,0.48-0.5s0.47,0.21,0.47,0.5c0,0.29-0.18,0.5-0.48,0.5
		C136.95,166.69,136.76,166.47,136.76,166.18z"/>
	<path d="M138.36,166.6v-0.43l0.55-0.54c1.33-1.26,1.93-1.93,1.94-2.72c0-0.53-0.26-1.02-1.03-1.02c-0.47,0-0.86,0.24-1.1,0.44
		l-0.22-0.5c0.36-0.3,0.87-0.53,1.47-0.53c1.12,0,1.59,0.77,1.59,1.51c0,0.96-0.7,1.73-1.79,2.79l-0.42,0.38v0.02h2.33v0.58H138.36z
		"/>
</g>
<g>
	<path d="M161.13,162.06h-0.02l-0.9,0.49l-0.14-0.54l1.13-0.61h0.6v5.2h-0.68V162.06z"/>
	<path d="M163.76,166.18c0-0.3,0.2-0.5,0.48-0.5s0.47,0.21,0.47,0.5c0,0.29-0.18,0.5-0.48,0.5
		C163.95,166.69,163.76,166.47,163.76,166.18z"/>
	<path d="M165.53,165.79c0.2,0.13,0.66,0.33,1.15,0.33c0.9,0,1.18-0.58,1.18-1.01c-0.01-0.73-0.66-1.04-1.34-1.04h-0.39v-0.53h0.39
		c0.51,0,1.16-0.26,1.16-0.88c0-0.42-0.26-0.78-0.91-0.78c-0.42,0-0.82,0.18-1.04,0.34l-0.18-0.51c0.27-0.2,0.8-0.4,1.36-0.4
		c1.02,0,1.49,0.61,1.49,1.24c0,0.54-0.32,0.99-0.96,1.22v0.02c0.64,0.13,1.16,0.61,1.16,1.34c0,0.83-0.65,1.56-1.89,1.56
		c-0.58,0-1.1-0.18-1.35-0.35L165.53,165.79z"/>
</g>
<g>
	<path d="M186.13,162.06h-0.02l-0.9,0.49l-0.14-0.54l1.13-0.61h0.6v5.2h-0.68V162.06z"/>
	<path d="M188.76,166.18c0-0.3,0.2-0.5,0.48-0.5s0.47,0.21,0.47,0.5c0,0.29-0.18,0.5-0.48,0.5
		C188.95,166.69,188.76,166.47,188.76,166.18z"/>
	<path d="M192.53,166.6v-1.42h-2.41v-0.46l2.32-3.32h0.76v3.23h0.73v0.55h-0.73v1.42H192.53z M192.53,164.63v-1.74
		c0-0.27,0.01-0.54,0.02-0.82h-0.02c-0.16,0.3-0.29,0.53-0.43,0.77l-1.27,1.77v0.02H192.53z"/>
</g>
<g>
	<path d="M213.13,162.06h-0.02l-0.9,0.49l-0.14-0.54l1.13-0.61h0.6v5.2h-0.68V162.06z"/>
	<path d="M215.76,166.18c0-0.3,0.2-0.5,0.48-0.5s0.47,0.21,0.47,0.5c0,0.29-0.18,0.5-0.48,0.5
		C215.95,166.69,215.76,166.47,215.76,166.18z"/>
	<path d="M220.46,161.99h-1.98l-0.2,1.33c0.12-0.02,0.23-0.03,0.42-0.03c0.4,0,0.8,0.09,1.12,0.28c0.41,0.23,0.74,0.68,0.74,1.33
		c0,1.02-0.81,1.78-1.94,1.78c-0.57,0-1.05-0.16-1.29-0.32l0.18-0.54c0.22,0.13,0.64,0.29,1.11,0.29c0.66,0,1.23-0.43,1.23-1.13
		c-0.01-0.67-0.46-1.15-1.5-1.15c-0.3,0-0.53,0.03-0.72,0.06l0.34-2.5h2.49V161.99z"/>
</g>
<g>
	<path d="M237.13,162.06h-0.02l-0.9,0.49l-0.14-0.54l1.13-0.61h0.6v5.2h-0.68V162.06z"/>
	<path d="M239.76,166.18c0-0.3,0.2-0.5,0.48-0.5s0.47,0.21,0.47,0.5c0,0.29-0.18,0.5-0.48,0.5
		C239.95,166.69,239.76,166.47,239.76,166.18z"/>
	<path d="M244.33,161.9c-0.14-0.01-0.33,0-0.53,0.03c-1.1,0.18-1.69,0.99-1.81,1.85h0.02c0.25-0.33,0.68-0.6,1.25-0.6
		c0.92,0,1.57,0.66,1.57,1.68c0,0.95-0.65,1.83-1.73,1.83c-1.11,0-1.84-0.86-1.84-2.21c0-1.02,0.37-1.83,0.88-2.34
		c0.43-0.42,1.01-0.69,1.66-0.77c0.21-0.03,0.38-0.04,0.51-0.04V161.9z M244.13,164.9c0-0.74-0.42-1.19-1.07-1.19
		c-0.42,0-0.82,0.26-1.01,0.64c-0.05,0.08-0.08,0.18-0.08,0.31c0.02,0.86,0.41,1.49,1.14,1.49
		C243.72,166.14,244.13,165.64,244.13,164.9z"/>
</g>
<g>
	<path d="M261.13,162.06h-0.02l-0.9,0.49l-0.14-0.54l1.13-0.61h0.6v5.2h-0.68V162.06z"/>
	<path d="M263.76,166.18c0-0.3,0.2-0.5,0.48-0.5s0.47,0.21,0.47,0.5c0,0.29-0.18,0.5-0.48,0.5
		C263.95,166.69,263.76,166.47,263.76,166.18z"/>
	<path d="M268.73,161.4v0.46l-2.26,4.73h-0.73L268,162v-0.02h-2.54v-0.58H268.73z"/>
</g>
<g>
	<path d="M290.23,168.22c-0.07-0.24-0.09-0.81-0.09-1.41v-1.79c0-1,0.26-1.45,0.56-1.77c0.3-0.32,0.74-0.58,1.33-0.58
		c1.08,0,1.77,0.81,1.77,1.97c0,1.37-0.86,2.08-1.77,2.08c-0.5,0-0.94-0.21-1.17-0.57h-0.02v0.62c0,0.45,0.01,1.12,0.06,1.44H290.23
		z M290.84,165.12c0,0.1,0.01,0.19,0.03,0.28c0.13,0.44,0.55,0.78,1.05,0.78c0.74,0,1.18-0.64,1.18-1.51c0-0.76-0.4-1.4-1.12-1.4
		c-0.55,0-1.14,0.46-1.14,1.53V165.12z"/>
	<path d="M294.23,167.62c0.18-0.47,0.39-1.33,0.48-1.91l0.78-0.08c-0.18,0.68-0.54,1.57-0.76,1.94L294.23,167.62z"/>
	<path d="M300.4,162.77v0.57h-1.68v3.3h-0.7v-3.87H300.4z"/>
	<path d="M300.53,166.96l2.23-5.8h0.54l-2.24,5.8H300.53z"/>
	<path d="M306.62,166.5c-0.18,0.1-0.59,0.22-1.11,0.22c-1.17,0-1.93-0.79-1.93-1.97c0-1.19,0.82-2.06,2.08-2.06
		c0.42,0,0.78,0.1,0.98,0.2l-0.16,0.54c-0.17-0.1-0.43-0.18-0.82-0.18c-0.89,0-1.37,0.66-1.37,1.46c0,0.9,0.58,1.45,1.34,1.45
		c0.4,0,0.66-0.1,0.86-0.19L306.62,166.5z"/>
	<path d="M307.49,162.77h0.86l0.7,1.95c0.1,0.29,0.26,0.76,0.35,1.06h0.02c0.09-0.29,0.3-0.9,0.46-1.33l0.62-1.69h0.87l0.27,3.87
		h-0.67l-0.09-1.85c-0.02-0.42-0.06-0.91-0.07-1.38h-0.02c-0.1,0.35-0.21,0.66-0.42,1.26l-0.74,1.95h-0.51l-0.69-1.91
		c-0.12-0.37-0.29-0.93-0.38-1.29h-0.03c-0.02,0.46-0.04,0.97-0.06,1.39l-0.1,1.83h-0.65L307.49,162.77z"/>
	<path d="M312.2,161.6c0.18-0.12,0.53-0.25,0.92-0.25c0.69,0,0.98,0.37,0.98,0.75c0,0.32-0.23,0.59-0.62,0.72v0.02
		c0.44,0.06,0.74,0.37,0.74,0.78c0,0.5-0.45,0.94-1.26,0.94c-0.38,0-0.74-0.1-0.91-0.22l0.14-0.4c0.13,0.09,0.44,0.21,0.74,0.21
		c0.49,0,0.7-0.29,0.7-0.54c0-0.4-0.42-0.56-0.85-0.56h-0.22v-0.37h0.22c0.3,0,0.72-0.14,0.73-0.51c0-0.19-0.14-0.39-0.5-0.39
		c-0.29,0-0.55,0.12-0.68,0.21L312.2,161.6z"/>
</g>
<line class="st1" x1="259" y1="183" x2="243" y2="183"/>
<line class="st7" x1="259" y1="193" x2="243" y2="193"/>
<g>
</g>
<g>
</g>
<g>
</g>
<g>
</g>
<g>
</g>
<g>
</g>
<g>
</g>
<g>
</g>
<g>
</g>
<g>
</g>
<g>
</g>
<g>
</g>
<g>
</g>
<g>
</g>
<g>
</g>
<g>
</g>
</svg>
