<?xml version="1.0" encoding="UTF-8" standalone="no"?>
<svg
   xmlns:dc="http://purl.org/dc/elements/1.1/"
   xmlns:cc="http://creativecommons.org/ns#"
   xmlns:rdf="http://www.w3.org/1999/02/22-rdf-syntax-ns#"
   xmlns:svg="http://www.w3.org/2000/svg"
   xmlns="http://www.w3.org/2000/svg"
   viewBox="0 0 1000 666.66669"
   height="666.66669"
   width="1000"
   xml:space="preserve"
   id="svg2"
   version="1.1"><metadata
     id="metadata8"><rdf:RDF><cc:Work
         rdf:about=""><dc:format>image/svg+xml</dc:format><dc:type
           rdf:resource="http://purl.org/dc/dcmitype/StillImage" /></cc:Work></rdf:RDF></metadata><defs
     id="defs6"><clipPath
       id="clipPath474"
       clipPathUnits="userSpaceOnUse"><path
         id="path472"
         d="m 928.762,1446.83 c -50.141,27.29 -90.051,69.68 -119.68,118.48 -66.602,109.71 -160.754,171.66 -239.648,146.61 -105.149,-33.37 -143.348,-208.58 -85.34,-391.33 58.015,-182.76 382.011,-491.051 422.761,-480.699 36.004,9.14 148.225,384.169 117.475,481.089 -18.52,58.32 -54.818,103.67 -95.568,125.85 z" /></clipPath><clipPath
       id="clipPath496"
       clipPathUnits="userSpaceOnUse"><path
         id="path494"
         d="m 2301.61,1126.56 c 27.73,145.89 4.96,272.75 -50.84,283.35 -49.59,9.43 -108.57,-76.17 -140.55,-197.75 -5.6,-21.33 -18.39,-40.49 -36.91,-52.46 -36.28,-23.44 -58.1,-81.4 -51.21,-146.36 8.6,-81.149 92.36,-167.629 92.36,-167.629 0,0 159.75,136.66 187.15,280.849 z" /></clipPath></defs><g
     transform="matrix(1.3333333,0,0,-1.3333333,0,666.66667)"
     id="g10"><g
       transform="scale(0.1)"
       id="g12"><path
         id="path14"
         style="fill:#ffffff;fill-opacity:1;fill-rule:nonzero;stroke:none"
         d="M 7500,0 H 0 V 5000 H 7500 V 0" /><path
         id="path16"
         style="fill:#9cdeec;fill-opacity:1;fill-rule:nonzero;stroke:none"
         d="m 6798.38,1482.59 c 0,-536.18 -434.67,-970.848 -970.85,-970.848 -536.18,0 -970.85,434.668 -970.85,970.848 0,536.18 434.67,970.85 970.85,970.85 536.18,0 970.85,-434.67 970.85,-970.85" /><path
         id="path18"
         style="fill:#d47b3a;fill-opacity:1;fill-rule:nonzero;stroke:none"
         d="m 6857.16,623.301 c -22.97,10.5 -31.55,36.347 -22.21,59.82 0.99,2.481 1.5,5 1.5,7.52 0,52.07 -212.16,94.269 -473.87,94.269 -261.71,0 -473.87,-42.199 -473.87,-94.269 0,-13.961 -38.51,-33.821 -137.19,-39.141 -559.27,-0.551 -834.96,84.57 -834.96,-1.488 0,-17.211 136.57,-43.492 136.57,-50.5 0,-45.942 123.73,-102.032 288.13,-110.582 118.51,-6.18 993.44,-42.7 1215.22,49.019 187.16,77.403 278.81,-3.328 316.01,53.301 8.68,13.23 2.85,23.73 -15.33,32.051" /><path
         id="path20"
         style="fill:#c86933;fill-opacity:1;fill-rule:nonzero;stroke:none"
         d="m 5783.37,576.602 c 0,-14.711 -137.33,-26.653 -306.74,-26.653 -169.4,0 -306.74,11.942 -306.74,26.653 0,14.718 137.34,26.648 306.74,26.648 169.41,0 306.74,-11.93 306.74,-26.648" /><path
         id="path22"
         style="fill:#c86933;fill-opacity:1;fill-rule:nonzero;stroke:none"
         d="m 6370.61,600.09 c 0,-13.981 -98.89,-25.289 -220.87,-25.289 -121.99,0 -220.86,11.308 -220.86,25.289 0,13.961 98.87,25.289 220.86,25.289 121.98,0 220.87,-11.328 220.87,-25.289" /><path
         id="path24"
         style="fill:#c86933;fill-opacity:1;fill-rule:nonzero;stroke:none"
         d="m 6782.21,639.84 c 0,-13.961 -98.89,-25.289 -220.87,-25.289 -121.97,0 -220.86,11.328 -220.86,25.289 0,13.98 98.89,25.301 220.86,25.301 121.98,0 220.87,-11.321 220.87,-25.301" /><path
         id="path26"
         style="fill:#239454;fill-opacity:1;fill-rule:nonzero;stroke:none"
         d="m 5600.32,1364.72 c -28.9,-42.18 -56.3,-85.4 -81.24,-129.96 -24.68,-44.6 -47.79,-90.5 -62.73,-138.93 l -7.81,2.47 c 16.59,49.01 41.05,94.4 67,138.5 26.19,44.01 54.76,86.52 84.78,127.92" /><path
         id="path28"
         style="fill:#f5e258;fill-opacity:1;fill-rule:nonzero;stroke:none"
         d="m 5509.16,1181.21 c -11.39,12.13 -15.66,29.35 -13.02,45.77 0.01,0.02 0.01,0.04 0.01,0.06 2.99,18.64 -9.7,36.17 -28.35,39.15 -18.64,2.99 -36.17,-9.71 -39.16,-28.35 0,-0.02 0,-0.04 -0.01,-0.06 -2.6,-16.4 -11.99,-31.45 -26.59,-39.38 -18.12,-9.85 -29.15,-32.07 -26.99,-55.65 1.94,-21.12 26.35,-37.44 41.81,-45.74 7.71,-4.14 17.08,-3.28 23.9,2.2 0.12,0.09 0.25,0.19 0.36,0.29 0.09,-0.12 0.18,-0.27 0.26,-0.39 4.78,-7.34 13.41,-11.07 22.03,-9.55 17.27,3.06 45.55,10.95 53.99,30.41 9.43,21.75 5.84,46.24 -8.24,61.24" /><path
         id="path30"
         style="fill:#a09157;fill-opacity:1;fill-rule:nonzero;stroke:none"
         d="m 5467.66,1266.22 c 0,0 8.93,36.63 -10.48,52.39 l -10.9,-10.06 c 0,0 19.98,-16.03 21.38,-42.33" /><path
         id="path32"
         style="fill:#1caf5e;fill-opacity:1;fill-rule:nonzero;stroke:none"
         d="m 5182.43,1314.81 c -17.92,-1.68 -35.83,2.38 -52.18,9.92 -36.73,16.97 -72.28,16.59 -88.5,-3.86 -21.63,-27.25 -0.76,-79.81 46.6,-117.39 47.36,-37.59 186.42,-61.17 195.25,-51.28 7.81,8.73 -28.89,126.6 -54.01,146.53 -15.11,11.99 -32.6,17.46 -47.16,16.08" /><path
         id="path34"
         style="fill:#25b36c;fill-opacity:1;fill-rule:nonzero;stroke:none"
         d="m 5113.96,1290.18 c 42.22,-19.6 80.74,-46.87 115.71,-77.76 17.53,-15.46 34.22,-31.83 50.21,-48.92 15.94,-17.14 31.16,-34.57 46.79,-51.85 l -9.59,-8.22 c -14.78,17.9 -29.33,36.16 -44.28,53.77 -15,17.56 -30.77,34.51 -47.41,50.57 -33.23,32.13 -70.15,60.91 -111.43,82.41" /><path
         id="path36"
         style="fill:#f25532;fill-opacity:1;fill-rule:nonzero;stroke:none"
         d="m 5369.83,1264.38 c -17.31,2.29 -34.05,-3.72 -47.07,-15.26 -15.37,8.17 -33.03,10.07 -49.33,3.78 -32.39,-12.52 -47.04,-52.7 -32.73,-89.75 9.72,-25.15 45.25,-36.63 67.04,-41.39 10.88,-2.37 22.04,1.93 28.48,11 0.11,0.16 0.24,0.34 0.34,0.49 0.15,-0.12 0.31,-0.27 0.45,-0.39 8.4,-7.31 20.25,-8.88 30.27,-4.01 20.06,9.75 51.9,29.25 55.44,55.98 5.22,39.38 -18.46,74.98 -52.89,79.55" /><path
         id="path38"
         style="fill:#a09157;fill-opacity:1;fill-rule:nonzero;stroke:none"
         d="m 5322.76,1249.12 c 0,0 -1.43,37.69 -24.42,47.53 l -7.72,-12.67 c 0,0 23.6,-9.94 32.14,-34.86" /><path
         id="path40"
         style="fill:#f25532;fill-opacity:1;fill-rule:nonzero;stroke:none"
         d="m 5230.31,1178.72 c -17.31,2.3 -34.04,-3.72 -47.07,-15.25 -15.37,8.15 -33.03,10.07 -49.33,3.77 -32.4,-12.52 -47.04,-52.7 -32.73,-89.74 9.72,-25.17 45.25,-36.63 67.04,-41.4 10.88,-2.38 22.03,1.93 28.48,11 0.12,0.17 0.23,0.34 0.34,0.5 0.15,-0.13 0.3,-0.28 0.45,-0.4 8.4,-7.31 20.24,-8.88 30.26,-4.01 20.07,9.75 51.91,29.24 55.45,55.99 5.22,39.37 -18.46,74.98 -52.89,79.54" /><path
         id="path42"
         style="fill:#a09157;fill-opacity:1;fill-rule:nonzero;stroke:none"
         d="m 5183.24,1163.47 c 0,0 -1.42,37.67 -24.42,47.53 l -7.73,-12.68 c 0,0 23.61,-9.94 32.15,-34.85" /><path
         id="path44"
         style="fill:#b98790;fill-opacity:1;fill-rule:nonzero;stroke:none"
         d="m 5564.56,862.43 -289.09,-69.129 c -70.49,-16.852 -144.46,7.347 -191.34,62.621 l -89.7,105.726 c -22.12,26.071 -8.94,66.322 24.31,74.282 l 740.15,176.98 -52.51,-210.1 c -17.4,-69.58 -72.06,-123.701 -141.82,-140.38" /><path
         id="path46"
         style="fill:none;stroke:#567f93;stroke-width:33.43669891;stroke-linecap:butt;stroke-linejoin:miter;stroke-miterlimit:10;stroke-dasharray:none;stroke-opacity:1"
         d="m 5136.74,663.23 94.21,91.391 c 2.35,2.277 4.77,4.481 7.25,6.59 49.19,41.859 121.91,41.039 173.32,1.949 l 113.37,-86.191 c 59.96,-45.578 146.81,-9.559 156.91,65.082 l 87.48,646.829 c 6.1,44.62 43.52,78.33 88.54,79.75 l 70.31,2.22" /><path
         id="path48"
         style="fill:#3f5c74;fill-opacity:1;fill-rule:nonzero;stroke:none"
         d="M 5298.08,717.301 C 5312.74,656 5274.93,594.41 5213.62,579.762 c -61.31,-14.66 -122.88,23.148 -137.54,84.457 -14.65,61.301 23.16,122.883 84.46,137.543 61.31,14.66 122.88,-23.16 137.54,-84.461" /><path
         id="path50"
         style="fill:#b98790;fill-opacity:1;fill-rule:nonzero;stroke:none"
         d="m 5236.58,702.602 c 6.55,-27.352 -10.32,-54.813 -37.66,-61.352 -27.34,-6.531 -54.81,10.332 -61.34,37.68 -6.54,27.332 10.32,54.789 37.66,61.332 27.35,6.539 54.81,-10.321 61.34,-37.66" /><path
         id="path52"
         style="fill:#7b8844;fill-opacity:1;fill-rule:nonzero;stroke:none"
         d="m 6499.72,1536.93 -222.25,-347.3 -142.06,76.47 c 18.22,78.16 169.42,401.28 169.42,401.28 l 160.73,16.09 34.16,-146.54" /><path
         id="path54"
         style="fill:#f3603d;fill-opacity:1;fill-rule:nonzero;stroke:none"
         d="m 6110.37,773.801 -57.43,-130.653 c -2.6,-8.937 -45.65,-33.757 -41.85,-8.707 l 55.91,150.52 43.37,-11.16" /><path
         id="path56"
         style="fill:#f6a323;fill-opacity:1;fill-rule:nonzero;stroke:none"
         d="m 6011.09,634.43 c -18,-4.211 -56.22,-22.2 -48.19,-35.848 3.85,-6.523 39.29,7.789 67.25,12.637 9.18,1.59 16.6,8.32 19.2,17.273 l 3.59,14.656 c -1.61,-0.777 42.71,85.442 42.71,85.442 l -48.58,17.781 c 0,0 -28.18,-92.691 -35.98,-111.941" /><path
         id="path58"
         style="fill:#7b8844;fill-opacity:1;fill-rule:nonzero;stroke:none"
         d="m 6135.41,1266.1 c -29.14,-108.16 -61.35,-353.479 -92.95,-489.651 23.63,-4.879 47.34,-11.64 70.75,-19.519 43.98,96.429 174.96,462.46 174.96,462.46 l -152.76,46.71" /><path
         id="path60"
         style="fill:#f46a46;fill-opacity:1;fill-rule:nonzero;stroke:none"
         d="m 6726.19,737.398 9.24,-8.75 c 11.18,-8.558 14.64,-23.937 8.07,-36.386 -4.69,-8.883 -10.37,-19.141 -15.99,-28.09 -4.53,-7.231 -9.85,-15.352 -14.89,-22.942 -4.88,-7.32 -12.66,-5.171 -11.84,3.579 l 3.39,32.761 4.15,25.16 c 1.33,8.02 -1.29,16.231 -7.12,21.891 -33.42,32.481 -139.86,131.488 -139.86,131.488 l 37.77,40.141 127.08,-158.852" /><path
         id="path62"
         style="fill:#f6a323;fill-opacity:1;fill-rule:nonzero;stroke:none"
         d="m 6704.09,700.191 c 4.06,-7.98 2.65,-20.511 0.08,-22.621 l -8.55,-31.828 c -0.83,-8.75 12.12,-11.832 17,-4.512 5.04,7.59 10.36,15.711 14.89,22.942 5.62,8.949 11.3,19.207 15.99,28.09 6.57,12.449 3.11,27.828 -8.07,36.386 l -9.24,8.75 c 3,-6.847 -65.57,94.184 -65.57,94.184 l -36.56,-46.672 c 0,0 68,-61.058 80.03,-84.719" /><path
         id="path64"
         style="fill:#859246;fill-opacity:1;fill-rule:nonzero;stroke:none"
         d="m 6284.49,1145.85 c 0.71,-53.93 173.66,-218.702 313.05,-337.85 19.88,20.602 26.24,28.582 47.48,47.871 0,0 -96.8,149.709 -196.51,292.279 l 149.24,226.09 c 80.37,108.35 21.51,250.05 -15.37,278.28 l -33.61,25.73 -18.53,-16.07 c -110.06,-95.52 -186.24,-224.1 -217.27,-366.5 -15.57,-71.41 -28.66,-135.88 -28.48,-149.83" /><path
         id="path66"
         style="fill:#f2523e;fill-opacity:1;fill-rule:nonzero;stroke:none"
         d="m 5933.29,1560.74 68.56,-27.19 c 0,0 59.93,18.99 128.49,81.98 0,0 213.8,360.52 131.57,402.63 -51.53,26.39 -84.77,-25.59 -117.13,-92.42 -46.45,-95.92 -81.12,-225.68 -81.12,-225.68 l -130.37,-139.32" /><path
         id="path68"
         style="fill:#b98790;fill-opacity:1;fill-rule:nonzero;stroke:none"
         d="m 6108.67,1869.08 115.42,-77.34 c 46.29,71.33 92.02,162.79 39.25,255.32 -53.86,94.43 -124.93,-88.99 -154.67,-177.98" /><path
         id="path70"
         style="fill:#bd7086;fill-opacity:1;fill-rule:nonzero;stroke:none"
         d="m 6235.65,2094.3 c -24.93,-15.34 -73.76,-62.62 -82.66,-159.98 -10.99,-120.11 35.5,-337.88 123.47,-390.04 98.33,-58.3 219.73,32.99 313.34,94.72 0,0 1.81,206.89 -81.61,369.34 -89.58,174.41 -194.97,133.71 -272.54,85.96" /><path
         id="path72"
         style="fill:#f2523e;fill-opacity:1;fill-rule:nonzero;stroke:none"
         d="m 6281.4,2200.26 c 0,0 12.12,-37.69 -19.92,-103.9 -5.15,-10.66 -4.46,-23.72 3,-32.92 8.83,-10.87 25.56,-16.45 56.23,13.04 7.93,7.63 12.1,18.37 11.54,29.37 -1.71,33.13 -2.17,111.22 25.19,172.18 l -76.04,-77.77" /><path
         id="path74"
         style="fill:#f46a46;fill-opacity:1;fill-rule:nonzero;stroke:none"
         d="m 6184.97,2304.65 c 0,0 2.15,-89.2 27.38,-144.17 8.72,-19.01 25.77,-32.75 41.5,-33.53 14.43,-0.72 40.96,5.1 57.73,25.46 10.32,12.54 22.45,32.61 29.92,57.2 15.79,51.94 0.98,101.68 -49.52,121.59 -52.6,20.73 -115.18,29.97 -107.01,-26.55" /><path
         id="path76"
         style="fill:#6b221f;fill-opacity:1;fill-rule:nonzero;stroke:none"
         d="m 6223.98,2241.4 c 0.21,-6.05 -2.02,-11.04 -4.98,-11.14 -2.95,-0.09 -5.5,4.73 -5.71,10.78" /><path
         id="path78"
         style="fill:#6b221f;fill-opacity:1;fill-rule:nonzero;stroke:none"
         d="m 6275.98,2242.14 c 0.2,-6.06 -2.02,-11.04 -4.97,-11.13 -2.96,-0.11 -5.52,4.71 -5.73,10.77" /><path
         id="path80"
         style="fill:#f03e2f;fill-opacity:1;fill-rule:nonzero;stroke:none"
         d="m 6240.1,2244.78 c 0,0 -9.82,-29.46 -10.61,-37.93 -0.8,-8.48 7.3,-11.74 11.99,-11.59 v 0 c 4.26,0.15 7.42,4.02 6.7,8.22 l -8.08,41.3" /><path
         id="path82"
         style="fill:#2e394c;fill-opacity:1;fill-rule:nonzero;stroke:none"
         d="m 6262.93,2263.57 c 1.43,2.49 4.35,3.38 6.86,3.84 2.64,0.48 5.38,0.15 7.95,-0.65 5.14,-1.66 9.5,-5.93 10.4,-11.22 -4.93,2.16 -8.41,3.98 -12.38,5.19 -1.92,0.71 -3.93,1.21 -6.04,1.74 -2.08,0.34 -4.44,1.28 -6.79,1.1" /><path
         id="path84"
         style="fill:#2e394c;fill-opacity:1;fill-rule:nonzero;stroke:none"
         d="m 6224.21,2258.96 c -5.13,-1.67 -9.36,-2.51 -13.32,-3.89 -4.01,-1.32 -7.31,-3.06 -11.88,-6.09 0.15,2.63 1.02,5.48 2.96,7.5 1.81,2.13 4.28,3.72 6.89,4.59 5.23,1.64 10.96,1.19 15.35,-2.11" /><path
         id="path86"
         style="fill:#fcd2ba;fill-opacity:1;fill-rule:nonzero;stroke:none"
         d="m 6242.74,2180.6 c 2.51,-9.64 12.36,-15.43 22,-12.92 9.64,2.5 15.42,12.34 12.92,21.98 l -34.92,-9.06" /><path
         id="path88"
         style="fill:#2e394c;fill-opacity:1;fill-rule:nonzero;stroke:none"
         d="m 6318.31,2238.01 c 12.04,-7.17 15.05,-63.16 15.05,-63.16 12.17,1.37 77.45,100.85 60.76,139.4 -18.61,42.98 -38.4,19.39 -75.98,49.82 -19.17,15.53 -44.07,38.45 -78.74,46.58 -50.01,11.73 -76.6,9.11 -104.86,-44.66 -22.41,-42.63 0.04,-70.86 4,-75.2 47.6,-52.15 86.69,-17.31 122.73,-3.94 17.86,6.62 42.23,0.28 50.31,-16.97 4.14,-8.82 5.55,-31.17 6.73,-31.87" /><path
         id="path90"
         style="fill:#f46a46;fill-opacity:1;fill-rule:nonzero;stroke:none"
         d="m 6358.52,2231.31 c -4.04,-16.45 -22.06,-28.31 -32.46,-25.76 -10.39,2.54 -3.59,16.58 0.44,33.03 4.04,16.45 10.09,29.67 20.49,27.12 10.39,-2.55 15.56,-17.95 11.53,-34.39" /><path
         id="path92"
         style="fill:#f46a46;fill-opacity:1;fill-rule:nonzero;stroke:none"
         d="m 5888.71,1527.72 44.58,-25.42 c 0,0 270.27,116.87 332.96,176.14 0,0 215.69,276.05 146.4,398.85 -69.31,122.78 -227.86,-333.35 -227.86,-333.35 0,0 -104.21,-73.75 -296.08,-216.22" /><path
         id="path94"
         style="fill:#b98790;fill-opacity:1;fill-rule:nonzero;stroke:none"
         d="m 6385.6,1830.52 c -31.87,2.06 -84.62,23.17 -149.99,55.8 0,0 31.13,132.78 115.81,201.76 64.6,52.61 103.56,-34.7 88.73,-93.42 -10.76,-42.54 -54.55,-164.14 -54.55,-164.14" /><path
         id="path96"
         style="fill:#f46a46;fill-opacity:1;fill-rule:nonzero;stroke:none"
         d="m 5888.71,1527.72 -42.38,-20.29 c -9.39,-4.49 -16.12,-13.13 -18.19,-23.33 v 0 c -2.62,-12.96 3.36,-26.14 14.85,-32.69 l 23.36,-13.32 c 9.4,-5.37 21.35,-0.44 24.24,10 l 4.4,15.95 38.3,38.26 c 0,0 -25.25,34.65 -44.58,25.42" /><path
         id="path98"
         style="fill:#21b15a;fill-opacity:1;fill-rule:nonzero;stroke:none"
         d="m 5604.32,1264.49 c 33.57,60.11 42.15,119.25 19.16,132.1 -20.43,11.42 -58.93,-17.6 -90.81,-66.39 -5.6,-8.57 -14.03,-15.12 -23.93,-17.67 -19.39,-5 -37.49,-27.3 -43.98,-56.89 -8.11,-36.95 16.06,-87.27 16.06,-87.27 0,0 90.3,36.71 123.5,96.12" /><path
         id="path100"
         style="fill:#3d9c3e;fill-opacity:1;fill-rule:nonzero;stroke:none"
         d="m 5519.13,1195.63 c 11.29,7.07 20.96,16.83 27.4,28.5 2.87,5.19 7.62,10.24 15.3,14.05 39.96,19.88 169.89,-69.76 144.08,-242.782 0,0 -24.15,-44.168 -74.3,54.882 -50.15,99.06 -126.3,110.93 -126.3,110.93 0,0 -2.1,24.45 13.82,34.42" /><path
         id="path102"
         style="fill:#4aa843;fill-opacity:1;fill-rule:nonzero;stroke:none"
         d="m 5539.75,1214.14 c 12.14,-5.21 30.69,-14.75 50.94,-30.91 31.73,-25.32 73.49,-72.28 92.23,-152.27 l -6.82,-1.6 c -28.38,121.15 -110.73,166.3 -141.17,179.13 1.72,1.78 3.28,3.71 4.82,5.65" /><path
         id="path104"
         style="fill:#3d9c3e;fill-opacity:1;fill-rule:nonzero;stroke:none"
         d="m 5147.05,1098.09 c -8.52,10.24 -14.67,22.54 -17.15,35.63 -1.11,5.83 -4.03,12.1 -10.14,18.13 -31.76,31.34 -183.19,-13.28 -212.65,-185.702 0,0 9.17,-49.5 87.71,28.954 78.56,78.448 154.61,65.968 154.61,65.968 0,0 9.62,22.59 -2.38,37.02" /><path
         id="path106"
         style="fill:#4aa843;fill-opacity:1;fill-rule:nonzero;stroke:none"
         d="m 5133.23,1122.11 c -13.16,-1.16 -33.76,-4.43 -58.04,-13.47 -38.05,-14.16 -92.38,-45.74 -135.14,-115.902 l 5.98,-3.629 c 64.76,106.241 157.1,123.441 190.01,126.121 -1.07,2.24 -1.96,4.56 -2.81,6.88" /><path
         id="path108"
         style="fill:#3d9c3e;fill-opacity:1;fill-rule:nonzero;stroke:none"
         d="m 5398.73,1178.28 c -18.73,3.45 -36.7,11.34 -51.4,23.45 -6.54,5.39 -15.49,9.6 -27.7,10.63 -63.53,5.38 -188.99,-182 -63.73,-398.239 0,0 55.3,-45.973 69.83,111.961 14.53,157.928 109.44,213.738 109.44,213.738 0,0 -10.07,33.6 -36.44,38.46" /><path
         id="path110"
         style="fill:#4aa843;fill-opacity:1;fill-rule:nonzero;stroke:none"
         d="m 5361.6,1192.02 c -13.39,-13.3 -33.02,-35.72 -51.42,-67.84 -28.83,-50.31 -59.6,-134.649 -42.44,-250.75 l 9.9,1.461 c -26.01,175.839 59.65,279.119 93.33,312.159 -3.22,1.48 -6.31,3.2 -9.37,4.97" /><path
         id="path112"
         style="fill:#859246;fill-opacity:1;fill-rule:nonzero;stroke:none"
         d="m 6036.45,775.742 6.01,41.25 92.95,-28.961 -18.54,-35.199 -80.42,22.91" /><path
         id="path114"
         style="fill:#95a34a;fill-opacity:1;fill-rule:nonzero;stroke:none"
         d="m 6564.78,826.582 31.67,-26.672 52.5,59.172 -24.89,34.16 -59.28,-66.66" /><path
         id="path116"
         style="fill:#9cdeec;fill-opacity:1;fill-rule:nonzero;stroke:none"
         d="m 6684.67,3727.41 c 0,-536.18 -434.67,-970.85 -970.85,-970.85 -536.18,0 -970.85,434.67 -970.85,970.85 0,536.18 434.67,970.85 970.85,970.85 536.18,0 970.85,-434.67 970.85,-970.85" /><path
         id="path118"
         style="fill:#d47b3a;fill-opacity:1;fill-rule:nonzero;stroke:none"
         d="m 7000.74,2860.48 c 0,85.72 -335.73,155.21 -749.87,155.21 -216.63,0 -411.81,-19.02 -548.7,-49.42 -136.01,-30.21 -274.9,-46.08 -414.19,-42.98 -22.2,0.5 -44.72,0.75 -67.52,0.75 -358.52,0 -649.16,-62.5 -649.16,-139.61 0,-77.1 290.64,-139.6 649.16,-139.6 106.33,0 206.66,5.51 295.21,15.26 78.95,8.69 158.53,-3.79 231.14,-35.99 68,-30.16 177.04,-49.72 299.96,-49.72 114.52,0 217,37.91 285.48,71.6 70.13,34.51 144.33,59.94 221.23,74 171.46,31.33 447.26,89.64 447.26,140.5" /><path
         id="path120"
         style="fill:#c86933;fill-opacity:1;fill-rule:nonzero;stroke:none"
         d="m 6203.75,2808.96 c 0,-26.74 -80.12,-48.42 -178.95,-48.42 -98.82,0 -178.94,21.68 -178.94,48.42 0,26.75 80.12,48.43 178.94,48.43 98.83,0 178.95,-21.68 178.95,-48.43" /><path
         id="path122"
         style="fill:#c86933;fill-opacity:1;fill-rule:nonzero;stroke:none"
         d="m 6733.87,2808.96 c 0,-26.74 -80.12,-48.42 -178.95,-48.42 -98.83,0 -178.94,21.68 -178.94,48.42 0,26.75 80.11,48.43 178.94,48.43 98.83,0 178.95,-21.68 178.95,-48.43" /><path
         id="path124"
         style="fill:#c86933;fill-opacity:1;fill-rule:nonzero;stroke:none"
         d="m 5703.48,2795.04 c 0,-27.32 -124.59,-49.46 -278.27,-49.46 -153.7,0 -278.29,22.14 -278.29,49.46 0,27.31 124.59,49.46 278.29,49.46 153.68,0 278.27,-22.15 278.27,-49.46" /><path
         id="path126"
         style="fill:#3d9c3e;fill-opacity:1;fill-rule:nonzero;stroke:none"
         d="m 6110.28,2973.38 c 0,0 -99.25,86.84 -49.63,198.51 49.63,111.66 55.83,161.06 49.63,220.12 -6.2,59.05 11.4,167.16 73.95,215.47 62.54,48.31 65.64,-44.61 34.62,-117.58 -31.02,-72.96 9.3,-141.2 -9.31,-228.05 -18.6,-86.86 31.03,-87.42 18.61,-170.89 -12.4,-83.47 -117.87,-117.58 -117.87,-117.58" /><path
         id="path128"
         style="fill:none;stroke:#4aa843;stroke-width:9.30576992;stroke-linecap:butt;stroke-linejoin:miter;stroke-miterlimit:10;stroke-dasharray:none;stroke-opacity:1"
         d="m 6184.23,3534.78 c 0,0 -42.93,-73.68 -21.21,-162.45 21.71,-88.78 -16.38,-141.27 -34.12,-188.03 -20.9,-55.06 -27.92,-108.54 -18.62,-210.92 9.31,-102.38 -2.28,-164.42 -2.28,-164.42" /><path
         id="path130"
         style="fill:#4aa843;fill-opacity:1;fill-rule:nonzero;stroke:none"
         d="m 5921.06,3297.1 c 28.72,12.79 77.55,-22.85 71.35,-103.5 -6.2,-80.65 18.53,-164.21 18.62,-189.22 0.23,-71.34 -68.25,-89.95 -68.25,-89.95 0,0 -89.96,34.12 -65.14,102.36 24.81,68.24 37.22,99.23 46.53,155.08 9.31,55.85 -24.81,115.57 -3.11,125.23" /><path
         id="path132"
         style="fill:none;stroke:#3d9c3e;stroke-width:9.30576992;stroke-linecap:butt;stroke-linejoin:miter;stroke-miterlimit:10;stroke-dasharray:none;stroke-opacity:1"
         d="m 5954.41,3236.25 c 0,0 20.16,-49.63 6.98,-116.32 -13.18,-66.69 -32.75,-247.38 -1.25,-310.97" /><path
         id="path134"
         style="fill:#3d9c3e;fill-opacity:1;fill-rule:nonzero;stroke:none"
         d="m 6683.66,2938.48 c 0,0 -89.52,78.31 -44.75,179.02 44.75,100.71 50.35,145.25 44.75,198.51 -5.59,53.26 10.29,150.75 66.68,194.33 56.41,43.57 59.21,-40.24 31.23,-106.04 -27.97,-65.8 8.4,-127.35 -8.39,-205.68 -16.78,-78.33 27.97,-78.83 16.79,-154.11 -11.19,-75.28 -106.31,-106.03 -106.31,-106.03" /><path
         id="path136"
         style="fill:none;stroke:#4aa843;stroke-width:8.39245033;stroke-linecap:butt;stroke-linejoin:miter;stroke-miterlimit:10;stroke-dasharray:none;stroke-opacity:1"
         d="m 6750.34,3444.78 c 0,0 -38.7,-66.45 -19.12,-146.51 19.58,-80.06 -14.76,-127.41 -30.77,-169.58 -18.85,-49.66 -25.18,-97.88 -16.79,-190.21 8.39,-92.34 -2.06,-148.29 -2.06,-148.29" /><path
         id="path138"
         style="fill:#4aa843;fill-opacity:1;fill-rule:nonzero;stroke:none"
         d="m 6384.2,3290.74 c 28.71,12.79 77.55,-22.85 71.35,-103.5 -6.21,-80.65 18.52,-164.21 18.6,-189.22 0.24,-71.35 -68.24,-89.95 -68.24,-89.95 0,0 -89.95,34.12 -65.14,102.36 24.82,68.24 37.22,99.23 46.52,155.08 9.31,55.85 -24.81,115.56 -3.09,125.23" /><path
         id="path140"
         style="fill:none;stroke:#3d9c3e;stroke-width:9.30576992;stroke-linecap:butt;stroke-linejoin:miter;stroke-miterlimit:10;stroke-dasharray:none;stroke-opacity:1"
         d="m 6417.54,3229.89 c 0,0 20.17,-49.63 6.98,-116.32 -13.18,-66.7 -32.75,-247.38 -1.25,-310.97" /><path
         id="path142"
         style="fill:#b3442b;fill-opacity:1;fill-rule:nonzero;stroke:none"
         d="m 5161.13,4642.18 c 6.27,-16.96 45.3,-18.16 87.15,-2.67 41.87,15.49 70.71,41.79 64.43,58.75 -6.26,16.95 -45.29,18.15 -87.14,2.66 -41.86,-15.49 -70.71,-41.78 -64.44,-58.74" /><path
         id="path144"
         style="fill:#b3442b;fill-opacity:1;fill-rule:nonzero;stroke:none"
         d="m 5312.71,4698.26 13.17,-47.32 -151.82,-47.18 -12.93,38.42 151.58,56.08" /><path
         id="path146"
         style="fill:#bc4a2e;fill-opacity:1;fill-rule:nonzero;stroke:none"
         d="m 5097.57,4536.13 c 13.75,-37.2 99.32,-39.82 191.13,-5.85 91.8,33.96 155.06,91.64 141.3,128.83 -13.76,37.19 -99.33,39.81 -191.13,5.85 -91.8,-33.97 -155.06,-91.64 -141.3,-128.83" /><path
         id="path148"
         style="fill:#f2523e;fill-opacity:1;fill-rule:nonzero;stroke:none"
         d="m 5055.09,3961.2 c 0,0 21.67,0.01 29.73,-6.36 8.07,-6.36 15.71,-14.43 15.71,-14.43 0,0 7.6,-7 5.99,-9.23 -3.83,-5.34 -25.47,6.53 -25.47,6.53 0,0 -7.66,-3.67 -20.05,-1.12 -5.42,1.12 -24.6,15.67 -5.91,24.61" /><path
         id="path150"
         style="fill:#c4cc7c;fill-opacity:1;fill-rule:nonzero;stroke:none"
         d="m 5169.8,4569.74 c -27.22,-39.35 -85.44,-90.11 -101.3,-94.76 -28.35,-8.29 -61.16,-19.05 -76.35,-42.34 -19.83,-30.37 -9.5,-57.57 -2.98,-78.48 4.59,-14.68 21.68,-74.59 6.42,-79.34 -19.55,-6.09 -41.51,-40.05 -39.14,-73.8 5.17,-73.87 44.28,-108.65 44.28,-108.65 0,0 149.89,-162.57 83.46,143.56 -1.72,7.93 4.81,15.27 4.99,23.2 0.31,14.46 11.5,25.67 28.64,26.33 43.12,1.68 80.12,21.98 95.11,56.86 6.35,14.75 17.45,26.9 15.19,42.7 -2.13,14.83 13.69,23.38 30.55,25.21 46.86,5.06 71.12,36.64 87.81,75.47 29.67,69 74.28,134.24 -20.37,165.76 -72.32,24.09 -122.58,-32.98 -156.31,-81.72" /><path
         id="path152"
         style="fill:#f2523e;fill-opacity:1;fill-rule:nonzero;stroke:none"
         d="m 5551.26,4354.38 c 32.29,29.17 83.76,81.87 85.02,91.63 -17.7,4.1 -49.45,25.87 -67.1,30.55 -27.6,7.32 -82.18,-30.55 -82.18,-30.55 -9.44,-5.09 -15.13,-6.88 -34.29,-13.02 28,-32.46 94.94,-81.88 98.55,-78.61" /><path
         id="path154"
         style="fill:#bd7086;fill-opacity:1;fill-rule:nonzero;stroke:none"
         d="m 5452.71,4432.99 c -33.98,-11 -83.29,-25.65 -133.74,-54.22 -85.13,-48.23 -121.07,-126.87 -26.49,-143.38 0,0 100.47,-24.34 246.03,107.18 3.84,3.48 8.16,7.48 12.75,11.81 -31.25,27.33 -61.27,61.42 -98.55,78.61" /><path
         id="path156"
         style="fill:#f2523e;fill-opacity:1;fill-rule:nonzero;stroke:none"
         d="m 5417.47,3723.15 208.68,-870.72 c -12.31,-14.6 -25.6,-10.03 -28.88,-8.08 l -373.02,778.28 193.22,100.52" /><path
         id="path158"
         style="fill:#f2523e;fill-opacity:1;fill-rule:nonzero;stroke:none"
         d="m 5068.68,3629.41 138.47,-793.61 c 11.14,-3.39 13.93,-1.85 27.06,4.42 l 50.5,819.64 c 3.44,55.81 -39.42,103.66 -95.27,106.36 v 0 c -74.78,3.61 -133.63,-63.05 -120.76,-136.81" /><path
         id="path160"
         style="fill:#bd7086;fill-opacity:1;fill-rule:nonzero;stroke:none"
         d="m 5456.88,3913.33 c -23.04,153.5 -46.37,299.99 -54.73,323.02 -27.07,74.58 -77.89,135.46 -128.78,142.82 -53.45,7.74 -112.03,7.78 -166.62,-55.49 -35.91,-41.61 -56.63,-63.43 -59.67,-189.77 -0.5,-20.7 -3.67,-112.89 -7.47,-220.58 h 417.27" /><path
         id="path162"
         style="fill:#397f95;fill-opacity:1;fill-rule:nonzero;stroke:none"
         d="m 5404.27,4184.68 -147.53,6.76 c 0,0 -11.68,116.61 -50.62,189.6 -9.68,-0.88 -15.15,-2.27 -24.15,-5.36 8.3,4.92 41.16,-92.41 41.16,-223.65 0,-99.08 -33.79,-186.15 -33.79,-186.15 0,0 -128.2,-26.21 -148.53,-18.44 -6.55,-186.71 -15.83,-443.2 -15.83,-443.2 164.04,-107.84 452.95,-33.33 487.23,27.38 0,0 -32.6,250.53 -65.59,449.42 l -7.73,2.34 c -13.42,80.62 -25.91,153.92 -34.62,201.3" /><path
         id="path164"
         style="fill:#f14737;fill-opacity:1;fill-rule:nonzero;stroke:none"
         d="m 5288.97,4438.38 h -54.73 c -2.04,-16.54 -5.37,-35.56 -10.67,-56.9 -2.41,-9.72 5.58,-17.79 11.86,-25.6 18.09,-22.45 50.64,-62.8 70.35,-12.8 2.91,7.39 2.87,15.65 0.12,23.11 -5.12,13.83 -13.62,40.58 -16.93,72.19" /><path
         id="path166"
         style="fill:#f2523e;fill-opacity:1;fill-rule:nonzero;stroke:none"
         d="m 5204.49,4507.26 c 0,0 -0.28,-41.48 25.39,-72.27 9.6,-11.52 25.49,-31.3 54.12,-29.07 17.78,1.39 30.82,17 39.77,32.67 29.06,50.92 21.72,147.35 21.72,147.35 0,0 -103.16,36.82 -134.82,-22.09 -6.7,-12.48 -7.21,-34.9 -6.18,-56.59" /><path
         id="path168"
         style="fill:#fcd2ba;fill-opacity:1;fill-rule:nonzero;stroke:none"
         d="m 5268.85,4454.3 c 0.15,-9.62 8.08,-17.3 17.7,-17.14 9.62,0.15 17.3,8.08 17.14,17.7 l -34.84,-0.56" /><path
         id="path170"
         style="fill:#602520;fill-opacity:1;fill-rule:nonzero;stroke:none"
         d="m 5260.63,4503.78 c 0.22,-4.87 -1.62,-8.92 -4.12,-9.05 -2.51,-0.11 -4.72,3.74 -4.95,8.61 -0.23,4.88 1.6,8.93 4.11,9.05 2.5,0.11 4.72,-3.74 4.96,-8.61" /><path
         id="path172"
         style="fill:#602520;fill-opacity:1;fill-rule:nonzero;stroke:none"
         d="m 5320.68,4506.64 c 0.23,-4.88 -1.61,-8.93 -4.11,-9.04 -2.51,-0.12 -4.72,3.73 -4.96,8.61 -0.22,4.87 1.61,8.92 4.11,9.04 2.51,0.12 4.73,-3.73 4.96,-8.61" /><path
         id="path174"
         style="fill:#f03e2f;fill-opacity:1;fill-rule:nonzero;stroke:none"
         d="m 5286.97,4514.67 11.25,-37.09 c 0.8,-4.29 -0.12,-11.63 -10.34,-12.18 v 0 c -4.6,-0.25 -8.25,3.81 -7.52,8.36 l 6.61,40.91" /><path
         id="path176"
         style="fill:#c4cc7c;fill-opacity:1;fill-rule:nonzero;stroke:none"
         d="m 5271.98,4526.66 c -5.81,-2.16 -10.99,-2.17 -16.15,-1.91 -5.21,0.47 -9.9,1.38 -15.63,3.57 2.29,2.19 5.13,3.27 7.9,3.91 2.8,0.7 5.59,0.73 8.35,0.6 5.47,-0.56 10.86,-2.04 15.53,-6.17" /><path
         id="path178"
         style="fill:#c4cc7c;fill-opacity:1;fill-rule:nonzero;stroke:none"
         d="m 5302.15,4527.44 c 3.25,4.08 7.74,5.31 12.13,5.37 4.34,-0.14 9.18,-1.72 11.83,-6.25 -4.91,-1.56 -8.2,-1.83 -11.97,-1.85 -3.72,0.17 -7.36,0.55 -11.99,2.73" /><path
         id="path180"
         style="fill:#c4cc7c;fill-opacity:1;fill-rule:nonzero;stroke:none"
         d="m 5246.13,4575.42 c 0,0 51.57,-54.29 103.23,-49.74 51.66,4.57 64.43,60.55 59.92,81.32 -4.51,20.77 -16.73,88.16 -101.33,29.58 0,0 -124.6,6.03 -61.82,-61.16" /><path
         id="path182"
         style="fill:#f2523e;fill-opacity:1;fill-rule:nonzero;stroke:none"
         d="m 5215.08,4503.67 c 5.22,-16.64 2.89,-32.19 -5.21,-34.72 -8.1,-2.54 -18.89,8.88 -24.11,25.52 -5.22,16.64 -2.89,32.18 5.21,34.72 8.1,2.54 18.89,-8.89 24.11,-25.52" /><path
         id="path184"
         style="fill:#f14737;fill-opacity:1;fill-rule:nonzero;stroke:none"
         d="m 5248.32,4382.32 c -17.96,1.43 -30.1,2.6 -22.23,-13.61 20.84,-42.96 43.49,-65.86 76.06,-65.86 0,0 29.08,16.29 3.75,63.34 -5.27,9.76 -31.77,14.08 -57.58,16.13" /><path
         id="path186"
         style="fill:#f2523e;fill-opacity:1;fill-rule:nonzero;stroke:none"
         d="m 5406.47,4555.67 -49.9,11.76 c 0,0 -57.3,-11.41 -57.94,-8.58 -1.15,5.17 23.41,13.53 23.41,13.53 0,0 -70.32,12.78 -69.04,20.7 0.59,3.74 44.61,-3.39 44.61,-3.39 0,0 -53.27,13.9 -52.54,18.46 0.85,5.36 55.19,-2.84 55.19,-2.84 0,0 -46.94,13.04 -46.64,17.89 0.32,4.85 52.58,-7.53 52.58,-7.53 0,0 -32.15,12.93 -31.34,17.12 0.82,4.19 45.8,-6.56 59.78,-12.72 13.35,-5.89 49.72,-30.6 49.72,-30.6 l 33.05,-8.46 -10.94,-25.34" /><path
         id="path188"
         style="fill:#f2523e;fill-opacity:1;fill-rule:nonzero;stroke:none"
         d="m 5356.57,4567.43 c 70.65,-31.76 121.95,-67.68 130.43,-121.42 22.27,10.92 128.06,-12.84 149.28,0 16.93,10.24 -156.26,124.36 -237.18,140 -12.23,2.37 -42.53,-18.58 -42.53,-18.58" /><path
         id="path190"
         style="fill:#397f95;fill-opacity:1;fill-rule:nonzero;stroke:none"
         d="m 5380.98,4180.13 c 0,0 -4.78,76.53 -34.66,153.25 l 25.11,-33.78 c 0,0 33.85,-71.03 32.82,-121.01 l -23.27,1.54" /><path
         id="path192"
         style="fill:#f6a323;fill-opacity:1;fill-rule:nonzero;stroke:none"
         d="m 5182.64,2946.15 28.09,-128.72 c 1.2,-6.16 4.5,-11.67 9.38,-15.62 15.41,-12.48 56.51,-19.89 62.75,-11.57 7.22,9.64 -32.54,35.65 -32.54,35.65 l -3.65,120.26 h -64.03" /><path
         id="path194"
         style="fill:#f6a323;fill-opacity:1;fill-rule:nonzero;stroke:none"
         d="m 5543.94,2946.15 55.66,-112.48 c 1.34,-6.13 4.77,-11.57 9.73,-15.41 15.69,-12.13 50.68,-36.55 60.58,-21.66 10.62,15.95 -37.81,44.41 -37.81,44.41 l -19.96,105.14 h -68.2" /><path
         id="path196"
         style="fill:none;stroke:#315a69;stroke-width:24.98900032;stroke-linecap:butt;stroke-linejoin:miter;stroke-miterlimit:10;stroke-dasharray:none;stroke-opacity:1"
         d="M 5278.86,3903.37 H 5071 c -108.08,0 -195.69,-87.61 -195.69,-195.69 v -615.43 c 0,-128.81 -104.42,-233.23 -233.23,-233.23 h -55.62" /><path
         id="path198"
         style="fill:#f2523e;fill-opacity:1;fill-rule:nonzero;stroke:none"
         d="m 5024.98,3957.98 c 0,0 29.04,-64.68 36.36,-70.58 18.4,-14.82 41.01,-7.15 54.64,-5.68 6.62,0.72 7.78,5.37 2.46,9.37 -17.97,13.54 -54.25,65.75 -69.28,74.79 l -24.18,-7.9" /><path
         id="path200"
         style="fill:#f2523e;fill-opacity:1;fill-rule:nonzero;stroke:none"
         d="m 5145.75,4218.28 c -17.62,42.79 -140.63,44.27 -189.69,63.68 -19.88,-8.45 -134.01,-53.35 -134.01,-114.44 0,-54.34 206.18,-215.5 206.18,-215.5 12.95,1.46 16.82,4.21 23.3,12.2 l -108.84,162.87 c 0,0 112.79,29.15 193.49,84.49 3.3,2.26 6.45,4.48 9.57,6.7" /><path
         id="path202"
         style="fill:#a85c75;fill-opacity:1;fill-rule:nonzero;stroke:none"
         d="m 5169.8,4371.25 c -19.37,-8.27 -65.16,-47.25 -122.72,-68.4 v -179.56 c 64.38,44.37 151.85,135.97 153.34,184.76 1.04,34.06 -8,72.87 -30.62,63.2" /><path
         id="path204"
         style="fill:#bd7086;fill-opacity:1;fill-rule:nonzero;stroke:none"
         d="m 5200.42,4308.05 c 1.04,34.06 -8,72.87 -30.62,63.2 -34.65,-14.8 -153.79,-57.83 -213.74,-89.29 9.35,-49.16 31.59,-91.71 62.23,-129.93 36.64,14.08 80.67,34.03 117.89,59.55 66.87,45.85 62.37,35.33 64.24,96.47" /><path
         id="path206"
         style="fill:#f2523e;fill-opacity:1;fill-rule:nonzero;stroke:none"
         d="m 5074.39,3940.1 47.4,-20.07 h -30.64 c 0,0 -21.05,10.64 -16.76,20.07" /><path
         id="path208"
         style="fill:#315a69;fill-opacity:1;fill-rule:nonzero;stroke:none"
         d="m 5301.08,3853.62 -89.35,13.28 c -13.05,1.94 -22.71,13.14 -22.71,26.33 v 20.28 c 0,13.18 9.66,24.38 22.71,26.32 l 89.35,13.29 v -99.5" /><path
         id="path210"
         style="fill:#356676;fill-opacity:1;fill-rule:nonzero;stroke:none"
         d="m 5329.06,3903.37 c 0,-27.48 -12.53,-49.75 -27.98,-49.75 -15.45,0 -27.97,22.27 -27.97,49.75 0,27.47 12.52,49.75 27.97,49.75 15.45,0 27.98,-22.28 27.98,-49.75" /><path
         id="path212"
         style="fill:none;stroke:#ffffff;stroke-width:8.32966995;stroke-linecap:round;stroke-linejoin:miter;stroke-miterlimit:10;stroke-dasharray:none;stroke-opacity:1"
         d="m 5393.81,3903.37 h 33.31" /><path
         id="path214"
         style="fill:none;stroke:#ffffff;stroke-width:8.32966995;stroke-linecap:round;stroke-linejoin:miter;stroke-miterlimit:10;stroke-dasharray:68.0836, 68.0836;stroke-dashoffset:0;stroke-opacity:1"
         d="m 5495.21,3903.37 h 90.77 c 108.02,0 206.24,-62.69 251.73,-160.67 l 158.73,-341.87" /><path
         id="path216"
         style="fill:none;stroke:#ffffff;stroke-width:8.32966995;stroke-linecap:round;stroke-linejoin:miter;stroke-miterlimit:10;stroke-dasharray:none;stroke-opacity:1"
         d="m 6010.77,3369.95 14.03,-30.22" /><path
         id="path218"
         style="fill:none;stroke:#ffffff;stroke-width:8.32966995;stroke-linecap:round;stroke-linejoin:miter;stroke-miterlimit:10;stroke-dasharray:66.6374, 66.6374;stroke-dashoffset:0;stroke-opacity:1"
         d="m 5393.81,3937.62 h 267.55 c 123.56,0 244.56,-35.31 348.74,-101.77 l 132.32,-84.41" /><path
         id="path220"
         style="fill:none;stroke:#ffffff;stroke-width:8.32966995;stroke-linecap:round;stroke-linejoin:miter;stroke-miterlimit:10;stroke-dasharray:66.6374, 66.6374;stroke-dashoffset:0;stroke-opacity:1"
         d="m 5393.81,3872.83 97.29,-21.17 c 110.87,-24.12 199.21,-107.75 229.34,-217.14 l 65.58,-238.12" /><path
         id="path222"
         style="fill:#9cdeec;fill-opacity:1;fill-rule:nonzero;stroke:none"
         d="m 2826.49,3727.41 c 0,-536.18 -434.66,-970.85 -970.85,-970.85 -536.18,0 -970.843,434.67 -970.843,970.85 0,536.18 434.663,970.85 970.843,970.85 536.19,0 970.85,-434.67 970.85,-970.85" /><path
         id="path224"
         style="fill:#d47b3a;fill-opacity:1;fill-rule:nonzero;stroke:none"
         d="m 2564.18,2903.33 c 3.72,71.57 -193.79,129.71 -432.83,129.71 -143.33,0 -270.36,-20.88 -349.12,-53.04 -68.57,-28 -144.82,-41.2 -221.67,-42.51 -286.85,-4.91 -601.388,-48.64 -601.388,-128.95 0,-71.64 287.668,-129.71 642.518,-129.71 107.72,0 209.21,5.36 298.34,14.83 69.47,7.38 140.08,-0.52 204.85,-22.04 79.18,-26.31 193.78,-42.85 321.32,-42.85 239.05,0 432.83,58.08 432.83,129.71 0,57.83 -299.08,63.56 -294.85,144.85" /><path
         id="path226"
         style="fill:#c86933;fill-opacity:1;fill-rule:nonzero;stroke:none"
         d="m 1556.11,2805.86 c 0,-27.32 -124.59,-49.45 -278.27,-49.45 -153.69,0 -278.277,22.13 -278.277,49.45 0,27.31 124.587,49.46 278.277,49.46 153.68,0 278.27,-22.15 278.27,-49.46" /><path
         id="path228"
         style="fill:#f46a46;fill-opacity:1;fill-rule:nonzero;stroke:none"
         d="m 1192.67,4473.57 35.52,-154.35 c 0,-13.5 -81.28,37.36 -127.58,23.64 0,0 25.01,51.41 41.13,147.78 l 50.93,-17.07" /><path
         id="path230"
         style="fill:#f2523e;fill-opacity:1;fill-rule:nonzero;stroke:none"
         d="m 1207.46,4409.31 c -12.3,8.8 -31.81,2.12 -31.81,-6.21 5.18,-35.29 24.38,-60.59 48.75,-67.42 l -16.94,73.63" /><path
         id="path232"
         style="fill:#f46a46;fill-opacity:1;fill-rule:nonzero;stroke:none"
         d="m 1274.26,4529.2 c 0,0 10.22,-156.77 -7.31,-166.25 -19.74,-10.68 -85.48,-11.98 -95.84,55.69 -12.13,79.27 -44.12,125.4 -14.26,126.84 29.86,1.45 115.66,20.69 117.41,-16.28" /><path
         id="path234"
         style="fill:#8f2b25;fill-opacity:1;fill-rule:nonzero;stroke:none"
         d="m 1339.58,4559.61 c -3.43,-36.49 -39.97,-84.84 -106.58,-44.94 -77.48,46.42 -123.45,-121.35 -152.33,-82.64 -35.06,47.01 -30.54,153.63 44.42,181.48 33.85,12.57 66.77,-12.15 85.1,-11.8 48.87,0.94 60.85,25.79 77.91,25.8 47.39,0.02 53.26,-48.99 51.48,-67.9" /><path
         id="path236"
         style="fill:#8f2b25;fill-opacity:1;fill-rule:nonzero;stroke:none"
         d="m 1247.74,4466.25 c -1.04,-5.43 0.27,-10.24 2.91,-10.75 2.65,-0.51 5.65,3.48 6.69,8.91 1.05,5.43 -0.26,10.25 -2.91,10.76 -2.64,0.51 -5.64,-3.49 -6.69,-8.92" /><path
         id="path238"
         style="fill:#8f2b25;fill-opacity:1;fill-rule:nonzero;stroke:none"
         d="m 1267.75,4489.57 c -5.08,-0.68 -8.71,-0.31 -12.33,-0.01 -3.65,0.42 -6.64,0.83 -11.8,1.55 1.13,2.28 3.07,4.2 5.39,5.08 2.29,1 4.82,1.27 7.21,1.06 4.75,-0.63 9.26,-2.94 11.53,-7.68" /><path
         id="path240"
         style="fill:#8f2b25;fill-opacity:1;fill-rule:nonzero;stroke:none"
         d="m 1228.74,4551.77 c 0,0 -54.92,-31.96 -46.29,-76.47 4.64,-23.96 -3.39,-91.16 -62.2,-72.59 -91.85,29.01 -23.74,146.11 -23.74,146.11 0,0 80.93,45.77 132.23,9.13" /><path
         id="path242"
         style="fill:#f46a46;fill-opacity:1;fill-rule:nonzero;stroke:none"
         d="m 1164.38,4472.02 c 0,-17.41 14.41,-32.3 23.22,-32.88 8.8,-0.59 11.3,14.98 12.48,32.85 1.19,17.89 -4.99,32.85 -13.79,33.43 -8.81,0.58 -21.91,-8.4 -21.91,-33.4" /><path
         id="path244"
         style="fill:#f03e2f;fill-opacity:1;fill-rule:nonzero;stroke:none"
         d="m 1276.02,4469.15 13.04,-39.61 c 1.27,-5.43 -2.3,-11.07 -7.85,-11.69 -1.77,-0.19 -3.5,-0.24 -5.2,-0.1 -3.96,0.32 -6.89,3.82 -6.45,7.76 l 6.46,43.64" /><path
         id="path246"
         style="fill:#977e55;fill-opacity:1;fill-rule:nonzero;stroke:none"
         d="m 1039.6,3809.06 c -0.2,-15.4 -0.57,-31.01 0.28,-45.31 0.74,-7.27 1.73,-14.55 3.06,-21.73 1.91,-7.06 3.04,-14.37 5.87,-21.16 9.5,-27.71 25.66,-53.31 47.41,-73.21 10.48,-10.4 22.91,-18.52 35.51,-26.13 13.06,-6.76 26.59,-12.93 40.97,-16.41 14.18,-4.19 29.01,-5.67 43.76,-6.23 l 46.12,-0.14 184.79,-0.16 c 29.7,0.03 59.15,7.38 85.44,21.03 26.29,13.71 48.72,34.4 65.47,58.77 16.52,24.59 26.64,53.25 29.85,82.6 0.73,7.36 0.72,14.71 1.01,22.18 l -0.32,23.09 -0.63,46.2 -1.48,92.38 -0.78,46.2 c -0.25,15.16 -0.62,31.35 1.04,47.17 3.18,31.68 11.58,62.98 25.51,91.72 13.69,28.9 32.47,55.12 54.04,79.08 10.83,11.98 22.71,23.09 35.27,33.67 l 17.97,14.71 c 3.14,2.54 5.63,4.69 9.32,7.54 3.92,2.96 8.11,5.61 12.5,7.91 8.8,4.61 18.47,7.79 28.51,9.37 l 24.99,2.66 c 15.39,1.86 30.79,3.78 46.19,6.59 v -62.64 c -15.4,2.81 -30.8,4.73 -46.19,6.58 l -11.55,1.25 -5.71,0.54 c -1.3,0.16 -2.61,0.29 -3.94,0.36 -5.31,0.26 -10.76,-0.37 -16.09,-1.91 -2.65,-0.79 -5.27,-1.79 -7.81,-3.02 -2.75,-1.38 -6.6,-3.59 -9.84,-5.35 l -20.28,-11.21 c -12.63,-7.13 -25.02,-15.11 -36.2,-24.71 -22.4,-19.09 -40.67,-43.28 -53.52,-69.98 -13.31,-26.51 -21.53,-55.54 -24.91,-85.04 -1.75,-14.82 -1.62,-29.5 -1.58,-45.12 l 0.15,-46.2 0.35,-92.39 0.29,-46.2 0.15,-23.09 c -0.34,-7.91 -0.41,-16.01 -1.27,-23.94 -3.68,-31.81 -14.91,-62.78 -32.96,-89.2 -18.35,-26.13 -42.48,-48.4 -70.81,-63.3 -28.32,-14.8 -60.24,-22.78 -92.18,-22.85 l -184.79,-0.15 -46.28,0.07 c -15.95,0.58 -32.04,1.86 -47.51,6.22 -15.66,3.59 -30.47,10.05 -44.79,17.26 -13.84,8.05 -27.49,16.79 -39.1,27.96 -24.01,21.43 -42.15,49.19 -53.02,79.55 -3.16,7.45 -4.59,15.45 -6.88,23.19 -1.66,7.89 -2.96,15.9 -3.94,23.9 -1.35,16.44 -1.27,31.64 -1.46,47.03 h 20" /><path
         id="path248"
         style="fill:#5d2752;fill-opacity:1;fill-rule:nonzero;stroke:none"
         d="m 1094.82,2845.54 4.73,-20.21 c 1.86,-7.93 69.14,-21.31 68.83,-35.11 -0.17,-7.37 -70.72,-12.13 -87.69,-5.95 -8.49,3.09 -13.44,11.96 -12.06,20.9 l 7.12,46.02 19.07,-5.65" /><path
         id="path250"
         style="fill:#5d2752;fill-opacity:1;fill-rule:nonzero;stroke:none"
         d="m 1323.19,2855.32 16.2,-29.94 c 1.04,-8.08 69.95,-23.67 67.54,-43.3 -0.9,-7.31 -74.22,-3.49 -90.46,4.37 -7.32,3.55 -11.32,11.46 -10.39,19.38 0.22,1.77 0.47,3.54 0.39,5.31 l -1.58,39.11 18.3,5.07" /><path
         id="path252"
         style="fill:#bc4a2e;fill-opacity:1;fill-rule:nonzero;stroke:none"
         d="m 1392.72,3236.47 c 11.97,130.04 -19.72,315.37 -36.77,542.45 L 969.719,3739.1 1068.5,2838.71 c 7.16,-4.1 21.71,-3.44 31.64,0 0,0 38.96,178.55 68.24,379.57 22.05,151.36 21.71,248.99 21.71,248.99 l 111,-627.9 c 16.15,-3.46 27.53,-0.27 36.05,6.95 0,0 46.11,287.15 55.58,390.15" /><path
         id="path254"
         style="fill:#ead43b;fill-opacity:1;fill-rule:nonzero;stroke:none"
         d="m 1147.85,4354.12 c 0,0 -51.37,-67.51 -33.04,-227.87 l 144.08,183.91 47.7,-51.35 c 0,0 -140.72,-370.77 -235.9,-334.78 -56.28,21.28 -104.706,133.64 -66.11,274.63 38.59,140.98 143.27,155.46 143.27,155.46" /><path
         id="path256"
         style="fill:#e0ab7c;fill-opacity:1;fill-rule:nonzero;stroke:none"
         d="m 1058.26,4328.64 c -17.08,-15.36 -99.088,-48.02 -99.088,-263.95 0,-194.59 10.547,-404.09 10.547,-404.09 0,0 208.901,-134.35 426.421,22.43 0,0 23.51,102.84 -2.66,308.39 -56.74,445.63 -283.76,383.49 -335.22,337.22" /><path
         id="path258"
         style="fill:#f46a46;fill-opacity:1;fill-rule:nonzero;stroke:none"
         d="m 1721.94,4259.84 c 3.35,1.36 6.52,-2.25 4.77,-5.41 -5.67,-10.23 -13.04,-25.55 -8.19,-28.43 5.25,-3.13 48,-4.32 61.55,3.67 3.07,1.82 6.7,-1.21 5.47,-4.56 -4.9,-13.31 -34.59,-31.75 -46.26,-40.6 -12.72,-9.63 -53.59,-12.66 -53.59,-12.66 l -17.3,10.72 c 0,0 31.51,61.97 34.37,66.84 1.66,2.84 11.37,7.24 19.18,10.43" /><path
         id="path260"
         style="fill:#f0b382;fill-opacity:1;fill-rule:nonzero;stroke:none"
         d="m 1318.68,4233.98 138.31,-180.16 210.42,137.57 c 14.28,-3.01 34.62,-12.3 32.8,-25.87 0,0 -184.01,-320.91 -231.46,-296.85 -47.46,24.06 -419.69,181.42 -360.69,296.4 12.78,24.9 26.35,46.86 39.79,65.98 41.05,58.43 127.35,59.58 170.83,2.93" /><path
         id="path262"
         style="fill:#d59b3f;fill-opacity:1;fill-rule:nonzero;stroke:none"
         d="M 1161.66,3809.06 H 897.539 c -31.328,0 -56.719,25.4 -56.719,56.72 v 397.81 c 0,31.33 25.391,56.72 56.719,56.72 h 264.121 c 31.33,0 56.72,-25.39 56.72,-56.72 v -397.81 c 0,-31.32 -25.39,-56.72 -56.72,-56.72" /><path
         id="path264"
         style="fill:#e2a03f;fill-opacity:1;fill-rule:nonzero;stroke:none"
         d="m 1128.38,3865.78 v 397.81 c 0,31.33 -25.39,56.72 -56.72,56.72 H 897.539 c -31.328,0 -56.719,-25.39 -56.719,-56.72 v -397.81 c 0,-31.32 25.391,-56.72 56.719,-56.72 h 153.151 20.97 c 31.33,0 56.72,25.4 56.72,56.72" /><path
         id="path266"
         style="fill:none;stroke:#977e55;stroke-width:20;stroke-linecap:butt;stroke-linejoin:miter;stroke-miterlimit:10;stroke-dasharray:none;stroke-opacity:1"
         d="m 1029.6,3809.06 v -31.85 c 0,-102.67 83.23,-185.9 185.9,-185.9 h 234.89 c 103.63,0 187.26,84.74 185.88,188.37 l -1.46,209.76" /><path
         id="path268"
         style="fill:#80644b;fill-opacity:1;fill-rule:nonzero;stroke:none"
         d="m 1899.39,4259.75 c 0,-17.43 -8.11,-31.57 -18.12,-31.57 -10.01,0 -18.13,14.14 -18.13,31.57 0,17.43 8.12,31.56 18.13,31.56 10.01,0 18.12,-14.13 18.12,-31.56" /><path
         id="path270"
         style="fill:#ffffff;fill-opacity:1;fill-rule:nonzero;stroke:none"
         d="m 2318.3,4273.75 c -0.97,23.54 5.33,46.57 18.61,66.02 33.75,49.44 15.83,123.44 -46.62,146.89 -33.41,12.54 -69.29,5.62 -95.33,-15.07 -17.22,-13.68 -40.19,-18.05 -61.68,-13.33 -49.55,10.88 -100.58,-18.49 -116.75,-66.15 -7.18,-21.21 -21.32,-39.88 -41.09,-50.38 -18.49,-9.82 -33.37,-26.6 -40.3,-48.39 -12.48,-39.2 6.63,-83.07 43.86,-100.53 18.35,-8.61 37.95,-9.98 55.85,-5.45 32.43,8.18 66.49,-0.58 94.3,-19.16 7.58,-5.07 15.86,-9.36 24.78,-12.7 84.91,-31.89 167.73,36.29 164.37,118.25" /><path
         id="path272"
         style="fill:#e0ab7c;fill-opacity:1;fill-rule:nonzero;stroke:none"
         d="m 1296.78,4370.75 c -6.83,-19.38 -29.63,-28.51 -45.07,-23.07 -15.44,5.44 2.59,16.75 9.41,36.12 6.83,19.38 -0.14,39.5 15.3,34.06 15.45,-5.44 27.18,-27.73 20.36,-47.11" /><path
         id="path274"
         style="fill:none;stroke:#e0ab7c;stroke-width:6.99151993;stroke-linecap:round;stroke-linejoin:miter;stroke-miterlimit:10;stroke-dasharray:none;stroke-opacity:1"
         d="m 1272.2,4382.45 -85.91,122.97" /><path
         id="path276"
         style="fill:#3d9c3e;fill-opacity:1;fill-rule:nonzero;stroke:none"
         d="m 2740.49,4163.1 c -44.4,-52.76 -141.3,-44.28 -141.3,-44.28 0,0 -24.94,94.02 19.45,146.79 44.39,52.76 141.29,44.28 141.29,44.28 0,0 24.94,-94.03 -19.44,-146.79" /><path
         id="path278"
         style="fill:#3d9c3e;fill-opacity:1;fill-rule:nonzero;stroke:none"
         d="m 2841.25,3741.03 c -61.75,-30.67 -147.23,15.77 -147.23,15.77 0,0 14.65,96.17 76.41,126.84 61.76,30.67 147.24,-15.78 147.24,-15.78 0,0 -14.66,-96.17 -76.42,-126.83" /><path
         id="path280"
         style="fill:#3d9c3e;fill-opacity:1;fill-rule:nonzero;stroke:none"
         d="m 2457.73,3997.91 c 61.88,-30.44 76.89,-126.55 76.89,-126.55 0,0 -85.3,-46.77 -147.17,-16.33 -61.87,30.44 -76.88,126.55 -76.88,126.55 0,0 85.3,46.76 147.16,16.33" /><path
         id="path282"
         style="fill:#3eb041;fill-opacity:1;fill-rule:nonzero;stroke:none"
         d="m 2609.81,4363.05 c 9.57,-53.01 -43.86,-107.03 -43.86,-107.03 0,0 -68.96,31.93 -78.53,84.93 -9.57,53 43.87,107.02 43.87,107.02 0,0 68.95,-31.92 78.52,-84.92" /><path
         id="path284"
         style="fill:#3eb041;fill-opacity:1;fill-rule:nonzero;stroke:none"
         d="m 2808.12,4003.1 c -33.24,-42.39 -109.12,-38.37 -109.12,-38.37 0,0 -22,72.73 11.23,115.11 33.25,42.39 109.13,38.37 109.13,38.37 0,0 21.99,-72.73 -11.24,-115.11" /><path
         id="path286"
         style="fill:#3eb041;fill-opacity:1;fill-rule:nonzero;stroke:none"
         d="m 2512.43,3669.47 c -28.01,-46.01 -103.83,-50.98 -103.83,-50.98 0,0 -30.43,69.63 -2.43,115.64 28,46.01 103.83,50.98 103.83,50.98 0,0 30.43,-69.63 2.43,-115.64" /><path
         id="path288"
         style="fill:#3eb041;fill-opacity:1;fill-rule:nonzero;stroke:none"
         d="m 2791.49,3582.58 c -52.4,12.43 -80.54,83.01 -80.54,83.01 0,0 56.83,50.44 109.24,38.01 52.41,-12.42 80.54,-83 80.54,-83 0,0 -56.82,-50.44 -109.24,-38.02" /><path
         id="path290"
         style="fill:#3eb041;fill-opacity:1;fill-rule:nonzero;stroke:none"
         d="m 2510.35,4189.86 c 30.76,-44.21 4.65,-115.57 4.65,-115.57 0,0 -75.99,0.32 -106.75,44.54 -30.76,44.21 -4.65,115.57 -4.65,115.57 0,0 75.99,-0.33 106.75,-44.54" /><path
         id="path292"
         style="fill:#3eb041;fill-opacity:1;fill-rule:nonzero;stroke:none"
         d="m 2572.03,3477 c -24.94,-39.59 -90.87,-42.89 -90.87,-42.89 0,0 -25.5,60.89 -0.56,100.48 24.94,39.59 90.86,42.9 90.86,42.9 0,0 25.5,-60.9 0.57,-100.49" /><path
         id="path294"
         style="fill:#bc4a2e;fill-opacity:1;fill-rule:nonzero;stroke:none"
         d="m 2642.11,3737.26 166.57,68.13 -5.68,13.88 -146.53,-59.92 c -18.47,-7.56 -39.05,4.7 -41.19,24.56 v 0 c -2.41,22.48 3.43,45.07 16.46,63.56 l 133.57,189.68 -12.26,8.64 -125.54,-178.26 c -6.4,-9.09 -20.63,-5.4 -21.83,5.64 l -11.01,102.46 0.77,0.54 -0.98,1.4 -4.81,44.76 c -4.1,38.18 8.66,76.24 34.96,104.22 l 59.35,63.16 -10.93,10.27 -61.99,-65.94 c -11.77,-12.54 -32.82,-5.47 -34.65,11.61 l -17.83,165.72 -19.9,-1.96 22.4,-248.71 c 1,-11.05 -13.31,-16.27 -19.66,-7.17 l -61.97,88.7 -12.3,-8.59 80.5,-115.24 c 12.97,-18.57 20.87,-40.2 22.9,-62.76 l 6.13,-68.18 c 1.21,-13.42 -12.21,-23.35 -24.7,-18.29 l -89.84,36.49 -5.65,-13.89 52.48,-21.31 c 15.65,-6.36 22.44,-24.82 14.61,-39.8 l -43.94,-84.19 13.3,-6.94 50.61,96.95 c 4.87,9.33 16.02,13.43 25.77,9.47 v 0 c 7.08,-2.87 11.95,-9.47 12.63,-17.08 l 10.01,-111.08 c 4.1,-45.54 -5.79,-91.25 -28.34,-131.02 l -43.81,-77.27 13.04,-7.41 67.78,119.52 12.17,-135.26 -6.17,-712.64 h 46.67 l -6.17,713.33 -0.01,1 -0.08,0.69 -15.02,139.71 c -2.15,19.97 15.56,36.37 35.3,32.71 l 137.17,-25.43 2.74,14.74 -159.21,29.52 c -13.04,2.42 -22.95,13.11 -24.37,26.29 v 0 c -1.42,13.3 6.11,25.93 18.48,30.99" /><path
         id="path296"
         style="fill:#3eb041;fill-opacity:1;fill-rule:nonzero;stroke:none"
         d="m 2648.89,3994.87 c 9.57,-53 -43.87,-107.02 -43.87,-107.02 0,0 -68.97,31.92 -78.54,84.92 -9.57,53.01 43.88,107.03 43.88,107.03 0,0 68.96,-31.92 78.53,-84.93" /><path
         id="path298"
         style="fill:#e2a03f;fill-opacity:1;fill-rule:nonzero;stroke:none"
         d="m 2524.25,2773.71 h -37.98 v 591.76 h 37.98 v -591.76" /><path
         id="path300"
         style="fill:#e0ab7c;fill-opacity:1;fill-rule:nonzero;stroke:none"
         d="m 2663.99,3108.81 h -194.33 v 23.33 h 194.33 v -23.33" /><path
         id="path302"
         style="fill:#e0ab7c;fill-opacity:1;fill-rule:nonzero;stroke:none"
         d="m 2663.99,2997.16 h -194.33 v 23.33 h 194.33 v -23.33" /><path
         id="path304"
         style="fill:#e0ab7c;fill-opacity:1;fill-rule:nonzero;stroke:none"
         d="m 2663.99,2885.5 h -194.33 v 23.34 h 194.33 v -23.34" /><path
         id="path306"
         style="fill:#bc4a2e;fill-opacity:1;fill-rule:nonzero;stroke:none"
         d="m 2710.95,2773.26 c 0,-24.02 -271.99,-24.02 -271.99,0 0,24.02 60.89,43.49 136,43.49 75.11,0 135.99,-19.47 135.99,-43.49" /><path
         id="path308"
         style="fill:#ad3e2c;fill-opacity:1;fill-rule:nonzero;stroke:none"
         d="m 1190.09,3467.27 c 0,0 -77.58,6.07 -112.12,53.9 0,0 18.04,-70.53 109.97,-114.3 l 2.15,60.4" /><path
         id="path310"
         style="fill:#c86933;fill-opacity:1;fill-rule:nonzero;stroke:none"
         d="m 2394.33,2874.71 c 0,-27 -135.66,-48.89 -302.99,-48.89 -167.34,0 -302.99,21.89 -302.99,48.89 0,27 135.65,48.9 302.99,48.9 167.33,0 302.99,-21.9 302.99,-48.9" /><path
         id="path312"
         style="fill:#3eb041;fill-opacity:1;fill-rule:nonzero;stroke:none"
         d="m 2142.31,3051.84 c -15.62,53.35 -64.85,92.34 -123.25,92.34 -58.64,0 -108.01,-39.32 -123.42,-93.01 -7.27,2.07 -14.92,3.24 -22.86,3.24 -46.17,0 -83.6,-37.43 -83.6,-83.6 0,-46.18 37.43,-83.61 83.6,-83.61 25.7,0 232.4,0 249.25,0 46.18,0 83.61,37.43 83.61,83.61 0,39.17 -26.97,71.95 -63.33,81.03" /><path
         id="path314"
         style="fill:#35973f;fill-opacity:1;fill-rule:nonzero;stroke:none"
         d="m 2335.23,3062.15 c -20.08,68.59 -83.36,118.72 -158.44,118.72 -75.38,0 -138.85,-50.55 -158.66,-119.57 -9.35,2.66 -19.17,4.17 -29.38,4.17 -59.36,0 -107.48,-48.12 -107.48,-107.48 0,-59.36 48.12,-107.48 107.48,-107.48 33.03,0 298.74,0 320.41,0 59.37,0 107.48,48.12 107.48,107.48 0,50.35 -34.67,92.5 -81.41,104.16" /><path
         id="path316"
         style="fill:#3eb041;fill-opacity:1;fill-rule:nonzero;stroke:none"
         d="m 2057.64,3023.46 c -8.3,20.09 8.17,45.96 8.17,45.96 0,0 29.92,-6.71 38.22,-26.8 8.3,-20.09 -8.17,-45.96 -8.17,-45.96 0,0 -29.92,6.7 -38.22,26.8" /><path
         id="path318"
         style="fill:#3eb041;fill-opacity:1;fill-rule:nonzero;stroke:none"
         d="m 2234.78,3115.72 c 17.28,13.18 46.51,3.91 46.51,3.91 0,0 1.21,-30.64 -16.07,-43.82 -17.28,-13.19 -46.52,-3.92 -46.52,-3.92 0,0 -1.21,30.64 16.08,43.83" /><path
         id="path320"
         style="fill:#3eb041;fill-opacity:1;fill-rule:nonzero;stroke:none"
         d="m 2199.79,2981.4 c 9.77,7.46 26.3,2.21 26.3,2.21 0,0 0.69,-17.32 -9.09,-24.78 -9.76,-7.45 -26.3,-2.21 -26.3,-2.21 0,0 -0.68,17.33 9.09,24.78" /><path
         id="path322"
         style="fill:#3eb041;fill-opacity:1;fill-rule:nonzero;stroke:none"
         d="m 1987.73,2929.17 c -8.99,8.38 -6.6,25.55 -6.6,25.55 0,0 16.98,3.59 25.96,-4.8 8.98,-8.38 6.59,-25.55 6.59,-25.55 0,0 -16.96,-3.58 -25.95,4.8" /><path
         id="path324"
         style="fill:#9cdeec;fill-opacity:1;fill-rule:nonzero;stroke:none"
         d="m 4405.64,2029.68 c 0,-436.95 -354.21,-791.16 -791.16,-791.16 -436.95,0 -791.16,354.21 -791.16,791.16 0,436.95 354.21,791.16 791.16,791.16 436.95,0 791.16,-354.21 791.16,-791.16" /><path
         id="path326"
         style="fill:#d47b3a;fill-opacity:1;fill-rule:nonzero;stroke:none"
         d="m 4209.27,673.199 c 0,-64.5 -273.94,-116.777 -611.85,-116.777 -337.92,0 -611.84,52.277 -611.84,116.777 0,64.52 273.92,116.801 611.84,116.801 337.91,0 611.85,-52.281 611.85,-116.801" /><path
         id="path328"
         style="fill:#c86933;fill-opacity:1;fill-rule:nonzero;stroke:none"
         d="m 4116.91,673.199 c 0,-26.73 -124.35,-48.41 -277.76,-48.41 -153.4,0 -277.75,21.68 -277.75,48.41 0,26.75 124.35,48.43 277.75,48.43 153.41,0 277.76,-21.68 277.76,-48.43" /><path
         id="path330"
         style="fill:#17b4e6;fill-opacity:1;fill-rule:nonzero;stroke:none"
         d="m 3630.5,1706.2 c 0,0 -110.24,246.87 7.76,485.96 118,239.1 325.91,208.51 325.91,208.51 0,0 102.84,-18.43 130.72,-98.31 19.66,-56.33 29.54,-197.94 18.47,-301.17 -7.15,-66.55 -45.77,-283.13 -45.77,-283.13 l -71.8,-0.99 c 0,0 -230.21,-86.95 -365.29,-10.87" /><path
         id="path332"
         style="fill:none;stroke:#523a44;stroke-width:18.5727005;stroke-linecap:butt;stroke-linejoin:miter;stroke-miterlimit:10;stroke-dasharray:none;stroke-opacity:1"
         d="m 4127.54,2578.49 v -92.77" /><path
         id="path334"
         style="fill:none;stroke:#523a44;stroke-width:18.5727005;stroke-linecap:butt;stroke-linejoin:miter;stroke-miterlimit:10;stroke-dasharray:none;stroke-opacity:1"
         d="m 4053.51,2485.72 v 57.24 c 0,19.62 15.9,35.53 40.16,35.53 h 236.15 c 14.98,0 30.88,-15.91 30.88,-35.53 v -57.24" /><path
         id="path336"
         style="fill:#f46a46;fill-opacity:1;fill-rule:nonzero;stroke:none"
         d="m 3489.82,2235.09 c 0,0 0,36.44 22.4,61.49 34.95,39.09 88.34,15.53 96.11,1.65 3.46,-6.17 -71.37,-45.03 -71.37,-45.03 l -26.66,-27.4 -20.48,9.29" /><path
         id="path338"
         style="fill:#bc4a2e;fill-opacity:1;fill-rule:nonzero;stroke:none"
         d="m 3625.36,1735.68 51.68,-996.801 h 45.1 l 120.77,703.871 41.22,292.93 h -258.77" /><path
         id="path340"
         style="fill:#b3442b;fill-opacity:1;fill-rule:nonzero;stroke:none"
         d="m 3765.61,1744.95 13.5,-253.19 -70.76,-673.651 -31.31,-79.23 h 45.1 l 123,719.661 -79.53,286.41" /><path
         id="path342"
         style="fill:#bc4a2e;fill-opacity:1;fill-rule:nonzero;stroke:none"
         d="m 3790.75,1709.82 184.16,-942.84 c 14.13,-5.46 38.33,-51.57 54.08,-46.679 l 39.34,1016.959 -277.58,-27.44" /><path
         id="path344"
         style="fill:#f6a323;fill-opacity:1;fill-rule:nonzero;stroke:none"
         d="M 3742.26,815.48 3720.3,714.211 c 0.14,-6.242 -6.53,-13.75 -10.81,-18.301 -13.88,-14.769 -62.43,-32.051 -74.13,-22.711 -13.55,10.84 34.67,49.34 34.67,49.34 l -2.84,92.941 h 75.07" /><path
         id="path346"
         style="fill:#f6a323;fill-opacity:1;fill-rule:nonzero;stroke:none"
         d="m 3964.36,796.91 33.6,-112.18 c 1.64,-5.199 5.39,-9.121 9.37,-12.839 15.92,-14.821 51.54,-21.629 65.6,-15.77 14.92,6.211 -15.79,28.109 -34.29,54.109 l -0.77,86.68 h -73.51" /><path
         id="path348"
         style="fill:#17b4e6;fill-opacity:1;fill-rule:nonzero;stroke:none"
         d="m 3722.58,2310.67 c 0,0 -159.4,-188.52 -173.4,-185.03 -12.6,3.13 1.25,136.18 1.25,136.18 0,0 -63.96,-30.56 -71.63,-56.74 -29.33,-100.06 -78.21,-278.84 6.53,-294.19 103.96,-18.84 321.44,223.83 321.44,223.83 l -84.19,175.95" /><path
         id="path350"
         style="fill:#bc4a2e;fill-opacity:1;fill-rule:nonzero;stroke:none"
         d="m 3656.13,2087.77 c 0,0 124.55,-40.18 230.96,-9.56 0,0 -54.55,-396.21 122.19,-361.41 l -22.48,-21.11 c 0,0 -276.14,-72.29 -356.3,10.51 -80.16,82.8 25.63,381.57 25.63,381.57" /><path
         id="path352"
         style="fill:#973926;fill-opacity:1;fill-rule:nonzero;stroke:none"
         d="m 3779.93,1910.06 -65.66,5.79 c -30.83,2.71 -53.63,29.91 -50.91,60.75 l 5.67,64.43 c 61.18,-16.79 120.67,-24.11 177.33,-15.63 l -5.68,-64.42 c -2.72,-30.84 -29.92,-53.64 -60.75,-50.92" /><path
         id="path354"
         style="fill:#bc4a2e;fill-opacity:1;fill-rule:nonzero;stroke:none"
         d="m 3881.66,2047.27 -27.69,3.1 c 0.87,7.71 22.29,190.63 123.38,353.98 l 26.2,-7.47 c -97.69,-157.84 -121.67,-347.79 -121.89,-349.61" /><path
         id="path356"
         style="fill:#bc4a2e;fill-opacity:1;fill-rule:nonzero;stroke:none"
         d="m 3678.67,2068.55 -27.41,5.04 c 1.25,6.77 28.13,150.58 77.11,246.57 l 48.31,36.49 c -57.37,-87.21 -97.69,-286.3 -98.01,-288.1" /><path
         id="path358"
         style="fill:#e2a03f;fill-opacity:1;fill-rule:nonzero;stroke:none"
         d="m 3223.08,2072.91 -14.32,29.18 899.13,441.37 c 8.06,3.95 19.37,-7.49 19.37,-7.49 0,0 2.25,-18.11 -5.8,-22.06 l -898.38,-441" /><path
         id="path360"
         style="fill:#523a44;fill-opacity:1;fill-rule:nonzero;stroke:none"
         d="m 4215.07,2577.96 v 0 c -3.96,8.06 -13.69,11.39 -21.75,7.43 l -85.43,-41.93 13.57,-29.55 86.18,42.31 c 8.05,3.95 11.38,13.69 7.43,21.74" /><path
         id="path362"
         style="fill:#f2523e;fill-opacity:1;fill-rule:nonzero;stroke:none"
         d="M 3823.02,2467.74 3807,2367.61 c -1.56,-9.76 4.79,-19.12 14.48,-21.01 27.64,-5.35 85.18,-7.54 145.93,44.29 l -52.01,156.82 -92.38,-79.97" /><path
         id="path364"
         style="fill:#f46a46;fill-opacity:1;fill-rule:nonzero;stroke:none"
         d="m 3772.16,2612.4 c 0,0 1.03,-150.09 53.83,-167.68 52.78,-17.6 90.34,42.44 107.27,116.96 16.94,74.52 -20.33,97.29 -42.07,97.29 -21.74,0 -113.86,28.98 -119.03,-46.57" /><path
         id="path366"
         style="fill:#5d2752;fill-opacity:1;fill-rule:nonzero;stroke:none"
         d="m 3705.02,2747.21 c 0,0 -51.23,-129.64 36.49,-159.92 0,0 22.51,-15.52 97.03,43.48 74.53,59 65.22,-69.87 65.22,-69.87 l 8.73,5.63 16.3,31.25 c 0,0 8.35,15.14 13.78,-2.72 5.44,-17.86 -16.69,-47.35 -16.69,-47.35 l -3.02,-22.49 4.9,-14.78 c 0,0 14.04,57.45 29.56,77.63 15.52,20.19 48.13,46.58 35.71,82.29 -12.42,35.71 -62.1,26.39 -96.26,10.87 -34.16,-15.53 -97.81,41.92 -115.67,65.98 -17.86,24.07 -59,41.15 -76.08,0" /><path
         id="path368"
         style="fill:#6b221f;fill-opacity:1;fill-rule:nonzero;stroke:none"
         d="m 3809.82,2591.18 c -5.24,-3.52 -9.87,-5.42 -14.72,-7.29 -4.92,-1.67 -9.62,-3.3 -15.99,-3.84 2.61,5.86 7.74,9.47 13.19,11.54 5.51,1.86 11.74,2.52 17.52,-0.41" /><path
         id="path370"
         style="fill:#f03e2f;fill-opacity:1;fill-rule:nonzero;stroke:none"
         d="m 3823.28,2574.11 -12.39,-50.48 c -1.17,-4.79 4.1,-9.16 11.05,-9.16 v 0 c 6.78,0 12.02,4.18 11.11,8.88 l -9.77,50.76" /><path
         id="path372"
         style="fill:#6b221f;fill-opacity:1;fill-rule:nonzero;stroke:none"
         d="m 3853.29,2591.18 c 6.12,2.67 12.39,2.26 18.29,0.59 5.71,-1.84 11.85,-5.51 14.06,-11.98 -6.4,1.41 -11.16,2.54 -16.49,4.16 -5.2,1.72 -10.41,3.49 -15.86,7.23" /><path
         id="path374"
         style="fill:#6b221f;fill-opacity:1;fill-rule:nonzero;stroke:none"
         d="m 3808.02,2558.32 c 0,-5.86 -2.33,-10.61 -5.19,-10.61 -2.85,0 -5.16,4.75 -5.16,10.61 0,5.85 2.31,10.61 5.16,10.61 2.86,0 5.19,-4.76 5.19,-10.61" /><path
         id="path376"
         style="fill:#6b221f;fill-opacity:1;fill-rule:nonzero;stroke:none"
         d="m 3862.87,2558.32 c 0,-5.86 -2.31,-10.61 -5.17,-10.61 -2.87,0 -5.18,4.75 -5.18,10.61 0,5.85 2.31,10.61 5.18,10.61 2.86,0 5.17,-4.76 5.17,-10.61" /><path
         id="path378"
         style="fill:#fcd2ba;fill-opacity:1;fill-rule:nonzero;stroke:none"
         d="m 3816.51,2508.99 c 0,-12.51 10.14,-22.64 22.64,-22.64 12.51,0 22.65,10.13 22.65,22.64 h -45.29" /><path
         id="path380"
         style="fill:#f46a46;fill-opacity:1;fill-rule:nonzero;stroke:none"
         d="m 3940.24,2569.05 c -9.73,-13.91 -12.1,-25.8 -20.06,-23.28 -7.98,2.52 -10.3,17.68 -5.19,33.87 5.12,16.19 15.72,27.28 23.69,24.76 7.98,-2.52 15.15,-15.94 1.56,-35.35" /><path
         id="path382"
         style="fill:none;stroke:#523a44;stroke-width:18.5727005;stroke-linecap:butt;stroke-linejoin:miter;stroke-miterlimit:10;stroke-dasharray:none;stroke-opacity:1"
         d="m 4207.11,2578.49 v -92.77" /><path
         id="path384"
         style="fill:none;stroke:#523a44;stroke-width:18.5727005;stroke-linecap:butt;stroke-linejoin:miter;stroke-miterlimit:10;stroke-dasharray:none;stroke-opacity:1"
         d="m 4283.09,2578.49 v -92.77" /><path
         id="path386"
         style="fill:#973926;fill-opacity:1;fill-rule:nonzero;stroke:none"
         d="m 3912.46,1666.47 c 0,0 -10.63,-76.91 131.65,-62.28 l -131.65,62.28" /><path
         id="path388"
         style="fill:#17b4e6;fill-opacity:1;fill-rule:nonzero;stroke:none"
         d="m 3976.49,2186.28 c 17.77,-183.71 6.46,-419.55 -31.99,-542.31 0,0 27.69,-36.36 80.44,-29.08 0,0 121.15,245.53 105.23,532.36 -10.54,189.88 -67.51,190.17 -86.44,190.17 -36.84,0 -73.19,-89.48 -67.24,-151.14" /><path
         id="path390"
         style="fill:#f46a46;fill-opacity:1;fill-rule:nonzero;stroke:none"
         d="m 3538.51,2271.93 c 0,0 55.3,3.84 58.59,-3.28 3.28,-7.12 -9.86,-12.05 -19.72,-14.24 -9.85,-2.18 -78.55,-9.93 -78.55,-9.93 0,0 17.78,24.68 39.68,27.45" /><path
         id="path392"
         style="fill:#3eb041;fill-opacity:1;fill-rule:nonzero;stroke:none"
         d="m 3259.25,1078.19 c 0,0 -307.89,143.96 -194.02,332.44 55.39,91.67 -33.28,283.84 -26.18,392.08 7.53,114.75 112.93,225.87 205.35,226.97 92.42,1.1 154.96,-119.84 131.88,-316.92 -8.21,-70.11 65.43,-21.14 101.68,-85.12 67.63,-119.37 -92.23,-293.67 -80.79,-313.17 11.44,-19.5 60.33,5.72 74.42,-47.31 23.97,-90.13 -212.34,-188.97 -212.34,-188.97" /><path
         id="path394"
         style="fill:#bc4a2e;fill-opacity:1;fill-rule:nonzero;stroke:none"
         d="m 3277.16,1436.35 c -0.15,-0.91 -0.48,-1.82 -1.31,-2.64 l -29.56,-29.56 -45.12,-721.97 h 86.46 l -10.47,754.17" /><path
         id="path396"
         style="fill:#e2a03f;fill-opacity:1;fill-rule:nonzero;stroke:none"
         d="m 3158.59,682.18 h -37.97 v 591.76 h 37.97 V 682.18" /><path
         id="path398"
         style="fill:#e0ab7c;fill-opacity:1;fill-rule:nonzero;stroke:none"
         d="M 3298.35,1017.28 H 3104 v 23.33 h 194.35 v -23.33" /><path
         id="path400"
         style="fill:#e0ab7c;fill-opacity:1;fill-rule:nonzero;stroke:none"
         d="M 3298.35,905.621 H 3104 v 23.34 h 194.35 v -23.34" /><path
         id="path402"
         style="fill:#e0ab7c;fill-opacity:1;fill-rule:nonzero;stroke:none"
         d="M 3298.35,793.969 H 3104 v 23.332 h 194.35 v -23.332" /><path
         id="path404"
         style="fill:#bc4a2e;fill-opacity:1;fill-rule:nonzero;stroke:none"
         d="m 3281.42,1177.05 36.49,51.54 h 23.86 l -71.59,-164.54 11.24,113" /><path
         id="path406"
         style="fill:#bc4a2e;fill-opacity:1;fill-rule:nonzero;stroke:none"
         d="m 3242.47,1289.95 -26.38,30.24 -7.96,-15.12 34.34,-126.48 v 111.36" /><path
         id="path408"
         style="fill:#bc4a2e;fill-opacity:1;fill-rule:nonzero;stroke:none"
         d="m 3360.25,669.43 c 0,-24.008 -271.98,-24.008 -271.98,0 0,24.031 60.89,43.5 136,43.5 75.11,0 135.98,-19.469 135.98,-43.5" /><path
         id="path410"
         style="fill:#9cdeec;fill-opacity:1;fill-rule:nonzero;stroke:none"
         d="m 2514.53,1502.3 c 0,-536.198 -434.66,-970.851 -970.84,-970.851 -536.19,0 -970.846,434.653 -970.846,970.851 0,536.18 434.656,970.83 970.846,970.83 536.18,0 970.84,-434.65 970.84,-970.83" /><path
         id="path412"
         style="fill:#d47b3a;fill-opacity:1;fill-rule:nonzero;stroke:none"
         d="m 1002.84,518.738 c -2.21,-88.886 163.82,-159.379 363.88,-157.347 119.96,1.211 226.01,28.211 291.53,68.808 57.02,35.34 120.68,52.36 184.98,54.641 240.01,8.531 502.71,65.48 501.7,165.191 -0.91,88.93 -242.39,158.578 -539.37,155.571 -90.17,-0.911 -175.03,-8.442 -249.52,-20.954 -58.04,-9.75 -117.23,-0.539 -171.71,25.622 -66.61,32 -162.73,51.562 -269.48,50.472 C 914.797,858.711 753.34,784.98 754.238,696.051 754.973,624.25 1005.35,619.68 1002.84,518.738" /><path
         id="path414"
         style="fill:#c86933;fill-opacity:1;fill-rule:nonzero;stroke:none"
         d="m 1405.55,611.059 c 0,-26.739 -80.12,-48.418 -178.96,-48.418 -98.83,0 -178.94,21.679 -178.94,48.418 0,26.75 80.11,48.433 178.94,48.433 98.84,0 178.96,-21.683 178.96,-48.433" /><path
         id="path416"
         style="fill:#c86933;fill-opacity:1;fill-rule:nonzero;stroke:none"
         d="m 1993.5,587.551 c 0,-26.75 -80.12,-48.43 -178.95,-48.43 -98.83,0 -178.94,21.68 -178.94,48.43 0,26.75 80.11,48.429 178.94,48.429 98.83,0 178.95,-21.679 178.95,-48.429" /><path
         id="path418"
         style="fill:#7d4987;fill-opacity:1;fill-rule:nonzero;stroke:none"
         d="m 1362.94,1592.26 c -88.41,36.66 -235.71,-19.78 -168.41,-142.05 85.7,-155.7 361.8,-314.62 361.8,-314.62 l 239.28,-323.488 c 16.47,0.847 26.65,6.886 32.99,16.07 l -127.4,402.418 c 0,0 -227.36,315.67 -338.26,361.67" /><path
         id="path420"
         style="fill:#3d5065;fill-opacity:1;fill-rule:nonzero;stroke:none"
         d="m 1956.45,649.988 -20.82,-87.25 -62.55,-12.828 -73.53,109.52 c -6.76,10.082 -6.17,23.39 1.46,32.84 l 79.56,98.48 c 9.3,11.531 27.68,8.121 32.24,-5.969 l 43.64,-134.793" /><path
         id="path422"
         style="fill:#f6a323;fill-opacity:1;fill-rule:nonzero;stroke:none"
         d="m 1794.85,939.762 49.68,-127.66 c 2.06,-7.883 64.93,-15.723 65.03,-35.5 0.04,-7.372 -73.17,-12.883 -90.28,-7.141 -7.72,2.59 -15.29,12.82 -19.69,19.48 -18.39,27.75 -80.06,117.481 -80.06,117.481 l 75.32,33.34" /><path
         id="path424"
         style="fill:#bc4a2e;fill-opacity:1;fill-rule:nonzero;stroke:none"
         d="m 1854.43,765.32 -29.41,-14.429 -443.51,903.489 29.42,14.43 443.5,-903.49" /><path
         id="path426"
         style="fill:#3d5065;fill-opacity:1;fill-rule:nonzero;stroke:none"
         d="m 1876.59,733.941 -40.3,-19.781 -43.26,88.141 40.29,19.781 43.27,-88.141" /><path
         id="path428"
         style="fill:#7d4987;fill-opacity:1;fill-rule:nonzero;stroke:none"
         d="m 1318.16,1528.21 c -14.79,107.65 -160.26,165.31 -263.92,132.73 -14.12,-4.44 -26.28,-10.27 -35.91,-16.49 -59.736,-38.61 0,-194.51 0,-194.51 l 158.27,-371.06 -37.98,-330.821 c 7.17,-4.09 41,-11.329 50.91,-7.887 0,0 118.29,254.129 127.64,358.708 6.4,71.79 18.34,303.01 0.99,429.33" /><path
         id="path430"
         style="fill:#f46976;fill-opacity:1;fill-rule:nonzero;stroke:none"
         d="m 1304.43,2113.25 c -44.05,-6.71 -149.46,-72.03 -219.17,-194.12 -133.158,-233.26 -102.44,-340.25 -102.44,-340.25 0,0 84.52,-113.24 247.72,-127.29 111.85,-9.63 184,44 217.22,133.2 10.89,29.23 22.77,65.09 35.33,108.95 34.01,118.86 60.94,204.85 51.71,266.86 -24.3,163.32 -180.79,160.21 -230.37,152.65" /><path
         id="path432"
         style="fill:#f57b87;fill-opacity:1;fill-rule:nonzero;stroke:none"
         d="m 1591.21,1301.54 -143.45,283.25 54.84,185.43 129.85,-448.8 -41.24,-19.88" /><path
         id="path434"
         style="fill:#f46a46;fill-opacity:1;fill-rule:nonzero;stroke:none"
         d="m 1556.26,1401.56 c 0.66,-3.55 -3.51,-5.92 -6.25,-3.57 -8.88,7.61 -22.39,17.91 -26.19,13.76 -4.13,-4.52 -0.13,-42.55 4.98,-57.42 1.15,-3.38 -9.87,-3.23 -12.9,-1.35 -12.05,7.48 -30.6,33.56 -36.91,46.79 -6.87,14.39 -1.61,55.03 -1.61,55.03 l 14,14.79 c 0,0 54.34,-43.36 58.54,-47.14 2.44,-2.2 4.81,-12.59 6.34,-20.89" /><path
         id="path436"
         style="fill:#f57b87;fill-opacity:1;fill-rule:nonzero;stroke:none"
         d="m 1386.8,1891.63 c 0,0 -21.41,-58.98 -76.49,-200.21 l 192.29,-221.83 c -5.84,-13.38 -19.03,-31.44 -31.96,-26.91 0,0 -309.16,157.48 -315.67,226.13 -5.02,52.97 41.18,425.33 172.06,378.79 121.78,-43.29 59.77,-155.97 59.77,-155.97" /><path
         id="path438"
         style="fill:#f46a46;fill-opacity:1;fill-rule:nonzero;stroke:none"
         d="m 1591.21,1301.54 3.54,-13.66 c 0,0 -15.28,-33.11 -8.97,-45.84 2.15,-4.31 5.05,-7.1 9.38,-5 0,0 7.95,22.73 12.46,24.23 3.58,1.19 21.25,-36.44 21.25,-36.44 0,0 22.33,24.51 6.5,55.34 l -12,21.71 -5.32,12.59 -26.84,-12.93" /><path
         id="path440"
         style="fill:#f6a323;fill-opacity:1;fill-rule:nonzero;stroke:none"
         d="M 1201.99,750.191 1163.7,630.172 c 1.86,-7.922 63.2,-20.582 62.89,-34.383 -0.16,-7.379 -76.87,-11.379 -93.83,-5.199 -8.49,3.09 -13.45,11.961 -12.07,20.89 l 15.46,146.602 65.84,-7.891" /><path
         id="path442"
         style="fill:#f46a46;fill-opacity:1;fill-rule:nonzero;stroke:none"
         d="m 1574.94,2170.7 -75.06,-125.75 c -8.63,-9.01 -74.61,-8.04 -112.17,26.22 0,0 91.73,89.5 164.16,143.52 l 23.07,-43.99" /><path
         id="path444"
         style="fill:#f2523e;fill-opacity:1;fill-rule:nonzero;stroke:none"
         d="m 1543.69,2118.34 c -2.58,13.75 -19.87,21.78 -25.2,16.21 -19.12,-26.86 -22.5,-56.03 -10.6,-76.19 l 35.8,59.98" /><path
         id="path446"
         style="fill:#f46a46;fill-opacity:1;fill-rule:nonzero;stroke:none"
         d="m 1665,2155.62 c 0,0 -93.5,-111.18 -111.26,-106.28 -20.02,5.5 -64.72,46.7 -28.33,98.49 42.62,60.67 50.79,111.94 71.64,93.79 20.85,-18.14 90.44,-60.2 67.95,-86" /><path
         id="path448"
         style="fill:#8f2b25;fill-opacity:1;fill-rule:nonzero;stroke:none"
         d="m 1607.02,2130.58 c -4.17,-2.96 -6.39,-7.02 -4.94,-9.05 1.45,-2.03 6,-1.29 10.17,1.67 4.17,2.96 6.38,7.01 4.94,9.05 -1.45,2.03 -6,1.29 -10.17,-1.67" /><path
         id="path450"
         style="fill:#8f2b25;fill-opacity:1;fill-rule:nonzero;stroke:none"
         d="m 1635.3,2133.33 c -3.84,2.8 -6.02,5.37 -8.24,7.89 l -6.88,8.58 c 4.58,1.8 9.53,-0.62 12.34,-3.96 2.75,-3.46 4.29,-7.89 2.78,-12.51" /><path
         id="path452"
         style="fill:#f03e2f;fill-opacity:1;fill-rule:nonzero;stroke:none"
         d="m 1627.74,2114.41 -16.63,-34.78 c -2.63,-4.44 -8.62,-5.92 -12.72,-2.77 -1.31,0.99 -2.5,2.08 -3.55,3.26 -2.43,2.74 -2.14,6.95 0.68,9.29 l 32.22,25" /><path
         id="path454"
         style="fill:#c3303a;fill-opacity:1;fill-rule:nonzero;stroke:none"
         d="m 1765.9,2193.64 c 0,0 -1.49,-2 -4.26,-5.1 -14.44,-16.11 -78.32,-74.65 -118.85,-4.9 -47.16,81.14 -80.35,6.54 -80.35,6.54 l -9.76,3.43 c -9.89,-14.15 -18.23,19.11 -22.81,41.2 -6.84,33.04 -38.01,59.97 -18.24,110.49 19.77,50.54 63.09,36.71 104.32,-9.12 41.23,-45.84 135.05,-52.04 156.28,-62.4 42.86,-20.93 -6.33,-80.14 -6.33,-80.14" /><path
         id="path456"
         style="fill:#c3303a;fill-opacity:1;fill-rule:nonzero;stroke:none"
         d="m 1516.97,2356.44 c 0,0 -72.46,-82.7 -145.55,-30.42 -57.89,41.39 -140.79,-1.51 -140.57,-61.31 0.11,-30.35 -7.77,-60.34 -30.71,-78.91 -35.39,-28.63 -42.28,-79.65 -12.43,-114.01 l 59.65,-68.67 c 38.11,-43.88 101.16,-54.88 152.65,-27.94 0.68,0.36 1.38,0.71 2.07,1.06 43.88,22.12 72.13,40.23 74.8,90.39 2.68,50.17 -22.98,72.59 66.83,106.44 44.86,16.91 -26.74,183.37 -26.74,183.37" /><path
         id="path458"
         style="fill:#f46a46;fill-opacity:1;fill-rule:nonzero;stroke:none"
         d="m 1534.18,2185.34 c -0.54,-23.3 -7.59,-38.36 3.28,-42.05 10.86,-3.7 25.74,11.19 33.24,33.25 7.5,22.05 4.78,42.93 -6.08,46.62 -10.86,3.7 -29.7,-5.32 -30.44,-37.82" /><path
         id="path460"
         style="fill:#3eb041;fill-opacity:1;fill-rule:nonzero;stroke:none"
         d="m 2253.48,792.738 c -16.76,-33.718 -69.29,-41.699 -69.29,-41.699 0,0 -25.34,46.691 -8.58,80.422 16.75,33.719 69.28,41.699 69.28,41.699 0,0 25.35,-46.691 8.59,-80.422" /><path
         id="path462"
         style="fill:#3eb041;fill-opacity:1;fill-rule:nonzero;stroke:none"
         d="m 2042.33,873.98 c 11.44,-22.511 -5.29,-53.96 -5.29,-53.96 0,0 -35.27,5.05 -46.7,27.57 -11.43,22.512 5.29,53.961 5.29,53.961 0,0 35.27,-5.051 46.7,-27.571" /><path
         id="path464"
         style="fill:#3eb041;fill-opacity:1;fill-rule:nonzero;stroke:none"
         d="m 928.762,1446.83 c -50.141,27.29 -90.051,69.68 -119.68,118.48 -66.602,109.71 -160.754,171.66 -239.648,146.61 -105.149,-33.37 -143.348,-208.58 -85.34,-391.33 58.015,-182.76 382.011,-491.051 422.761,-480.699 36.004,9.14 148.225,384.169 117.475,481.089 -18.52,58.32 -54.818,103.67 -95.568,125.85" /><path
         id="path466"
         style="fill:none;stroke:#367c3c;stroke-width:6.2390399;stroke-linecap:butt;stroke-linejoin:miter;stroke-miterlimit:10;stroke-dasharray:none;stroke-opacity:1"
         d="m 545.637,1701.33 c 0,0 278.418,-196.84 361.218,-861.439 l 16.028,-137.649" /><g
         id="g468"><g
           clip-path="url(#clipPath474)"
           id="g470"><path
             id="path476"
             style="fill:none;stroke:#367c3c;stroke-width:6.2390399;stroke-linecap:butt;stroke-linejoin:miter;stroke-miterlimit:10;stroke-dasharray:none;stroke-opacity:1"
             d="m 413.945,1541.57 c 0,0 230.684,-9.08 335.75,-123.28 0,0 4.524,137.05 54.348,225.61" /><path
             id="path478"
             style="fill:none;stroke:#367c3c;stroke-width:6.2390399;stroke-linecap:butt;stroke-linejoin:miter;stroke-miterlimit:10;stroke-dasharray:none;stroke-opacity:1"
             d="m 412.141,1478.88 c 0,0 188.797,7.15 361.863,-114.63 0,0 13.281,136.05 53.73,205.04" /><path
             id="path480"
             style="fill:none;stroke:#367c3c;stroke-width:6.2390399;stroke-linecap:butt;stroke-linejoin:miter;stroke-miterlimit:10;stroke-dasharray:none;stroke-opacity:1"
             d="m 457.488,1287.1 c 0,0 207.492,3.95 382.09,-109.71" /><path
             id="path482"
             style="fill:none;stroke:#367c3c;stroke-width:6.2390399;stroke-linecap:butt;stroke-linejoin:miter;stroke-miterlimit:10;stroke-dasharray:none;stroke-opacity:1"
             d="m 1079.59,1258.7 c 0,0 -94.668,-45.77 -205.969,-218.79" /><path
             id="path484"
             style="fill:none;stroke:#367c3c;stroke-width:6.2390399;stroke-linecap:butt;stroke-linejoin:miter;stroke-miterlimit:10;stroke-dasharray:none;stroke-opacity:1"
             d="m 663.965,996.73 c 0,0 157.043,-16.468 231.789,-77.769" /></g></g><path
         id="path486"
         style="fill:#35973f;fill-opacity:1;fill-rule:nonzero;stroke:none"
         d="m 2301.61,1126.56 c 27.73,145.89 4.96,272.75 -50.84,283.35 -49.59,9.43 -108.57,-76.17 -140.55,-197.75 -5.6,-21.33 -18.39,-40.49 -36.91,-52.46 -36.28,-23.44 -58.1,-81.4 -51.21,-146.36 8.6,-81.149 92.36,-167.629 92.36,-167.629 0,0 159.75,136.66 187.15,280.849" /><path
         id="path488"
         style="fill:none;stroke:#367c3c;stroke-width:6.2390399;stroke-linecap:butt;stroke-linejoin:miter;stroke-miterlimit:10;stroke-dasharray:none;stroke-opacity:1"
         d="m 2250.77,1409.91 c 0,0 -148.94,-446.328 -144.73,-734.301" /><g
         id="g490"><g
           clip-path="url(#clipPath496)"
           id="g492"><path
             id="path498"
             style="fill:none;stroke:#367c3c;stroke-width:6.2390399;stroke-linecap:butt;stroke-linejoin:miter;stroke-miterlimit:10;stroke-dasharray:none;stroke-opacity:1"
             d="m 2142.94,1392.19 c 0,0 45.46,-84.52 57.13,-149.52 0,0 118.73,100 168.66,107.18" /><path
             id="path500"
             style="fill:none;stroke:#367c3c;stroke-width:6.2390399;stroke-linecap:butt;stroke-linejoin:miter;stroke-miterlimit:10;stroke-dasharray:none;stroke-opacity:1"
             d="m 2348.57,1297.59 c 0,0 -130.97,-73.66 -163.07,-108.78" /><path
             id="path502"
             style="fill:none;stroke:#367c3c;stroke-width:6.2390399;stroke-linecap:butt;stroke-linejoin:miter;stroke-miterlimit:10;stroke-dasharray:none;stroke-opacity:1"
             d="m 2048.29,1200.3 c 0,0 97.66,-105.17 101.58,-159.71 0,0 132,89.5 200.42,100.75" /><path
             id="path504"
             style="fill:none;stroke:#367c3c;stroke-width:6.2390399;stroke-linecap:butt;stroke-linejoin:miter;stroke-miterlimit:10;stroke-dasharray:none;stroke-opacity:1"
             d="m 2012.83,1068.29 c 0,0 80.35,-61.58 117.4,-127.509" /></g></g><path
         id="path506"
         style="fill:none;stroke:#367c3c;stroke-width:6.2390399;stroke-linecap:butt;stroke-linejoin:miter;stroke-miterlimit:10;stroke-dasharray:none;stroke-opacity:1"
         d="m 2222.92,836.672 -64.09,-150.66" /><path
         id="path508"
         style="fill:none;stroke:#367c3c;stroke-width:6.2390399;stroke-linecap:butt;stroke-linejoin:miter;stroke-miterlimit:10;stroke-dasharray:none;stroke-opacity:1"
         d="m 2000.77,878.922 c 0,0 64.09,-88.141 92.5,-178.453" /><path
         id="path510"
         style="fill:#bc4a2e;fill-opacity:1;fill-rule:nonzero;stroke:none"
         d="m 2195.56,677.621 c 0,-15.832 -179.22,-15.832 -179.22,0 0,15.82 40.12,28.649 89.61,28.649 49.49,0 89.61,-12.829 89.61,-28.649" /><path
         id="path512"
         style="fill:#bc4a2e;fill-opacity:1;fill-rule:nonzero;stroke:none"
         d="m 1029.6,693.852 c 0,-15.832 -179.229,-15.832 -179.229,0 0,15.828 40.125,28.648 89.617,28.648 49.492,0 89.612,-12.82 89.612,-28.648" /><path
         id="path514"
         style="fill:#8fafbc;fill-opacity:1;fill-rule:nonzero;stroke:none"
         d="m 3851.04,345.34 c -4.32,-4.418 -8.03,-9.301 -11.09,-14.531 l -4.65,2.41 c -0.66,2.98 -3.48,5.031 -6.59,4.672 -3.3,-0.391 -5.67,-3.391 -5.28,-6.7 0.39,-3.312 3.39,-5.679 6.7,-5.293 0.65,0.082 1.27,0.262 1.83,0.532 l 4.51,-2.348 c -2.51,-5.543 -4.32,-11.383 -5.39,-17.441 l 7.46,-1.309 c 2.31,13.059 8.5,25.059 17.92,34.719 l -5.42,5.289" /><path
         id="path516"
         style="fill:#8fafbc;fill-opacity:1;fill-rule:nonzero;stroke:none"
         d="m 3905.92,368.371 c -1.71,0 -3.41,-0.07 -5.1,-0.18 l -0.73,6.258 c 1.87,1.5 2.96,3.903 2.65,6.449 -0.46,3.934 -4.02,6.754 -7.95,6.293 -3.93,-0.472 -6.74,-4.031 -6.28,-7.961 0.3,-2.539 1.89,-4.609 4.05,-5.64 l 0.73,-6.238 c -7.14,-1.161 -14.03,-3.321 -20.59,-6.461 l 3.27,-6.84 c 9.33,4.48 19.41,6.73 29.95,6.73 4.96,0 9.93,-0.531 14.74,-1.57 l 1.62,7.41 c -5.36,1.149 -10.86,1.75 -16.36,1.75" /><path
         id="path518"
         style="fill:#8fafbc;fill-opacity:1;fill-rule:nonzero;stroke:none"
         d="m 3971.94,342.891 c 3.31,0.41 5.67,3.418 5.26,6.73 -0.4,3.309 -3.42,5.649 -6.72,5.25 -3.1,-0.379 -5.36,-3.031 -5.3,-6.082 l -4.16,-3.629 c -4.18,4.289 -8.9,8.121 -14.09,11.379 l -4.03,-6.398 c 11.34,-7.149 20.21,-17.27 25.64,-29.262 l 6.9,3.121 c -2.51,5.551 -5.67,10.73 -9.42,15.449 l 4.02,3.52 c 0.6,-0.129 1.25,-0.16 1.9,-0.078" /><path
         id="path520"
         style="fill:#8fafbc;fill-opacity:1;fill-rule:nonzero;stroke:none"
         d="m 3900.44,266.281 c -3.86,-0.242 -7.74,-0.34 -11.57,-0.34 -8.8,0 -17.33,0.598 -24.79,1.778 -3.89,0.633 -8.45,1.562 -12.69,2.922 10.46,-18.602 30.69,-31.25 53.87,-31.25 28.56,0 52.63,19.16 59.51,45.039 -6.82,-4.489 -15.06,-8.25 -24.59,-11.231 -11.79,-3.668 -25.54,-6.058 -39.74,-6.918" /><path
         id="path522"
         style="fill:#8fafbc;fill-opacity:1;fill-rule:nonzero;stroke:none"
         d="m 3931.7,297.141 c -7.5,0 -13.6,6.101 -13.6,13.601 0,7.5 6.1,13.61 13.6,13.61 7.5,0 13.6,-6.11 13.6,-13.61 0,-7.5 -6.1,-13.601 -13.6,-13.601 z m -47.37,-9.082 c -10.21,0 -18.5,8.3 -18.5,18.492 0,10.211 8.29,18.5 18.5,18.5 10.19,0 18.49,-8.289 18.49,-18.5 0,-10.192 -8.3,-18.492 -18.49,-18.492 z m 21.59,65.14 c -33.53,0 -60.8,-26.66 -60.8,-59.429 0,-4.258 0.47,-8.489 1.37,-12.622 6.74,-4.816 27.05,-8.886 53.48,-7.296 28.79,1.73 52.97,9.57 66.72,21.578 -0.06,1.949 -0.21,3.91 -0.45,5.82 -3.81,29.621 -29.74,51.949 -60.32,51.949" /><path
         id="path524"
         style="fill:#8fafbc;fill-opacity:1;fill-rule:nonzero;stroke:none"
         d="m 4065.95,334.531 c -2.94,1.16 -8.05,3.09 -13.82,2.367 -5.51,-0.679 -8.44,-3.386 -8.44,-10.058 v -8.66 h 22.28 v -17.168 h -22.28 v -54.551 h -19.31 v 54.551 h -13.4 v 17.168 h 13.4 v 8.879 c 0,16.812 8.95,27.832 25.68,27.832 6.42,0 11.57,-1.219 15.9,-3.082 l -0.01,-17.278" /><path
         id="path526"
         style="fill:#8fafbc;fill-opacity:1;fill-rule:nonzero;stroke:none"
         d="m 4112.98,301.211 c -1.77,0.301 -3.58,0.469 -5.27,0.469 -8.95,0 -15.09,-5.481 -15.09,-16.141 v -39.078 h -19.32 v 71.719 h 18.72 v -7.848 c 4.52,6.738 11.41,9.777 20.22,9.777 4.14,0 8.47,-1.277 10.93,-3.367 l -10.19,-15.531" /><path
         id="path528"
         style="fill:#8fafbc;fill-opacity:1;fill-rule:nonzero;stroke:none"
         d="m 4138.51,289.09 h 31.74 c -1.76,9.18 -7.32,14.359 -15.61,14.359 -9.1,0 -14.43,-5.469 -16.13,-14.359 z m 51.14,-6.66 c 0,-2.219 -0.15,-4.879 -0.37,-6.508 h -50.84 c 2.07,-10.363 9.32,-14.883 18.43,-14.883 6.21,0 12.94,2.512 18.12,6.883 l 11.33,-12.43 c -8.15,-7.472 -18.51,-10.883 -30.57,-10.883 -21.98,0 -37.22,14.95 -37.22,37.532 0,22.57 14.8,37.968 36.26,37.968 20.65,0 34.79,-15.32 34.86,-37.679" /><path
         id="path530"
         style="fill:#8fafbc;fill-opacity:1;fill-rule:nonzero;stroke:none"
         d="m 4215.04,289.09 h 31.76 c -1.78,9.18 -7.34,14.359 -15.63,14.359 -9.1,0 -14.43,-5.469 -16.13,-14.359 z m 51.14,-6.66 c 0,-2.219 -0.14,-4.879 -0.37,-6.508 h -50.85 c 2.08,-10.363 9.33,-14.883 18.44,-14.883 6.21,0 12.95,2.512 18.13,6.883 l 11.32,-12.43 c -8.14,-7.472 -18.5,-10.883 -30.56,-10.883 -21.99,0 -37.23,14.95 -37.23,37.532 0,22.57 14.8,37.968 36.26,37.968 20.65,0 34.79,-15.32 34.86,-37.679" /><path
         id="path532"
         style="fill:#8fafbc;fill-opacity:1;fill-rule:nonzero;stroke:none"
         d="m 4292.87,282.352 c 0,-11.313 7.47,-19.75 18.43,-19.75 11.4,0 18.5,8.808 18.5,19.75 0,10.957 -7.1,19.769 -18.5,19.769 -10.96,0 -18.43,-8.441 -18.43,-19.769 z m 56.77,0 c 0,-21.532 -14.95,-37.743 -34.71,-37.743 -9.63,0 -16.43,3.782 -21.09,9.332 v -37.082 h -19.25 V 318.18 h 18.88 v -7.918 c 4.66,5.84 11.54,9.847 21.38,9.847 19.84,0 34.79,-16.207 34.79,-37.757" /><path
         id="path534"
         style="fill:#8fafbc;fill-opacity:1;fill-rule:nonzero;stroke:none"
         d="m 4378.09,246.461 h -19.32 v 71.719 h 19.32 z m 2.58,95.18 c 0,-6.95 -5.4,-12.282 -12.36,-12.282 -6.95,0 -12.28,5.332 -12.28,12.282 0,6.961 5.33,12.429 12.28,12.429 6.96,0 12.36,-5.468 12.36,-12.429" /><path
         id="path536"
         style="fill:#8fafbc;fill-opacity:1;fill-rule:nonzero;stroke:none"
         d="m 4410.32,292.652 27.01,25.528 h 23.7 l -34.8,-33.75 35.01,-37.969 h -23.76 l -27.16,29.019 v -29.019 h -19.31 v 106.578 h 19.31 v -60.387" /><path
         id="path538"
         style="fill:#8fafbc;fill-opacity:1;fill-rule:nonzero;stroke:none"
         d="m 3094.12,266.301 v 32.078 c -3.95,6.152 -12.44,11.422 -21.24,11.422 -14.2,0 -22.7,-11.711 -22.7,-27.391 0,-15.668 8.5,-27.238 22.7,-27.238 8.8,0 17.29,4.98 21.24,11.129 z m 0,-19.192 v 10.551 c -5.27,-7.18 -13.91,-12.308 -23.88,-12.308 -18.45,0 -31.48,14.058 -31.48,37.058 0,22.559 12.89,37.211 31.48,37.211 9.54,0 18.17,-4.691 23.88,-12.449 v 37.637 h 11 v -97.7 h -11" /><path
         id="path540"
         style="fill:#8fafbc;fill-opacity:1;fill-rule:nonzero;stroke:none"
         d="m 3154.03,310.539 c -15.08,0 -22.56,-12.75 -23.14,-23.59 h 46.43 c -0.14,10.551 -7.17,23.59 -23.29,23.59 z m -34.71,-27.98 c 0,20.511 14.64,37.062 34.86,37.062 21.39,0 33.98,-16.699 33.98,-37.941 v -2.778 h -57.27 c 0.88,-13.332 10.25,-24.472 25.49,-24.472 8.05,0 16.26,3.23 21.82,8.941 l 5.28,-7.18 c -7.03,-7.031 -16.56,-10.839 -28.13,-10.839 -20.95,0 -36.03,15.089 -36.03,37.207" /><path
         id="path542"
         style="fill:#8fafbc;fill-opacity:1;fill-rule:nonzero;stroke:none"
         d="m 3196.07,256.48 5.72,7.911 c 4.68,-5.422 13.62,-10.102 23.28,-10.102 10.84,0 16.71,5.121 16.71,12.16 0,17.133 -43.8,6.59 -43.8,32.813 0,10.976 9.51,20.359 26.36,20.359 12.01,0 20.51,-4.539 26.22,-10.25 l -5.13,-7.621 c -4.24,5.121 -12.01,8.93 -21.09,8.93 -9.67,0 -15.68,-4.828 -15.68,-11.129 0,-15.531 43.8,-5.27 43.8,-32.809 0,-11.871 -9.52,-21.39 -27.83,-21.39 -11.56,0 -21.39,3.519 -28.56,11.128" /><path
         id="path544"
         style="fill:#8fafbc;fill-opacity:1;fill-rule:nonzero;stroke:none"
         d="m 3266.67,247.109 v 70.75 h 10.99 v -70.75 z m -1.9,88.18 c 0,4.102 3.36,7.473 7.32,7.473 4.1,0 7.47,-3.371 7.47,-7.473 0,-4.098 -3.37,-7.32 -7.47,-7.32 -3.96,0 -7.32,3.222 -7.32,7.32" /><path
         id="path546"
         style="fill:#8fafbc;fill-opacity:1;fill-rule:nonzero;stroke:none"
         d="m 3347.09,267.469 v 30.91 c -3.81,6.152 -12.3,11.422 -21.09,11.422 -14.21,0 -22.71,-11.27 -22.71,-26.949 0,-15.532 8.5,-26.954 22.71,-26.954 8.79,0 17.28,5.422 21.09,11.571 z m -51.27,-38.52 5.57,8.199 c 5.86,-7.027 12.89,-9.668 22.99,-9.668 11.72,0 22.71,5.711 22.71,21.239 v 10.113 c -5.13,-7.184 -13.77,-12.602 -23.73,-12.602 -18.46,0 -31.49,13.77 -31.49,36.622 0,22.707 12.89,36.769 31.49,36.769 9.52,0 18.02,-4.691 23.73,-12.449 v 10.687 h 10.99 V 249.16 c 0,-23.441 -16.41,-30.762 -33.7,-30.762 -12.01,0 -20.21,2.344 -28.56,10.551" /><path
         id="path548"
         style="fill:#8fafbc;fill-opacity:1;fill-rule:nonzero;stroke:none"
         d="m 3424.13,247.109 v 46.289 c 0,12.454 -6.3,16.403 -15.82,16.403 -8.64,0 -16.85,-5.27 -20.95,-10.981 v -51.711 h -10.98 v 70.75 h 10.98 v -10.25 c 4.98,5.86 14.65,12.012 25.2,12.012 14.79,0 22.56,-7.473 22.56,-22.851 v -49.661 h -10.99" /><path
         id="path550"
         style="fill:#8fafbc;fill-opacity:1;fill-rule:nonzero;stroke:none"
         d="m 3484.04,310.539 c -15.08,0 -22.56,-12.75 -23.14,-23.59 h 46.43 c -0.14,10.551 -7.17,23.59 -23.29,23.59 z m -34.71,-27.98 c 0,20.511 14.64,37.062 34.86,37.062 21.39,0 33.98,-16.699 33.98,-37.941 v -2.778 h -57.27 c 0.88,-13.332 10.25,-24.472 25.49,-24.472 8.05,0 16.26,3.23 21.82,8.941 l 5.28,-7.18 c -7.03,-7.031 -16.56,-10.839 -28.13,-10.839 -20.95,0 -36.03,15.089 -36.03,37.207" /><path
         id="path552"
         style="fill:#8fafbc;fill-opacity:1;fill-rule:nonzero;stroke:none"
         d="m 3583.5,266.301 v 32.078 c -3.96,6.152 -12.46,11.422 -21.24,11.422 -14.21,0 -22.7,-11.711 -22.7,-27.391 0,-15.668 8.49,-27.238 22.7,-27.238 8.78,0 17.28,4.98 21.24,11.129 z m 0,-19.192 v 10.551 c -5.28,-7.18 -13.92,-12.308 -23.88,-12.308 -18.46,0 -31.49,14.058 -31.49,37.058 0,22.559 12.89,37.211 31.49,37.211 9.52,0 18.17,-4.691 23.88,-12.449 v 37.637 h 10.98 v -97.7 h -10.98" /><path
         id="path554"
         style="fill:#8fafbc;fill-opacity:1;fill-rule:nonzero;stroke:none"
         d="m 3678.99,255.172 c 14.37,0 22.87,11.57 22.87,27.238 0,15.68 -8.5,27.391 -22.87,27.391 -8.63,0 -17.27,-5.27 -21.09,-11.422 v -32.078 c 3.82,-6.149 12.46,-11.129 21.09,-11.129 z m -32.07,-8.063 v 97.7 h 10.98 v -37.637 c 5.72,7.758 14.21,12.449 23.89,12.449 18.44,0 31.48,-14.652 31.48,-37.211 0,-23 -13.04,-37.058 -31.48,-37.058 -9.96,0 -18.61,5.128 -23.89,12.308 v -10.551 h -10.98" /><path
         id="path556"
         style="fill:#8fafbc;fill-opacity:1;fill-rule:nonzero;stroke:none"
         d="m 3725.28,229.379 c 1.61,-0.731 4.25,-1.168 6.01,-1.168 4.83,0 8.06,1.609 10.55,7.469 l 4.68,10.699 -29.59,71.48 h 11.87 l 23.58,-58.007 23.44,58.007 h 12.01 l -35.45,-85.109 c -4.25,-10.25 -11.42,-14.211 -20.8,-14.352 -2.34,0 -6,0.442 -8.05,1.024 l 1.75,9.957" /></g></g></svg>