<?xml version="1.0" encoding="utf-8"?>
<!-- Generator: Adobe Illustrator 22.0.1, SVG Export Plug-In . SVG Version: 6.00 Build 0)  -->
<svg version="1.1" id="Слой_1" xmlns="http://www.w3.org/2000/svg" xmlns:xlink="http://www.w3.org/1999/xlink" x="0px" y="0px"
	 viewBox="0 0 492.9 488.9" style="enable-background:new 0 0 492.9 488.9;" xml:space="preserve">
<style type="text/css">
	.st0{fill:#FF1D25;}
	.st1{fill:#FFFFFF;}
</style>
<g>
	<circle class="st0" cx="237.2" cy="245.3" r="223.5"/>
</g>
<g>
	<path class="st1" d="M175.8,210.4l1.4,0.4c3.9-3.9,7.1-6.9,9.6-8.8c2.5-2,4.9-3.6,7.3-4.8s4.5-2.1,6.6-2.6s4.2-0.8,6.3-0.8
		c6.5,0,11.8,1.5,15.9,4.5s6.9,7.6,8.5,13.8c4.9-4.9,8.8-8.6,11.9-10.9s6.1-4.2,9.3-5.4c3.2-1.3,6.6-1.9,10.2-1.9
		c4.4,0,8.1,0.6,11.3,1.9c3.2,1.3,5.8,3.2,8,5.9c2.2,2.6,3.8,5.9,4.8,9.9c1,4,1.5,9.3,1.5,16v36.8c0,4.9,0.2,8.4,0.5,10.3
		c0.3,1.9,0.8,3.4,1.4,4.4c0.6,1,1.5,1.9,2.8,2.7c1.2,0.7,3.3,1.5,6.3,2.3v4.8h-38.4v-4.8c2.5-0.8,4.4-1.5,5.5-2.1
		c1.1-0.6,2-1.4,2.8-2.4c0.7-1,1.3-2.7,1.8-4.8c0.4-2.2,0.6-5.5,0.6-9.9v-25.6c0-5.5-0.1-10.1-0.4-13.7s-0.7-6.5-1.4-8.6
		c-0.6-2.1-1.4-3.8-2.2-5.1s-1.9-2.3-3-3.2c-1.1-0.9-2.4-1.6-3.9-2.1c-1.5-0.5-3.5-0.8-6-0.8c-2.6,0-5,0.5-7.3,1.6s-4.7,2.8-7.3,5.3
		s-4.5,5-5.7,7.5s-1.8,5.5-1.8,8.8v35.6c0,4.9,0.2,8.4,0.5,10.3c0.3,1.9,0.8,3.4,1.4,4.4c0.6,1,1.5,1.9,2.8,2.7
		c1.2,0.7,3.3,1.5,6.3,2.3v4.8h-38.4v-4.8c2.5-0.8,4.4-1.5,5.5-2.1c1.1-0.6,2-1.4,2.8-2.4c0.7-1,1.3-2.7,1.8-4.8
		c0.4-2.2,0.6-5.5,0.6-9.9v-25.6c0-5.8-0.2-10.5-0.5-14.2c-0.3-3.6-0.8-6.6-1.5-8.8s-1.6-4-2.6-5.4s-2.2-2.4-3.3-3.1
		c-1.1-0.7-2.4-1.3-3.9-1.6c-1.5-0.4-3.2-0.5-5.1-0.5c-2.7,0-5.2,0.6-7.5,1.8s-4.7,2.9-7.2,5.2s-4.3,4.7-5.5,7.1
		c-1.2,2.5-1.9,5.1-1.9,8v36.6c0,3.7,0.1,6.5,0.3,8.5s0.5,3.5,0.9,4.6c0.4,1.1,1,2,1.6,2.7c0.6,0.7,1.6,1.3,2.8,2
		c1.2,0.6,3,1.3,5.4,1.9v4.8h-38.3v-4.8c2.5-0.8,4.2-1.5,5.3-2.1s2-1.4,2.8-2.4s1.4-2.6,1.8-4.8s0.6-5.5,0.6-10.1V222
		c0-4.2-0.1-7.5-0.2-10.1c-0.1-2.5-0.6-4.6-1.4-6.1s-2-2.7-3.6-3.4c-1.6-0.7-3.9-1.4-6.8-1.9v-5.2l22.9-0.9h6L175.8,210.4z"/>
</g>
<g>
	<path class="st1" d="M354,276.6h-4.7c-0.7-2-1.6-3.5-2.5-4.6s-2.1-1.9-3.3-2.4c-1.2-0.5-2.8-0.7-4.5-0.7c-2.6,0-4.7,0.6-6.2,1.8
		c-1.5,1.2-2.3,2.9-2.3,5c0,1.5,0.3,2.7,0.9,3.7c0.6,1,1.6,1.9,2.9,2.7c1.3,0.8,3.6,2,6.9,3.4c3.3,1.4,5.9,2.8,7.7,4
		c1.8,1.2,3.2,2.6,4.2,4.2c1,1.6,1.5,3.5,1.5,5.7c0,2.6-0.4,4.7-1.3,6.5s-2.1,3.2-3.7,4.3c-1.6,1.1-3.5,1.9-5.7,2.4
		s-4.6,0.7-7.2,0.7c-2.7,0-5.4-0.2-8-0.6c-2.6-0.4-5.1-0.9-7.5-1.6V301h4.8c0.9,3,2.2,5.2,3.9,6.5c1.7,1.4,4.1,2,7.1,2
		c1.2,0,2.3-0.1,3.4-0.4s2.1-0.7,3-1.2c0.9-0.6,1.6-1.3,2.1-2.3c0.5-1,0.8-2.2,0.8-3.7c0-1.7-0.3-3-1-4.1c-0.7-1-1.7-2-3-2.9
		c-1.4-0.9-3.8-2-7.2-3.5c-3-1.2-5.3-2.4-7.1-3.6c-1.8-1.2-3.2-2.6-4.2-4.2c-1-1.6-1.5-3.5-1.5-5.7c0-2.7,0.7-5,2.2-7
		c1.4-2,3.5-3.5,6.3-4.5c2.7-1,5.9-1.6,9.6-1.6c2.1,0,4.2,0.1,6.2,0.3c2,0.2,4.5,0.6,7.5,1.2V276.6z"/>
</g>
<g>
</g>
<g>
</g>
<g>
</g>
<g>
</g>
<g>
</g>
<g>
</g>
<g>
</g>
<g>
</g>
<g>
</g>
<g>
</g>
<g>
</g>
<g>
</g>
<g>
</g>
<g>
</g>
<g>
</g>
</svg>
